<?xml version="1.0" encoding="UTF-8"?>
<!DOCTYPE svg PUBLIC "-//W3C//DTD SVG 1.1//EN"
    "http://www.w3.org/Graphics/SVG/1.1/DTD/svg11.dtd"><svg xmlns="http://www.w3.org/2000/svg" height="202.0726" stroke-opacity="1" viewBox="0 0 700 202" font-size="1" width="700.0000" xmlns:xlink="http://www.w3.org/1999/xlink" stroke="rgb(0,0,0)" version="1.1"><defs></defs><g stroke-linejoin="miter" stroke-opacity="1.0" fill-opacity="0.0" stroke="rgb(0,0,0)" stroke-width="1.504397904552959" fill="rgb(0,0,0)" stroke-linecap="butt" stroke-miterlimit="10.0"><path d="M 0.0000,202.0726 h 5.7613 l 2.8807,-4.9894 l 2.8807,4.9894 h 5.7613 l 2.8807,-4.9894 l -2.8807,-4.9894 h 5.7613 l 2.8807,-4.9894 l 2.8807,4.9894 h 5.7613 l -2.8807,4.9894 l 2.8807,4.9894 h 5.7613 l 2.8807,-4.9894 l 2.8807,4.9894 h 5.7613 l 2.8807,-4.9894 l -2.8807,-4.9894 l 5.7613,0.0000 l 2.8807,-4.9894 l -2.8807,-4.9894 l -5.7613,-0.0000 l 2.8807,-4.9894 l -2.8807,-4.9894 l 5.7613,0.0000 l 2.8807,-4.9894 l 2.8807,4.9894 l 5.7613,0.0000 l 2.8807,-4.9894 l -2.8807,-4.9894 l 5.7613,0.0000 l 2.8807,-4.9894 l 2.8807,4.9894 l 5.7613,-0.0000 l -2.8807,4.9894 l 2.8807,4.9894 l 5.7613,-0.0000 l 2.8807,-4.9894 l 2.8807,4.9894 l 5.7613,-0.0000 l -2.8807,4.9894 l 2.8807,4.9894 l -5.7613,0.0000 l -2.8807,4.9894 l 2.8807,4.9894 l 5.7613,-0.0000 l -2.8807,4.9894 l 2.8807,4.9894 h 5.7613 l 2.8807,-4.9894 l 2.8807,4.9894 h 5.7613 l 2.8807,-4.9894 l -2.8807,-4.9894 h 5.7613 l 2.8807,-4.9894 l 2.8807,4.9894 h 5.7613 l -2.8807,4.9894 l 2.8807,4.9894 h 5.7613 l 2.8807,-4.9894 l 2.8807,4.9894 h 5.7613 l 2.8807,-4.9894 l -2.8807,-4.9894 l 5.7613,0.0000 l 2.8807,-4.9894 l -2.8807,-4.9894 l -5.7613,-0.0000 l 2.8807,-4.9894 l -2.8807,-4.9894 l 5.7613,0.0000 l 2.8807,-4.9894 l 2.8807,4.9894 l 5.7613,0.0000 l 2.8807,-4.9894 l -2.8807,-4.9894 l 5.7613,0.0000 l 2.8807,-4.9894 l -2.8807,-4.9894 l -5.7613,-0.0000 l 2.8807,-4.9894 l -2.8807,-4.9894 l -5.7613,-0.0000 l -2.8807,4.9894 l -2.8807,-4.9894 l -5.7613,-0.0000 l 2.8807,-4.9894 l -2.8807,-4.9894 l 5.7613,0.0000 l 2.8807,-4.9894 l -2.8807,-4.9894 l -5.7613,-0.0000 l 2.8807,-4.9894 l -2.8807,-4.9894 h 5.7613 l 2.8807,-4.9894 l 2.8807,4.9894 h 5.7613 l 2.8807,-4.9894 l -2.8807,-4.9894 h 5.7613 l 2.8807,-4.9894 l 2.8807,4.9894 h 5.7613 l -2.8807,4.9894 l 2.8807,4.9894 h 5.7613 l 2.8807,-4.9894 l 2.8807,4.9894 h 5.7613 l 2.8807,-4.9894 l -2.8807,-4.9894 l 5.7613,0.0000 l 2.8807,-4.9894 l -2.8807,-4.9894 l -5.7613,-0.0000 l 2.8807,-4.9894 l -2.8807,-4.9894 l 5.7613,0.0000 l 2.8807,-4.9894 l 2.8807,4.9894 l 5.7613,0.0000 l 2.8807,-4.9894 l -2.8807,-4.9894 l 5.7613,0.0000 l 2.8807,-4.9894 l 2.8807,4.9894 l 5.7613,-0.0000 l -2.8807,4.9894 l 2.8807,4.9894 l 5.7613,-0.0000 l 2.8807,-4.9894 l 2.8807,4.9894 l 5.7613,-0.0000 l -2.8807,4.9894 l 2.8807,4.9894 l -5.7613,0.0000 l -2.8807,4.9894 l 2.8807,4.9894 l 5.7613,-0.0000 l -2.8807,4.9894 l 2.8807,4.9894 h 5.7613 l 2.8807,-4.9894 l 2.8807,4.9894 h 5.7613 l 2.8807,-4.9894 l -2.8807,-4.9894 h 5.7613 l 2.8807,-4.9894 l 2.8807,4.9894 h 5.7613 l -2.8807,4.9894 l 2.8807,4.9894 h 5.7613 l 2.8807,-4.9894 l 2.8807,4.9894 h 5.7613 l -2.8807,4.9894 l 2.8807,4.9894 l -5.7613,0.0000 l -2.8807,4.9894 l 2.8807,4.9894 l 5.7613,-0.0000 l -2.8807,4.9894 l 2.8807,4.9894 l -5.7613,0.0000 l -2.8807,4.9894 l -2.8807,-4.9894 l -5.7613,0.0000 l -2.8807,4.9894 l 2.8807,4.9894 l -5.7613,0.0000 l -2.8807,4.9894 l 2.8807,4.9894 l 5.7613,-0.0000 l -2.8807,4.9894 l 2.8807,4.9894 l 5.7613,-0.0000 l 2.8807,-4.9894 l 2.8807,4.9894 l 5.7613,-0.0000 l -2.8807,4.9894 l 2.8807,4.9894 l -5.7613,0.0000 l -2.8807,4.9894 l 2.8807,4.9894 l 5.7613,-0.0000 l -2.8807,4.9894 l 2.8807,4.9894 h 5.7613 l 2.8807,-4.9894 l 2.8807,4.9894 h 5.7613 l 2.8807,-4.9894 l -2.8807,-4.9894 h 5.7613 l 2.8807,-4.9894 l 2.8807,4.9894 h 5.7613 l -2.8807,4.9894 l 2.8807,4.9894 h 5.7613 l 2.8807,-4.9894 l 2.8807,4.9894 h 5.7613 l 2.8807,-4.9894 l -2.8807,-4.9894 l 5.7613,0.0000 l 2.8807,-4.9894 l -2.8807,-4.9894 l -5.7613,-0.0000 l 2.8807,-4.9894 l -2.8807,-4.9894 l 5.7613,0.0000 l 2.8807,-4.9894 l 2.8807,4.9894 l 5.7613,0.0000 l 2.8807,-4.9894 l -2.8807,-4.9894 l 5.7613,0.0000 l 2.8807,-4.9894 l 2.8807,4.9894 l 5.7613,-0.0000 l -2.8807,4.9894 l 2.8807,4.9894 l 5.7613,-0.0000 l 2.8807,-4.9894 l 2.8807,4.9894 l 5.7613,-0.0000 l -2.8807,4.9894 l 2.8807,4.9894 l -5.7613,0.0000 l -2.8807,4.9894 l 2.8807,4.9894 l 5.7613,-0.0000 l -2.8807,4.9894 l 2.8807,4.9894 h 5.7613 l 2.8807,-4.9894 l 2.8807,4.9894 h 5.7613 l 2.8807,-4.9894 l -2.8807,-4.9894 h 5.7613 l 2.8807,-4.9894 l 2.8807,4.9894 h 5.7613 l -2.8807,4.9894 l 2.8807,4.9894 h 5.7613 l 2.8807,-4.9894 l 2.8807,4.9894 h 5.7613 "/></g></svg>