<?xml version="1.0" encoding="UTF-8"?>
<!DOCTYPE svg PUBLIC "-//W3C//DTD SVG 1.1//EN"
    "http://www.w3.org/Graphics/SVG/1.1/DTD/svg11.dtd"><svg xmlns="http://www.w3.org/2000/svg" height="574.6988" stroke-opacity="1" viewBox="0 0 600 575" font-size="1" width="600.0000" xmlns:xlink="http://www.w3.org/1999/xlink" stroke="rgb(0,0,0)" version="1.1"><defs></defs><g stroke-linejoin="miter" stroke-opacity="1.0" fill-opacity="0.0" opacity="0.2" stroke="rgb(0,0,0)" stroke-width="0.5" fill="rgb(0,0,0)" stroke-linecap="butt" stroke-miterlimit="10.0"><path d="M 77.7108,424.6988 l -0.0000,-18.0723 l -18.0723,0.0000 l -18.0723,0.0000 l 0.0000,18.0723 l -18.0723,0.0000 l 0.0000,18.0723 l 0.0000,18.0723 h 18.0723 l -18.0723,0.0000 l 0.0000,18.0723 l 0.0000,18.0723 h 18.0723 l 0.0000,18.0723 h 18.0723 h 18.0723 l 0.0000,-18.0723 l -18.0723,0.0000 l 0.0000,18.0723 l 0.0000,18.0723 h 18.0723 l 0.0000,18.0723 h 18.0723 h 18.0723 l 0.0000,-18.0723 l 0.0000,18.0723 h 18.0723 h 18.0723 l 0.0000,-18.0723 h 18.0723 l 0.0000,-18.0723 l 0.0000,-18.0723 l -18.0723,-0.0000 l -18.0723,0.0000 l 0.0000,18.0723 l 0.0000,18.0723 h 18.0723 l 0.0000,18.0723 h 18.0723 h 18.0723 l 0.0000,-18.0723 l 0.0000,18.0723 h 18.0723 h 18.0723 l 0.0000,-18.0723 h 18.0723 l 0.0000,-18.0723 l 0.0000,-18.0723 l -18.0723,-0.0000 l 0.0000,18.0723 h 18.0723 h 18.0723 l 0.0000,-18.0723 h 18.0723 l 0.0000,-18.0723 l 0.0000,-18.0723 l -18.0723,-0.0000 h 18.0723 l 0.0000,-18.0723 l 0.0000,-18.0723 l -18.0723,-0.0000 l 0.0000,-18.0723 l -18.0723,-0.0000 l -18.0723,-0.0000 l -0.0000,18.0723 "/></g><g stroke-linejoin="miter" stroke-opacity="1.0" fill-opacity="0.0" stroke="rgb(0,0,0)" stroke-width="0.5" fill="rgb(0,0,0)" stroke-linecap="butt" stroke-miterlimit="10.0"><path d="M 77.7108,424.6988 l 9.0361,-0.0000 l -0.0000,-9.0361 l -0.0000,-9.0361 l -9.0361,0.0000 l -0.0000,-9.0361 l -9.0361,0.0000 l -9.0361,0.0000 l 0.0000,9.0361 l -0.0000,-9.0361 l -9.0361,0.0000 l -9.0361,0.0000 l 0.0000,9.0361 l -9.0361,0.0000 l 0.0000,9.0361 l 0.0000,9.0361 h 9.0361 l -0.0000,-9.0361 l -9.0361,0.0000 l -9.0361,0.0000 l 0.0000,9.0361 l -9.0361,0.0000 l 0.0000,9.0361 l 0.0000,9.0361 h 9.0361 l -9.0361,0.0000 l 0.0000,9.0361 l 0.0000,9.0361 h 9.0361 l 0.0000,9.0361 h 9.0361 h 9.0361 l 0.0000,-9.0361 l -0.0000,-9.0361 l -9.0361,0.0000 l -9.0361,0.0000 l 0.0000,9.0361 l -9.0361,0.0000 l 0.0000,9.0361 l 0.0000,9.0361 h 9.0361 l -9.0361,0.0000 l 0.0000,9.0361 l 0.0000,9.0361 h 9.0361 l 0.0000,9.0361 h 9.0361 h 9.0361 l 0.0000,-9.0361 l -9.0361,0.0000 l 0.0000,9.0361 l 0.0000,9.0361 h 9.0361 l 0.0000,9.0361 h 9.0361 h 9.0361 l 0.0000,-9.0361 l 0.0000,9.0361 h 9.0361 h 9.0361 l 0.0000,-9.0361 h 9.0361 l 0.0000,-9.0361 l 0.0000,-9.0361 l -9.0361,-0.0000 l -0.0000,-9.0361 l -9.0361,0.0000 l -9.0361,0.0000 l 0.0000,9.0361 l -9.0361,0.0000 l 0.0000,9.0361 l 0.0000,9.0361 h 9.0361 l -9.0361,0.0000 l 0.0000,9.0361 l 0.0000,9.0361 h 9.0361 l 0.0000,9.0361 h 9.0361 h 9.0361 l 0.0000,-9.0361 l -9.0361,0.0000 l 0.0000,9.0361 l 0.0000,9.0361 h 9.0361 l 0.0000,9.0361 h 9.0361 h 9.0361 l 0.0000,-9.0361 l 0.0000,9.0361 h 9.0361 h 9.0361 l 0.0000,-9.0361 h 9.0361 l 0.0000,-9.0361 l 0.0000,-9.0361 l -9.0361,-0.0000 l -9.0361,0.0000 l 0.0000,9.0361 l 0.0000,9.0361 h 9.0361 l 0.0000,9.0361 h 9.0361 h 9.0361 l 0.0000,-9.0361 l 0.0000,9.0361 h 9.0361 h 9.0361 l 0.0000,-9.0361 h 9.0361 l 0.0000,-9.0361 l 0.0000,-9.0361 l -9.0361,-0.0000 l 0.0000,9.0361 h 9.0361 h 9.0361 l 0.0000,-9.0361 h 9.0361 l 0.0000,-9.0361 l 0.0000,-9.0361 l -9.0361,-0.0000 h 9.0361 l 0.0000,-9.0361 l 0.0000,-9.0361 l -9.0361,-0.0000 l 0.0000,-9.0361 l -9.0361,-0.0000 l -9.0361,-0.0000 l -0.0000,9.0361 l -0.0000,-9.0361 l -9.0361,0.0000 l -9.0361,0.0000 l 0.0000,9.0361 l -9.0361,0.0000 l 0.0000,9.0361 l 0.0000,9.0361 h 9.0361 l -9.0361,0.0000 l 0.0000,9.0361 l 0.0000,9.0361 h 9.0361 l 0.0000,9.0361 h 9.0361 h 9.0361 l 0.0000,-9.0361 l -9.0361,0.0000 l 0.0000,9.0361 l 0.0000,9.0361 h 9.0361 l 0.0000,9.0361 h 9.0361 h 9.0361 l 0.0000,-9.0361 l 0.0000,9.0361 h 9.0361 h 9.0361 l 0.0000,-9.0361 h 9.0361 l 0.0000,-9.0361 l 0.0000,-9.0361 l -9.0361,-0.0000 l -9.0361,0.0000 l 0.0000,9.0361 l 0.0000,9.0361 h 9.0361 l 0.0000,9.0361 h 9.0361 h 9.0361 l 0.0000,-9.0361 l 0.0000,9.0361 h 9.0361 h 9.0361 l 0.0000,-9.0361 h 9.0361 l 0.0000,-9.0361 l 0.0000,-9.0361 l -9.0361,-0.0000 l 0.0000,9.0361 h 9.0361 h 9.0361 l 0.0000,-9.0361 h 9.0361 l 0.0000,-9.0361 l 0.0000,-9.0361 l -9.0361,-0.0000 h 9.0361 l 0.0000,-9.0361 l 0.0000,-9.0361 l -9.0361,-0.0000 l 0.0000,-9.0361 l -9.0361,-0.0000 l -9.0361,-0.0000 l -0.0000,9.0361 l -9.0361,0.0000 l 0.0000,9.0361 l 0.0000,9.0361 h 9.0361 l 0.0000,9.0361 h 9.0361 h 9.0361 l 0.0000,-9.0361 l 0.0000,9.0361 h 9.0361 h 9.0361 l 0.0000,-9.0361 h 9.0361 l 0.0000,-9.0361 l 0.0000,-9.0361 l -9.0361,-0.0000 l 0.0000,9.0361 h 9.0361 h 9.0361 l 0.0000,-9.0361 h 9.0361 l 0.0000,-9.0361 l 0.0000,-9.0361 l -9.0361,-0.0000 h 9.0361 l 0.0000,-9.0361 l 0.0000,-9.0361 l -9.0361,-0.0000 l 0.0000,-9.0361 l -9.0361,-0.0000 l -9.0361,-0.0000 l -0.0000,9.0361 l 0.0000,9.0361 h 9.0361 h 9.0361 l 0.0000,-9.0361 h 9.0361 l 0.0000,-9.0361 l 0.0000,-9.0361 l -9.0361,-0.0000 h 9.0361 l 0.0000,-9.0361 l 0.0000,-9.0361 l -9.0361,-0.0000 l 0.0000,-9.0361 l -9.0361,-0.0000 l -9.0361,-0.0000 l -0.0000,9.0361 h 9.0361 l 0.0000,-9.0361 l 0.0000,-9.0361 l -9.0361,-0.0000 l 0.0000,-9.0361 l -9.0361,-0.0000 l -9.0361,-0.0000 l -0.0000,9.0361 l 0.0000,-9.0361 l -9.0361,-0.0000 l -9.0361,-0.0000 l -0.0000,9.0361 l -9.0361,-0.0000 l -0.0000,9.0361 l -0.0000,9.0361 l 9.0361,0.0000 "/></g><g stroke-linejoin="miter" stroke-opacity="1.0" fill-opacity="0.0" opacity="0.2" stroke="rgb(0,0,0)" stroke-width="0.5" fill="rgb(0,0,0)" stroke-linecap="butt" stroke-miterlimit="10.0"><path d="M 377.7108,233.1325 l 0.0000,72.2892 h 72.2892 h 72.2892 l 0.0000,-72.2892 "/></g><g stroke-linejoin="miter" stroke-opacity="1.0" fill-opacity="0.0" stroke="rgb(0,0,0)" stroke-width="0.5" fill="rgb(0,0,0)" stroke-linecap="butt" stroke-miterlimit="10.0"><path d="M 377.7108,233.1325 l -36.1446,0.0000 l 0.0000,36.1446 l 0.0000,36.1446 h 36.1446 l 0.0000,36.1446 h 36.1446 h 36.1446 l 0.0000,-36.1446 l 0.0000,36.1446 h 36.1446 h 36.1446 l 0.0000,-36.1446 h 36.1446 l 0.0000,-36.1446 l 0.0000,-36.1446 l -36.1446,-0.0000 "/></g><g stroke-linejoin="miter" stroke-opacity="1.0" fill-opacity="0.0" opacity="0.2" stroke="rgb(0,0,0)" stroke-width="0.5" fill="rgb(0,0,0)" stroke-linecap="butt" stroke-miterlimit="10.0"><path d="M 77.7108,233.1325 l -36.1446,0.0000 l 0.0000,36.1446 l 0.0000,36.1446 h 36.1446 l 0.0000,36.1446 h 36.1446 h 36.1446 l 0.0000,-36.1446 l 0.0000,36.1446 h 36.1446 h 36.1446 l 0.0000,-36.1446 h 36.1446 l 0.0000,-36.1446 l 0.0000,-36.1446 l -36.1446,-0.0000 "/></g><g stroke-linejoin="miter" stroke-opacity="1.0" fill-opacity="0.0" stroke="rgb(0,0,0)" stroke-width="0.5" fill="rgb(0,0,0)" stroke-linecap="butt" stroke-miterlimit="10.0"><path d="M 77.7108,233.1325 l -0.0000,-18.0723 l -18.0723,0.0000 l -18.0723,0.0000 l 0.0000,18.0723 l -18.0723,0.0000 l 0.0000,18.0723 l 0.0000,18.0723 h 18.0723 l -18.0723,0.0000 l 0.0000,18.0723 l 0.0000,18.0723 h 18.0723 l 0.0000,18.0723 h 18.0723 h 18.0723 l 0.0000,-18.0723 l -18.0723,0.0000 l 0.0000,18.0723 l 0.0000,18.0723 h 18.0723 l 0.0000,18.0723 h 18.0723 h 18.0723 l 0.0000,-18.0723 l 0.0000,18.0723 h 18.0723 h 18.0723 l 0.0000,-18.0723 h 18.0723 l 0.0000,-18.0723 l 0.0000,-18.0723 l -18.0723,-0.0000 l -18.0723,0.0000 l 0.0000,18.0723 l 0.0000,18.0723 h 18.0723 l 0.0000,18.0723 h 18.0723 h 18.0723 l 0.0000,-18.0723 l 0.0000,18.0723 h 18.0723 h 18.0723 l 0.0000,-18.0723 h 18.0723 l 0.0000,-18.0723 l 0.0000,-18.0723 l -18.0723,-0.0000 l 0.0000,18.0723 h 18.0723 h 18.0723 l 0.0000,-18.0723 h 18.0723 l 0.0000,-18.0723 l 0.0000,-18.0723 l -18.0723,-0.0000 h 18.0723 l 0.0000,-18.0723 l 0.0000,-18.0723 l -18.0723,-0.0000 l 0.0000,-18.0723 l -18.0723,-0.0000 l -18.0723,-0.0000 l -0.0000,18.0723 "/></g><g stroke-linejoin="miter" stroke-opacity="1.0" fill-opacity="0.0" opacity="0.2" stroke="rgb(0,0,0)" stroke-width="0.5" fill="rgb(0,0,0)" stroke-linecap="butt" stroke-miterlimit="10.0"><path d="M 377.7108,41.5663 h 144.5783 "/></g><g stroke-linejoin="miter" stroke-opacity="1.0" fill-opacity="0.0" stroke="rgb(0,0,0)" stroke-width="0.5" fill="rgb(0,0,0)" stroke-linecap="butt" stroke-miterlimit="10.0"><path d="M 377.7108,41.5663 l 0.0000,72.2892 h 72.2892 h 72.2892 l 0.0000,-72.2892 "/></g><g stroke-linejoin="miter" stroke-opacity="1.0" fill-opacity="0.0" stroke="rgb(0,0,0)" stroke-width="0.5" fill="rgb(0,0,0)" stroke-linecap="butt" stroke-miterlimit="10.0"><path d="M 77.7108,41.5663 h 144.5783 "/></g><g stroke-linejoin="miter" stroke-opacity="1.0" fill-opacity="0.0" stroke="rgb(0,0,0)" stroke-width="0.5" fill="rgb(0,0,0)" stroke-linecap="butt" stroke-miterlimit="10.0"><path d="M 150.0000,371.6108 l 0.0000,17.1714 "/></g><g stroke-linejoin="miter" stroke-opacity="1.0" fill-opacity="1.0" stroke="rgb(0,0,0)" stroke-width="0.0" fill="rgb(0,0,0)" stroke-linecap="butt" stroke-miterlimit="10.0"></g><g stroke-linejoin="miter" stroke-opacity="1.0" fill-opacity="1.0" stroke="rgb(0,0,0)" stroke-width="0.0" fill="rgb(0,0,0)" stroke-linecap="butt" stroke-miterlimit="10.0"></g><g stroke-linejoin="miter" stroke-opacity="1.0" fill-opacity="1.0" stroke="rgb(0,0,0)" stroke-width="0.0" fill="rgb(0,0,0)" stroke-linecap="butt" stroke-miterlimit="10.0"><path d="M 150.0000,394.6543 l 2.2495,-6.9233 l -2.2495,1.1826 l -2.2495,-1.1826 Z"/></g><g stroke-linejoin="miter" stroke-opacity="1.0" fill-opacity="1.0" stroke="rgb(0,0,0)" stroke-width="0.0" fill="rgb(0,0,0)" stroke-linecap="butt" stroke-miterlimit="10.0"><path d="M 150.0000,388.9136 l -0.0000,-0.1314 l 0.2500,-0.0000 l -0.2500,0.1314 l -0.0000,-0.1314 l -0.2500,0.0000 Z"/></g><g stroke-linejoin="miter" stroke-opacity="1.0" fill-opacity="0.0" stroke="rgb(0,0,0)" stroke-width="0.5" fill="rgb(0,0,0)" stroke-linecap="butt" stroke-miterlimit="10.0"><path d="M 311.5218,287.3494 l -17.1714,0.0000 "/></g><g stroke-linejoin="miter" stroke-opacity="1.0" fill-opacity="1.0" stroke="rgb(0,0,0)" stroke-width="0.0" fill="rgb(0,0,0)" stroke-linecap="butt" stroke-miterlimit="10.0"></g><g stroke-linejoin="miter" stroke-opacity="1.0" fill-opacity="1.0" stroke="rgb(0,0,0)" stroke-width="0.0" fill="rgb(0,0,0)" stroke-linecap="butt" stroke-miterlimit="10.0"></g><g stroke-linejoin="miter" stroke-opacity="1.0" fill-opacity="1.0" stroke="rgb(0,0,0)" stroke-width="0.0" fill="rgb(0,0,0)" stroke-linecap="butt" stroke-miterlimit="10.0"><path d="M 288.4782,287.3494 l 6.9233,2.2495 l -1.1826,-2.2495 l 1.1826,-2.2495 Z"/></g><g stroke-linejoin="miter" stroke-opacity="1.0" fill-opacity="1.0" stroke="rgb(0,0,0)" stroke-width="0.0" fill="rgb(0,0,0)" stroke-linecap="butt" stroke-miterlimit="10.0"><path d="M 294.2189,287.3494 l 0.1314,-0.0000 l 0.0000,0.2500 l -0.1314,-0.2500 l 0.1314,-0.0000 l -0.0000,-0.2500 Z"/></g><g stroke-linejoin="miter" stroke-opacity="1.0" fill-opacity="0.0" stroke="rgb(0,0,0)" stroke-width="0.5" fill="rgb(0,0,0)" stroke-linecap="butt" stroke-miterlimit="10.0"><path d="M 450.0000,180.0445 l 0.0000,17.1714 "/></g><g stroke-linejoin="miter" stroke-opacity="1.0" fill-opacity="1.0" stroke="rgb(0,0,0)" stroke-width="0.0" fill="rgb(0,0,0)" stroke-linecap="butt" stroke-miterlimit="10.0"></g><g stroke-linejoin="miter" stroke-opacity="1.0" fill-opacity="1.0" stroke="rgb(0,0,0)" stroke-width="0.0" fill="rgb(0,0,0)" stroke-linecap="butt" stroke-miterlimit="10.0"></g><g stroke-linejoin="miter" stroke-opacity="1.0" fill-opacity="1.0" stroke="rgb(0,0,0)" stroke-width="0.0" fill="rgb(0,0,0)" stroke-linecap="butt" stroke-miterlimit="10.0"><path d="M 450.0000,203.0880 l 2.2495,-6.9233 l -2.2495,1.1826 l -2.2495,-1.1826 Z"/></g><g stroke-linejoin="miter" stroke-opacity="1.0" fill-opacity="1.0" stroke="rgb(0,0,0)" stroke-width="0.0" fill="rgb(0,0,0)" stroke-linecap="butt" stroke-miterlimit="10.0"><path d="M 450.0000,197.3473 l -0.0000,-0.1314 l 0.2500,-0.0000 l -0.2500,0.1314 l -0.0000,-0.1314 l -0.2500,0.0000 Z"/></g><g stroke-linejoin="miter" stroke-opacity="1.0" fill-opacity="0.0" stroke="rgb(0,0,0)" stroke-width="0.5" fill="rgb(0,0,0)" stroke-linecap="butt" stroke-miterlimit="10.0"><path d="M 288.4782,95.7831 h 17.1714 "/></g><g stroke-linejoin="miter" stroke-opacity="1.0" fill-opacity="1.0" stroke="rgb(0,0,0)" stroke-width="0.0" fill="rgb(0,0,0)" stroke-linecap="butt" stroke-miterlimit="10.0"></g><g stroke-linejoin="miter" stroke-opacity="1.0" fill-opacity="1.0" stroke="rgb(0,0,0)" stroke-width="0.0" fill="rgb(0,0,0)" stroke-linecap="butt" stroke-miterlimit="10.0"></g><g stroke-linejoin="miter" stroke-opacity="1.0" fill-opacity="1.0" stroke="rgb(0,0,0)" stroke-width="0.0" fill="rgb(0,0,0)" stroke-linecap="butt" stroke-miterlimit="10.0"><path d="M 311.5218,95.7831 l -6.9233,-2.2495 l 1.1826,2.2495 l -1.1826,2.2495 Z"/></g><g stroke-linejoin="miter" stroke-opacity="1.0" fill-opacity="1.0" stroke="rgb(0,0,0)" stroke-width="0.0" fill="rgb(0,0,0)" stroke-linecap="butt" stroke-miterlimit="10.0"><path d="M 305.7811,95.7831 h -0.1314 v -0.2500 l 0.1314,0.2500 h -0.1314 v 0.2500 Z"/></g></svg>