<?xml version="1.0" encoding="UTF-8"?>
<!DOCTYPE svg PUBLIC "-//W3C//DTD SVG 1.1//EN"
    "http://www.w3.org/Graphics/SVG/1.1/DTD/svg11.dtd"><svg xmlns="http://www.w3.org/2000/svg" height="400.0000" stroke-opacity="1" viewBox="0 0 400 400" font-size="1" width="400.0000" xmlns:xlink="http://www.w3.org/1999/xlink" stroke="rgb(0,0,0)" version="1.1"><defs></defs><g stroke-linejoin="miter" stroke-opacity="1.0" fill-opacity="1.0" stroke="rgb(112,128,144)" stroke-width="27.272727272727273" fill="rgb(176,196,222)" stroke-linecap="butt" stroke-miterlimit="10.0"><path d="M 400.0000,200.0000 c 0.0000,-110.4569 -89.5431,-200.0000 -200.0000 -200.0000c -110.4569,-0.0000 -200.0000,89.5431 -200.0000 200.0000c -0.0000,110.4569 89.5431,200.0000 200.0000 200.0000c 110.4569,0.0000 200.0000,-89.5431 200.0000 -200.0000Z"/></g><g stroke-linejoin="miter" stroke-opacity="1.0" fill-opacity="1.0" stroke="rgb(0,0,0)" stroke-width="0.0" fill="rgb(0,0,0)" stroke-linecap="butt" stroke-miterlimit="10.0"><path d="M 218.1818,200.0000 c 0.0000,-10.0415 -8.1403,-18.1818 -18.1818 -18.1818c -10.0415,-0.0000 -18.1818,8.1403 -18.1818 18.1818c -0.0000,10.0415 8.1403,18.1818 18.1818 18.1818c 10.0415,0.0000 18.1818,-8.1403 18.1818 -18.1818Z"/></g><g stroke-linejoin="miter" stroke-opacity="1.0" fill-opacity="0.0" stroke="rgb(0,0,0)" stroke-width="3.6363636363636367" fill="rgb(0,0,0)" stroke-linecap="butt" stroke-miterlimit="10.0"><path d="M 198.5478,236.3346 l 8.3503,-208.9241 "/></g><g stroke-linejoin="miter" stroke-opacity="1.0" fill-opacity="0.0" stroke="rgb(0,0,0)" stroke-width="9.090909090909092" fill="rgb(0,0,0)" stroke-linecap="butt" stroke-miterlimit="10.0"><path d="M 186.4423,176.3359 l 81.3460,141.9848 "/></g><g stroke-linejoin="miter" stroke-opacity="1.0" fill-opacity="1.0" stroke="rgb(0,0,0)" stroke-width="0.0" fill="rgb(192,192,192)" stroke-linecap="butt" stroke-miterlimit="10.0"><path d="M 206.3636,200.0000 c 0.0000,-3.5145 -2.8491,-6.3636 -6.3636 -6.3636c -3.5145,-0.0000 -6.3636,2.8491 -6.3636 6.3636c -0.0000,3.5145 2.8491,6.3636 6.3636 6.3636c 3.5145,0.0000 6.3636,-2.8491 6.3636 -6.3636Z"/></g></svg>