<?xml version="1.0" encoding="UTF-8"?>
<!DOCTYPE svg PUBLIC "-//W3C//DTD SVG 1.1//EN"
    "http://www.w3.org/Graphics/SVG/1.1/DTD/svg11.dtd"><svg xmlns="http://www.w3.org/2000/svg" height="972.6316" stroke-opacity="1" viewBox="0 0 1100 973" font-size="1" width="1100.0000" xmlns:xlink="http://www.w3.org/1999/xlink" stroke="rgb(0,0,0)" version="1.1"><defs></defs><defs><linearGradient x2="1.0000" y1="-1.0000" gradientUnits="userSpaceOnUse" spreadMethod="pad" gradientTransform="matrix(164.6784,-0.0000,0.0000,-164.6784,183.3333,121.5789)" id="gradient1" y2="1.0000" x1="-1.0000"><stop stop-opacity="1.0000" offset="0.0000" stop-color="rgb(0,128,128)"/><stop stop-opacity="1.0000" offset="1.0000" stop-color="rgb(128,0,128)"/></linearGradient></defs><g stroke-linejoin="miter" stroke-opacity="1" fill-opacity="0.0" stroke="url(#gradient1)" stroke-width="0.5171785805797898" fill="rgb(0,0,0)" stroke-linecap="butt" stroke-miterlimit="10.0"><path d="M 604.0351,580.8772 l 5.1462,5.1462 l 5.1462,-5.1462 l -5.1462,-5.1462 l 5.1462,-5.1462 l -5.1462,-5.1462 l -5.1462,5.1462 l -5.1462,-5.1462 l 5.1462,-5.1462 l -5.1462,-5.1462 l -5.1462,5.1462 l 5.1462,5.1462 l -5.1462,5.1462 l -5.1462,-5.1462 l -5.1462,5.1462 l -5.1462,-5.1462 l 5.1462,-5.1462 l -5.1462,-5.1462 l -5.1462,5.1462 l 5.1462,5.1462 l -5.1462,5.1462 l 5.1462,5.1462 l 5.1462,-5.1462 l 5.1462,5.1462 l -5.1462,5.1462 l -5.1462,-5.1462 l -5.1462,5.1462 l 5.1462,5.1462 l -5.1462,5.1462 l -5.1462,-5.1462 l -5.1462,5.1462 l -5.1462,-5.1462 l 5.1462,-5.1462 l -5.1462,-5.1462 l -5.1462,5.1462 l 5.1462,5.1462 l -5.1462,5.1462 l 5.1462,5.1462 l 5.1462,-5.1462 l 5.1462,5.1462 l -5.1462,5.1462 l 5.1462,5.1462 l 5.1462,-5.1462 l -5.1462,-5.1462 l 5.1462,-5.1462 l 5.1462,5.1462 l 5.1462,-5.1462 l 5.1462,5.1462 l -5.1462,5.1462 l -5.1462,-5.1462 l -5.1462,5.1462 l 5.1462,5.1462 l -5.1462,5.1462 l 5.1462,5.1462 l 5.1462,-5.1462 l 5.1462,5.1462 l -5.1462,5.1462 l -5.1462,-5.1462 l -5.1462,5.1462 l 5.1462,5.1462 l -5.1462,5.1462 l -5.1462,-5.1462 l -5.1462,5.1462 l -5.1462,-5.1462 l 5.1462,-5.1462 l -5.1462,-5.1462 l -5.1462,5.1462 l 5.1462,5.1462 l -5.1462,5.1462 l 5.1462,5.1462 l 5.1462,-5.1462 l 5.1462,5.1462 l -5.1462,5.1462 l 5.1462,5.1462 l 5.1462,-5.1462 l -5.1462,-5.1462 l 5.1462,-5.1462 l 5.1462,5.1462 l 5.1462,-5.1462 l 5.1462,5.1462 l -5.1462,5.1462 l 5.1462,5.1462 l 5.1462,-5.1462 l -5.1462,-5.1462 l 5.1462,-5.1462 l -5.1462,-5.1462 l -5.1462,5.1462 l -5.1462,-5.1462 l 5.1462,-5.1462 l 5.1462,5.1462 l 5.1462,-5.1462 l -5.1462,-5.1462 l 5.1462,-5.1462 l 5.1462,5.1462 l 5.1462,-5.1462 l 5.1462,5.1462 l -5.1462,5.1462 l -5.1462,-5.1462 l -5.1462,5.1462 l 5.1462,5.1462 l -5.1462,5.1462 l 5.1462,5.1462 l 5.1462,-5.1462 l 5.1462,5.1462 l -5.1462,5.1462 l 5.1462,5.1462 l 5.1462,-5.1462 l -5.1462,-5.1462 l 5.1462,-5.1462 l 5.1462,5.1462 l 5.1462,-5.1462 l 5.1462,5.1462 l -5.1462,5.1462 l -5.1462,-5.1462 l -5.1462,5.1462 l 5.1462,5.1462 l -5.1462,5.1462 l 5.1462,5.1462 l 5.1462,-5.1462 l 5.1462,5.1462 l -5.1462,5.1462 l -5.1462,-5.1462 l -5.1462,5.1462 l 5.1462,5.1462 l -5.1462,5.1462 l -5.1462,-5.1462 l -5.1462,5.1462 l -5.1462,-5.1462 l 5.1462,-5.1462 l -5.1462,-5.1462 l -5.1462,5.1462 l 5.1462,5.1462 l -5.1462,5.1462 l 5.1462,5.1462 l 5.1462,-5.1462 l 5.1462,5.1462 l -5.1462,5.1462 l 5.1462,5.1462 l 5.1462,-5.1462 l -5.1462,-5.1462 l 5.1462,-5.1462 l 5.1462,5.1462 l 5.1462,-5.1462 l 5.1462,5.1462 l -5.1462,5.1462 l 5.1462,5.1462 l 5.1462,-5.1462 l -5.1462,-5.1462 l 5.1462,-5.1462 l -5.1462,-5.1462 l -5.1462,5.1462 l -5.1462,-5.1462 l 5.1462,-5.1462 l 5.1462,5.1462 l 5.1462,-5.1462 l -5.1462,-5.1462 l 5.1462,-5.1462 l 5.1462,5.1462 l 5.1462,-5.1462 l 5.1462,5.1462 l -5.1462,5.1462 l 5.1462,5.1462 l 5.1462,-5.1462 l -5.1462,-5.1462 l 5.1462,-5.1462 l -5.1462,-5.1462 l -5.1462,5.1462 l -5.1462,-5.1462 l 5.1462,-5.1462 l -5.1462,-5.1462 l -5.1462,5.1462 l 5.1462,5.1462 l -5.1462,5.1462 l -5.1462,-5.1462 l -5.1462,5.1462 l -5.1462,-5.1462 l 5.1462,-5.1462 l 5.1462,5.1462 l 5.1462,-5.1462 l -5.1462,-5.1462 l 5.1462,-5.1462 l -5.1462,-5.1462 l -5.1462,5.1462 l -5.1462,-5.1462 l 5.1462,-5.1462 l 5.1462,5.1462 l 5.1462,-5.1462 l -5.1462,-5.1462 l 5.1462,-5.1462 l 5.1462,5.1462 l 5.1462,-5.1462 l 5.1462,5.1462 l -5.1462,5.1462 l -5.1462,-5.1462 l -5.1462,5.1462 l 5.1462,5.1462 l -5.1462,5.1462 l 5.1462,5.1462 l 5.1462,-5.1462 l 5.1462,5.1462 l -5.1462,5.1462 l 5.1462,5.1462 l 5.1462,-5.1462 l -5.1462,-5.1462 l 5.1462,-5.1462 l 5.1462,5.1462 l 5.1462,-5.1462 l 5.1462,5.1462 l -5.1462,5.1462 l 5.1462,5.1462 l 5.1462,-5.1462 l -5.1462,-5.1462 l 5.1462,-5.1462 l -5.1462,-5.1462 l -5.1462,5.1462 l -5.1462,-5.1462 l 5.1462,-5.1462 l 5.1462,5.1462 l 5.1462,-5.1462 l -5.1462,-5.1462 l 5.1462,-5.1462 l 5.1462,5.1462 l 5.1462,-5.1462 l 5.1462,5.1462 l -5.1462,5.1462 l -5.1462,-5.1462 l -5.1462,5.1462 l 5.1462,5.1462 l -5.1462,5.1462 l 5.1462,5.1462 l 5.1462,-5.1462 l 5.1462,5.1462 l -5.1462,5.1462 l 5.1462,5.1462 l 5.1462,-5.1462 l -5.1462,-5.1462 l 5.1462,-5.1462 l 5.1462,5.1462 l 5.1462,-5.1462 l 5.1462,5.1462 l -5.1462,5.1462 l -5.1462,-5.1462 l -5.1462,5.1462 l 5.1462,5.1462 l -5.1462,5.1462 l 5.1462,5.1462 l 5.1462,-5.1462 l 5.1462,5.1462 l -5.1462,5.1462 l -5.1462,-5.1462 l -5.1462,5.1462 l 5.1462,5.1462 l -5.1462,5.1462 l -5.1462,-5.1462 l -5.1462,5.1462 l -5.1462,-5.1462 l 5.1462,-5.1462 l -5.1462,-5.1462 l -5.1462,5.1462 l 5.1462,5.1462 l -5.1462,5.1462 l 5.1462,5.1462 l 5.1462,-5.1462 l 5.1462,5.1462 l -5.1462,5.1462 l 5.1462,5.1462 l 5.1462,-5.1462 l -5.1462,-5.1462 l 5.1462,-5.1462 l 5.1462,5.1462 l 5.1462,-5.1462 l 5.1462,5.1462 l -5.1462,5.1462 l 5.1462,5.1462 l 5.1462,-5.1462 l -5.1462,-5.1462 l 5.1462,-5.1462 l -5.1462,-5.1462 l -5.1462,5.1462 l -5.1462,-5.1462 l 5.1462,-5.1462 l 5.1462,5.1462 l 5.1462,-5.1462 l -5.1462,-5.1462 l 5.1462,-5.1462 l 5.1462,5.1462 l 5.1462,-5.1462 l 5.1462,5.1462 l -5.1462,5.1462 l 5.1462,5.1462 l 5.1462,-5.1462 l -5.1462,-5.1462 l 5.1462,-5.1462 l -5.1462,-5.1462 l -5.1462,5.1462 l -5.1462,-5.1462 l 5.1462,-5.1462 l -5.1462,-5.1462 l -5.1462,5.1462 l 5.1462,5.1462 l -5.1462,5.1462 l -5.1462,-5.1462 l -5.1462,5.1462 l -5.1462,-5.1462 l 5.1462,-5.1462 l 5.1462,5.1462 l 5.1462,-5.1462 l -5.1462,-5.1462 l 5.1462,-5.1462 l -5.1462,-5.1462 l -5.1462,5.1462 l -5.1462,-5.1462 l 5.1462,-5.1462 l 5.1462,5.1462 l 5.1462,-5.1462 l -5.1462,-5.1462 l 5.1462,-5.1462 l 5.1462,5.1462 l 5.1462,-5.1462 l 5.1462,5.1462 l -5.1462,5.1462 l 5.1462,5.1462 l 5.1462,-5.1462 l -5.1462,-5.1462 l 5.1462,-5.1462 l -5.1462,-5.1462 l -5.1462,5.1462 l -5.1462,-5.1462 l 5.1462,-5.1462 l -5.1462,-5.1462 l -5.1462,5.1462 l 5.1462,5.1462 l -5.1462,5.1462 l -5.1462,-5.1462 l -5.1462,5.1462 l -5.1462,-5.1462 l 5.1462,-5.1462 l -5.1462,-5.1462 l -5.1462,5.1462 l 5.1462,5.1462 l -5.1462,5.1462 l 5.1462,5.1462 l 5.1462,-5.1462 l 5.1462,5.1462 l -5.1462,5.1462 l -5.1462,-5.1462 l -5.1462,5.1462 l 5.1462,5.1462 l -5.1462,5.1462 l -5.1462,-5.1462 l -5.1462,5.1462 l -5.1462,-5.1462 l 5.1462,-5.1462 l 5.1462,5.1462 l 5.1462,-5.1462 l -5.1462,-5.1462 l 5.1462,-5.1462 l -5.1462,-5.1462 l -5.1462,5.1462 l -5.1462,-5.1462 l 5.1462,-5.1462 l -5.1462,-5.1462 l -5.1462,5.1462 l 5.1462,5.1462 l -5.1462,5.1462 l -5.1462,-5.1462 l -5.1462,5.1462 l -5.1462,-5.1462 l 5.1462,-5.1462 l 5.1462,5.1462 l 5.1462,-5.1462 l -5.1462,-5.1462 l 5.1462,-5.1462 l -5.1462,-5.1462 l -5.1462,5.1462 l -5.1462,-5.1462 l 5.1462,-5.1462 l 5.1462,5.1462 l 5.1462,-5.1462 l -5.1462,-5.1462 l 5.1462,-5.1462 l 5.1462,5.1462 l 5.1462,-5.1462 l 5.1462,5.1462 l -5.1462,5.1462 l -5.1462,-5.1462 l -5.1462,5.1462 l 5.1462,5.1462 l -5.1462,5.1462 l 5.1462,5.1462 l 5.1462,-5.1462 l 5.1462,5.1462 l -5.1462,5.1462 l 5.1462,5.1462 l 5.1462,-5.1462 l -5.1462,-5.1462 l 5.1462,-5.1462 l 5.1462,5.1462 l 5.1462,-5.1462 l 5.1462,5.1462 l -5.1462,5.1462 l 5.1462,5.1462 l 5.1462,-5.1462 l -5.1462,-5.1462 l 5.1462,-5.1462 l -5.1462,-5.1462 l -5.1462,5.1462 l -5.1462,-5.1462 l 5.1462,-5.1462 l 5.1462,5.1462 l 5.1462,-5.1462 l -5.1462,-5.1462 l 5.1462,-5.1462 l 5.1462,5.1462 l 5.1462,-5.1462 l 5.1462,5.1462 l -5.1462,5.1462 l 5.1462,5.1462 l 5.1462,-5.1462 l -5.1462,-5.1462 l 5.1462,-5.1462 l -5.1462,-5.1462 l -5.1462,5.1462 l -5.1462,-5.1462 l 5.1462,-5.1462 l -5.1462,-5.1462 l -5.1462,5.1462 l 5.1462,5.1462 l -5.1462,5.1462 l -5.1462,-5.1462 l -5.1462,5.1462 l -5.1462,-5.1462 l 5.1462,-5.1462 l 5.1462,5.1462 l 5.1462,-5.1462 l -5.1462,-5.1462 l 5.1462,-5.1462 l -5.1462,-5.1462 l -5.1462,5.1462 l -5.1462,-5.1462 l 5.1462,-5.1462 l 5.1462,5.1462 l 5.1462,-5.1462 l -5.1462,-5.1462 l 5.1462,-5.1462 l 5.1462,5.1462 l 5.1462,-5.1462 l 5.1462,5.1462 l -5.1462,5.1462 l -5.1462,-5.1462 l -5.1462,5.1462 l 5.1462,5.1462 l -5.1462,5.1462 l 5.1462,5.1462 l 5.1462,-5.1462 l 5.1462,5.1462 l -5.1462,5.1462 l 5.1462,5.1462 l 5.1462,-5.1462 l -5.1462,-5.1462 l 5.1462,-5.1462 l 5.1462,5.1462 l 5.1462,-5.1462 l 5.1462,5.1462 l -5.1462,5.1462 l 5.1462,5.1462 l 5.1462,-5.1462 l -5.1462,-5.1462 l 5.1462,-5.1462 l -5.1462,-5.1462 l -5.1462,5.1462 l -5.1462,-5.1462 l 5.1462,-5.1462 l 5.1462,5.1462 l 5.1462,-5.1462 l -5.1462,-5.1462 l 5.1462,-5.1462 l 5.1462,5.1462 l 5.1462,-5.1462 l 5.1462,5.1462 l -5.1462,5.1462 l -5.1462,-5.1462 l -5.1462,5.1462 l 5.1462,5.1462 l -5.1462,5.1462 l 5.1462,5.1462 l 5.1462,-5.1462 l 5.1462,5.1462 l -5.1462,5.1462 l 5.1462,5.1462 l 5.1462,-5.1462 l -5.1462,-5.1462 l 5.1462,-5.1462 l 5.1462,5.1462 l 5.1462,-5.1462 l 5.1462,5.1462 l -5.1462,5.1462 l -5.1462,-5.1462 l -5.1462,5.1462 l 5.1462,5.1462 l -5.1462,5.1462 l 5.1462,5.1462 l 5.1462,-5.1462 l 5.1462,5.1462 l -5.1462,5.1462 l -5.1462,-5.1462 l -5.1462,5.1462 l 5.1462,5.1462 l -5.1462,5.1462 l -5.1462,-5.1462 l -5.1462,5.1462 l -5.1462,-5.1462 l 5.1462,-5.1462 "/></g><defs><linearGradient x2="1.0000" y1="-1.0000" gradientUnits="userSpaceOnUse" spreadMethod="pad" gradientTransform="matrix(164.6784,-0.0000,0.0000,-164.6784,183.3333,121.5789)" id="gradient3" y2="1.0000" x1="-1.0000"><stop stop-opacity="1.0000" offset="0.0000" stop-color="rgb(0,128,128)"/><stop stop-opacity="1.0000" offset="1.0000" stop-color="rgb(128,0,128)"/></linearGradient></defs><g stroke-linejoin="miter" stroke-opacity="1" fill-opacity="0.0" stroke="url(#gradient3)" stroke-width="0.5171785805797898" fill="rgb(0,0,0)" stroke-linecap="butt" stroke-miterlimit="10.0"><path d="M 359.5906,580.8772 l 0.0000,5.1462 l 5.1462,-0.0000 l -0.0000,-5.1462 l 5.1462,-0.0000 l -0.0000,-5.1462 l -5.1462,-0.0000 l -0.0000,-5.1462 l 5.1462,-0.0000 l -0.0000,-5.1462 l -5.1462,-0.0000 l -0.0000,5.1462 l -5.1462,-0.0000 l -0.0000,-5.1462 l -5.1462,-0.0000 l -0.0000,-5.1462 l 5.1462,-0.0000 l -0.0000,-5.1462 l -5.1462,-0.0000 l -0.0000,5.1462 l -5.1462,-0.0000 l -0.0000,5.1462 l 5.1462,0.0000 l -0.0000,5.1462 l -5.1462,-0.0000 l -0.0000,-5.1462 l -5.1462,0.0000 l -0.0000,5.1462 l -5.1462,0.0000 l -0.0000,-5.1462 l -5.1462,0.0000 l 0.0000,-5.1462 l 5.1462,-0.0000 l -0.0000,-5.1462 l -5.1462,-0.0000 l -0.0000,5.1462 l -5.1462,0.0000 l -0.0000,5.1462 l 5.1462,0.0000 l -0.0000,5.1462 l -5.1462,0.0000 l -0.0000,5.1462 l 5.1462,0.0000 l 0.0000,-5.1462 l 5.1462,0.0000 l -0.0000,5.1462 l 5.1462,0.0000 l -0.0000,5.1462 h -5.1462 l -0.0000,-5.1462 l -5.1462,-0.0000 l -0.0000,5.1462 l -5.1462,0.0000 l -0.0000,5.1462 l 5.1462,0.0000 l -0.0000,5.1462 l -5.1462,0.0000 l -0.0000,-5.1462 l -5.1462,-0.0000 l -0.0000,5.1462 l -5.1462,-0.0000 l -0.0000,-5.1462 l -5.1462,-0.0000 l -0.0000,-5.1462 l 5.1462,-0.0000 l -0.0000,-5.1462 l -5.1462,-0.0000 l -0.0000,5.1462 l -5.1462,0.0000 l -0.0000,5.1462 l 5.1462,0.0000 l -0.0000,5.1462 l -5.1462,0.0000 l -0.0000,5.1462 l 5.1462,0.0000 l 0.0000,-5.1462 l 5.1462,0.0000 l -0.0000,5.1462 l 5.1462,0.0000 l -0.0000,5.1462 l -5.1462,-0.0000 l -0.0000,5.1462 l 5.1462,0.0000 l 0.0000,-5.1462 l 5.1462,0.0000 l 0.0000,-5.1462 l -5.1462,-0.0000 l 0.0000,-5.1462 l 5.1462,0.0000 l -0.0000,5.1462 l 5.1462,0.0000 l 0.0000,-5.1462 l 5.1462,0.0000 l -0.0000,5.1462 l 5.1462,0.0000 l -0.0000,5.1462 l -5.1462,-0.0000 l -0.0000,-5.1462 l -5.1462,-0.0000 l -0.0000,5.1462 l -5.1462,0.0000 l -0.0000,5.1462 l 5.1462,0.0000 l -0.0000,5.1462 l -5.1462,0.0000 l -0.0000,5.1462 l 5.1462,0.0000 l 0.0000,-5.1462 l 5.1462,0.0000 l -0.0000,5.1462 l 5.1462,0.0000 l -0.0000,5.1462 l -5.1462,0.0000 l -0.0000,-5.1462 l -5.1462,-0.0000 l -0.0000,5.1462 l -5.1462,0.0000 l -0.0000,5.1462 l 5.1462,0.0000 l -0.0000,5.1462 l -5.1462,0.0000 l -0.0000,-5.1462 l -5.1462,-0.0000 l -0.0000,5.1462 l -5.1462,-0.0000 l -0.0000,-5.1462 l -5.1462,-0.0000 l -0.0000,-5.1462 l 5.1462,-0.0000 l -0.0000,-5.1462 l -5.1462,0.0000 l -0.0000,5.1462 l -5.1462,0.0000 l -0.0000,5.1462 l 5.1462,0.0000 l -0.0000,5.1462 l -5.1462,0.0000 l 0.0000,5.1462 l 5.1462,0.0000 l 0.0000,-5.1462 l 5.1462,0.0000 l 0.0000,5.1462 l 5.1462,0.0000 l -0.0000,5.1462 l -5.1462,0.0000 l -0.0000,5.1462 l 5.1462,0.0000 l 0.0000,-5.1462 l 5.1462,0.0000 l 0.0000,-5.1462 l -5.1462,-0.0000 l 0.0000,-5.1462 l 5.1462,0.0000 l 0.0000,5.1462 l 5.1462,0.0000 l 0.0000,-5.1462 l 5.1462,0.0000 l 0.0000,5.1462 l 5.1462,0.0000 l -0.0000,5.1462 l -5.1462,0.0000 l -0.0000,5.1462 l 5.1462,0.0000 l 0.0000,-5.1462 l 5.1462,0.0000 l 0.0000,-5.1462 l -5.1462,-0.0000 l 0.0000,-5.1462 l 5.1462,0.0000 l 0.0000,-5.1462 l -5.1462,-0.0000 l -0.0000,5.1462 l -5.1462,-0.0000 l 0.0000,-5.1462 l -5.1462,-0.0000 l 0.0000,-5.1462 l 5.1462,0.0000 l -0.0000,5.1462 l 5.1462,0.0000 l 0.0000,-5.1462 l 5.1462,0.0000 l 0.0000,-5.1462 l -5.1462,-0.0000 l 0.0000,-5.1462 l 5.1462,0.0000 l -0.0000,5.1462 l 5.1462,0.0000 l 0.0000,-5.1462 l 5.1462,0.0000 l -0.0000,5.1462 l 5.1462,0.0000 l -0.0000,5.1462 l -5.1462,0.0000 l -0.0000,-5.1462 l -5.1462,0.0000 l -0.0000,5.1462 l -5.1462,0.0000 l -0.0000,5.1462 l 5.1462,0.0000 l -0.0000,5.1462 l -5.1462,0.0000 l 0.0000,5.1462 l 5.1462,0.0000 l 0.0000,-5.1462 l 5.1462,0.0000 l 0.0000,5.1462 l 5.1462,0.0000 l -0.0000,5.1462 l -5.1462,-0.0000 l -0.0000,5.1462 l 5.1462,0.0000 l 0.0000,-5.1462 l 5.1462,0.0000 l 0.0000,-5.1462 l -5.1462,-0.0000 l 0.0000,-5.1462 l 5.1462,0.0000 l 0.0000,5.1462 l 5.1462,0.0000 l 0.0000,-5.1462 l 5.1462,0.0000 l 0.0000,5.1462 l 5.1462,0.0000 l -0.0000,5.1462 l -5.1462,-0.0000 l -0.0000,-5.1462 l -5.1462,-0.0000 l -0.0000,5.1462 l -5.1462,0.0000 l -0.0000,5.1462 l 5.1462,0.0000 l -0.0000,5.1462 l -5.1462,0.0000 l -0.0000,5.1462 l 5.1462,0.0000 l 0.0000,-5.1462 l 5.1462,0.0000 l -0.0000,5.1462 l 5.1462,0.0000 l -0.0000,5.1462 l -5.1462,0.0000 l -0.0000,-5.1462 l -5.1462,-0.0000 l -0.0000,5.1462 l -5.1462,0.0000 l -0.0000,5.1462 l 5.1462,0.0000 l -0.0000,5.1462 l -5.1462,0.0000 l -0.0000,-5.1462 l -5.1462,-0.0000 l -0.0000,5.1462 l -5.1462,0.0000 l -0.0000,-5.1462 l -5.1462,-0.0000 l -0.0000,-5.1462 l 5.1462,-0.0000 l -0.0000,-5.1462 l -5.1462,-0.0000 l -0.0000,5.1462 l -5.1462,0.0000 l -0.0000,5.1462 l 5.1462,0.0000 l -0.0000,5.1462 l -5.1462,0.0000 l -0.0000,5.1462 l 5.1462,0.0000 l 0.0000,-5.1462 l 5.1462,0.0000 l -0.0000,5.1462 l 5.1462,0.0000 l -0.0000,5.1462 l -5.1462,-0.0000 l -0.0000,5.1462 l 5.1462,0.0000 l 0.0000,-5.1462 l 5.1462,0.0000 l 0.0000,-5.1462 l -5.1462,-0.0000 l 0.0000,-5.1462 l 5.1462,0.0000 l -0.0000,5.1462 l 5.1462,0.0000 l 0.0000,-5.1462 l 5.1462,0.0000 l -0.0000,5.1462 l 5.1462,0.0000 l -0.0000,5.1462 l -5.1462,-0.0000 l -0.0000,5.1462 l 5.1462,0.0000 l 0.0000,-5.1462 l 5.1462,0.0000 l 0.0000,-5.1462 l -5.1462,-0.0000 l 0.0000,-5.1462 l 5.1462,0.0000 l 0.0000,-5.1462 l -5.1462,-0.0000 l -0.0000,5.1462 l -5.1462,-0.0000 l 0.0000,-5.1462 l -5.1462,-0.0000 l 0.0000,-5.1462 l 5.1462,0.0000 l -0.0000,5.1462 l 5.1462,0.0000 l 0.0000,-5.1462 l 5.1462,0.0000 l 0.0000,-5.1462 l -5.1462,-0.0000 l 0.0000,-5.1462 l 5.1462,0.0000 l 0.0000,5.1462 l 5.1462,0.0000 l 0.0000,-5.1462 l 5.1462,0.0000 l 0.0000,5.1462 l 5.1462,0.0000 l -0.0000,5.1462 l -5.1462,0.0000 l -0.0000,5.1462 l 5.1462,0.0000 l 0.0000,-5.1462 l 5.1462,0.0000 l 0.0000,-5.1462 l -5.1462,-0.0000 l 0.0000,-5.1462 l 5.1462,0.0000 l 0.0000,-5.1462 l -5.1462,-0.0000 l -0.0000,5.1462 l -5.1462,-0.0000 l 0.0000,-5.1462 l -5.1462,-0.0000 l 0.0000,-5.1462 l 5.1462,0.0000 l 0.0000,-5.1462 l -5.1462,-0.0000 l -0.0000,5.1462 l -5.1462,-0.0000 l -0.0000,5.1462 l 5.1462,0.0000 l -0.0000,5.1462 l -5.1462,-0.0000 l 0.0000,-5.1462 l -5.1462,-0.0000 l -0.0000,5.1462 l -5.1462,-0.0000 l 0.0000,-5.1462 l -5.1462,-0.0000 l 0.0000,-5.1462 l 5.1462,0.0000 l -0.0000,5.1462 l 5.1462,0.0000 l 0.0000,-5.1462 l 5.1462,0.0000 l 0.0000,-5.1462 l -5.1462,-0.0000 l 0.0000,-5.1462 l 5.1462,0.0000 l 0.0000,-5.1462 l -5.1462,-0.0000 l -0.0000,5.1462 l -5.1462,-0.0000 l 0.0000,-5.1462 l -5.1462,-0.0000 l 0.0000,-5.1462 l 5.1462,0.0000 l -0.0000,5.1462 l 5.1462,0.0000 l 0.0000,-5.1462 l 5.1462,0.0000 l 0.0000,-5.1462 l -5.1462,-0.0000 l 0.0000,-5.1462 l 5.1462,0.0000 l -0.0000,5.1462 l 5.1462,0.0000 l 0.0000,-5.1462 l 5.1462,0.0000 l -0.0000,5.1462 l 5.1462,0.0000 l -0.0000,5.1462 l -5.1462,0.0000 l -0.0000,-5.1462 l -5.1462,0.0000 l -0.0000,5.1462 l -5.1462,0.0000 l -0.0000,5.1462 l 5.1462,0.0000 l -0.0000,5.1462 l -5.1462,0.0000 l 0.0000,5.1462 l 5.1462,0.0000 l 0.0000,-5.1462 l 5.1462,0.0000 l 0.0000,5.1462 l 5.1462,0.0000 l -0.0000,5.1462 l -5.1462,0.0000 l -0.0000,5.1462 l 5.1462,0.0000 l 0.0000,-5.1462 l 5.1462,0.0000 l 0.0000,-5.1462 l -5.1462,-0.0000 l 0.0000,-5.1462 l 5.1462,0.0000 l 0.0000,5.1462 l 5.1462,0.0000 l 0.0000,-5.1462 l 5.1462,0.0000 l 0.0000,5.1462 l 5.1462,0.0000 l -0.0000,5.1462 l -5.1462,0.0000 l -0.0000,5.1462 l 5.1462,0.0000 l 0.0000,-5.1462 l 5.1462,0.0000 l 0.0000,-5.1462 l -5.1462,-0.0000 l 0.0000,-5.1462 l 5.1462,0.0000 l 0.0000,-5.1462 l -5.1462,-0.0000 l -0.0000,5.1462 l -5.1462,-0.0000 l 0.0000,-5.1462 l -5.1462,-0.0000 l 0.0000,-5.1462 l 5.1462,0.0000 l -0.0000,5.1462 l 5.1462,0.0000 l 0.0000,-5.1462 l 5.1462,0.0000 l 0.0000,-5.1462 l -5.1462,-0.0000 l 0.0000,-5.1462 l 5.1462,0.0000 l 0.0000,5.1462 l 5.1462,0.0000 l 0.0000,-5.1462 l 5.1462,0.0000 l 0.0000,5.1462 l 5.1462,0.0000 l -0.0000,5.1462 l -5.1462,0.0000 l -0.0000,-5.1462 l -5.1462,0.0000 l -0.0000,5.1462 l -5.1462,0.0000 l -0.0000,5.1462 l 5.1462,0.0000 l -0.0000,5.1462 l -5.1462,0.0000 l 0.0000,5.1462 l 5.1462,0.0000 l 0.0000,-5.1462 l 5.1462,0.0000 l 0.0000,5.1462 l 5.1462,0.0000 l -0.0000,5.1462 l -5.1462,-0.0000 l -0.0000,5.1462 l 5.1462,0.0000 l 0.0000,-5.1462 l 5.1462,0.0000 l 0.0000,-5.1462 l -5.1462,-0.0000 l 0.0000,-5.1462 l 5.1462,0.0000 l 0.0000,5.1462 l 5.1462,0.0000 l 0.0000,-5.1462 l 5.1462,0.0000 l 0.0000,5.1462 l 5.1462,0.0000 l -0.0000,5.1462 l -5.1462,-0.0000 l -0.0000,-5.1462 l -5.1462,-0.0000 l -0.0000,5.1462 l -5.1462,0.0000 l -0.0000,5.1462 l 5.1462,0.0000 l -0.0000,5.1462 l -5.1462,0.0000 l -0.0000,5.1462 l 5.1462,0.0000 l 0.0000,-5.1462 l 5.1462,0.0000 l -0.0000,5.1462 l 5.1462,0.0000 l -0.0000,5.1462 l -5.1462,0.0000 l -0.0000,-5.1462 l -5.1462,-0.0000 l -0.0000,5.1462 l -5.1462,0.0000 l -0.0000,5.1462 l 5.1462,0.0000 l -0.0000,5.1462 l -5.1462,0.0000 l -0.0000,-5.1462 l -5.1462,-0.0000 l -0.0000,5.1462 l -5.1462,0.0000 l -0.0000,-5.1462 l -5.1462,-0.0000 l -0.0000,-5.1462 l 5.1462,-0.0000 l -0.0000,-5.1462 h -5.1462 l -0.0000,5.1462 l -5.1462,0.0000 l -0.0000,5.1462 l 5.1462,0.0000 l -0.0000,5.1462 l -5.1462,0.0000 v 5.1462 l 5.1462,0.0000 l 0.0000,-5.1462 l 5.1462,0.0000 v 5.1462 l 5.1462,0.0000 l -0.0000,5.1462 h -5.1462 l -0.0000,5.1462 l 5.1462,0.0000 l 0.0000,-5.1462 l 5.1462,0.0000 l 0.0000,-5.1462 l -5.1462,-0.0000 l 0.0000,-5.1462 l 5.1462,0.0000 v 5.1462 l 5.1462,0.0000 l 0.0000,-5.1462 l 5.1462,0.0000 v 5.1462 l 5.1462,0.0000 l -0.0000,5.1462 h -5.1462 l -0.0000,5.1462 l 5.1462,0.0000 l 0.0000,-5.1462 l 5.1462,0.0000 l 0.0000,-5.1462 l -5.1462,-0.0000 l 0.0000,-5.1462 l 5.1462,0.0000 l 0.0000,-5.1462 l -5.1462,-0.0000 l -0.0000,5.1462 l -5.1462,-0.0000 l 0.0000,-5.1462 l -5.1462,-0.0000 l 0.0000,-5.1462 l 5.1462,0.0000 l -0.0000,5.1462 l 5.1462,0.0000 l 0.0000,-5.1462 l 5.1462,0.0000 l 0.0000,-5.1462 l -5.1462,-0.0000 l 0.0000,-5.1462 l 5.1462,0.0000 l 0.0000,5.1462 l 5.1462,0.0000 l 0.0000,-5.1462 l 5.1462,0.0000 l 0.0000,5.1462 l 5.1462,0.0000 l -0.0000,5.1462 l -5.1462,0.0000 l -0.0000,5.1462 l 5.1462,0.0000 l 0.0000,-5.1462 l 5.1462,0.0000 l 0.0000,-5.1462 l -5.1462,-0.0000 l 0.0000,-5.1462 l 5.1462,0.0000 l 0.0000,-5.1462 l -5.1462,-0.0000 l -0.0000,5.1462 l -5.1462,-0.0000 l 0.0000,-5.1462 l -5.1462,-0.0000 l 0.0000,-5.1462 l 5.1462,0.0000 l 0.0000,-5.1462 l -5.1462,-0.0000 l -0.0000,5.1462 l -5.1462,-0.0000 l -0.0000,5.1462 l 5.1462,0.0000 l -0.0000,5.1462 l -5.1462,-0.0000 l 0.0000,-5.1462 l -5.1462,-0.0000 l -0.0000,5.1462 l -5.1462,-0.0000 l 0.0000,-5.1462 l -5.1462,-0.0000 l 0.0000,-5.1462 l 5.1462,0.0000 l -0.0000,5.1462 l 5.1462,0.0000 l 0.0000,-5.1462 l 5.1462,0.0000 l 0.0000,-5.1462 l -5.1462,-0.0000 l 0.0000,-5.1462 l 5.1462,0.0000 l 0.0000,-5.1462 l -5.1462,-0.0000 l -0.0000,5.1462 l -5.1462,-0.0000 l 0.0000,-5.1462 l -5.1462,-0.0000 l 0.0000,-5.1462 l 5.1462,0.0000 l -0.0000,5.1462 l 5.1462,0.0000 l 0.0000,-5.1462 l 5.1462,0.0000 l 0.0000,-5.1462 l -5.1462,-0.0000 l 0.0000,-5.1462 l 5.1462,0.0000 v 5.1462 l 5.1462,0.0000 l 0.0000,-5.1462 l 5.1462,0.0000 v 5.1462 l 5.1462,0.0000 l -0.0000,5.1462 l -5.1462,0.0000 l 0.0000,5.1462 l 5.1462,0.0000 l 0.0000,-5.1462 l 5.1462,0.0000 l 0.0000,-5.1462 l -5.1462,-0.0000 l 0.0000,-5.1462 l 5.1462,0.0000 l 0.0000,-5.1462 l -5.1462,-0.0000 l -0.0000,5.1462 l -5.1462,-0.0000 l 0.0000,-5.1462 l -5.1462,-0.0000 l 0.0000,-5.1462 l 5.1462,0.0000 l 0.0000,-5.1462 l -5.1462,-0.0000 l -0.0000,5.1462 l -5.1462,-0.0000 l -0.0000,5.1462 l 5.1462,0.0000 l -0.0000,5.1462 l -5.1462,-0.0000 l 0.0000,-5.1462 l -5.1462,-0.0000 l -0.0000,5.1462 l -5.1462,-0.0000 l 0.0000,-5.1462 l -5.1462,-0.0000 l 0.0000,-5.1462 l 5.1462,0.0000 l 0.0000,-5.1462 l -5.1462,-0.0000 l -0.0000,5.1462 l -5.1462,-0.0000 l -0.0000,5.1462 l 5.1462,0.0000 l -0.0000,5.1462 l -5.1462,-0.0000 l -0.0000,5.1462 l 5.1462,0.0000 l 0.0000,-5.1462 l 5.1462,0.0000 l -0.0000,5.1462 l 5.1462,0.0000 l -0.0000,5.1462 l -5.1462,-0.0000 l 0.0000,-5.1462 l -5.1462,-0.0000 l -0.0000,5.1462 l -5.1462,-0.0000 l -0.0000,5.1462 l 5.1462,0.0000 l -0.0000,5.1462 l -5.1462,-0.0000 l 0.0000,-5.1462 l -5.1462,-0.0000 l -0.0000,5.1462 l -5.1462,-0.0000 l 0.0000,-5.1462 l -5.1462,-0.0000 l 0.0000,-5.1462 l 5.1462,0.0000 v 5.1462 l 5.1462,0.0000 l 0.0000,-5.1462 l 5.1462,0.0000 l 0.0000,-5.1462 l -5.1462,-0.0000 l 0.0000,-5.1462 l 5.1462,0.0000 l 0.0000,-5.1462 l -5.1462,-0.0000 l -0.0000,5.1462 l -5.1462,-0.0000 l 0.0000,-5.1462 l -5.1462,-0.0000 l 0.0000,-5.1462 l 5.1462,0.0000 l 0.0000,-5.1462 l -5.1462,-0.0000 l -0.0000,5.1462 l -5.1462,-0.0000 l -0.0000,5.1462 l 5.1462,0.0000 l -0.0000,5.1462 l -5.1462,-0.0000 l 0.0000,-5.1462 l -5.1462,-0.0000 l -0.0000,5.1462 l -5.1462,-0.0000 l 0.0000,-5.1462 l -5.1462,-0.0000 l 0.0000,-5.1462 l 5.1462,0.0000 l -0.0000,5.1462 l 5.1462,0.0000 l 0.0000,-5.1462 l 5.1462,0.0000 l 0.0000,-5.1462 l -5.1462,-0.0000 l 0.0000,-5.1462 l 5.1462,0.0000 l 0.0000,-5.1462 l -5.1462,-0.0000 l -0.0000,5.1462 l -5.1462,-0.0000 l 0.0000,-5.1462 l -5.1462,-0.0000 l 0.0000,-5.1462 l 5.1462,0.0000 l -0.0000,5.1462 l 5.1462,0.0000 l 0.0000,-5.1462 l 5.1462,0.0000 l 0.0000,-5.1462 l -5.1462,-0.0000 l 0.0000,-5.1462 l 5.1462,0.0000 v 5.1462 l 5.1462,0.0000 l 0.0000,-5.1462 l 5.1462,0.0000 v 5.1462 l 5.1462,0.0000 l -0.0000,5.1462 h -5.1462 l -0.0000,-5.1462 l -5.1462,-0.0000 l -0.0000,5.1462 l -5.1462,0.0000 l -0.0000,5.1462 l 5.1462,0.0000 l -0.0000,5.1462 l -5.1462,0.0000 l -0.0000,5.1462 l 5.1462,0.0000 l 0.0000,-5.1462 l 5.1462,0.0000 l -0.0000,5.1462 l 5.1462,0.0000 l -0.0000,5.1462 l -5.1462,-0.0000 l -0.0000,5.1462 l 5.1462,0.0000 l 0.0000,-5.1462 l 5.1462,0.0000 l 0.0000,-5.1462 l -5.1462,-0.0000 l 0.0000,-5.1462 l 5.1462,0.0000 l -0.0000,5.1462 l 5.1462,0.0000 l 0.0000,-5.1462 l 5.1462,0.0000 l -0.0000,5.1462 l 5.1462,0.0000 l -0.0000,5.1462 l -5.1462,-0.0000 l -0.0000,5.1462 l 5.1462,0.0000 l 0.0000,-5.1462 l 5.1462,0.0000 l 0.0000,-5.1462 l -5.1462,-0.0000 l 0.0000,-5.1462 l 5.1462,0.0000 l 0.0000,-5.1462 l -5.1462,-0.0000 l -0.0000,5.1462 l -5.1462,-0.0000 l 0.0000,-5.1462 l -5.1462,-0.0000 l 0.0000,-5.1462 l 5.1462,0.0000 l -0.0000,5.1462 l 5.1462,0.0000 l 0.0000,-5.1462 l 5.1462,0.0000 l 0.0000,-5.1462 l -5.1462,-0.0000 l 0.0000,-5.1462 l 5.1462,0.0000 l 0.0000,5.1462 l 5.1462,0.0000 l 0.0000,-5.1462 l 5.1462,0.0000 l 0.0000,5.1462 l 5.1462,0.0000 l -0.0000,5.1462 l -5.1462,0.0000 l -0.0000,5.1462 l 5.1462,0.0000 l 0.0000,-5.1462 l 5.1462,0.0000 l 0.0000,-5.1462 l -5.1462,-0.0000 l 0.0000,-5.1462 l 5.1462,0.0000 l 0.0000,-5.1462 l -5.1462,-0.0000 l -0.0000,5.1462 l -5.1462,-0.0000 l 0.0000,-5.1462 l -5.1462,-0.0000 l 0.0000,-5.1462 l 5.1462,0.0000 l 0.0000,-5.1462 l -5.1462,-0.0000 l -0.0000,5.1462 l -5.1462,-0.0000 l -0.0000,5.1462 l 5.1462,0.0000 l -0.0000,5.1462 l -5.1462,-0.0000 l 0.0000,-5.1462 l -5.1462,-0.0000 l -0.0000,5.1462 l -5.1462,-0.0000 l 0.0000,-5.1462 l -5.1462,-0.0000 l 0.0000,-5.1462 l 5.1462,0.0000 l -0.0000,5.1462 l 5.1462,0.0000 l 0.0000,-5.1462 l 5.1462,0.0000 l 0.0000,-5.1462 l -5.1462,-0.0000 l 0.0000,-5.1462 l 5.1462,0.0000 l 0.0000,-5.1462 l -5.1462,-0.0000 l -0.0000,5.1462 l -5.1462,-0.0000 l 0.0000,-5.1462 l -5.1462,-0.0000 l 0.0000,-5.1462 l 5.1462,0.0000 l -0.0000,5.1462 l 5.1462,0.0000 l 0.0000,-5.1462 l 5.1462,0.0000 l 0.0000,-5.1462 l -5.1462,-0.0000 l 0.0000,-5.1462 l 5.1462,0.0000 v 5.1462 l 5.1462,0.0000 l 0.0000,-5.1462 l 5.1462,0.0000 v 5.1462 l 5.1462,0.0000 l -0.0000,5.1462 l -5.1462,0.0000 l -0.0000,-5.1462 l -5.1462,0.0000 l -0.0000,5.1462 l -5.1462,0.0000 l -0.0000,5.1462 l 5.1462,0.0000 l -0.0000,5.1462 l -5.1462,0.0000 l 0.0000,5.1462 l 5.1462,0.0000 l 0.0000,-5.1462 l 5.1462,0.0000 l 0.0000,5.1462 l 5.1462,0.0000 l -0.0000,5.1462 l -5.1462,0.0000 l -0.0000,5.1462 l 5.1462,0.0000 l 0.0000,-5.1462 l 5.1462,0.0000 l 0.0000,-5.1462 l -5.1462,-0.0000 l 0.0000,-5.1462 l 5.1462,0.0000 l 0.0000,5.1462 l 5.1462,0.0000 l 0.0000,-5.1462 l 5.1462,0.0000 l 0.0000,5.1462 l 5.1462,0.0000 l -0.0000,5.1462 l -5.1462,0.0000 l -0.0000,5.1462 l 5.1462,0.0000 l 0.0000,-5.1462 l 5.1462,0.0000 l 0.0000,-5.1462 l -5.1462,-0.0000 l 0.0000,-5.1462 l 5.1462,0.0000 l 0.0000,-5.1462 l -5.1462,-0.0000 l -0.0000,5.1462 l -5.1462,-0.0000 l 0.0000,-5.1462 l -5.1462,-0.0000 l 0.0000,-5.1462 l 5.1462,0.0000 l -0.0000,5.1462 l 5.1462,0.0000 l 0.0000,-5.1462 l 5.1462,0.0000 l 0.0000,-5.1462 l -5.1462,-0.0000 l 0.0000,-5.1462 l 5.1462,0.0000 l 0.0000,5.1462 l 5.1462,0.0000 l 0.0000,-5.1462 l 5.1462,0.0000 l 0.0000,5.1462 l 5.1462,0.0000 l -0.0000,5.1462 h -5.1462 l -0.0000,-5.1462 l -5.1462,0.0000 l -0.0000,5.1462 l -5.1462,0.0000 l -0.0000,5.1462 l 5.1462,0.0000 l -0.0000,5.1462 l -5.1462,0.0000 l 0.0000,5.1462 l 5.1462,0.0000 l 0.0000,-5.1462 l 5.1462,0.0000 l 0.0000,5.1462 l 5.1462,0.0000 l -0.0000,5.1462 l -5.1462,-0.0000 l -0.0000,5.1462 l 5.1462,0.0000 l 0.0000,-5.1462 l 5.1462,0.0000 l 0.0000,-5.1462 l -5.1462,-0.0000 l 0.0000,-5.1462 l 5.1462,0.0000 l 0.0000,5.1462 l 5.1462,0.0000 l 0.0000,-5.1462 l 5.1462,0.0000 l 0.0000,5.1462 l 5.1462,0.0000 l -0.0000,5.1462 l -5.1462,-0.0000 l -0.0000,-5.1462 l -5.1462,-0.0000 l -0.0000,5.1462 l -5.1462,0.0000 l -0.0000,5.1462 l 5.1462,0.0000 l -0.0000,5.1462 l -5.1462,0.0000 l -0.0000,5.1462 l 5.1462,0.0000 l 0.0000,-5.1462 l 5.1462,0.0000 l -0.0000,5.1462 l 5.1462,0.0000 l -0.0000,5.1462 h -5.1462 l -0.0000,-5.1462 l -5.1462,-0.0000 l -0.0000,5.1462 l -5.1462,0.0000 l -0.0000,5.1462 l 5.1462,0.0000 l -0.0000,5.1462 l -5.1462,0.0000 l -0.0000,-5.1462 l -5.1462,-0.0000 l -0.0000,5.1462 l -5.1462,0.0000 l -0.0000,-5.1462 l -5.1462,-0.0000 l -0.0000,-5.1462 l 5.1462,-0.0000 "/></g><defs><linearGradient x2="1.0000" y1="-1.0000" gradientUnits="userSpaceOnUse" spreadMethod="pad" gradientTransform="matrix(164.6784,-0.0000,0.0000,-164.6784,183.3333,121.5789)" id="gradient5" y2="1.0000" x1="-1.0000"><stop stop-opacity="1.0000" offset="0.0000" stop-color="rgb(0,128,128)"/><stop stop-opacity="1.0000" offset="1.0000" stop-color="rgb(128,0,128)"/></linearGradient></defs><g stroke-linejoin="miter" stroke-opacity="1" fill-opacity="0.0" stroke="url(#gradient5)" stroke-width="0.5171785805797898" fill="rgb(0,0,0)" stroke-linecap="butt" stroke-miterlimit="10.0"><path d="M 115.1462,580.8772 l -2.5731,2.5731 l 2.5731,2.5731 l 2.5731,-2.5731 l 2.5731,2.5731 l 2.5731,-2.5731 l -2.5731,-2.5731 l 2.5731,-2.5731 l 2.5731,2.5731 l 2.5731,-2.5731 l -2.5731,-2.5731 l -2.5731,2.5731 l -2.5731,-2.5731 l 2.5731,-2.5731 l -2.5731,-2.5731 l 2.5731,-2.5731 l 2.5731,2.5731 l 2.5731,-2.5731 l -2.5731,-2.5731 l -2.5731,2.5731 l -2.5731,-2.5731 l -2.5731,2.5731 l 2.5731,2.5731 l -2.5731,2.5731 l -2.5731,-2.5731 l 2.5731,-2.5731 l -2.5731,-2.5731 l -2.5731,2.5731 l -2.5731,-2.5731 l 2.5731,-2.5731 l -2.5731,-2.5731 l 2.5731,-2.5731 l 2.5731,2.5731 l 2.5731,-2.5731 l -2.5731,-2.5731 l -2.5731,2.5731 l -2.5731,-2.5731 l -2.5731,2.5731 l 2.5731,2.5731 l -2.5731,2.5731 l -2.5731,-2.5731 l -2.5731,2.5731 l 2.5731,2.5731 l 2.5731,-2.5731 l 2.5731,2.5731 l -2.5731,2.5731 l 2.5731,2.5731 l -2.5731,2.5731 l -2.5731,-2.5731 l 2.5731,-2.5731 l -2.5731,-2.5731 l -2.5731,2.5731 l -2.5731,-2.5731 l -2.5731,2.5731 l 2.5731,2.5731 l -2.5731,2.5731 l -2.5731,-2.5731 l 2.5731,-2.5731 l -2.5731,-2.5731 l -2.5731,2.5731 l -2.5731,-2.5731 l 2.5731,-2.5731 l -2.5731,-2.5731 l 2.5731,-2.5731 l 2.5731,2.5731 l 2.5731,-2.5731 l -2.5731,-2.5731 l -2.5731,2.5731 l -2.5731,-2.5731 l -2.5731,2.5731 l 2.5731,2.5731 l -2.5731,2.5731 l -2.5731,-2.5731 l -2.5731,2.5731 l 2.5731,2.5731 l 2.5731,-2.5731 l 2.5731,2.5731 l -2.5731,2.5731 l 2.5731,2.5731 l -2.5731,2.5731 l -2.5731,-2.5731 l -2.5731,2.5731 l 2.5731,2.5731 l 2.5731,-2.5731 l 2.5731,2.5731 l 2.5731,-2.5731 l -2.5731,-2.5731 l 2.5731,-2.5731 l 2.5731,2.5731 l -2.5731,2.5731 l 2.5731,2.5731 l 2.5731,-2.5731 l 2.5731,2.5731 l -2.5731,2.5731 l 2.5731,2.5731 l -2.5731,2.5731 l -2.5731,-2.5731 l 2.5731,-2.5731 l -2.5731,-2.5731 l -2.5731,2.5731 l -2.5731,-2.5731 l -2.5731,2.5731 l 2.5731,2.5731 l -2.5731,2.5731 l -2.5731,-2.5731 l -2.5731,2.5731 l 2.5731,2.5731 l 2.5731,-2.5731 l 2.5731,2.5731 l -2.5731,2.5731 l 2.5731,2.5731 l -2.5731,2.5731 l -2.5731,-2.5731 l 2.5731,-2.5731 l -2.5731,-2.5731 l -2.5731,2.5731 l -2.5731,-2.5731 l -2.5731,2.5731 l 2.5731,2.5731 l -2.5731,2.5731 l -2.5731,-2.5731 l 2.5731,-2.5731 l -2.5731,-2.5731 l -2.5731,2.5731 l -2.5731,-2.5731 l 2.5731,-2.5731 l -2.5731,-2.5731 l 2.5731,-2.5731 l 2.5731,2.5731 l 2.5731,-2.5731 l -2.5731,-2.5731 l -2.5731,2.5731 l -2.5731,-2.5731 l -2.5731,2.5731 l 2.5731,2.5731 l -2.5731,2.5731 l -2.5731,-2.5731 l -2.5731,2.5731 l 2.5731,2.5731 l 2.5731,-2.5731 l 2.5731,2.5731 l -2.5731,2.5731 l 2.5731,2.5731 l -2.5731,2.5731 l -2.5731,-2.5731 l -2.5731,2.5731 l 2.5731,2.5731 l 2.5731,-2.5731 l 2.5731,2.5731 l 2.5731,-2.5731 l -2.5731,-2.5731 l 2.5731,-2.5731 l 2.5731,2.5731 l -2.5731,2.5731 l 2.5731,2.5731 l 2.5731,-2.5731 l 2.5731,2.5731 l -2.5731,2.5731 l 2.5731,2.5731 l -2.5731,2.5731 l -2.5731,-2.5731 l -2.5731,2.5731 l 2.5731,2.5731 l 2.5731,-2.5731 l 2.5731,2.5731 l 2.5731,-2.5731 l -2.5731,-2.5731 l 2.5731,-2.5731 l 2.5731,2.5731 l 2.5731,-2.5731 l -2.5731,-2.5731 l -2.5731,2.5731 l -2.5731,-2.5731 l 2.5731,-2.5731 l -2.5731,-2.5731 l 2.5731,-2.5731 l 2.5731,2.5731 l -2.5731,2.5731 l 2.5731,2.5731 l 2.5731,-2.5731 l 2.5731,2.5731 l 2.5731,-2.5731 l -2.5731,-2.5731 l 2.5731,-2.5731 l 2.5731,2.5731 l -2.5731,2.5731 l 2.5731,2.5731 l 2.5731,-2.5731 l 2.5731,2.5731 l -2.5731,2.5731 l 2.5731,2.5731 l -2.5731,2.5731 l -2.5731,-2.5731 l 2.5731,-2.5731 l -2.5731,-2.5731 l -2.5731,2.5731 l -2.5731,-2.5731 l -2.5731,2.5731 l 2.5731,2.5731 l -2.5731,2.5731 l -2.5731,-2.5731 l -2.5731,2.5731 l 2.5731,2.5731 l 2.5731,-2.5731 l 2.5731,2.5731 l -2.5731,2.5731 l 2.5731,2.5731 l -2.5731,2.5731 l -2.5731,-2.5731 l -2.5731,2.5731 l 2.5731,2.5731 l 2.5731,-2.5731 l 2.5731,2.5731 l 2.5731,-2.5731 l -2.5731,-2.5731 l 2.5731,-2.5731 l 2.5731,2.5731 l -2.5731,2.5731 l 2.5731,2.5731 l 2.5731,-2.5731 l 2.5731,2.5731 l -2.5731,2.5731 l 2.5731,2.5731 l -2.5731,2.5731 l -2.5731,-2.5731 l 2.5731,-2.5731 l -2.5731,-2.5731 l -2.5731,2.5731 l -2.5731,-2.5731 l -2.5731,2.5731 l 2.5731,2.5731 l -2.5731,2.5731 l -2.5731,-2.5731 l -2.5731,2.5731 l 2.5731,2.5731 l 2.5731,-2.5731 l 2.5731,2.5731 l -2.5731,2.5731 l 2.5731,2.5731 l -2.5731,2.5731 l -2.5731,-2.5731 l 2.5731,-2.5731 l -2.5731,-2.5731 l -2.5731,2.5731 l -2.5731,-2.5731 l -2.5731,2.5731 l 2.5731,2.5731 l -2.5731,2.5731 l -2.5731,-2.5731 l 2.5731,-2.5731 l -2.5731,-2.5731 l -2.5731,2.5731 l -2.5731,-2.5731 l 2.5731,-2.5731 l -2.5731,-2.5731 l 2.5731,-2.5731 l 2.5731,2.5731 l 2.5731,-2.5731 l -2.5731,-2.5731 l -2.5731,2.5731 l -2.5731,-2.5731 l -2.5731,2.5731 l 2.5731,2.5731 l -2.5731,2.5731 l -2.5731,-2.5731 l -2.5731,2.5731 l 2.5731,2.5731 l 2.5731,-2.5731 l 2.5731,2.5731 l -2.5731,2.5731 l 2.5731,2.5731 l -2.5731,2.5731 l -2.5731,-2.5731 l -2.5731,2.5731 l 2.5731,2.5731 l 2.5731,-2.5731 l 2.5731,2.5731 l 2.5731,-2.5731 l -2.5731,-2.5731 l 2.5731,-2.5731 l 2.5731,2.5731 l -2.5731,2.5731 l 2.5731,2.5731 l 2.5731,-2.5731 l 2.5731,2.5731 l -2.5731,2.5731 l 2.5731,2.5731 l -2.5731,2.5731 l -2.5731,-2.5731 l -2.5731,2.5731 l 2.5731,2.5731 l 2.5731,-2.5731 l 2.5731,2.5731 l 2.5731,-2.5731 l -2.5731,-2.5731 l 2.5731,-2.5731 l 2.5731,2.5731 l 2.5731,-2.5731 l -2.5731,-2.5731 l -2.5731,2.5731 l -2.5731,-2.5731 l 2.5731,-2.5731 l -2.5731,-2.5731 l 2.5731,-2.5731 l 2.5731,2.5731 l -2.5731,2.5731 l 2.5731,2.5731 l 2.5731,-2.5731 l 2.5731,2.5731 l 2.5731,-2.5731 l -2.5731,-2.5731 l 2.5731,-2.5731 l 2.5731,2.5731 l -2.5731,2.5731 l 2.5731,2.5731 l 2.5731,-2.5731 l 2.5731,2.5731 l -2.5731,2.5731 l 2.5731,2.5731 l -2.5731,2.5731 l -2.5731,-2.5731 l -2.5731,2.5731 l 2.5731,2.5731 l 2.5731,-2.5731 l 2.5731,2.5731 l 2.5731,-2.5731 l -2.5731,-2.5731 l 2.5731,-2.5731 l 2.5731,2.5731 l 2.5731,-2.5731 l -2.5731,-2.5731 l -2.5731,2.5731 l -2.5731,-2.5731 l 2.5731,-2.5731 l -2.5731,-2.5731 l 2.5731,-2.5731 l 2.5731,2.5731 l 2.5731,-2.5731 l -2.5731,-2.5731 l -2.5731,2.5731 l -2.5731,-2.5731 l -2.5731,2.5731 l 2.5731,2.5731 l -2.5731,2.5731 l -2.5731,-2.5731 l 2.5731,-2.5731 l -2.5731,-2.5731 l -2.5731,2.5731 l -2.5731,-2.5731 l 2.5731,-2.5731 l -2.5731,-2.5731 l 2.5731,-2.5731 l 2.5731,2.5731 l -2.5731,2.5731 l 2.5731,2.5731 l 2.5731,-2.5731 l 2.5731,2.5731 l 2.5731,-2.5731 l -2.5731,-2.5731 l 2.5731,-2.5731 l 2.5731,2.5731 l 2.5731,-2.5731 l -2.5731,-2.5731 l -2.5731,2.5731 l -2.5731,-2.5731 l 2.5731,-2.5731 l -2.5731,-2.5731 l 2.5731,-2.5731 l 2.5731,2.5731 l -2.5731,2.5731 l 2.5731,2.5731 l 2.5731,-2.5731 l 2.5731,2.5731 l 2.5731,-2.5731 l -2.5731,-2.5731 l 2.5731,-2.5731 l 2.5731,2.5731 l -2.5731,2.5731 l 2.5731,2.5731 l 2.5731,-2.5731 l 2.5731,2.5731 l -2.5731,2.5731 l 2.5731,2.5731 l -2.5731,2.5731 l -2.5731,-2.5731 l 2.5731,-2.5731 l -2.5731,-2.5731 l -2.5731,2.5731 l -2.5731,-2.5731 l -2.5731,2.5731 l 2.5731,2.5731 l -2.5731,2.5731 l -2.5731,-2.5731 l -2.5731,2.5731 l 2.5731,2.5731 l 2.5731,-2.5731 l 2.5731,2.5731 l -2.5731,2.5731 l 2.5731,2.5731 l -2.5731,2.5731 l -2.5731,-2.5731 l -2.5731,2.5731 l 2.5731,2.5731 l 2.5731,-2.5731 l 2.5731,2.5731 l 2.5731,-2.5731 l -2.5731,-2.5731 l 2.5731,-2.5731 l 2.5731,2.5731 l -2.5731,2.5731 l 2.5731,2.5731 l 2.5731,-2.5731 l 2.5731,2.5731 l -2.5731,2.5731 l 2.5731,2.5731 l -2.5731,2.5731 l -2.5731,-2.5731 l -2.5731,2.5731 l 2.5731,2.5731 l 2.5731,-2.5731 l 2.5731,2.5731 l 2.5731,-2.5731 l -2.5731,-2.5731 l 2.5731,-2.5731 l 2.5731,2.5731 l 2.5731,-2.5731 l -2.5731,-2.5731 l -2.5731,2.5731 l -2.5731,-2.5731 l 2.5731,-2.5731 l -2.5731,-2.5731 l 2.5731,-2.5731 l 2.5731,2.5731 l -2.5731,2.5731 l 2.5731,2.5731 l 2.5731,-2.5731 l 2.5731,2.5731 l 2.5731,-2.5731 l -2.5731,-2.5731 l 2.5731,-2.5731 l 2.5731,2.5731 l -2.5731,2.5731 l 2.5731,2.5731 l 2.5731,-2.5731 l 2.5731,2.5731 l -2.5731,2.5731 l 2.5731,2.5731 l -2.5731,2.5731 l -2.5731,-2.5731 l 2.5731,-2.5731 l -2.5731,-2.5731 l -2.5731,2.5731 l -2.5731,-2.5731 l -2.5731,2.5731 l 2.5731,2.5731 l -2.5731,2.5731 l -2.5731,-2.5731 l -2.5731,2.5731 l 2.5731,2.5731 l 2.5731,-2.5731 l 2.5731,2.5731 l -2.5731,2.5731 l 2.5731,2.5731 l -2.5731,2.5731 l -2.5731,-2.5731 l -2.5731,2.5731 l 2.5731,2.5731 l 2.5731,-2.5731 l 2.5731,2.5731 l 2.5731,-2.5731 l -2.5731,-2.5731 l 2.5731,-2.5731 l 2.5731,2.5731 l -2.5731,2.5731 l 2.5731,2.5731 l 2.5731,-2.5731 l 2.5731,2.5731 l -2.5731,2.5731 l 2.5731,2.5731 l -2.5731,2.5731 l -2.5731,-2.5731 l 2.5731,-2.5731 l -2.5731,-2.5731 l -2.5731,2.5731 l -2.5731,-2.5731 l -2.5731,2.5731 l 2.5731,2.5731 l -2.5731,2.5731 l -2.5731,-2.5731 l -2.5731,2.5731 l 2.5731,2.5731 l 2.5731,-2.5731 l 2.5731,2.5731 l -2.5731,2.5731 l 2.5731,2.5731 l -2.5731,2.5731 l -2.5731,-2.5731 l 2.5731,-2.5731 l -2.5731,-2.5731 l -2.5731,2.5731 l -2.5731,-2.5731 l -2.5731,2.5731 l 2.5731,2.5731 l -2.5731,2.5731 l -2.5731,-2.5731 l 2.5731,-2.5731 l -2.5731,-2.5731 l -2.5731,2.5731 l -2.5731,-2.5731 l 2.5731,-2.5731 l -2.5731,-2.5731 l 2.5731,-2.5731 l 2.5731,2.5731 l 2.5731,-2.5731 l -2.5731,-2.5731 l -2.5731,2.5731 l -2.5731,-2.5731 l -2.5731,2.5731 l 2.5731,2.5731 l -2.5731,2.5731 l -2.5731,-2.5731 l -2.5731,2.5731 l 2.5731,2.5731 l 2.5731,-2.5731 l 2.5731,2.5731 l -2.5731,2.5731 l 2.5731,2.5731 l -2.5731,2.5731 l -2.5731,-2.5731 l -2.5731,2.5731 l 2.5731,2.5731 l 2.5731,-2.5731 l 2.5731,2.5731 l 2.5731,-2.5731 l -2.5731,-2.5731 l 2.5731,-2.5731 l 2.5731,2.5731 l -2.5731,2.5731 l 2.5731,2.5731 l 2.5731,-2.5731 l 2.5731,2.5731 l -2.5731,2.5731 l 2.5731,2.5731 l -2.5731,2.5731 l -2.5731,-2.5731 l -2.5731,2.5731 l 2.5731,2.5731 l 2.5731,-2.5731 l 2.5731,2.5731 l 2.5731,-2.5731 l -2.5731,-2.5731 l 2.5731,-2.5731 l 2.5731,2.5731 l 2.5731,-2.5731 l -2.5731,-2.5731 l -2.5731,2.5731 l -2.5731,-2.5731 l 2.5731,-2.5731 l -2.5731,-2.5731 l 2.5731,-2.5731 l 2.5731,2.5731 l -2.5731,2.5731 l 2.5731,2.5731 l 2.5731,-2.5731 l 2.5731,2.5731 l 2.5731,-2.5731 l -2.5731,-2.5731 l 2.5731,-2.5731 l 2.5731,2.5731 l -2.5731,2.5731 l 2.5731,2.5731 l 2.5731,-2.5731 l 2.5731,2.5731 l -2.5731,2.5731 l 2.5731,2.5731 l -2.5731,2.5731 l -2.5731,-2.5731 l -2.5731,2.5731 l 2.5731,2.5731 l 2.5731,-2.5731 l 2.5731,2.5731 l 2.5731,-2.5731 l -2.5731,-2.5731 l 2.5731,-2.5731 l 2.5731,2.5731 l 2.5731,-2.5731 l -2.5731,-2.5731 l -2.5731,2.5731 l -2.5731,-2.5731 l 2.5731,-2.5731 l -2.5731,-2.5731 l 2.5731,-2.5731 l 2.5731,2.5731 l 2.5731,-2.5731 l -2.5731,-2.5731 l -2.5731,2.5731 l -2.5731,-2.5731 l -2.5731,2.5731 l 2.5731,2.5731 l -2.5731,2.5731 l -2.5731,-2.5731 l 2.5731,-2.5731 l -2.5731,-2.5731 l -2.5731,2.5731 l -2.5731,-2.5731 l 2.5731,-2.5731 l -2.5731,-2.5731 l 2.5731,-2.5731 l 2.5731,2.5731 l -2.5731,2.5731 l 2.5731,2.5731 l 2.5731,-2.5731 l 2.5731,2.5731 l 2.5731,-2.5731 l -2.5731,-2.5731 l 2.5731,-2.5731 l 2.5731,2.5731 l 2.5731,-2.5731 l -2.5731,-2.5731 l -2.5731,2.5731 l -2.5731,-2.5731 l 2.5731,-2.5731 l -2.5731,-2.5731 l 2.5731,-2.5731 l 2.5731,2.5731 l -2.5731,2.5731 l 2.5731,2.5731 l 2.5731,-2.5731 l 2.5731,2.5731 l 2.5731,-2.5731 l -2.5731,-2.5731 l 2.5731,-2.5731 l 2.5731,2.5731 l -2.5731,2.5731 l 2.5731,2.5731 l 2.5731,-2.5731 l 2.5731,2.5731 l -2.5731,2.5731 l 2.5731,2.5731 l -2.5731,2.5731 l -2.5731,-2.5731 l -2.5731,2.5731 l 2.5731,2.5731 l 2.5731,-2.5731 l 2.5731,2.5731 l 2.5731,-2.5731 l -2.5731,-2.5731 l 2.5731,-2.5731 l 2.5731,2.5731 l 2.5731,-2.5731 l -2.5731,-2.5731 l -2.5731,2.5731 l -2.5731,-2.5731 l 2.5731,-2.5731 l -2.5731,-2.5731 l 2.5731,-2.5731 l 2.5731,2.5731 l 2.5731,-2.5731 l -2.5731,-2.5731 l -2.5731,2.5731 l -2.5731,-2.5731 l -2.5731,2.5731 l 2.5731,2.5731 l -2.5731,2.5731 l -2.5731,-2.5731 l 2.5731,-2.5731 l -2.5731,-2.5731 l -2.5731,2.5731 l -2.5731,-2.5731 l 2.5731,-2.5731 l -2.5731,-2.5731 l 2.5731,-2.5731 l 2.5731,2.5731 l 2.5731,-2.5731 l -2.5731,-2.5731 l -2.5731,2.5731 l -2.5731,-2.5731 l -2.5731,2.5731 l 2.5731,2.5731 l -2.5731,2.5731 l -2.5731,-2.5731 l -2.5731,2.5731 l 2.5731,2.5731 l 2.5731,-2.5731 l 2.5731,2.5731 l -2.5731,2.5731 l 2.5731,2.5731 l -2.5731,2.5731 l -2.5731,-2.5731 l 2.5731,-2.5731 l -2.5731,-2.5731 l -2.5731,2.5731 l -2.5731,-2.5731 l -2.5731,2.5731 l 2.5731,2.5731 l -2.5731,2.5731 l -2.5731,-2.5731 l 2.5731,-2.5731 l -2.5731,-2.5731 l -2.5731,2.5731 l -2.5731,-2.5731 l 2.5731,-2.5731 l -2.5731,-2.5731 l 2.5731,-2.5731 l 2.5731,2.5731 l -2.5731,2.5731 l 2.5731,2.5731 l 2.5731,-2.5731 l 2.5731,2.5731 l 2.5731,-2.5731 l -2.5731,-2.5731 l 2.5731,-2.5731 l 2.5731,2.5731 l 2.5731,-2.5731 l -2.5731,-2.5731 l -2.5731,2.5731 l -2.5731,-2.5731 l 2.5731,-2.5731 l -2.5731,-2.5731 l 2.5731,-2.5731 l 2.5731,2.5731 l 2.5731,-2.5731 l -2.5731,-2.5731 l -2.5731,2.5731 l -2.5731,-2.5731 l -2.5731,2.5731 l 2.5731,2.5731 l -2.5731,2.5731 l -2.5731,-2.5731 l 2.5731,-2.5731 l -2.5731,-2.5731 l -2.5731,2.5731 l -2.5731,-2.5731 l 2.5731,-2.5731 l -2.5731,-2.5731 l 2.5731,-2.5731 l 2.5731,2.5731 l -2.5731,2.5731 l 2.5731,2.5731 l 2.5731,-2.5731 l 2.5731,2.5731 l 2.5731,-2.5731 l -2.5731,-2.5731 l 2.5731,-2.5731 l 2.5731,2.5731 l 2.5731,-2.5731 l -2.5731,-2.5731 l -2.5731,2.5731 l -2.5731,-2.5731 l 2.5731,-2.5731 l -2.5731,-2.5731 l 2.5731,-2.5731 l 2.5731,2.5731 l -2.5731,2.5731 l 2.5731,2.5731 l 2.5731,-2.5731 l 2.5731,2.5731 l 2.5731,-2.5731 l -2.5731,-2.5731 l 2.5731,-2.5731 l 2.5731,2.5731 l -2.5731,2.5731 l 2.5731,2.5731 l 2.5731,-2.5731 l 2.5731,2.5731 l -2.5731,2.5731 l 2.5731,2.5731 l -2.5731,2.5731 l -2.5731,-2.5731 l 2.5731,-2.5731 l -2.5731,-2.5731 l -2.5731,2.5731 l -2.5731,-2.5731 l -2.5731,2.5731 l 2.5731,2.5731 l -2.5731,2.5731 l -2.5731,-2.5731 l -2.5731,2.5731 l 2.5731,2.5731 l 2.5731,-2.5731 l 2.5731,2.5731 l -2.5731,2.5731 l 2.5731,2.5731 l -2.5731,2.5731 l -2.5731,-2.5731 l -2.5731,2.5731 l 2.5731,2.5731 l 2.5731,-2.5731 l 2.5731,2.5731 l 2.5731,-2.5731 l -2.5731,-2.5731 l 2.5731,-2.5731 l 2.5731,2.5731 l -2.5731,2.5731 l 2.5731,2.5731 l 2.5731,-2.5731 l 2.5731,2.5731 l -2.5731,2.5731 l 2.5731,2.5731 l -2.5731,2.5731 l -2.5731,-2.5731 l -2.5731,2.5731 l 2.5731,2.5731 l 2.5731,-2.5731 l 2.5731,2.5731 l 2.5731,-2.5731 l -2.5731,-2.5731 l 2.5731,-2.5731 l 2.5731,2.5731 l 2.5731,-2.5731 l -2.5731,-2.5731 l -2.5731,2.5731 l -2.5731,-2.5731 l 2.5731,-2.5731 l -2.5731,-2.5731 l 2.5731,-2.5731 l 2.5731,2.5731 l -2.5731,2.5731 l 2.5731,2.5731 l 2.5731,-2.5731 l 2.5731,2.5731 l 2.5731,-2.5731 l -2.5731,-2.5731 l 2.5731,-2.5731 l 2.5731,2.5731 l -2.5731,2.5731 l 2.5731,2.5731 l 2.5731,-2.5731 l 2.5731,2.5731 l -2.5731,2.5731 l 2.5731,2.5731 l -2.5731,2.5731 l -2.5731,-2.5731 l -2.5731,2.5731 l 2.5731,2.5731 l 2.5731,-2.5731 l 2.5731,2.5731 l 2.5731,-2.5731 l -2.5731,-2.5731 l 2.5731,-2.5731 l 2.5731,2.5731 l 2.5731,-2.5731 l -2.5731,-2.5731 l -2.5731,2.5731 l -2.5731,-2.5731 l 2.5731,-2.5731 l -2.5731,-2.5731 l 2.5731,-2.5731 l 2.5731,2.5731 l 2.5731,-2.5731 l -2.5731,-2.5731 l -2.5731,2.5731 l -2.5731,-2.5731 l -2.5731,2.5731 l 2.5731,2.5731 l -2.5731,2.5731 l -2.5731,-2.5731 l 2.5731,-2.5731 l -2.5731,-2.5731 l -2.5731,2.5731 l -2.5731,-2.5731 l 2.5731,-2.5731 l -2.5731,-2.5731 l 2.5731,-2.5731 l 2.5731,2.5731 l -2.5731,2.5731 l 2.5731,2.5731 l 2.5731,-2.5731 l 2.5731,2.5731 l 2.5731,-2.5731 l -2.5731,-2.5731 l 2.5731,-2.5731 l 2.5731,2.5731 l 2.5731,-2.5731 l -2.5731,-2.5731 l -2.5731,2.5731 l -2.5731,-2.5731 l 2.5731,-2.5731 l -2.5731,-2.5731 l 2.5731,-2.5731 l 2.5731,2.5731 l -2.5731,2.5731 l 2.5731,2.5731 l 2.5731,-2.5731 l 2.5731,2.5731 l 2.5731,-2.5731 l -2.5731,-2.5731 l 2.5731,-2.5731 l 2.5731,2.5731 l -2.5731,2.5731 l 2.5731,2.5731 l 2.5731,-2.5731 l 2.5731,2.5731 l -2.5731,2.5731 l 2.5731,2.5731 l -2.5731,2.5731 l -2.5731,-2.5731 l 2.5731,-2.5731 l -2.5731,-2.5731 l -2.5731,2.5731 l -2.5731,-2.5731 l -2.5731,2.5731 l 2.5731,2.5731 l -2.5731,2.5731 l -2.5731,-2.5731 l -2.5731,2.5731 l 2.5731,2.5731 l 2.5731,-2.5731 l 2.5731,2.5731 l -2.5731,2.5731 l 2.5731,2.5731 l -2.5731,2.5731 l -2.5731,-2.5731 l -2.5731,2.5731 l 2.5731,2.5731 l 2.5731,-2.5731 l 2.5731,2.5731 l 2.5731,-2.5731 l -2.5731,-2.5731 l 2.5731,-2.5731 l 2.5731,2.5731 l -2.5731,2.5731 l 2.5731,2.5731 l 2.5731,-2.5731 l 2.5731,2.5731 l -2.5731,2.5731 l 2.5731,2.5731 l -2.5731,2.5731 l -2.5731,-2.5731 l -2.5731,2.5731 l 2.5731,2.5731 l 2.5731,-2.5731 l 2.5731,2.5731 l 2.5731,-2.5731 l -2.5731,-2.5731 l 2.5731,-2.5731 l 2.5731,2.5731 l 2.5731,-2.5731 l -2.5731,-2.5731 l -2.5731,2.5731 l -2.5731,-2.5731 l 2.5731,-2.5731 l -2.5731,-2.5731 l 2.5731,-2.5731 l 2.5731,2.5731 l -2.5731,2.5731 l 2.5731,2.5731 l 2.5731,-2.5731 l 2.5731,2.5731 l 2.5731,-2.5731 l -2.5731,-2.5731 l 2.5731,-2.5731 l 2.5731,2.5731 l -2.5731,2.5731 l 2.5731,2.5731 l 2.5731,-2.5731 l 2.5731,2.5731 l -2.5731,2.5731 l 2.5731,2.5731 l -2.5731,2.5731 l -2.5731,-2.5731 l 2.5731,-2.5731 l -2.5731,-2.5731 l -2.5731,2.5731 l -2.5731,-2.5731 l -2.5731,2.5731 l 2.5731,2.5731 l -2.5731,2.5731 l -2.5731,-2.5731 l -2.5731,2.5731 l 2.5731,2.5731 l 2.5731,-2.5731 l 2.5731,2.5731 l -2.5731,2.5731 l 2.5731,2.5731 l -2.5731,2.5731 l -2.5731,-2.5731 l -2.5731,2.5731 l 2.5731,2.5731 l 2.5731,-2.5731 l 2.5731,2.5731 l 2.5731,-2.5731 l -2.5731,-2.5731 l 2.5731,-2.5731 l 2.5731,2.5731 l -2.5731,2.5731 l 2.5731,2.5731 l 2.5731,-2.5731 l 2.5731,2.5731 l -2.5731,2.5731 l 2.5731,2.5731 l -2.5731,2.5731 l -2.5731,-2.5731 l 2.5731,-2.5731 l -2.5731,-2.5731 l -2.5731,2.5731 l -2.5731,-2.5731 l -2.5731,2.5731 l 2.5731,2.5731 l -2.5731,2.5731 l -2.5731,-2.5731 l -2.5731,2.5731 l 2.5731,2.5731 l 2.5731,-2.5731 l 2.5731,2.5731 l -2.5731,2.5731 l 2.5731,2.5731 l -2.5731,2.5731 l -2.5731,-2.5731 l 2.5731,-2.5731 l -2.5731,-2.5731 l -2.5731,2.5731 l -2.5731,-2.5731 l -2.5731,2.5731 l 2.5731,2.5731 l -2.5731,2.5731 l -2.5731,-2.5731 l 2.5731,-2.5731 l -2.5731,-2.5731 l -2.5731,2.5731 l -2.5731,-2.5731 l 2.5731,-2.5731 l -2.5731,-2.5731 l 2.5731,-2.5731 l 2.5731,2.5731 l 2.5731,-2.5731 l -2.5731,-2.5731 l -2.5731,2.5731 l -2.5731,-2.5731 l -2.5731,2.5731 l 2.5731,2.5731 l -2.5731,2.5731 l -2.5731,-2.5731 l -2.5731,2.5731 l 2.5731,2.5731 l 2.5731,-2.5731 l 2.5731,2.5731 l -2.5731,2.5731 l 2.5731,2.5731 l -2.5731,2.5731 l -2.5731,-2.5731 l -2.5731,2.5731 l 2.5731,2.5731 l 2.5731,-2.5731 l 2.5731,2.5731 l 2.5731,-2.5731 l -2.5731,-2.5731 l 2.5731,-2.5731 l 2.5731,2.5731 l -2.5731,2.5731 l 2.5731,2.5731 l 2.5731,-2.5731 l 2.5731,2.5731 l -2.5731,2.5731 l 2.5731,2.5731 l -2.5731,2.5731 l -2.5731,-2.5731 l -2.5731,2.5731 l 2.5731,2.5731 l 2.5731,-2.5731 l 2.5731,2.5731 l 2.5731,-2.5731 l -2.5731,-2.5731 l 2.5731,-2.5731 l 2.5731,2.5731 l 2.5731,-2.5731 l -2.5731,-2.5731 l -2.5731,2.5731 l -2.5731,-2.5731 l 2.5731,-2.5731 l -2.5731,-2.5731 l 2.5731,-2.5731 l 2.5731,2.5731 l -2.5731,2.5731 l 2.5731,2.5731 l 2.5731,-2.5731 l 2.5731,2.5731 l 2.5731,-2.5731 l -2.5731,-2.5731 l 2.5731,-2.5731 l 2.5731,2.5731 l -2.5731,2.5731 l 2.5731,2.5731 l 2.5731,-2.5731 l 2.5731,2.5731 l -2.5731,2.5731 l 2.5731,2.5731 l -2.5731,2.5731 l -2.5731,-2.5731 l -2.5731,2.5731 l 2.5731,2.5731 l 2.5731,-2.5731 l 2.5731,2.5731 l 2.5731,-2.5731 l -2.5731,-2.5731 l 2.5731,-2.5731 l 2.5731,2.5731 l 2.5731,-2.5731 l -2.5731,-2.5731 l -2.5731,2.5731 l -2.5731,-2.5731 l 2.5731,-2.5731 l -2.5731,-2.5731 l 2.5731,-2.5731 l 2.5731,2.5731 l 2.5731,-2.5731 l -2.5731,-2.5731 l -2.5731,2.5731 l -2.5731,-2.5731 l -2.5731,2.5731 l 2.5731,2.5731 l -2.5731,2.5731 l -2.5731,-2.5731 l 2.5731,-2.5731 l -2.5731,-2.5731 l -2.5731,2.5731 l -2.5731,-2.5731 l 2.5731,-2.5731 l -2.5731,-2.5731 l 2.5731,-2.5731 l 2.5731,2.5731 l -2.5731,2.5731 l 2.5731,2.5731 l 2.5731,-2.5731 l 2.5731,2.5731 l 2.5731,-2.5731 l -2.5731,-2.5731 l 2.5731,-2.5731 l 2.5731,2.5731 l 2.5731,-2.5731 l -2.5731,-2.5731 l -2.5731,2.5731 l -2.5731,-2.5731 l 2.5731,-2.5731 l -2.5731,-2.5731 l 2.5731,-2.5731 l 2.5731,2.5731 l -2.5731,2.5731 l 2.5731,2.5731 l 2.5731,-2.5731 l 2.5731,2.5731 l 2.5731,-2.5731 l -2.5731,-2.5731 l 2.5731,-2.5731 l 2.5731,2.5731 l -2.5731,2.5731 l 2.5731,2.5731 l 2.5731,-2.5731 l 2.5731,2.5731 l -2.5731,2.5731 l 2.5731,2.5731 l -2.5731,2.5731 l -2.5731,-2.5731 l -2.5731,2.5731 l 2.5731,2.5731 l 2.5731,-2.5731 l 2.5731,2.5731 l 2.5731,-2.5731 l -2.5731,-2.5731 l 2.5731,-2.5731 l 2.5731,2.5731 l 2.5731,-2.5731 l -2.5731,-2.5731 l -2.5731,2.5731 l -2.5731,-2.5731 l 2.5731,-2.5731 l -2.5731,-2.5731 l 2.5731,-2.5731 l 2.5731,2.5731 l 2.5731,-2.5731 l -2.5731,-2.5731 l -2.5731,2.5731 l -2.5731,-2.5731 l -2.5731,2.5731 l 2.5731,2.5731 l -2.5731,2.5731 l -2.5731,-2.5731 l 2.5731,-2.5731 l -2.5731,-2.5731 l -2.5731,2.5731 l -2.5731,-2.5731 l 2.5731,-2.5731 l -2.5731,-2.5731 l 2.5731,-2.5731 l 2.5731,2.5731 l 2.5731,-2.5731 l -2.5731,-2.5731 l -2.5731,2.5731 l -2.5731,-2.5731 l -2.5731,2.5731 l 2.5731,2.5731 l -2.5731,2.5731 l -2.5731,-2.5731 l -2.5731,2.5731 l 2.5731,2.5731 l 2.5731,-2.5731 l 2.5731,2.5731 l -2.5731,2.5731 l 2.5731,2.5731 l -2.5731,2.5731 l -2.5731,-2.5731 l 2.5731,-2.5731 l -2.5731,-2.5731 l -2.5731,2.5731 l -2.5731,-2.5731 l -2.5731,2.5731 l 2.5731,2.5731 l -2.5731,2.5731 l -2.5731,-2.5731 l 2.5731,-2.5731 l -2.5731,-2.5731 l -2.5731,2.5731 l -2.5731,-2.5731 l 2.5731,-2.5731 l -2.5731,-2.5731 l 2.5731,-2.5731 l 2.5731,2.5731 l -2.5731,2.5731 l 2.5731,2.5731 l 2.5731,-2.5731 l 2.5731,2.5731 l 2.5731,-2.5731 l -2.5731,-2.5731 l 2.5731,-2.5731 l 2.5731,2.5731 l 2.5731,-2.5731 l -2.5731,-2.5731 l -2.5731,2.5731 l -2.5731,-2.5731 l 2.5731,-2.5731 l -2.5731,-2.5731 l 2.5731,-2.5731 l 2.5731,2.5731 l 2.5731,-2.5731 l -2.5731,-2.5731 l -2.5731,2.5731 l -2.5731,-2.5731 l -2.5731,2.5731 l 2.5731,2.5731 l -2.5731,2.5731 l -2.5731,-2.5731 l 2.5731,-2.5731 l -2.5731,-2.5731 l -2.5731,2.5731 l -2.5731,-2.5731 l 2.5731,-2.5731 l -2.5731,-2.5731 l 2.5731,-2.5731 l 2.5731,2.5731 l -2.5731,2.5731 l 2.5731,2.5731 l 2.5731,-2.5731 l 2.5731,2.5731 l 2.5731,-2.5731 l -2.5731,-2.5731 l 2.5731,-2.5731 l 2.5731,2.5731 l 2.5731,-2.5731 l -2.5731,-2.5731 l -2.5731,2.5731 l -2.5731,-2.5731 l 2.5731,-2.5731 l -2.5731,-2.5731 l 2.5731,-2.5731 l 2.5731,2.5731 l -2.5731,2.5731 l 2.5731,2.5731 l 2.5731,-2.5731 l 2.5731,2.5731 l 2.5731,-2.5731 l -2.5731,-2.5731 l 2.5731,-2.5731 l 2.5731,2.5731 l -2.5731,2.5731 l 2.5731,2.5731 l 2.5731,-2.5731 l 2.5731,2.5731 l -2.5731,2.5731 l 2.5731,2.5731 l -2.5731,2.5731 l -2.5731,-2.5731 l -2.5731,2.5731 l 2.5731,2.5731 l 2.5731,-2.5731 l 2.5731,2.5731 l 2.5731,-2.5731 l -2.5731,-2.5731 l 2.5731,-2.5731 l 2.5731,2.5731 l 2.5731,-2.5731 l -2.5731,-2.5731 l -2.5731,2.5731 l -2.5731,-2.5731 l 2.5731,-2.5731 l -2.5731,-2.5731 l 2.5731,-2.5731 l 2.5731,2.5731 l 2.5731,-2.5731 l -2.5731,-2.5731 l -2.5731,2.5731 l -2.5731,-2.5731 l -2.5731,2.5731 l 2.5731,2.5731 l -2.5731,2.5731 l -2.5731,-2.5731 l 2.5731,-2.5731 l -2.5731,-2.5731 l -2.5731,2.5731 l -2.5731,-2.5731 l 2.5731,-2.5731 l -2.5731,-2.5731 l 2.5731,-2.5731 l 2.5731,2.5731 l 2.5731,-2.5731 l -2.5731,-2.5731 l -2.5731,2.5731 l -2.5731,-2.5731 l -2.5731,2.5731 l 2.5731,2.5731 l -2.5731,2.5731 l -2.5731,-2.5731 l -2.5731,2.5731 l 2.5731,2.5731 l 2.5731,-2.5731 l 2.5731,2.5731 l -2.5731,2.5731 l 2.5731,2.5731 l -2.5731,2.5731 l -2.5731,-2.5731 l 2.5731,-2.5731 l -2.5731,-2.5731 l -2.5731,2.5731 l -2.5731,-2.5731 l -2.5731,2.5731 l 2.5731,2.5731 l -2.5731,2.5731 l -2.5731,-2.5731 l 2.5731,-2.5731 l -2.5731,-2.5731 l -2.5731,2.5731 l -2.5731,-2.5731 l 2.5731,-2.5731 l -2.5731,-2.5731 l 2.5731,-2.5731 l 2.5731,2.5731 l 2.5731,-2.5731 l -2.5731,-2.5731 l -2.5731,2.5731 l -2.5731,-2.5731 l -2.5731,2.5731 l 2.5731,2.5731 l -2.5731,2.5731 l -2.5731,-2.5731 l -2.5731,2.5731 l 2.5731,2.5731 l 2.5731,-2.5731 l 2.5731,2.5731 l -2.5731,2.5731 l 2.5731,2.5731 l -2.5731,2.5731 l -2.5731,-2.5731 l -2.5731,2.5731 l 2.5731,2.5731 l 2.5731,-2.5731 l 2.5731,2.5731 l 2.5731,-2.5731 l -2.5731,-2.5731 l 2.5731,-2.5731 l 2.5731,2.5731 l -2.5731,2.5731 l 2.5731,2.5731 l 2.5731,-2.5731 l 2.5731,2.5731 l -2.5731,2.5731 l 2.5731,2.5731 l -2.5731,2.5731 l -2.5731,-2.5731 l 2.5731,-2.5731 l -2.5731,-2.5731 l -2.5731,2.5731 l -2.5731,-2.5731 l -2.5731,2.5731 l 2.5731,2.5731 l -2.5731,2.5731 l -2.5731,-2.5731 l -2.5731,2.5731 l 2.5731,2.5731 l 2.5731,-2.5731 l 2.5731,2.5731 l -2.5731,2.5731 l 2.5731,2.5731 l -2.5731,2.5731 l -2.5731,-2.5731 l 2.5731,-2.5731 l -2.5731,-2.5731 l -2.5731,2.5731 l -2.5731,-2.5731 l -2.5731,2.5731 l 2.5731,2.5731 l -2.5731,2.5731 l -2.5731,-2.5731 l 2.5731,-2.5731 l -2.5731,-2.5731 l -2.5731,2.5731 l -2.5731,-2.5731 l 2.5731,-2.5731 l -2.5731,-2.5731 l 2.5731,-2.5731 l 2.5731,2.5731 l -2.5731,2.5731 l 2.5731,2.5731 l 2.5731,-2.5731 l 2.5731,2.5731 l 2.5731,-2.5731 l -2.5731,-2.5731 l 2.5731,-2.5731 l 2.5731,2.5731 l 2.5731,-2.5731 l -2.5731,-2.5731 l -2.5731,2.5731 l -2.5731,-2.5731 l 2.5731,-2.5731 l -2.5731,-2.5731 l 2.5731,-2.5731 l 2.5731,2.5731 l 2.5731,-2.5731 l -2.5731,-2.5731 l -2.5731,2.5731 l -2.5731,-2.5731 l -2.5731,2.5731 l 2.5731,2.5731 l -2.5731,2.5731 l -2.5731,-2.5731 l 2.5731,-2.5731 l -2.5731,-2.5731 l -2.5731,2.5731 l -2.5731,-2.5731 l 2.5731,-2.5731 l -2.5731,-2.5731 l 2.5731,-2.5731 l 2.5731,2.5731 l 2.5731,-2.5731 l -2.5731,-2.5731 l -2.5731,2.5731 l -2.5731,-2.5731 l -2.5731,2.5731 l 2.5731,2.5731 l -2.5731,2.5731 l -2.5731,-2.5731 l -2.5731,2.5731 l 2.5731,2.5731 l 2.5731,-2.5731 l 2.5731,2.5731 l -2.5731,2.5731 l 2.5731,2.5731 l -2.5731,2.5731 l -2.5731,-2.5731 l 2.5731,-2.5731 l -2.5731,-2.5731 l -2.5731,2.5731 l -2.5731,-2.5731 l -2.5731,2.5731 l 2.5731,2.5731 l -2.5731,2.5731 l -2.5731,-2.5731 l 2.5731,-2.5731 l -2.5731,-2.5731 l -2.5731,2.5731 l -2.5731,-2.5731 l 2.5731,-2.5731 l -2.5731,-2.5731 l 2.5731,-2.5731 l 2.5731,2.5731 l -2.5731,2.5731 l 2.5731,2.5731 l 2.5731,-2.5731 l 2.5731,2.5731 l 2.5731,-2.5731 l -2.5731,-2.5731 l 2.5731,-2.5731 l 2.5731,2.5731 l 2.5731,-2.5731 l -2.5731,-2.5731 l -2.5731,2.5731 l -2.5731,-2.5731 l 2.5731,-2.5731 l -2.5731,-2.5731 l 2.5731,-2.5731 l 2.5731,2.5731 l 2.5731,-2.5731 l -2.5731,-2.5731 l -2.5731,2.5731 l -2.5731,-2.5731 l -2.5731,2.5731 l 2.5731,2.5731 l -2.5731,2.5731 l -2.5731,-2.5731 l 2.5731,-2.5731 l -2.5731,-2.5731 l -2.5731,2.5731 l -2.5731,-2.5731 l 2.5731,-2.5731 l -2.5731,-2.5731 l 2.5731,-2.5731 l 2.5731,2.5731 l -2.5731,2.5731 l 2.5731,2.5731 l 2.5731,-2.5731 l 2.5731,2.5731 l 2.5731,-2.5731 l -2.5731,-2.5731 l 2.5731,-2.5731 l 2.5731,2.5731 l 2.5731,-2.5731 l -2.5731,-2.5731 l -2.5731,2.5731 l -2.5731,-2.5731 l 2.5731,-2.5731 l -2.5731,-2.5731 l 2.5731,-2.5731 l 2.5731,2.5731 l -2.5731,2.5731 l 2.5731,2.5731 l 2.5731,-2.5731 l 2.5731,2.5731 l 2.5731,-2.5731 l -2.5731,-2.5731 l 2.5731,-2.5731 l 2.5731,2.5731 l -2.5731,2.5731 l 2.5731,2.5731 l 2.5731,-2.5731 l 2.5731,2.5731 l -2.5731,2.5731 l 2.5731,2.5731 l -2.5731,2.5731 l -2.5731,-2.5731 l 2.5731,-2.5731 l -2.5731,-2.5731 l -2.5731,2.5731 l -2.5731,-2.5731 l -2.5731,2.5731 l 2.5731,2.5731 l -2.5731,2.5731 l -2.5731,-2.5731 l -2.5731,2.5731 l 2.5731,2.5731 l 2.5731,-2.5731 l 2.5731,2.5731 l -2.5731,2.5731 l 2.5731,2.5731 l -2.5731,2.5731 l -2.5731,-2.5731 l -2.5731,2.5731 l 2.5731,2.5731 l 2.5731,-2.5731 l 2.5731,2.5731 l 2.5731,-2.5731 l -2.5731,-2.5731 l 2.5731,-2.5731 l 2.5731,2.5731 l -2.5731,2.5731 l 2.5731,2.5731 l 2.5731,-2.5731 l 2.5731,2.5731 l -2.5731,2.5731 l 2.5731,2.5731 l -2.5731,2.5731 l -2.5731,-2.5731 l -2.5731,2.5731 l 2.5731,2.5731 l 2.5731,-2.5731 l 2.5731,2.5731 l 2.5731,-2.5731 l -2.5731,-2.5731 l 2.5731,-2.5731 l 2.5731,2.5731 l 2.5731,-2.5731 l -2.5731,-2.5731 l -2.5731,2.5731 l -2.5731,-2.5731 l 2.5731,-2.5731 l -2.5731,-2.5731 l 2.5731,-2.5731 l 2.5731,2.5731 l -2.5731,2.5731 l 2.5731,2.5731 l 2.5731,-2.5731 l 2.5731,2.5731 l 2.5731,-2.5731 l -2.5731,-2.5731 l 2.5731,-2.5731 l 2.5731,2.5731 l -2.5731,2.5731 l 2.5731,2.5731 l 2.5731,-2.5731 l 2.5731,2.5731 l -2.5731,2.5731 l 2.5731,2.5731 l -2.5731,2.5731 l -2.5731,-2.5731 l -2.5731,2.5731 l 2.5731,2.5731 l 2.5731,-2.5731 l 2.5731,2.5731 l 2.5731,-2.5731 l -2.5731,-2.5731 l 2.5731,-2.5731 l 2.5731,2.5731 l 2.5731,-2.5731 l -2.5731,-2.5731 l -2.5731,2.5731 l -2.5731,-2.5731 l 2.5731,-2.5731 l -2.5731,-2.5731 l 2.5731,-2.5731 l 2.5731,2.5731 l 2.5731,-2.5731 l -2.5731,-2.5731 l -2.5731,2.5731 l -2.5731,-2.5731 l -2.5731,2.5731 l 2.5731,2.5731 l -2.5731,2.5731 l -2.5731,-2.5731 l 2.5731,-2.5731 l -2.5731,-2.5731 l -2.5731,2.5731 l -2.5731,-2.5731 l 2.5731,-2.5731 l -2.5731,-2.5731 l 2.5731,-2.5731 l 2.5731,2.5731 l -2.5731,2.5731 l 2.5731,2.5731 l 2.5731,-2.5731 l 2.5731,2.5731 l 2.5731,-2.5731 l -2.5731,-2.5731 l 2.5731,-2.5731 l 2.5731,2.5731 l 2.5731,-2.5731 l -2.5731,-2.5731 l -2.5731,2.5731 l -2.5731,-2.5731 l 2.5731,-2.5731 l -2.5731,-2.5731 l 2.5731,-2.5731 l 2.5731,2.5731 l -2.5731,2.5731 l 2.5731,2.5731 l 2.5731,-2.5731 l 2.5731,2.5731 l 2.5731,-2.5731 l -2.5731,-2.5731 l 2.5731,-2.5731 l 2.5731,2.5731 l -2.5731,2.5731 l 2.5731,2.5731 l 2.5731,-2.5731 l 2.5731,2.5731 l -2.5731,2.5731 l 2.5731,2.5731 l -2.5731,2.5731 l -2.5731,-2.5731 l -2.5731,2.5731 l 2.5731,2.5731 l 2.5731,-2.5731 l 2.5731,2.5731 l 2.5731,-2.5731 l -2.5731,-2.5731 l 2.5731,-2.5731 l 2.5731,2.5731 l 2.5731,-2.5731 l -2.5731,-2.5731 l -2.5731,2.5731 l -2.5731,-2.5731 l 2.5731,-2.5731 l -2.5731,-2.5731 l 2.5731,-2.5731 l 2.5731,2.5731 l 2.5731,-2.5731 l -2.5731,-2.5731 l -2.5731,2.5731 l -2.5731,-2.5731 l -2.5731,2.5731 l 2.5731,2.5731 l -2.5731,2.5731 l -2.5731,-2.5731 l 2.5731,-2.5731 l -2.5731,-2.5731 l -2.5731,2.5731 l -2.5731,-2.5731 l 2.5731,-2.5731 l -2.5731,-2.5731 l 2.5731,-2.5731 l 2.5731,2.5731 l 2.5731,-2.5731 l -2.5731,-2.5731 l -2.5731,2.5731 l -2.5731,-2.5731 l -2.5731,2.5731 l 2.5731,2.5731 l -2.5731,2.5731 l -2.5731,-2.5731 l -2.5731,2.5731 l 2.5731,2.5731 l 2.5731,-2.5731 l 2.5731,2.5731 l -2.5731,2.5731 l 2.5731,2.5731 l -2.5731,2.5731 l -2.5731,-2.5731 l 2.5731,-2.5731 l -2.5731,-2.5731 l -2.5731,2.5731 l -2.5731,-2.5731 l -2.5731,2.5731 l 2.5731,2.5731 l -2.5731,2.5731 l -2.5731,-2.5731 l 2.5731,-2.5731 l -2.5731,-2.5731 l -2.5731,2.5731 l -2.5731,-2.5731 l 2.5731,-2.5731 l -2.5731,-2.5731 l 2.5731,-2.5731 l 2.5731,2.5731 l -2.5731,2.5731 l 2.5731,2.5731 l 2.5731,-2.5731 l 2.5731,2.5731 l 2.5731,-2.5731 l -2.5731,-2.5731 l 2.5731,-2.5731 l 2.5731,2.5731 l 2.5731,-2.5731 l -2.5731,-2.5731 l -2.5731,2.5731 l -2.5731,-2.5731 l 2.5731,-2.5731 l -2.5731,-2.5731 l 2.5731,-2.5731 l 2.5731,2.5731 l 2.5731,-2.5731 l -2.5731,-2.5731 l -2.5731,2.5731 l -2.5731,-2.5731 l -2.5731,2.5731 l 2.5731,2.5731 l -2.5731,2.5731 l -2.5731,-2.5731 l 2.5731,-2.5731 l -2.5731,-2.5731 l -2.5731,2.5731 l -2.5731,-2.5731 l 2.5731,-2.5731 l -2.5731,-2.5731 l 2.5731,-2.5731 l 2.5731,2.5731 l -2.5731,2.5731 l 2.5731,2.5731 l 2.5731,-2.5731 l 2.5731,2.5731 l 2.5731,-2.5731 l -2.5731,-2.5731 l 2.5731,-2.5731 l 2.5731,2.5731 l 2.5731,-2.5731 l -2.5731,-2.5731 l -2.5731,2.5731 l -2.5731,-2.5731 l 2.5731,-2.5731 l -2.5731,-2.5731 l 2.5731,-2.5731 l 2.5731,2.5731 l -2.5731,2.5731 l 2.5731,2.5731 l 2.5731,-2.5731 l 2.5731,2.5731 l 2.5731,-2.5731 l -2.5731,-2.5731 l 2.5731,-2.5731 l 2.5731,2.5731 l -2.5731,2.5731 l 2.5731,2.5731 l 2.5731,-2.5731 l 2.5731,2.5731 l -2.5731,2.5731 l 2.5731,2.5731 l -2.5731,2.5731 l -2.5731,-2.5731 l 2.5731,-2.5731 l -2.5731,-2.5731 l -2.5731,2.5731 l -2.5731,-2.5731 l -2.5731,2.5731 l 2.5731,2.5731 l -2.5731,2.5731 l -2.5731,-2.5731 l -2.5731,2.5731 l 2.5731,2.5731 l 2.5731,-2.5731 l 2.5731,2.5731 l -2.5731,2.5731 l 2.5731,2.5731 l -2.5731,2.5731 l -2.5731,-2.5731 l -2.5731,2.5731 l 2.5731,2.5731 l 2.5731,-2.5731 l 2.5731,2.5731 l 2.5731,-2.5731 l -2.5731,-2.5731 l 2.5731,-2.5731 l 2.5731,2.5731 l -2.5731,2.5731 l 2.5731,2.5731 l 2.5731,-2.5731 l 2.5731,2.5731 l -2.5731,2.5731 l 2.5731,2.5731 l -2.5731,2.5731 l -2.5731,-2.5731 l -2.5731,2.5731 l 2.5731,2.5731 l 2.5731,-2.5731 l 2.5731,2.5731 l 2.5731,-2.5731 l -2.5731,-2.5731 l 2.5731,-2.5731 l 2.5731,2.5731 l 2.5731,-2.5731 l -2.5731,-2.5731 l -2.5731,2.5731 l -2.5731,-2.5731 l 2.5731,-2.5731 l -2.5731,-2.5731 l 2.5731,-2.5731 l 2.5731,2.5731 l -2.5731,2.5731 l 2.5731,2.5731 l 2.5731,-2.5731 l 2.5731,2.5731 l 2.5731,-2.5731 l -2.5731,-2.5731 l 2.5731,-2.5731 l 2.5731,2.5731 l -2.5731,2.5731 l 2.5731,2.5731 l 2.5731,-2.5731 l 2.5731,2.5731 l -2.5731,2.5731 l 2.5731,2.5731 l -2.5731,2.5731 l -2.5731,-2.5731 l -2.5731,2.5731 l 2.5731,2.5731 l 2.5731,-2.5731 l 2.5731,2.5731 l 2.5731,-2.5731 l -2.5731,-2.5731 l 2.5731,-2.5731 l 2.5731,2.5731 l 2.5731,-2.5731 l -2.5731,-2.5731 l -2.5731,2.5731 l -2.5731,-2.5731 l 2.5731,-2.5731 l -2.5731,-2.5731 l 2.5731,-2.5731 l 2.5731,2.5731 l 2.5731,-2.5731 l -2.5731,-2.5731 l -2.5731,2.5731 l -2.5731,-2.5731 l -2.5731,2.5731 l 2.5731,2.5731 l -2.5731,2.5731 l -2.5731,-2.5731 l 2.5731,-2.5731 l -2.5731,-2.5731 l -2.5731,2.5731 l -2.5731,-2.5731 l 2.5731,-2.5731 l -2.5731,-2.5731 l 2.5731,-2.5731 l 2.5731,2.5731 l -2.5731,2.5731 l 2.5731,2.5731 l 2.5731,-2.5731 l 2.5731,2.5731 l 2.5731,-2.5731 l -2.5731,-2.5731 l 2.5731,-2.5731 l 2.5731,2.5731 l 2.5731,-2.5731 l -2.5731,-2.5731 l -2.5731,2.5731 l -2.5731,-2.5731 l 2.5731,-2.5731 l -2.5731,-2.5731 l 2.5731,-2.5731 l 2.5731,2.5731 l -2.5731,2.5731 l 2.5731,2.5731 l 2.5731,-2.5731 l 2.5731,2.5731 l 2.5731,-2.5731 l -2.5731,-2.5731 l 2.5731,-2.5731 l 2.5731,2.5731 l -2.5731,2.5731 l 2.5731,2.5731 l 2.5731,-2.5731 l 2.5731,2.5731 l -2.5731,2.5731 l 2.5731,2.5731 l -2.5731,2.5731 l -2.5731,-2.5731 l 2.5731,-2.5731 l -2.5731,-2.5731 l -2.5731,2.5731 l -2.5731,-2.5731 l -2.5731,2.5731 l 2.5731,2.5731 l -2.5731,2.5731 l -2.5731,-2.5731 l -2.5731,2.5731 l 2.5731,2.5731 l 2.5731,-2.5731 l 2.5731,2.5731 l -2.5731,2.5731 l 2.5731,2.5731 l -2.5731,2.5731 l -2.5731,-2.5731 l -2.5731,2.5731 l 2.5731,2.5731 l 2.5731,-2.5731 l 2.5731,2.5731 l 2.5731,-2.5731 l -2.5731,-2.5731 l 2.5731,-2.5731 l 2.5731,2.5731 l -2.5731,2.5731 l 2.5731,2.5731 l 2.5731,-2.5731 l 2.5731,2.5731 l -2.5731,2.5731 l 2.5731,2.5731 l -2.5731,2.5731 l -2.5731,-2.5731 l -2.5731,2.5731 l 2.5731,2.5731 l 2.5731,-2.5731 l 2.5731,2.5731 l 2.5731,-2.5731 l -2.5731,-2.5731 l 2.5731,-2.5731 l 2.5731,2.5731 l 2.5731,-2.5731 l -2.5731,-2.5731 l -2.5731,2.5731 l -2.5731,-2.5731 l 2.5731,-2.5731 l -2.5731,-2.5731 l 2.5731,-2.5731 l 2.5731,2.5731 l -2.5731,2.5731 l 2.5731,2.5731 l 2.5731,-2.5731 l 2.5731,2.5731 l 2.5731,-2.5731 l -2.5731,-2.5731 l 2.5731,-2.5731 l 2.5731,2.5731 l -2.5731,2.5731 l 2.5731,2.5731 l 2.5731,-2.5731 l 2.5731,2.5731 l -2.5731,2.5731 l 2.5731,2.5731 l -2.5731,2.5731 l -2.5731,-2.5731 l 2.5731,-2.5731 l -2.5731,-2.5731 l -2.5731,2.5731 l -2.5731,-2.5731 l -2.5731,2.5731 l 2.5731,2.5731 l -2.5731,2.5731 l -2.5731,-2.5731 l -2.5731,2.5731 l 2.5731,2.5731 l 2.5731,-2.5731 l 2.5731,2.5731 l -2.5731,2.5731 l 2.5731,2.5731 l -2.5731,2.5731 l -2.5731,-2.5731 l -2.5731,2.5731 l 2.5731,2.5731 l 2.5731,-2.5731 l 2.5731,2.5731 l 2.5731,-2.5731 l -2.5731,-2.5731 l 2.5731,-2.5731 l 2.5731,2.5731 l -2.5731,2.5731 l 2.5731,2.5731 l 2.5731,-2.5731 l 2.5731,2.5731 l -2.5731,2.5731 l 2.5731,2.5731 l -2.5731,2.5731 l -2.5731,-2.5731 l 2.5731,-2.5731 l -2.5731,-2.5731 l -2.5731,2.5731 l -2.5731,-2.5731 l -2.5731,2.5731 l 2.5731,2.5731 l -2.5731,2.5731 l -2.5731,-2.5731 l -2.5731,2.5731 l 2.5731,2.5731 l 2.5731,-2.5731 l 2.5731,2.5731 l -2.5731,2.5731 l 2.5731,2.5731 l -2.5731,2.5731 l -2.5731,-2.5731 l 2.5731,-2.5731 l -2.5731,-2.5731 l -2.5731,2.5731 l -2.5731,-2.5731 l -2.5731,2.5731 l 2.5731,2.5731 l -2.5731,2.5731 l -2.5731,-2.5731 l 2.5731,-2.5731 l -2.5731,-2.5731 l -2.5731,2.5731 l -2.5731,-2.5731 l 2.5731,-2.5731 l -2.5731,-2.5731 l 2.5731,-2.5731 l 2.5731,2.5731 "/></g><defs><linearGradient x2="1.0000" y1="-1.0000" gradientUnits="userSpaceOnUse" spreadMethod="pad" gradientTransform="matrix(164.6784,-0.0000,0.0000,-164.6784,183.3333,121.5789)" id="gradient7" y2="1.0000" x1="-1.0000"><stop stop-opacity="1.0000" offset="0.0000" stop-color="rgb(0,128,128)"/><stop stop-opacity="1.0000" offset="1.0000" stop-color="rgb(128,0,128)"/></linearGradient></defs><g stroke-linejoin="miter" stroke-opacity="1" fill-opacity="0.0" stroke="url(#gradient7)" stroke-width="0.5171785805797898" fill="rgb(0,0,0)" stroke-linecap="butt" stroke-miterlimit="10.0"><path d="M 604.0351,418.7719 l 10.2924,-0.0000 l -0.0000,-10.2924 l -10.2924,-0.0000 l -0.0000,-10.2924 l -10.2924,0.0000 l -0.0000,10.2924 l -10.2924,-0.0000 l -0.0000,-10.2924 l -10.2924,0.0000 l -0.0000,10.2924 l 10.2924,0.0000 l -0.0000,10.2924 l -10.2924,0.0000 l -0.0000,10.2924 l -10.2924,-0.0000 l -0.0000,-10.2924 l -10.2924,0.0000 l -0.0000,10.2924 l 10.2924,0.0000 l -0.0000,10.2924 l 10.2924,0.0000 l 0.0000,-10.2924 l 10.2924,0.0000 l -0.0000,10.2924 l -10.2924,0.0000 l -0.0000,10.2924 l 10.2924,0.0000 l -0.0000,10.2924 l -10.2924,0.0000 l -0.0000,10.2924 l -10.2924,-0.0000 l -0.0000,-10.2924 h -10.2924 l -0.0000,10.2924 l 10.2924,0.0000 l 0.0000,10.2924 l 10.2924,0.0000 l 0.0000,-10.2924 l 10.2924,0.0000 l 0.0000,10.2924 l 10.2924,0.0000 l 0.0000,-10.2924 l -10.2924,-0.0000 l 0.0000,-10.2924 l 10.2924,0.0000 l 0.0000,-10.2924 l 10.2924,0.0000 l -0.0000,10.2924 h -10.2924 l -0.0000,10.2924 l 10.2924,0.0000 l 0.0000,10.2924 l 10.2924,0.0000 l 0.0000,-10.2924 l 10.2924,0.0000 l 0.0000,10.2924 l -10.2924,0.0000 l -0.0000,10.2924 l 10.2924,0.0000 l -0.0000,10.2924 l -10.2924,0.0000 l -0.0000,10.2924 l -10.2924,0.0000 l -0.0000,-10.2924 l -10.2924,0.0000 l -0.0000,10.2924 l 10.2924,0.0000 l 0.0000,10.2924 l 10.2924,0.0000 l 0.0000,-10.2924 l 10.2924,0.0000 l 0.0000,10.2924 l 10.2924,0.0000 l 0.0000,-10.2924 l -10.2924,-0.0000 l 0.0000,-10.2924 l 10.2924,0.0000 l 0.0000,-10.2924 l 10.2924,0.0000 l -0.0000,10.2924 l 10.2924,0.0000 l 0.0000,-10.2924 l -10.2924,-0.0000 l 0.0000,-10.2924 l -10.2924,-0.0000 l -0.0000,10.2924 l -10.2924,-0.0000 l 0.0000,-10.2924 l 10.2924,0.0000 l 0.0000,-10.2924 l -10.2924,-0.0000 l 0.0000,-10.2924 l 10.2924,0.0000 l 0.0000,-10.2924 l 10.2924,0.0000 l -0.0000,10.2924 l -10.2924,0.0000 l -0.0000,10.2924 l 10.2924,0.0000 l 0.0000,10.2924 l 10.2924,0.0000 l 0.0000,-10.2924 l 10.2924,0.0000 l 0.0000,10.2924 l 10.2924,0.0000 l 0.0000,-10.2924 l -10.2924,-0.0000 l 0.0000,-10.2924 l 10.2924,0.0000 l 0.0000,-10.2924 l 10.2924,0.0000 v 10.2924 l -10.2924,0.0000 l -0.0000,10.2924 l 10.2924,0.0000 l 0.0000,10.2924 l 10.2924,0.0000 l 0.0000,-10.2924 l 10.2924,0.0000 l 0.0000,10.2924 l -10.2924,0.0000 l -0.0000,10.2924 l 10.2924,0.0000 l -0.0000,10.2924 l -10.2924,0.0000 l -0.0000,10.2924 l -10.2924,0.0000 l -0.0000,-10.2924 l -10.2924,0.0000 l -0.0000,10.2924 l 10.2924,0.0000 v 10.2924 l 10.2924,0.0000 l 0.0000,-10.2924 l 10.2924,0.0000 v 10.2924 l 10.2924,0.0000 l 0.0000,-10.2924 l -10.2924,-0.0000 l 0.0000,-10.2924 l 10.2924,0.0000 l 0.0000,-10.2924 l 10.2924,0.0000 l -0.0000,10.2924 l 10.2924,0.0000 l 0.0000,-10.2924 l -10.2924,-0.0000 l 0.0000,-10.2924 l -10.2924,-0.0000 l -0.0000,10.2924 l -10.2924,-0.0000 l 0.0000,-10.2924 l 10.2924,0.0000 l 0.0000,-10.2924 l -10.2924,-0.0000 l 0.0000,-10.2924 l 10.2924,0.0000 l 0.0000,-10.2924 l 10.2924,0.0000 l -0.0000,10.2924 l 10.2924,0.0000 l 0.0000,-10.2924 l -10.2924,-0.0000 l 0.0000,-10.2924 l -10.2924,-0.0000 l -0.0000,10.2924 l -10.2924,-0.0000 l 0.0000,-10.2924 l -10.2924,-0.0000 l -0.0000,10.2924 l 10.2924,0.0000 l -0.0000,10.2924 l -10.2924,-0.0000 l -0.0000,10.2924 l -10.2924,-0.0000 l 0.0000,-10.2924 l 10.2924,0.0000 l 0.0000,-10.2924 l -10.2924,-0.0000 l 0.0000,-10.2924 l -10.2924,-0.0000 l -0.0000,10.2924 l -10.2924,-0.0000 l 0.0000,-10.2924 l 10.2924,0.0000 l 0.0000,-10.2924 l -10.2924,-0.0000 l 0.0000,-10.2924 l 10.2924,0.0000 l 0.0000,-10.2924 l 10.2924,0.0000 l -0.0000,10.2924 l -10.2924,0.0000 l -0.0000,10.2924 l 10.2924,0.0000 l 0.0000,10.2924 l 10.2924,0.0000 l 0.0000,-10.2924 l 10.2924,0.0000 l 0.0000,10.2924 l 10.2924,0.0000 l 0.0000,-10.2924 l -10.2924,-0.0000 l 0.0000,-10.2924 l 10.2924,0.0000 l 0.0000,-10.2924 l 10.2924,0.0000 l -0.0000,10.2924 l 10.2924,0.0000 l 0.0000,-10.2924 l -10.2924,-0.0000 l 0.0000,-10.2924 l -10.2924,-0.0000 l -0.0000,10.2924 l -10.2924,-0.0000 l 0.0000,-10.2924 l 10.2924,0.0000 l 0.0000,-10.2924 l -10.2924,-0.0000 l 0.0000,-10.2924 l 10.2924,0.0000 l 0.0000,-10.2924 l 10.2924,0.0000 l -0.0000,10.2924 h -10.2924 l -0.0000,10.2924 l 10.2924,0.0000 v 10.2924 l 10.2924,0.0000 l 0.0000,-10.2924 l 10.2924,0.0000 v 10.2924 l 10.2924,0.0000 l 0.0000,-10.2924 l -10.2924,-0.0000 l 0.0000,-10.2924 l 10.2924,0.0000 l 0.0000,-10.2924 l 10.2924,0.0000 l -0.0000,10.2924 h -10.2924 l -0.0000,10.2924 l 10.2924,0.0000 v 10.2924 l 10.2924,0.0000 l 0.0000,-10.2924 l 10.2924,0.0000 v 10.2924 l -10.2924,0.0000 l -0.0000,10.2924 l 10.2924,0.0000 l -0.0000,10.2924 l -10.2924,0.0000 l -0.0000,10.2924 h -10.2924 l -0.0000,-10.2924 "/></g><defs><linearGradient x2="1.0000" y1="-1.0000" gradientUnits="userSpaceOnUse" spreadMethod="pad" gradientTransform="matrix(164.6784,-0.0000,0.0000,-164.6784,183.3333,121.5789)" id="gradient9" y2="1.0000" x1="-1.0000"><stop stop-opacity="1.0000" offset="0.0000" stop-color="rgb(0,128,128)"/><stop stop-opacity="1.0000" offset="1.0000" stop-color="rgb(128,0,128)"/></linearGradient></defs><g stroke-linejoin="miter" stroke-opacity="1" fill-opacity="0.0" stroke="url(#gradient9)" stroke-width="0.5171785805797898" fill="rgb(0,0,0)" stroke-linecap="butt" stroke-miterlimit="10.0"><path d="M 359.5906,418.7719 l 10.2924,-10.2924 l -10.2924,-10.2924 l -10.2924,10.2924 l -10.2924,-10.2924 l -10.2924,10.2924 l 10.2924,10.2924 l -10.2924,10.2924 l -10.2924,-10.2924 l -10.2924,10.2924 l 10.2924,10.2924 l 10.2924,-10.2924 l 10.2924,10.2924 l -10.2924,10.2924 l 10.2924,10.2924 l -10.2924,10.2924 l -10.2924,-10.2924 l -10.2924,10.2924 l 10.2924,10.2924 l 10.2924,-10.2924 l 10.2924,10.2924 l 10.2924,-10.2924 l -10.2924,-10.2924 l 10.2924,-10.2924 l 10.2924,10.2924 l -10.2924,10.2924 l 10.2924,10.2924 l 10.2924,-10.2924 l 10.2924,10.2924 l -10.2924,10.2924 l 10.2924,10.2924 l -10.2924,10.2924 l -10.2924,-10.2924 l -10.2924,10.2924 l 10.2924,10.2924 l 10.2924,-10.2924 l 10.2924,10.2924 l 10.2924,-10.2924 l -10.2924,-10.2924 l 10.2924,-10.2924 l 10.2924,10.2924 l 10.2924,-10.2924 l -10.2924,-10.2924 l -10.2924,10.2924 l -10.2924,-10.2924 l 10.2924,-10.2924 l -10.2924,-10.2924 l 10.2924,-10.2924 l 10.2924,10.2924 l -10.2924,10.2924 l 10.2924,10.2924 l 10.2924,-10.2924 l 10.2924,10.2924 l 10.2924,-10.2924 l -10.2924,-10.2924 l 10.2924,-10.2924 l 10.2924,10.2924 l -10.2924,10.2924 l 10.2924,10.2924 l 10.2924,-10.2924 l 10.2924,10.2924 l -10.2924,10.2924 l 10.2924,10.2924 l -10.2924,10.2924 l -10.2924,-10.2924 l -10.2924,10.2924 l 10.2924,10.2924 l 10.2924,-10.2924 l 10.2924,10.2924 l 10.2924,-10.2924 l -10.2924,-10.2924 l 10.2924,-10.2924 l 10.2924,10.2924 l 10.2924,-10.2924 l -10.2924,-10.2924 l -10.2924,10.2924 l -10.2924,-10.2924 l 10.2924,-10.2924 l -10.2924,-10.2924 l 10.2924,-10.2924 l 10.2924,10.2924 l 10.2924,-10.2924 l -10.2924,-10.2924 l -10.2924,10.2924 l -10.2924,-10.2924 l -10.2924,10.2924 l 10.2924,10.2924 l -10.2924,10.2924 l -10.2924,-10.2924 l 10.2924,-10.2924 l -10.2924,-10.2924 l -10.2924,10.2924 l -10.2924,-10.2924 l 10.2924,-10.2924 l -10.2924,-10.2924 l 10.2924,-10.2924 l 10.2924,10.2924 l -10.2924,10.2924 l 10.2924,10.2924 l 10.2924,-10.2924 l 10.2924,10.2924 l 10.2924,-10.2924 l -10.2924,-10.2924 l 10.2924,-10.2924 l 10.2924,10.2924 l 10.2924,-10.2924 l -10.2924,-10.2924 l -10.2924,10.2924 l -10.2924,-10.2924 l 10.2924,-10.2924 l -10.2924,-10.2924 l 10.2924,-10.2924 l 10.2924,10.2924 l -10.2924,10.2924 l 10.2924,10.2924 l 10.2924,-10.2924 l 10.2924,10.2924 l 10.2924,-10.2924 l -10.2924,-10.2924 l 10.2924,-10.2924 l 10.2924,10.2924 l -10.2924,10.2924 l 10.2924,10.2924 l 10.2924,-10.2924 l 10.2924,10.2924 l -10.2924,10.2924 l 10.2924,10.2924 l -10.2924,10.2924 l -10.2924,-10.2924 "/></g><defs><linearGradient x2="1.0000" y1="-1.0000" gradientUnits="userSpaceOnUse" spreadMethod="pad" gradientTransform="matrix(164.6784,-0.0000,0.0000,-164.6784,183.3333,121.5789)" id="gradient11" y2="1.0000" x1="-1.0000"><stop stop-opacity="1.0000" offset="0.0000" stop-color="rgb(0,128,128)"/><stop stop-opacity="1.0000" offset="1.0000" stop-color="rgb(128,0,128)"/></linearGradient></defs><g stroke-linejoin="miter" stroke-opacity="1" fill-opacity="0.0" stroke="url(#gradient11)" stroke-width="0.5171785805797898" fill="rgb(0,0,0)" stroke-linecap="butt" stroke-miterlimit="10.0"><path d="M 115.1462,418.7719 l -0.0000,-20.5848 l -20.5848,0.0000 l -0.0000,20.5848 l -20.5848,0.0000 l -0.0000,20.5848 l 20.5848,0.0000 l -0.0000,20.5848 l -20.5848,0.0000 l 0.0000,20.5848 l 20.5848,0.0000 l 0.0000,-20.5848 l 20.5848,0.0000 l 0.0000,20.5848 l 20.5848,0.0000 l -0.0000,20.5848 l -20.5848,0.0000 v 20.5848 l 20.5848,0.0000 l 0.0000,-20.5848 l 20.5848,0.0000 l 0.0000,-20.5848 l -20.5848,-0.0000 l 0.0000,-20.5848 l 20.5848,0.0000 l 0.0000,20.5848 l 20.5848,0.0000 l 0.0000,-20.5848 l 20.5848,0.0000 l 0.0000,20.5848 l 20.5848,0.0000 l -0.0000,20.5848 l -20.5848,0.0000 l -0.0000,20.5848 l 20.5848,0.0000 l 0.0000,-20.5848 l 20.5848,0.0000 l 0.0000,-20.5848 l -20.5848,-0.0000 l 0.0000,-20.5848 l 20.5848,0.0000 l 0.0000,-20.5848 l -20.5848,-0.0000 l -0.0000,20.5848 l -20.5848,-0.0000 l 0.0000,-20.5848 l -20.5848,-0.0000 l 0.0000,-20.5848 l 20.5848,0.0000 l -0.0000,20.5848 l 20.5848,0.0000 l 0.0000,-20.5848 l 20.5848,0.0000 l 0.0000,-20.5848 l -20.5848,-0.0000 l 0.0000,-20.5848 l 20.5848,0.0000 l 0.0000,20.5848 l 20.5848,0.0000 l 0.0000,-20.5848 l 20.5848,0.0000 l 0.0000,20.5848 l 20.5848,0.0000 l -0.0000,20.5848 l -20.5848,0.0000 "/></g><defs><linearGradient x2="1.0000" y1="-1.0000" gradientUnits="userSpaceOnUse" spreadMethod="pad" gradientTransform="matrix(164.6784,-0.0000,0.0000,-164.6784,183.3333,121.5789)" id="gradient13" y2="1.0000" x1="-1.0000"><stop stop-opacity="1.0000" offset="0.0000" stop-color="rgb(0,128,128)"/><stop stop-opacity="1.0000" offset="1.0000" stop-color="rgb(128,0,128)"/></linearGradient></defs><g stroke-linejoin="miter" stroke-opacity="1" fill-opacity="0.0" stroke="url(#gradient13)" stroke-width="0.5171785805797898" fill="rgb(0,0,0)" stroke-linecap="butt" stroke-miterlimit="10.0"><path d="M 604.0351,256.6667 l -41.1696,41.1696 l 41.1696,41.1696 l 41.1696,-41.1696 l 41.1696,41.1696 l 41.1696,-41.1696 l -41.1696,-41.1696 l 41.1696,-41.1696 l 41.1696,41.1696 "/></g><defs><linearGradient x2="1.0000" y1="-1.0000" gradientUnits="userSpaceOnUse" spreadMethod="pad" gradientTransform="matrix(164.6784,-0.0000,0.0000,-164.6784,183.3333,121.5789)" id="gradient15" y2="1.0000" x1="-1.0000"><stop stop-opacity="1.0000" offset="0.0000" stop-color="rgb(0,128,128)"/><stop stop-opacity="1.0000" offset="1.0000" stop-color="rgb(128,0,128)"/></linearGradient></defs><g stroke-linejoin="miter" stroke-opacity="1" fill-opacity="0.0" stroke="url(#gradient15)" stroke-width="0.5171785805797898" fill="rgb(0,0,0)" stroke-linecap="butt" stroke-miterlimit="10.0"><path d="M 359.5906,256.6667 l -41.1696,0.0000 l -0.0000,41.1696 l 41.1696,0.0000 l 0.0000,41.1696 l 41.1696,0.0000 l 0.0000,-41.1696 l 41.1696,0.0000 l 0.0000,41.1696 l 41.1696,0.0000 l 0.0000,-41.1696 l -41.1696,-0.0000 l 0.0000,-41.1696 l 41.1696,0.0000 l 0.0000,-41.1696 l 41.1696,0.0000 v 41.1696 "/></g><defs><linearGradient x2="1.0000" y1="-1.0000" gradientUnits="userSpaceOnUse" spreadMethod="pad" gradientTransform="matrix(164.6784,-0.0000,0.0000,-164.6784,183.3333,121.5789)" id="gradient17" y2="1.0000" x1="-1.0000"><stop stop-opacity="1.0000" offset="0.0000" stop-color="rgb(0,128,128)"/><stop stop-opacity="1.0000" offset="1.0000" stop-color="rgb(128,0,128)"/></linearGradient></defs><g stroke-linejoin="miter" stroke-opacity="1" fill-opacity="0.0" stroke="url(#gradient17)" stroke-width="0.5171785805797898" fill="rgb(0,0,0)" stroke-linecap="butt" stroke-miterlimit="10.0"><path d="M 115.1462,256.6667 l -20.5848,-20.5848 l -20.5848,20.5848 l 20.5848,20.5848 l -20.5848,20.5848 l 20.5848,20.5848 l 20.5848,-20.5848 l 20.5848,20.5848 l -20.5848,20.5848 l 20.5848,20.5848 l 20.5848,-20.5848 l -20.5848,-20.5848 l 20.5848,-20.5848 l 20.5848,20.5848 l 20.5848,-20.5848 l 20.5848,20.5848 l -20.5848,20.5848 l 20.5848,20.5848 l 20.5848,-20.5848 l -20.5848,-20.5848 l 20.5848,-20.5848 l -20.5848,-20.5848 l -20.5848,20.5848 l -20.5848,-20.5848 l 20.5848,-20.5848 l 20.5848,20.5848 l 20.5848,-20.5848 l -20.5848,-20.5848 l 20.5848,-20.5848 l 20.5848,20.5848 l 20.5848,-20.5848 l 20.5848,20.5848 l -20.5848,20.5848 "/></g><defs><linearGradient x2="1.0000" y1="-1.0000" gradientUnits="userSpaceOnUse" spreadMethod="pad" gradientTransform="matrix(164.6784,-0.0000,0.0000,-164.6784,183.3333,121.5789)" id="gradient19" y2="1.0000" x1="-1.0000"><stop stop-opacity="1.0000" offset="0.0000" stop-color="rgb(0,128,128)"/><stop stop-opacity="1.0000" offset="1.0000" stop-color="rgb(128,0,128)"/></linearGradient></defs><g stroke-linejoin="miter" stroke-opacity="1" fill-opacity="0.0" stroke="url(#gradient19)" stroke-width="0.5171785805797898" fill="rgb(0,0,0)" stroke-linecap="butt" stroke-miterlimit="10.0"><path d="M 604.0351,94.5614 l 0.0000,82.3392 l 82.3392,0.0000 l 0.0000,-82.3392 l 82.3392,0.0000 "/></g><defs><linearGradient x2="1.0000" y1="-1.0000" gradientUnits="userSpaceOnUse" spreadMethod="pad" gradientTransform="matrix(164.6784,-0.0000,0.0000,-164.6784,183.3333,121.5789)" id="gradient21" y2="1.0000" x1="-1.0000"><stop stop-opacity="1.0000" offset="0.0000" stop-color="rgb(0,128,128)"/><stop stop-opacity="1.0000" offset="1.0000" stop-color="rgb(128,0,128)"/></linearGradient></defs><g stroke-linejoin="miter" stroke-opacity="1" fill-opacity="0.0" stroke="url(#gradient21)" stroke-width="0.5171785805797898" fill="rgb(0,0,0)" stroke-linecap="butt" stroke-miterlimit="10.0"><path d="M 359.5906,94.5614 l 82.3392,82.3392 l 82.3392,-82.3392 "/></g><defs><linearGradient x2="1.0000" y1="-1.0000" gradientUnits="userSpaceOnUse" spreadMethod="pad" gradientTransform="matrix(164.6784,-0.0000,0.0000,-164.6784,183.3333,121.5789)" id="gradient23" y2="1.0000" x1="-1.0000"><stop stop-opacity="1.0000" offset="0.0000" stop-color="rgb(0,128,128)"/><stop stop-opacity="1.0000" offset="1.0000" stop-color="rgb(128,0,128)"/></linearGradient></defs><g stroke-linejoin="miter" stroke-opacity="1" fill-opacity="0.0" stroke="url(#gradient23)" stroke-width="0.5171785805797898" fill="rgb(0,0,0)" stroke-linecap="butt" stroke-miterlimit="10.0"><path d="M 115.1462,94.5614 h 164.6784 "/></g></svg>