<?xml version="1.0" encoding="UTF-8"?>
<!DOCTYPE svg PUBLIC "-//W3C//DTD SVG 1.1//EN"
    "http://www.w3.org/Graphics/SVG/1.1/DTD/svg11.dtd"><svg xmlns="http://www.w3.org/2000/svg" height="584.2105" stroke-opacity="1" viewBox="0 0 600 584" font-size="1" width="600.0000" xmlns:xlink="http://www.w3.org/1999/xlink" stroke="rgb(0,0,0)" version="1.1"><defs></defs><g stroke-linejoin="miter" stroke-opacity="1.0" fill-opacity="0.0" opacity="0.2" stroke="rgb(0,0,0)" stroke-width="0.5" fill="rgb(0,0,0)" stroke-linecap="butt" stroke-miterlimit="10.0"><path d="M 379.8246,434.2105 l 8.7719,-0.0000 l -0.0000,-8.7719 l -0.0000,-8.7719 l -8.7719,0.0000 l -0.0000,-8.7719 l -8.7719,0.0000 l -8.7719,0.0000 l 0.0000,8.7719 l -0.0000,-8.7719 l -8.7719,0.0000 l -8.7719,0.0000 l 0.0000,8.7719 l -8.7719,0.0000 l 0.0000,8.7719 l 0.0000,8.7719 h 8.7719 l -0.0000,-8.7719 l -8.7719,0.0000 l -8.7719,0.0000 l 0.0000,8.7719 l -8.7719,0.0000 l 0.0000,8.7719 l 0.0000,8.7719 h 8.7719 l -8.7719,0.0000 l 0.0000,8.7719 l 0.0000,8.7719 h 8.7719 l 0.0000,8.7719 h 8.7719 h 8.7719 l 0.0000,-8.7719 l -0.0000,-8.7719 l -8.7719,0.0000 l -8.7719,0.0000 l 0.0000,8.7719 l -8.7719,0.0000 l 0.0000,8.7719 l 0.0000,8.7719 h 8.7719 l -8.7719,0.0000 l 0.0000,8.7719 l 0.0000,8.7719 h 8.7719 l 0.0000,8.7719 h 8.7719 h 8.7719 l 0.0000,-8.7719 l -8.7719,0.0000 l 0.0000,8.7719 l 0.0000,8.7719 h 8.7719 l 0.0000,8.7719 h 8.7719 h 8.7719 l 0.0000,-8.7719 l 0.0000,8.7719 h 8.7719 h 8.7719 l 0.0000,-8.7719 h 8.7719 l 0.0000,-8.7719 l 0.0000,-8.7719 l -8.7719,-0.0000 l -0.0000,-8.7719 l -8.7719,0.0000 l -8.7719,0.0000 l 0.0000,8.7719 l -8.7719,0.0000 l 0.0000,8.7719 l 0.0000,8.7719 h 8.7719 l -8.7719,0.0000 l 0.0000,8.7719 l 0.0000,8.7719 h 8.7719 l 0.0000,8.7719 h 8.7719 h 8.7719 l 0.0000,-8.7719 l -8.7719,0.0000 l 0.0000,8.7719 l 0.0000,8.7719 h 8.7719 l 0.0000,8.7719 h 8.7719 h 8.7719 l 0.0000,-8.7719 l 0.0000,8.7719 h 8.7719 h 8.7719 l 0.0000,-8.7719 h 8.7719 l 0.0000,-8.7719 l 0.0000,-8.7719 l -8.7719,-0.0000 l -8.7719,0.0000 l 0.0000,8.7719 l 0.0000,8.7719 h 8.7719 l 0.0000,8.7719 h 8.7719 h 8.7719 l 0.0000,-8.7719 l 0.0000,8.7719 h 8.7719 h 8.7719 l 0.0000,-8.7719 h 8.7719 l 0.0000,-8.7719 l 0.0000,-8.7719 l -8.7719,-0.0000 l 0.0000,8.7719 h 8.7719 h 8.7719 l 0.0000,-8.7719 h 8.7719 l 0.0000,-8.7719 l 0.0000,-8.7719 l -8.7719,-0.0000 h 8.7719 l 0.0000,-8.7719 l 0.0000,-8.7719 l -8.7719,-0.0000 l 0.0000,-8.7719 l -8.7719,-0.0000 l -8.7719,-0.0000 l -0.0000,8.7719 l -0.0000,-8.7719 l -8.7719,0.0000 l -8.7719,0.0000 l 0.0000,8.7719 l -8.7719,0.0000 l 0.0000,8.7719 l 0.0000,8.7719 h 8.7719 l -8.7719,0.0000 l 0.0000,8.7719 l 0.0000,8.7719 h 8.7719 l 0.0000,8.7719 h 8.7719 h 8.7719 l 0.0000,-8.7719 l -8.7719,0.0000 l 0.0000,8.7719 l 0.0000,8.7719 h 8.7719 l 0.0000,8.7719 h 8.7719 h 8.7719 l 0.0000,-8.7719 l 0.0000,8.7719 h 8.7719 h 8.7719 l 0.0000,-8.7719 h 8.7719 l 0.0000,-8.7719 l 0.0000,-8.7719 l -8.7719,-0.0000 l -8.7719,0.0000 l 0.0000,8.7719 l 0.0000,8.7719 h 8.7719 l 0.0000,8.7719 h 8.7719 h 8.7719 l 0.0000,-8.7719 l 0.0000,8.7719 h 8.7719 h 8.7719 l 0.0000,-8.7719 h 8.7719 l 0.0000,-8.7719 l 0.0000,-8.7719 l -8.7719,-0.0000 l 0.0000,8.7719 h 8.7719 h 8.7719 l 0.0000,-8.7719 h 8.7719 l 0.0000,-8.7719 l 0.0000,-8.7719 l -8.7719,-0.0000 h 8.7719 l 0.0000,-8.7719 l 0.0000,-8.7719 l -8.7719,-0.0000 l 0.0000,-8.7719 l -8.7719,-0.0000 l -8.7719,-0.0000 l -0.0000,8.7719 l -8.7719,0.0000 l 0.0000,8.7719 l 0.0000,8.7719 h 8.7719 l 0.0000,8.7719 h 8.7719 h 8.7719 l 0.0000,-8.7719 l 0.0000,8.7719 h 8.7719 h 8.7719 l 0.0000,-8.7719 h 8.7719 l 0.0000,-8.7719 l 0.0000,-8.7719 l -8.7719,-0.0000 l 0.0000,8.7719 h 8.7719 h 8.7719 l 0.0000,-8.7719 h 8.7719 l 0.0000,-8.7719 l 0.0000,-8.7719 l -8.7719,-0.0000 h 8.7719 l 0.0000,-8.7719 l 0.0000,-8.7719 l -8.7719,-0.0000 l 0.0000,-8.7719 l -8.7719,-0.0000 l -8.7719,-0.0000 l -0.0000,8.7719 l 0.0000,8.7719 h 8.7719 h 8.7719 l 0.0000,-8.7719 h 8.7719 l 0.0000,-8.7719 l 0.0000,-8.7719 l -8.7719,-0.0000 h 8.7719 l 0.0000,-8.7719 l 0.0000,-8.7719 l -8.7719,-0.0000 l 0.0000,-8.7719 l -8.7719,-0.0000 l -8.7719,-0.0000 l -0.0000,8.7719 h 8.7719 l 0.0000,-8.7719 l 0.0000,-8.7719 l -8.7719,-0.0000 l 0.0000,-8.7719 l -8.7719,-0.0000 l -8.7719,-0.0000 l -0.0000,8.7719 l 0.0000,-8.7719 l -8.7719,-0.0000 l -8.7719,-0.0000 l -0.0000,8.7719 l -8.7719,-0.0000 l -0.0000,8.7719 l -0.0000,8.7719 l 8.7719,0.0000 "/></g><g stroke-linejoin="miter" stroke-opacity="1.0" fill-opacity="0.0" stroke="rgb(0,0,0)" stroke-width="0.5" fill="rgb(0,0,0)" stroke-linecap="butt" stroke-miterlimit="10.0"><path d="M 379.8246,434.2105 l 0.0000,4.3860 l 4.3860,-0.0000 l 4.3860,-0.0000 l -0.0000,-4.3860 l 4.3860,-0.0000 l -0.0000,-4.3860 l -0.0000,-4.3860 l -4.3860,0.0000 l 4.3860,-0.0000 l -0.0000,-4.3860 l -0.0000,-4.3860 l -4.3860,0.0000 l -0.0000,-4.3860 l -4.3860,0.0000 l -4.3860,0.0000 l 0.0000,4.3860 l 4.3860,-0.0000 l -0.0000,-4.3860 l -0.0000,-4.3860 l -4.3860,0.0000 l -0.0000,-4.3860 l -4.3860,0.0000 l -4.3860,0.0000 l 0.0000,4.3860 l -0.0000,-4.3860 l -4.3860,0.0000 l -4.3860,0.0000 l 0.0000,4.3860 l -4.3860,0.0000 l 0.0000,4.3860 l 0.0000,4.3860 h 4.3860 l 4.3860,-0.0000 l -0.0000,-4.3860 l -0.0000,-4.3860 l -4.3860,0.0000 l -0.0000,-4.3860 l -4.3860,0.0000 l -4.3860,0.0000 l 0.0000,4.3860 l -0.0000,-4.3860 l -4.3860,0.0000 l -4.3860,0.0000 l 0.0000,4.3860 l -4.3860,0.0000 l 0.0000,4.3860 l 0.0000,4.3860 h 4.3860 l -0.0000,-4.3860 l -4.3860,0.0000 l -4.3860,0.0000 l 0.0000,4.3860 l -4.3860,0.0000 l 0.0000,4.3860 l 0.0000,4.3860 h 4.3860 l -4.3860,0.0000 l 0.0000,4.3860 l 0.0000,4.3860 h 4.3860 l 0.0000,4.3860 h 4.3860 h 4.3860 l 0.0000,-4.3860 l 4.3860,-0.0000 l -0.0000,-4.3860 l -0.0000,-4.3860 l -4.3860,0.0000 l -0.0000,-4.3860 l -4.3860,0.0000 l -4.3860,0.0000 l 0.0000,4.3860 l -0.0000,-4.3860 l -4.3860,0.0000 l -4.3860,0.0000 l 0.0000,4.3860 l -4.3860,0.0000 l 0.0000,4.3860 l 0.0000,4.3860 h 4.3860 l -0.0000,-4.3860 l -4.3860,0.0000 l -4.3860,0.0000 l 0.0000,4.3860 l -4.3860,0.0000 l 0.0000,4.3860 l 0.0000,4.3860 h 4.3860 l -4.3860,0.0000 l 0.0000,4.3860 l 0.0000,4.3860 h 4.3860 l 0.0000,4.3860 h 4.3860 h 4.3860 l 0.0000,-4.3860 l -0.0000,-4.3860 l -4.3860,0.0000 l -4.3860,0.0000 l 0.0000,4.3860 l -4.3860,0.0000 l 0.0000,4.3860 l 0.0000,4.3860 h 4.3860 l -4.3860,0.0000 l 0.0000,4.3860 l 0.0000,4.3860 h 4.3860 l 0.0000,4.3860 h 4.3860 h 4.3860 l 0.0000,-4.3860 l -4.3860,0.0000 l 0.0000,4.3860 l 0.0000,4.3860 h 4.3860 l 0.0000,4.3860 h 4.3860 h 4.3860 l 0.0000,-4.3860 l 0.0000,4.3860 h 4.3860 h 4.3860 l 0.0000,-4.3860 h 4.3860 l 0.0000,-4.3860 l 0.0000,-4.3860 l -4.3860,-0.0000 l 4.3860,-0.0000 l -0.0000,-4.3860 l -0.0000,-4.3860 l -4.3860,0.0000 l -0.0000,-4.3860 l -4.3860,0.0000 l -4.3860,0.0000 l 0.0000,4.3860 l -0.0000,-4.3860 l -4.3860,0.0000 l -4.3860,0.0000 l 0.0000,4.3860 l -4.3860,0.0000 l 0.0000,4.3860 l 0.0000,4.3860 h 4.3860 l -0.0000,-4.3860 l -4.3860,0.0000 l -4.3860,0.0000 l 0.0000,4.3860 l -4.3860,0.0000 l 0.0000,4.3860 l 0.0000,4.3860 h 4.3860 l -4.3860,0.0000 l 0.0000,4.3860 l 0.0000,4.3860 h 4.3860 l 0.0000,4.3860 h 4.3860 h 4.3860 l 0.0000,-4.3860 l -0.0000,-4.3860 l -4.3860,0.0000 l -4.3860,0.0000 l 0.0000,4.3860 l -4.3860,0.0000 l 0.0000,4.3860 l 0.0000,4.3860 h 4.3860 l -4.3860,0.0000 l 0.0000,4.3860 l 0.0000,4.3860 h 4.3860 l 0.0000,4.3860 h 4.3860 h 4.3860 l 0.0000,-4.3860 l -4.3860,0.0000 l 0.0000,4.3860 l 0.0000,4.3860 h 4.3860 l 0.0000,4.3860 h 4.3860 h 4.3860 l 0.0000,-4.3860 l 0.0000,4.3860 h 4.3860 h 4.3860 l 0.0000,-4.3860 h 4.3860 l 0.0000,-4.3860 l 0.0000,-4.3860 l -4.3860,-0.0000 l -0.0000,-4.3860 l -4.3860,0.0000 l -4.3860,0.0000 l 0.0000,4.3860 l -4.3860,0.0000 l 0.0000,4.3860 l 0.0000,4.3860 h 4.3860 l -4.3860,0.0000 l 0.0000,4.3860 l 0.0000,4.3860 h 4.3860 l 0.0000,4.3860 h 4.3860 h 4.3860 l 0.0000,-4.3860 l -4.3860,0.0000 l 0.0000,4.3860 l 0.0000,4.3860 h 4.3860 l 0.0000,4.3860 h 4.3860 h 4.3860 l 0.0000,-4.3860 l 0.0000,4.3860 h 4.3860 h 4.3860 l 0.0000,-4.3860 h 4.3860 l 0.0000,-4.3860 l 0.0000,-4.3860 l -4.3860,-0.0000 l -4.3860,0.0000 l 0.0000,4.3860 l 0.0000,4.3860 h 4.3860 l 0.0000,4.3860 h 4.3860 h 4.3860 l 0.0000,-4.3860 l 0.0000,4.3860 h 4.3860 h 4.3860 l 0.0000,-4.3860 h 4.3860 l 0.0000,-4.3860 l 0.0000,-4.3860 l -4.3860,-0.0000 l 0.0000,4.3860 h 4.3860 h 4.3860 l 0.0000,-4.3860 h 4.3860 l 0.0000,-4.3860 l 0.0000,-4.3860 l -4.3860,-0.0000 h 4.3860 l 0.0000,-4.3860 l 0.0000,-4.3860 l -4.3860,-0.0000 l 0.0000,-4.3860 l -4.3860,-0.0000 l -4.3860,-0.0000 l -0.0000,4.3860 l 4.3860,-0.0000 l -0.0000,-4.3860 l -0.0000,-4.3860 l -4.3860,0.0000 l -0.0000,-4.3860 l -4.3860,0.0000 l -4.3860,0.0000 l 0.0000,4.3860 l -0.0000,-4.3860 l -4.3860,0.0000 l -4.3860,0.0000 l 0.0000,4.3860 l -4.3860,0.0000 l 0.0000,4.3860 l 0.0000,4.3860 h 4.3860 l -0.0000,-4.3860 l -4.3860,0.0000 l -4.3860,0.0000 l 0.0000,4.3860 l -4.3860,0.0000 l 0.0000,4.3860 l 0.0000,4.3860 h 4.3860 l -4.3860,0.0000 l 0.0000,4.3860 l 0.0000,4.3860 h 4.3860 l 0.0000,4.3860 h 4.3860 h 4.3860 l 0.0000,-4.3860 l -0.0000,-4.3860 l -4.3860,0.0000 l -4.3860,0.0000 l 0.0000,4.3860 l -4.3860,0.0000 l 0.0000,4.3860 l 0.0000,4.3860 h 4.3860 l -4.3860,0.0000 l 0.0000,4.3860 l 0.0000,4.3860 h 4.3860 l 0.0000,4.3860 h 4.3860 h 4.3860 l 0.0000,-4.3860 l -4.3860,0.0000 l 0.0000,4.3860 l 0.0000,4.3860 h 4.3860 l 0.0000,4.3860 h 4.3860 h 4.3860 l 0.0000,-4.3860 l 0.0000,4.3860 h 4.3860 h 4.3860 l 0.0000,-4.3860 h 4.3860 l 0.0000,-4.3860 l 0.0000,-4.3860 l -4.3860,-0.0000 l -0.0000,-4.3860 l -4.3860,0.0000 l -4.3860,0.0000 l 0.0000,4.3860 l -4.3860,0.0000 l 0.0000,4.3860 l 0.0000,4.3860 h 4.3860 l -4.3860,0.0000 l 0.0000,4.3860 l 0.0000,4.3860 h 4.3860 l 0.0000,4.3860 h 4.3860 h 4.3860 l 0.0000,-4.3860 l -4.3860,0.0000 l 0.0000,4.3860 l 0.0000,4.3860 h 4.3860 l 0.0000,4.3860 h 4.3860 h 4.3860 l 0.0000,-4.3860 l 0.0000,4.3860 h 4.3860 h 4.3860 l 0.0000,-4.3860 h 4.3860 l 0.0000,-4.3860 l 0.0000,-4.3860 l -4.3860,-0.0000 l -4.3860,0.0000 l 0.0000,4.3860 l 0.0000,4.3860 h 4.3860 l 0.0000,4.3860 h 4.3860 h 4.3860 l 0.0000,-4.3860 l 0.0000,4.3860 h 4.3860 h 4.3860 l 0.0000,-4.3860 h 4.3860 l 0.0000,-4.3860 l 0.0000,-4.3860 l -4.3860,-0.0000 l 0.0000,4.3860 h 4.3860 h 4.3860 l 0.0000,-4.3860 h 4.3860 l 0.0000,-4.3860 l 0.0000,-4.3860 l -4.3860,-0.0000 h 4.3860 l 0.0000,-4.3860 l 0.0000,-4.3860 l -4.3860,-0.0000 l 0.0000,-4.3860 l -4.3860,-0.0000 l -4.3860,-0.0000 l -0.0000,4.3860 l -0.0000,-4.3860 l -4.3860,0.0000 l -4.3860,0.0000 l 0.0000,4.3860 l -4.3860,0.0000 l 0.0000,4.3860 l 0.0000,4.3860 h 4.3860 l -4.3860,0.0000 l 0.0000,4.3860 l 0.0000,4.3860 h 4.3860 l 0.0000,4.3860 h 4.3860 h 4.3860 l 0.0000,-4.3860 l -4.3860,0.0000 l 0.0000,4.3860 l 0.0000,4.3860 h 4.3860 l 0.0000,4.3860 h 4.3860 h 4.3860 l 0.0000,-4.3860 l 0.0000,4.3860 h 4.3860 h 4.3860 l 0.0000,-4.3860 h 4.3860 l 0.0000,-4.3860 l 0.0000,-4.3860 l -4.3860,-0.0000 l -4.3860,0.0000 l 0.0000,4.3860 l 0.0000,4.3860 h 4.3860 l 0.0000,4.3860 h 4.3860 h 4.3860 l 0.0000,-4.3860 l 0.0000,4.3860 h 4.3860 h 4.3860 l 0.0000,-4.3860 h 4.3860 l 0.0000,-4.3860 l 0.0000,-4.3860 l -4.3860,-0.0000 l 0.0000,4.3860 h 4.3860 h 4.3860 l 0.0000,-4.3860 h 4.3860 l 0.0000,-4.3860 l 0.0000,-4.3860 l -4.3860,-0.0000 h 4.3860 l 0.0000,-4.3860 l 0.0000,-4.3860 l -4.3860,-0.0000 l 0.0000,-4.3860 l -4.3860,-0.0000 l -4.3860,-0.0000 l -0.0000,4.3860 l -4.3860,0.0000 l 0.0000,4.3860 l 0.0000,4.3860 h 4.3860 l 0.0000,4.3860 h 4.3860 h 4.3860 l 0.0000,-4.3860 l 0.0000,4.3860 h 4.3860 h 4.3860 l 0.0000,-4.3860 h 4.3860 l 0.0000,-4.3860 l 0.0000,-4.3860 l -4.3860,-0.0000 l 0.0000,4.3860 h 4.3860 h 4.3860 l 0.0000,-4.3860 h 4.3860 l 0.0000,-4.3860 l 0.0000,-4.3860 l -4.3860,-0.0000 h 4.3860 l 0.0000,-4.3860 l 0.0000,-4.3860 l -4.3860,-0.0000 l 0.0000,-4.3860 l -4.3860,-0.0000 l -4.3860,-0.0000 l -0.0000,4.3860 l 0.0000,4.3860 h 4.3860 h 4.3860 l 0.0000,-4.3860 h 4.3860 l 0.0000,-4.3860 l 0.0000,-4.3860 l -4.3860,-0.0000 h 4.3860 l 0.0000,-4.3860 l 0.0000,-4.3860 l -4.3860,-0.0000 l 0.0000,-4.3860 l -4.3860,-0.0000 l -4.3860,-0.0000 l -0.0000,4.3860 h 4.3860 l 0.0000,-4.3860 l 0.0000,-4.3860 l -4.3860,-0.0000 l 0.0000,-4.3860 l -4.3860,-0.0000 l -4.3860,-0.0000 l -0.0000,4.3860 l 0.0000,-4.3860 l -4.3860,-0.0000 l -4.3860,-0.0000 l -0.0000,4.3860 l -4.3860,-0.0000 l -0.0000,4.3860 l -0.0000,4.3860 l 4.3860,0.0000 l 4.3860,-0.0000 l -0.0000,-4.3860 l -0.0000,-4.3860 l -4.3860,0.0000 l -0.0000,-4.3860 l -4.3860,0.0000 l -4.3860,0.0000 l 0.0000,4.3860 l -0.0000,-4.3860 l -4.3860,0.0000 l -4.3860,0.0000 l 0.0000,4.3860 l -4.3860,0.0000 l 0.0000,4.3860 l 0.0000,4.3860 h 4.3860 l -0.0000,-4.3860 l -4.3860,0.0000 l -4.3860,0.0000 l 0.0000,4.3860 l -4.3860,0.0000 l 0.0000,4.3860 l 0.0000,4.3860 h 4.3860 l -4.3860,0.0000 l 0.0000,4.3860 l 0.0000,4.3860 h 4.3860 l 0.0000,4.3860 h 4.3860 h 4.3860 l 0.0000,-4.3860 l -0.0000,-4.3860 l -4.3860,0.0000 l -4.3860,0.0000 l 0.0000,4.3860 l -4.3860,0.0000 l 0.0000,4.3860 l 0.0000,4.3860 h 4.3860 l -4.3860,0.0000 l 0.0000,4.3860 l 0.0000,4.3860 h 4.3860 l 0.0000,4.3860 h 4.3860 h 4.3860 l 0.0000,-4.3860 l -4.3860,0.0000 l 0.0000,4.3860 l 0.0000,4.3860 h 4.3860 l 0.0000,4.3860 h 4.3860 h 4.3860 l 0.0000,-4.3860 l 0.0000,4.3860 h 4.3860 h 4.3860 l 0.0000,-4.3860 h 4.3860 l 0.0000,-4.3860 l 0.0000,-4.3860 l -4.3860,-0.0000 l -0.0000,-4.3860 l -4.3860,0.0000 l -4.3860,0.0000 l 0.0000,4.3860 l -4.3860,0.0000 l 0.0000,4.3860 l 0.0000,4.3860 h 4.3860 l -4.3860,0.0000 l 0.0000,4.3860 l 0.0000,4.3860 h 4.3860 l 0.0000,4.3860 h 4.3860 h 4.3860 l 0.0000,-4.3860 l -4.3860,0.0000 l 0.0000,4.3860 l 0.0000,4.3860 h 4.3860 l 0.0000,4.3860 h 4.3860 h 4.3860 l 0.0000,-4.3860 l 0.0000,4.3860 h 4.3860 h 4.3860 l 0.0000,-4.3860 h 4.3860 l 0.0000,-4.3860 l 0.0000,-4.3860 l -4.3860,-0.0000 l -4.3860,0.0000 l 0.0000,4.3860 l 0.0000,4.3860 h 4.3860 l 0.0000,4.3860 h 4.3860 h 4.3860 l 0.0000,-4.3860 l 0.0000,4.3860 h 4.3860 h 4.3860 l 0.0000,-4.3860 h 4.3860 l 0.0000,-4.3860 l 0.0000,-4.3860 l -4.3860,-0.0000 l 0.0000,4.3860 h 4.3860 h 4.3860 l 0.0000,-4.3860 h 4.3860 l 0.0000,-4.3860 l 0.0000,-4.3860 l -4.3860,-0.0000 h 4.3860 l 0.0000,-4.3860 l 0.0000,-4.3860 l -4.3860,-0.0000 l 0.0000,-4.3860 l -4.3860,-0.0000 l -4.3860,-0.0000 l -0.0000,4.3860 l -0.0000,-4.3860 l -4.3860,0.0000 l -4.3860,0.0000 l 0.0000,4.3860 l -4.3860,0.0000 l 0.0000,4.3860 l 0.0000,4.3860 h 4.3860 l -4.3860,0.0000 l 0.0000,4.3860 l 0.0000,4.3860 h 4.3860 l 0.0000,4.3860 h 4.3860 h 4.3860 l 0.0000,-4.3860 l -4.3860,0.0000 l 0.0000,4.3860 l 0.0000,4.3860 h 4.3860 l 0.0000,4.3860 h 4.3860 h 4.3860 l 0.0000,-4.3860 l 0.0000,4.3860 h 4.3860 h 4.3860 l 0.0000,-4.3860 h 4.3860 l 0.0000,-4.3860 l 0.0000,-4.3860 l -4.3860,-0.0000 l -4.3860,0.0000 l 0.0000,4.3860 l 0.0000,4.3860 h 4.3860 l 0.0000,4.3860 h 4.3860 h 4.3860 l 0.0000,-4.3860 l 0.0000,4.3860 h 4.3860 h 4.3860 l 0.0000,-4.3860 h 4.3860 l 0.0000,-4.3860 l 0.0000,-4.3860 l -4.3860,-0.0000 l 0.0000,4.3860 h 4.3860 h 4.3860 l 0.0000,-4.3860 h 4.3860 l 0.0000,-4.3860 l 0.0000,-4.3860 l -4.3860,-0.0000 h 4.3860 l 0.0000,-4.3860 l 0.0000,-4.3860 l -4.3860,-0.0000 l 0.0000,-4.3860 l -4.3860,-0.0000 l -4.3860,-0.0000 l -0.0000,4.3860 l -4.3860,0.0000 l 0.0000,4.3860 l 0.0000,4.3860 h 4.3860 l 0.0000,4.3860 h 4.3860 h 4.3860 l 0.0000,-4.3860 l 0.0000,4.3860 h 4.3860 h 4.3860 l 0.0000,-4.3860 h 4.3860 l 0.0000,-4.3860 l 0.0000,-4.3860 l -4.3860,-0.0000 l 0.0000,4.3860 h 4.3860 h 4.3860 l 0.0000,-4.3860 h 4.3860 l 0.0000,-4.3860 l 0.0000,-4.3860 l -4.3860,-0.0000 h 4.3860 l 0.0000,-4.3860 l 0.0000,-4.3860 l -4.3860,-0.0000 l 0.0000,-4.3860 l -4.3860,-0.0000 l -4.3860,-0.0000 l -0.0000,4.3860 l 0.0000,4.3860 h 4.3860 h 4.3860 l 0.0000,-4.3860 h 4.3860 l 0.0000,-4.3860 l 0.0000,-4.3860 l -4.3860,-0.0000 h 4.3860 l 0.0000,-4.3860 l 0.0000,-4.3860 l -4.3860,-0.0000 l 0.0000,-4.3860 l -4.3860,-0.0000 l -4.3860,-0.0000 l -0.0000,4.3860 h 4.3860 l 0.0000,-4.3860 l 0.0000,-4.3860 l -4.3860,-0.0000 l 0.0000,-4.3860 l -4.3860,-0.0000 l -4.3860,-0.0000 l -0.0000,4.3860 l 0.0000,-4.3860 l -4.3860,-0.0000 l -4.3860,-0.0000 l -0.0000,4.3860 l -4.3860,-0.0000 l -0.0000,4.3860 l -0.0000,4.3860 l 4.3860,0.0000 l -0.0000,-4.3860 l -4.3860,0.0000 l -4.3860,0.0000 l 0.0000,4.3860 l -4.3860,0.0000 l 0.0000,4.3860 l 0.0000,4.3860 h 4.3860 l -4.3860,0.0000 l 0.0000,4.3860 l 0.0000,4.3860 h 4.3860 l 0.0000,4.3860 h 4.3860 h 4.3860 l 0.0000,-4.3860 l -4.3860,0.0000 l 0.0000,4.3860 l 0.0000,4.3860 h 4.3860 l 0.0000,4.3860 h 4.3860 h 4.3860 l 0.0000,-4.3860 l 0.0000,4.3860 h 4.3860 h 4.3860 l 0.0000,-4.3860 h 4.3860 l 0.0000,-4.3860 l 0.0000,-4.3860 l -4.3860,-0.0000 l -4.3860,0.0000 l 0.0000,4.3860 l 0.0000,4.3860 h 4.3860 l 0.0000,4.3860 h 4.3860 h 4.3860 l 0.0000,-4.3860 l 0.0000,4.3860 h 4.3860 h 4.3860 l 0.0000,-4.3860 h 4.3860 l 0.0000,-4.3860 l 0.0000,-4.3860 l -4.3860,-0.0000 l 0.0000,4.3860 h 4.3860 h 4.3860 l 0.0000,-4.3860 h 4.3860 l 0.0000,-4.3860 l 0.0000,-4.3860 l -4.3860,-0.0000 h 4.3860 l 0.0000,-4.3860 l 0.0000,-4.3860 l -4.3860,-0.0000 l 0.0000,-4.3860 l -4.3860,-0.0000 l -4.3860,-0.0000 l -0.0000,4.3860 l -4.3860,0.0000 l 0.0000,4.3860 l 0.0000,4.3860 h 4.3860 l 0.0000,4.3860 h 4.3860 h 4.3860 l 0.0000,-4.3860 l 0.0000,4.3860 h 4.3860 h 4.3860 l 0.0000,-4.3860 h 4.3860 l 0.0000,-4.3860 l 0.0000,-4.3860 l -4.3860,-0.0000 l 0.0000,4.3860 h 4.3860 h 4.3860 l 0.0000,-4.3860 h 4.3860 l 0.0000,-4.3860 l 0.0000,-4.3860 l -4.3860,-0.0000 h 4.3860 l 0.0000,-4.3860 l 0.0000,-4.3860 l -4.3860,-0.0000 l 0.0000,-4.3860 l -4.3860,-0.0000 l -4.3860,-0.0000 l -0.0000,4.3860 l 0.0000,4.3860 h 4.3860 h 4.3860 l 0.0000,-4.3860 h 4.3860 l 0.0000,-4.3860 l 0.0000,-4.3860 l -4.3860,-0.0000 h 4.3860 l 0.0000,-4.3860 l 0.0000,-4.3860 l -4.3860,-0.0000 l 0.0000,-4.3860 l -4.3860,-0.0000 l -4.3860,-0.0000 l -0.0000,4.3860 h 4.3860 l 0.0000,-4.3860 l 0.0000,-4.3860 l -4.3860,-0.0000 l 0.0000,-4.3860 l -4.3860,-0.0000 l -4.3860,-0.0000 l -0.0000,4.3860 l 0.0000,-4.3860 l -4.3860,-0.0000 l -4.3860,-0.0000 l -0.0000,4.3860 l -4.3860,-0.0000 l -0.0000,4.3860 l -0.0000,4.3860 l 4.3860,0.0000 l -4.3860,0.0000 l 0.0000,4.3860 l 0.0000,4.3860 h 4.3860 l 0.0000,4.3860 h 4.3860 h 4.3860 l 0.0000,-4.3860 l 0.0000,4.3860 h 4.3860 h 4.3860 l 0.0000,-4.3860 h 4.3860 l 0.0000,-4.3860 l 0.0000,-4.3860 l -4.3860,-0.0000 l 0.0000,4.3860 h 4.3860 h 4.3860 l 0.0000,-4.3860 h 4.3860 l 0.0000,-4.3860 l 0.0000,-4.3860 l -4.3860,-0.0000 h 4.3860 l 0.0000,-4.3860 l 0.0000,-4.3860 l -4.3860,-0.0000 l 0.0000,-4.3860 l -4.3860,-0.0000 l -4.3860,-0.0000 l -0.0000,4.3860 l 0.0000,4.3860 h 4.3860 h 4.3860 l 0.0000,-4.3860 h 4.3860 l 0.0000,-4.3860 l 0.0000,-4.3860 l -4.3860,-0.0000 h 4.3860 l 0.0000,-4.3860 l 0.0000,-4.3860 l -4.3860,-0.0000 l 0.0000,-4.3860 l -4.3860,-0.0000 l -4.3860,-0.0000 l -0.0000,4.3860 h 4.3860 l 0.0000,-4.3860 l 0.0000,-4.3860 l -4.3860,-0.0000 l 0.0000,-4.3860 l -4.3860,-0.0000 l -4.3860,-0.0000 l -0.0000,4.3860 l 0.0000,-4.3860 l -4.3860,-0.0000 l -4.3860,-0.0000 l -0.0000,4.3860 l -4.3860,-0.0000 l -0.0000,4.3860 l -0.0000,4.3860 l 4.3860,0.0000 l 0.0000,4.3860 h 4.3860 h 4.3860 l 0.0000,-4.3860 h 4.3860 l 0.0000,-4.3860 l 0.0000,-4.3860 l -4.3860,-0.0000 h 4.3860 l 0.0000,-4.3860 l 0.0000,-4.3860 l -4.3860,-0.0000 l 0.0000,-4.3860 l -4.3860,-0.0000 l -4.3860,-0.0000 l -0.0000,4.3860 h 4.3860 l 0.0000,-4.3860 l 0.0000,-4.3860 l -4.3860,-0.0000 l 0.0000,-4.3860 l -4.3860,-0.0000 l -4.3860,-0.0000 l -0.0000,4.3860 l 0.0000,-4.3860 l -4.3860,-0.0000 l -4.3860,-0.0000 l -0.0000,4.3860 l -4.3860,-0.0000 l -0.0000,4.3860 l -0.0000,4.3860 l 4.3860,0.0000 h 4.3860 l 0.0000,-4.3860 l 0.0000,-4.3860 l -4.3860,-0.0000 l 0.0000,-4.3860 l -4.3860,-0.0000 l -4.3860,-0.0000 l -0.0000,4.3860 l 0.0000,-4.3860 l -4.3860,-0.0000 l -4.3860,-0.0000 l -0.0000,4.3860 l -4.3860,-0.0000 l -0.0000,4.3860 l -0.0000,4.3860 l 4.3860,0.0000 l 0.0000,-4.3860 l -4.3860,-0.0000 l -4.3860,-0.0000 l -0.0000,4.3860 l -4.3860,-0.0000 l -0.0000,4.3860 l -0.0000,4.3860 l 4.3860,0.0000 l -4.3860,-0.0000 l -0.0000,4.3860 l -0.0000,4.3860 l 4.3860,0.0000 l -0.0000,4.3860 l 4.3860,0.0000 l 4.3860,0.0000 l 0.0000,-4.3860 "/></g><g stroke-linejoin="miter" stroke-opacity="1.0" fill-opacity="0.0" opacity="0.2" stroke="rgb(0,0,0)" stroke-width="0.5" fill="rgb(0,0,0)" stroke-linecap="butt" stroke-miterlimit="10.0"><path d="M 79.8246,434.2105 l -0.0000,-17.5439 l -17.5439,0.0000 l -17.5439,0.0000 l 0.0000,17.5439 l -17.5439,0.0000 l 0.0000,17.5439 l 0.0000,17.5439 h 17.5439 l -17.5439,0.0000 l 0.0000,17.5439 l 0.0000,17.5439 h 17.5439 l 0.0000,17.5439 h 17.5439 h 17.5439 l 0.0000,-17.5439 l -17.5439,0.0000 l 0.0000,17.5439 l 0.0000,17.5439 h 17.5439 l 0.0000,17.5439 h 17.5439 h 17.5439 l 0.0000,-17.5439 l 0.0000,17.5439 h 17.5439 h 17.5439 l 0.0000,-17.5439 h 17.5439 l 0.0000,-17.5439 l 0.0000,-17.5439 l -17.5439,-0.0000 l -17.5439,0.0000 l 0.0000,17.5439 l 0.0000,17.5439 h 17.5439 l 0.0000,17.5439 h 17.5439 h 17.5439 l 0.0000,-17.5439 l 0.0000,17.5439 h 17.5439 h 17.5439 l 0.0000,-17.5439 h 17.5439 l 0.0000,-17.5439 l 0.0000,-17.5439 l -17.5439,-0.0000 l 0.0000,17.5439 h 17.5439 h 17.5439 l 0.0000,-17.5439 h 17.5439 l 0.0000,-17.5439 l 0.0000,-17.5439 l -17.5439,-0.0000 h 17.5439 l 0.0000,-17.5439 l 0.0000,-17.5439 l -17.5439,-0.0000 l 0.0000,-17.5439 l -17.5439,-0.0000 l -17.5439,-0.0000 l -0.0000,17.5439 "/></g><g stroke-linejoin="miter" stroke-opacity="1.0" fill-opacity="0.0" stroke="rgb(0,0,0)" stroke-width="0.5" fill="rgb(0,0,0)" stroke-linecap="butt" stroke-miterlimit="10.0"><path d="M 79.8246,434.2105 l 8.7719,-0.0000 l -0.0000,-8.7719 l -0.0000,-8.7719 l -8.7719,0.0000 l -0.0000,-8.7719 l -8.7719,0.0000 l -8.7719,0.0000 l 0.0000,8.7719 l -0.0000,-8.7719 l -8.7719,0.0000 l -8.7719,0.0000 l 0.0000,8.7719 l -8.7719,0.0000 l 0.0000,8.7719 l 0.0000,8.7719 h 8.7719 l -0.0000,-8.7719 l -8.7719,0.0000 l -8.7719,0.0000 l 0.0000,8.7719 l -8.7719,0.0000 l 0.0000,8.7719 l 0.0000,8.7719 h 8.7719 l -8.7719,0.0000 l 0.0000,8.7719 l 0.0000,8.7719 h 8.7719 l 0.0000,8.7719 h 8.7719 h 8.7719 l 0.0000,-8.7719 l -0.0000,-8.7719 l -8.7719,0.0000 l -8.7719,0.0000 l 0.0000,8.7719 l -8.7719,0.0000 l 0.0000,8.7719 l 0.0000,8.7719 h 8.7719 l -8.7719,0.0000 l 0.0000,8.7719 l 0.0000,8.7719 h 8.7719 l 0.0000,8.7719 h 8.7719 h 8.7719 l 0.0000,-8.7719 l -8.7719,0.0000 l 0.0000,8.7719 l 0.0000,8.7719 h 8.7719 l 0.0000,8.7719 h 8.7719 h 8.7719 l 0.0000,-8.7719 l 0.0000,8.7719 h 8.7719 h 8.7719 l 0.0000,-8.7719 h 8.7719 l 0.0000,-8.7719 l 0.0000,-8.7719 l -8.7719,-0.0000 l -0.0000,-8.7719 l -8.7719,0.0000 l -8.7719,0.0000 l 0.0000,8.7719 l -8.7719,0.0000 l 0.0000,8.7719 l 0.0000,8.7719 h 8.7719 l -8.7719,0.0000 l 0.0000,8.7719 l 0.0000,8.7719 h 8.7719 l 0.0000,8.7719 h 8.7719 h 8.7719 l 0.0000,-8.7719 l -8.7719,0.0000 l 0.0000,8.7719 l 0.0000,8.7719 h 8.7719 l 0.0000,8.7719 h 8.7719 h 8.7719 l 0.0000,-8.7719 l 0.0000,8.7719 h 8.7719 h 8.7719 l 0.0000,-8.7719 h 8.7719 l 0.0000,-8.7719 l 0.0000,-8.7719 l -8.7719,-0.0000 l -8.7719,0.0000 l 0.0000,8.7719 l 0.0000,8.7719 h 8.7719 l 0.0000,8.7719 h 8.7719 h 8.7719 l 0.0000,-8.7719 l 0.0000,8.7719 h 8.7719 h 8.7719 l 0.0000,-8.7719 h 8.7719 l 0.0000,-8.7719 l 0.0000,-8.7719 l -8.7719,-0.0000 l 0.0000,8.7719 h 8.7719 h 8.7719 l 0.0000,-8.7719 h 8.7719 l 0.0000,-8.7719 l 0.0000,-8.7719 l -8.7719,-0.0000 h 8.7719 l 0.0000,-8.7719 l 0.0000,-8.7719 l -8.7719,-0.0000 l 0.0000,-8.7719 l -8.7719,-0.0000 l -8.7719,-0.0000 l -0.0000,8.7719 l -0.0000,-8.7719 l -8.7719,0.0000 l -8.7719,0.0000 l 0.0000,8.7719 l -8.7719,0.0000 l 0.0000,8.7719 l 0.0000,8.7719 h 8.7719 l -8.7719,0.0000 l 0.0000,8.7719 l 0.0000,8.7719 h 8.7719 l 0.0000,8.7719 h 8.7719 h 8.7719 l 0.0000,-8.7719 l -8.7719,0.0000 l 0.0000,8.7719 l 0.0000,8.7719 h 8.7719 l 0.0000,8.7719 h 8.7719 h 8.7719 l 0.0000,-8.7719 l 0.0000,8.7719 h 8.7719 h 8.7719 l 0.0000,-8.7719 h 8.7719 l 0.0000,-8.7719 l 0.0000,-8.7719 l -8.7719,-0.0000 l -8.7719,0.0000 l 0.0000,8.7719 l 0.0000,8.7719 h 8.7719 l 0.0000,8.7719 h 8.7719 h 8.7719 l 0.0000,-8.7719 l 0.0000,8.7719 h 8.7719 h 8.7719 l 0.0000,-8.7719 h 8.7719 l 0.0000,-8.7719 l 0.0000,-8.7719 l -8.7719,-0.0000 l 0.0000,8.7719 h 8.7719 h 8.7719 l 0.0000,-8.7719 h 8.7719 l 0.0000,-8.7719 l 0.0000,-8.7719 l -8.7719,-0.0000 h 8.7719 l 0.0000,-8.7719 l 0.0000,-8.7719 l -8.7719,-0.0000 l 0.0000,-8.7719 l -8.7719,-0.0000 l -8.7719,-0.0000 l -0.0000,8.7719 l -8.7719,0.0000 l 0.0000,8.7719 l 0.0000,8.7719 h 8.7719 l 0.0000,8.7719 h 8.7719 h 8.7719 l 0.0000,-8.7719 l 0.0000,8.7719 h 8.7719 h 8.7719 l 0.0000,-8.7719 h 8.7719 l 0.0000,-8.7719 l 0.0000,-8.7719 l -8.7719,-0.0000 l 0.0000,8.7719 h 8.7719 h 8.7719 l 0.0000,-8.7719 h 8.7719 l 0.0000,-8.7719 l 0.0000,-8.7719 l -8.7719,-0.0000 h 8.7719 l 0.0000,-8.7719 l 0.0000,-8.7719 l -8.7719,-0.0000 l 0.0000,-8.7719 l -8.7719,-0.0000 l -8.7719,-0.0000 l -0.0000,8.7719 l 0.0000,8.7719 h 8.7719 h 8.7719 l 0.0000,-8.7719 h 8.7719 l 0.0000,-8.7719 l 0.0000,-8.7719 l -8.7719,-0.0000 h 8.7719 l 0.0000,-8.7719 l 0.0000,-8.7719 l -8.7719,-0.0000 l 0.0000,-8.7719 l -8.7719,-0.0000 l -8.7719,-0.0000 l -0.0000,8.7719 h 8.7719 l 0.0000,-8.7719 l 0.0000,-8.7719 l -8.7719,-0.0000 l 0.0000,-8.7719 l -8.7719,-0.0000 l -8.7719,-0.0000 l -0.0000,8.7719 l 0.0000,-8.7719 l -8.7719,-0.0000 l -8.7719,-0.0000 l -0.0000,8.7719 l -8.7719,-0.0000 l -0.0000,8.7719 l -0.0000,8.7719 l 8.7719,0.0000 "/></g><g stroke-linejoin="miter" stroke-opacity="1.0" fill-opacity="0.0" opacity="0.2" stroke="rgb(0,0,0)" stroke-width="0.5" fill="rgb(0,0,0)" stroke-linecap="butt" stroke-miterlimit="10.0"><path d="M 379.8246,239.4737 l 0.0000,70.1754 h 70.1754 h 70.1754 l 0.0000,-70.1754 "/></g><g stroke-linejoin="miter" stroke-opacity="1.0" fill-opacity="0.0" stroke="rgb(0,0,0)" stroke-width="0.5" fill="rgb(0,0,0)" stroke-linecap="butt" stroke-miterlimit="10.0"><path d="M 379.8246,239.4737 l -35.0877,0.0000 l 0.0000,35.0877 l 0.0000,35.0877 h 35.0877 l 0.0000,35.0877 h 35.0877 h 35.0877 l 0.0000,-35.0877 l 0.0000,35.0877 h 35.0877 h 35.0877 l 0.0000,-35.0877 h 35.0877 l 0.0000,-35.0877 l 0.0000,-35.0877 l -35.0877,-0.0000 "/></g><g stroke-linejoin="miter" stroke-opacity="1.0" fill-opacity="0.0" opacity="0.2" stroke="rgb(0,0,0)" stroke-width="0.5" fill="rgb(0,0,0)" stroke-linecap="butt" stroke-miterlimit="10.0"><path d="M 79.8246,239.4737 l -35.0877,0.0000 l 0.0000,35.0877 l 0.0000,35.0877 h 35.0877 l 0.0000,35.0877 h 35.0877 h 35.0877 l 0.0000,-35.0877 l 0.0000,35.0877 h 35.0877 h 35.0877 l 0.0000,-35.0877 h 35.0877 l 0.0000,-35.0877 l 0.0000,-35.0877 l -35.0877,-0.0000 "/></g><g stroke-linejoin="miter" stroke-opacity="1.0" fill-opacity="0.0" stroke="rgb(0,0,0)" stroke-width="0.5" fill="rgb(0,0,0)" stroke-linecap="butt" stroke-miterlimit="10.0"><path d="M 79.8246,239.4737 l -0.0000,-17.5439 l -17.5439,0.0000 l -17.5439,0.0000 l 0.0000,17.5439 l -17.5439,0.0000 l 0.0000,17.5439 l 0.0000,17.5439 h 17.5439 l -17.5439,0.0000 l 0.0000,17.5439 l 0.0000,17.5439 h 17.5439 l 0.0000,17.5439 h 17.5439 h 17.5439 l 0.0000,-17.5439 l -17.5439,0.0000 l 0.0000,17.5439 l 0.0000,17.5439 h 17.5439 l 0.0000,17.5439 h 17.5439 h 17.5439 l 0.0000,-17.5439 l 0.0000,17.5439 h 17.5439 h 17.5439 l 0.0000,-17.5439 h 17.5439 l 0.0000,-17.5439 l 0.0000,-17.5439 l -17.5439,-0.0000 l -17.5439,0.0000 l 0.0000,17.5439 l 0.0000,17.5439 h 17.5439 l 0.0000,17.5439 h 17.5439 h 17.5439 l 0.0000,-17.5439 l 0.0000,17.5439 h 17.5439 h 17.5439 l 0.0000,-17.5439 h 17.5439 l 0.0000,-17.5439 l 0.0000,-17.5439 l -17.5439,-0.0000 l 0.0000,17.5439 h 17.5439 h 17.5439 l 0.0000,-17.5439 h 17.5439 l 0.0000,-17.5439 l 0.0000,-17.5439 l -17.5439,-0.0000 h 17.5439 l 0.0000,-17.5439 l 0.0000,-17.5439 l -17.5439,-0.0000 l 0.0000,-17.5439 l -17.5439,-0.0000 l -17.5439,-0.0000 l -0.0000,17.5439 "/></g><g stroke-linejoin="miter" stroke-opacity="1.0" fill-opacity="0.0" opacity="0.2" stroke="rgb(0,0,0)" stroke-width="0.5" fill="rgb(0,0,0)" stroke-linecap="butt" stroke-miterlimit="10.0"><path d="M 379.8246,44.7368 h 140.3509 "/></g><g stroke-linejoin="miter" stroke-opacity="1.0" fill-opacity="0.0" stroke="rgb(0,0,0)" stroke-width="0.5" fill="rgb(0,0,0)" stroke-linecap="butt" stroke-miterlimit="10.0"><path d="M 379.8246,44.7368 l 0.0000,70.1754 h 70.1754 h 70.1754 l 0.0000,-70.1754 "/></g><g stroke-linejoin="miter" stroke-opacity="1.0" fill-opacity="0.0" stroke="rgb(0,0,0)" stroke-width="0.5" fill="rgb(0,0,0)" stroke-linecap="butt" stroke-miterlimit="10.0"><path d="M 79.8246,44.7368 h 140.3509 "/></g><g stroke-linejoin="miter" stroke-opacity="1.0" fill-opacity="0.0" stroke="rgb(0,0,0)" stroke-width="0.5" fill="rgb(0,0,0)" stroke-linecap="butt" stroke-miterlimit="10.0"><path d="M 288.9252,486.8421 h 16.2291 "/></g><g stroke-linejoin="miter" stroke-opacity="1.0" fill-opacity="1.0" stroke="rgb(0,0,0)" stroke-width="0.0" fill="rgb(0,0,0)" stroke-linecap="butt" stroke-miterlimit="10.0"></g><g stroke-linejoin="miter" stroke-opacity="1.0" fill-opacity="1.0" stroke="rgb(0,0,0)" stroke-width="0.0" fill="rgb(0,0,0)" stroke-linecap="butt" stroke-miterlimit="10.0"></g><g stroke-linejoin="miter" stroke-opacity="1.0" fill-opacity="1.0" stroke="rgb(0,0,0)" stroke-width="0.0" fill="rgb(0,0,0)" stroke-linecap="butt" stroke-miterlimit="10.0"><path d="M 311.0748,486.8421 l -6.9817,-2.2685 l 1.1926,2.2685 l -1.1926,2.2685 Z"/></g><g stroke-linejoin="miter" stroke-opacity="1.0" fill-opacity="1.0" stroke="rgb(0,0,0)" stroke-width="0.0" fill="rgb(0,0,0)" stroke-linecap="butt" stroke-miterlimit="10.0"><path d="M 305.2857,486.8421 h -0.1314 v -0.2500 l 0.1314,0.2500 h -0.1314 v 0.2500 Z"/></g><g stroke-linejoin="miter" stroke-opacity="1.0" fill-opacity="0.0" stroke="rgb(0,0,0)" stroke-width="0.5" fill="rgb(0,0,0)" stroke-linecap="butt" stroke-miterlimit="10.0"><path d="M 150.0000,378.3989 l 0.0000,16.2291 "/></g><g stroke-linejoin="miter" stroke-opacity="1.0" fill-opacity="1.0" stroke="rgb(0,0,0)" stroke-width="0.0" fill="rgb(0,0,0)" stroke-linecap="butt" stroke-miterlimit="10.0"></g><g stroke-linejoin="miter" stroke-opacity="1.0" fill-opacity="1.0" stroke="rgb(0,0,0)" stroke-width="0.0" fill="rgb(0,0,0)" stroke-linecap="butt" stroke-miterlimit="10.0"></g><g stroke-linejoin="miter" stroke-opacity="1.0" fill-opacity="1.0" stroke="rgb(0,0,0)" stroke-width="0.0" fill="rgb(0,0,0)" stroke-linecap="butt" stroke-miterlimit="10.0"><path d="M 150.0000,400.5485 l 2.2685,-6.9817 l -2.2685,1.1926 l -2.2685,-1.1926 Z"/></g><g stroke-linejoin="miter" stroke-opacity="1.0" fill-opacity="1.0" stroke="rgb(0,0,0)" stroke-width="0.0" fill="rgb(0,0,0)" stroke-linecap="butt" stroke-miterlimit="10.0"><path d="M 150.0000,394.7594 l -0.0000,-0.1314 l 0.2500,-0.0000 l -0.2500,0.1314 l -0.0000,-0.1314 l -0.2500,0.0000 Z"/></g><g stroke-linejoin="miter" stroke-opacity="1.0" fill-opacity="0.0" stroke="rgb(0,0,0)" stroke-width="0.5" fill="rgb(0,0,0)" stroke-linecap="butt" stroke-miterlimit="10.0"><path d="M 311.0748,292.1053 l -16.2291,0.0000 "/></g><g stroke-linejoin="miter" stroke-opacity="1.0" fill-opacity="1.0" stroke="rgb(0,0,0)" stroke-width="0.0" fill="rgb(0,0,0)" stroke-linecap="butt" stroke-miterlimit="10.0"></g><g stroke-linejoin="miter" stroke-opacity="1.0" fill-opacity="1.0" stroke="rgb(0,0,0)" stroke-width="0.0" fill="rgb(0,0,0)" stroke-linecap="butt" stroke-miterlimit="10.0"></g><g stroke-linejoin="miter" stroke-opacity="1.0" fill-opacity="1.0" stroke="rgb(0,0,0)" stroke-width="0.0" fill="rgb(0,0,0)" stroke-linecap="butt" stroke-miterlimit="10.0"><path d="M 288.9252,292.1053 l 6.9817,2.2685 l -1.1926,-2.2685 l 1.1926,-2.2685 Z"/></g><g stroke-linejoin="miter" stroke-opacity="1.0" fill-opacity="1.0" stroke="rgb(0,0,0)" stroke-width="0.0" fill="rgb(0,0,0)" stroke-linecap="butt" stroke-miterlimit="10.0"><path d="M 294.7143,292.1053 l 0.1314,-0.0000 l 0.0000,0.2500 l -0.1314,-0.2500 l 0.1314,-0.0000 l -0.0000,-0.2500 Z"/></g><g stroke-linejoin="miter" stroke-opacity="1.0" fill-opacity="0.0" stroke="rgb(0,0,0)" stroke-width="0.5" fill="rgb(0,0,0)" stroke-linecap="butt" stroke-miterlimit="10.0"><path d="M 450.0000,183.6620 l 0.0000,16.2291 "/></g><g stroke-linejoin="miter" stroke-opacity="1.0" fill-opacity="1.0" stroke="rgb(0,0,0)" stroke-width="0.0" fill="rgb(0,0,0)" stroke-linecap="butt" stroke-miterlimit="10.0"></g><g stroke-linejoin="miter" stroke-opacity="1.0" fill-opacity="1.0" stroke="rgb(0,0,0)" stroke-width="0.0" fill="rgb(0,0,0)" stroke-linecap="butt" stroke-miterlimit="10.0"></g><g stroke-linejoin="miter" stroke-opacity="1.0" fill-opacity="1.0" stroke="rgb(0,0,0)" stroke-width="0.0" fill="rgb(0,0,0)" stroke-linecap="butt" stroke-miterlimit="10.0"><path d="M 450.0000,205.8117 l 2.2685,-6.9817 l -2.2685,1.1926 l -2.2685,-1.1926 Z"/></g><g stroke-linejoin="miter" stroke-opacity="1.0" fill-opacity="1.0" stroke="rgb(0,0,0)" stroke-width="0.0" fill="rgb(0,0,0)" stroke-linecap="butt" stroke-miterlimit="10.0"><path d="M 450.0000,200.0226 l -0.0000,-0.1314 l 0.2500,-0.0000 l -0.2500,0.1314 l -0.0000,-0.1314 l -0.2500,0.0000 Z"/></g><g stroke-linejoin="miter" stroke-opacity="1.0" fill-opacity="0.0" stroke="rgb(0,0,0)" stroke-width="0.5" fill="rgb(0,0,0)" stroke-linecap="butt" stroke-miterlimit="10.0"><path d="M 288.9252,97.3684 h 16.2291 "/></g><g stroke-linejoin="miter" stroke-opacity="1.0" fill-opacity="1.0" stroke="rgb(0,0,0)" stroke-width="0.0" fill="rgb(0,0,0)" stroke-linecap="butt" stroke-miterlimit="10.0"></g><g stroke-linejoin="miter" stroke-opacity="1.0" fill-opacity="1.0" stroke="rgb(0,0,0)" stroke-width="0.0" fill="rgb(0,0,0)" stroke-linecap="butt" stroke-miterlimit="10.0"></g><g stroke-linejoin="miter" stroke-opacity="1.0" fill-opacity="1.0" stroke="rgb(0,0,0)" stroke-width="0.0" fill="rgb(0,0,0)" stroke-linecap="butt" stroke-miterlimit="10.0"><path d="M 311.0748,97.3684 l -6.9817,-2.2685 l 1.1926,2.2685 l -1.1926,2.2685 Z"/></g><g stroke-linejoin="miter" stroke-opacity="1.0" fill-opacity="1.0" stroke="rgb(0,0,0)" stroke-width="0.0" fill="rgb(0,0,0)" stroke-linecap="butt" stroke-miterlimit="10.0"><path d="M 305.2857,97.3684 h -0.1314 v -0.2500 l 0.1314,0.2500 h -0.1314 v 0.2500 Z"/></g></svg>