<?xml version="1.0" encoding="UTF-8"?>
<!DOCTYPE svg PUBLIC "-//W3C//DTD SVG 1.1//EN"
    "http://www.w3.org/Graphics/SVG/1.1/DTD/svg11.dtd"><svg xmlns="http://www.w3.org/2000/svg" height="490.3226" stroke-opacity="1" viewBox="0 0 800 490" font-size="1" width="800.0000" xmlns:xlink="http://www.w3.org/1999/xlink" stroke="rgb(0,0,0)" version="1.1"><defs></defs><g stroke-linejoin="miter" stroke-opacity="1.0" fill-opacity="0.0" stroke="rgb(0,0,0)" stroke-width="2.505220356028201" fill="rgb(0,0,0)" stroke-linecap="butt" stroke-miterlimit="10.0"><path d="M 193.5484,90.3226 l 0.0000,8.6022 l 8.6022,-0.0000 l 8.6022,-0.0000 l -0.0000,-8.6022 l 8.6022,-0.0000 l -0.0000,-8.6022 l -0.0000,-8.6022 l -8.6022,0.0000 l 8.6022,-0.0000 l -0.0000,-8.6022 l -0.0000,-8.6022 l -8.6022,0.0000 l -0.0000,-8.6022 l -8.6022,0.0000 l -8.6022,0.0000 l 0.0000,8.6022 l 8.6022,-0.0000 l -0.0000,-8.6022 l -0.0000,-8.6022 l -8.6022,0.0000 l -0.0000,-8.6022 l -8.6022,0.0000 l -8.6022,0.0000 l 0.0000,8.6022 l -0.0000,-8.6022 l -8.6022,0.0000 l -8.6022,0.0000 l 0.0000,8.6022 l -8.6022,0.0000 l 0.0000,8.6022 l 0.0000,8.6022 h 8.6022 l 8.6022,-0.0000 l -0.0000,-8.6022 l -0.0000,-8.6022 l -8.6022,0.0000 l -0.0000,-8.6022 l -8.6022,0.0000 l -8.6022,0.0000 l 0.0000,8.6022 l -0.0000,-8.6022 l -8.6022,0.0000 l -8.6022,0.0000 l 0.0000,8.6022 l -8.6022,0.0000 l 0.0000,8.6022 l 0.0000,8.6022 h 8.6022 l -0.0000,-8.6022 l -8.6022,0.0000 l -8.6022,0.0000 l 0.0000,8.6022 l -8.6022,0.0000 l 0.0000,8.6022 l 0.0000,8.6022 h 8.6022 l -8.6022,0.0000 l 0.0000,8.6022 l 0.0000,8.6022 h 8.6022 l 0.0000,8.6022 h 8.6022 h 8.6022 l 0.0000,-8.6022 l 8.6022,-0.0000 l -0.0000,-8.6022 l -0.0000,-8.6022 l -8.6022,0.0000 l -0.0000,-8.6022 l -8.6022,0.0000 l -8.6022,0.0000 l 0.0000,8.6022 l -0.0000,-8.6022 l -8.6022,0.0000 l -8.6022,0.0000 l 0.0000,8.6022 l -8.6022,0.0000 l 0.0000,8.6022 l 0.0000,8.6022 h 8.6022 l -0.0000,-8.6022 l -8.6022,0.0000 l -8.6022,0.0000 l 0.0000,8.6022 l -8.6022,0.0000 l 0.0000,8.6022 l 0.0000,8.6022 h 8.6022 l -8.6022,0.0000 l 0.0000,8.6022 l 0.0000,8.6022 h 8.6022 l 0.0000,8.6022 h 8.6022 h 8.6022 l 0.0000,-8.6022 l -0.0000,-8.6022 l -8.6022,0.0000 l -8.6022,0.0000 l 0.0000,8.6022 l -8.6022,0.0000 l 0.0000,8.6022 l 0.0000,8.6022 h 8.6022 l -8.6022,0.0000 l 0.0000,8.6022 l 0.0000,8.6022 h 8.6022 l 0.0000,8.6022 h 8.6022 h 8.6022 l 0.0000,-8.6022 l -8.6022,0.0000 l 0.0000,8.6022 l 0.0000,8.6022 h 8.6022 l 0.0000,8.6022 h 8.6022 h 8.6022 l 0.0000,-8.6022 l 0.0000,8.6022 h 8.6022 h 8.6022 l 0.0000,-8.6022 h 8.6022 l 0.0000,-8.6022 l 0.0000,-8.6022 l -8.6022,-0.0000 l 8.6022,-0.0000 l -0.0000,-8.6022 l -0.0000,-8.6022 l -8.6022,0.0000 l -0.0000,-8.6022 l -8.6022,0.0000 l -8.6022,0.0000 l 0.0000,8.6022 l -0.0000,-8.6022 l -8.6022,0.0000 l -8.6022,0.0000 l 0.0000,8.6022 l -8.6022,0.0000 l 0.0000,8.6022 l 0.0000,8.6022 h 8.6022 l -0.0000,-8.6022 l -8.6022,0.0000 l -8.6022,0.0000 l 0.0000,8.6022 l -8.6022,0.0000 l 0.0000,8.6022 l 0.0000,8.6022 h 8.6022 l -8.6022,0.0000 l 0.0000,8.6022 l 0.0000,8.6022 h 8.6022 l 0.0000,8.6022 h 8.6022 h 8.6022 l 0.0000,-8.6022 l -0.0000,-8.6022 l -8.6022,0.0000 l -8.6022,0.0000 l 0.0000,8.6022 l -8.6022,0.0000 l 0.0000,8.6022 l 0.0000,8.6022 h 8.6022 l -8.6022,0.0000 l 0.0000,8.6022 l 0.0000,8.6022 h 8.6022 l 0.0000,8.6022 h 8.6022 h 8.6022 l 0.0000,-8.6022 l -8.6022,0.0000 l 0.0000,8.6022 l 0.0000,8.6022 h 8.6022 l 0.0000,8.6022 h 8.6022 h 8.6022 l 0.0000,-8.6022 l 0.0000,8.6022 h 8.6022 h 8.6022 l 0.0000,-8.6022 h 8.6022 l 0.0000,-8.6022 l 0.0000,-8.6022 l -8.6022,-0.0000 l -0.0000,-8.6022 l -8.6022,0.0000 l -8.6022,0.0000 l 0.0000,8.6022 l -8.6022,0.0000 l 0.0000,8.6022 l 0.0000,8.6022 h 8.6022 l -8.6022,0.0000 l 0.0000,8.6022 l 0.0000,8.6022 h 8.6022 l 0.0000,8.6022 h 8.6022 h 8.6022 l 0.0000,-8.6022 l -8.6022,0.0000 l 0.0000,8.6022 l 0.0000,8.6022 h 8.6022 l 0.0000,8.6022 h 8.6022 h 8.6022 l 0.0000,-8.6022 l 0.0000,8.6022 h 8.6022 h 8.6022 l 0.0000,-8.6022 h 8.6022 l 0.0000,-8.6022 l 0.0000,-8.6022 l -8.6022,-0.0000 l -8.6022,0.0000 l 0.0000,8.6022 l 0.0000,8.6022 h 8.6022 l 0.0000,8.6022 h 8.6022 h 8.6022 l 0.0000,-8.6022 l 0.0000,8.6022 h 8.6022 h 8.6022 l 0.0000,-8.6022 h 8.6022 l 0.0000,-8.6022 l 0.0000,-8.6022 l -8.6022,-0.0000 l 0.0000,8.6022 h 8.6022 h 8.6022 l 0.0000,-8.6022 h 8.6022 l 0.0000,-8.6022 l 0.0000,-8.6022 l -8.6022,-0.0000 h 8.6022 l 0.0000,-8.6022 l 0.0000,-8.6022 l -8.6022,-0.0000 l 0.0000,-8.6022 l -8.6022,-0.0000 l -8.6022,-0.0000 l -0.0000,8.6022 l 8.6022,-0.0000 l -0.0000,-8.6022 l -0.0000,-8.6022 l -8.6022,0.0000 l -0.0000,-8.6022 l -8.6022,0.0000 l -8.6022,0.0000 l 0.0000,8.6022 l -0.0000,-8.6022 l -8.6022,0.0000 l -8.6022,0.0000 l 0.0000,8.6022 l -8.6022,0.0000 l 0.0000,8.6022 l 0.0000,8.6022 h 8.6022 l -0.0000,-8.6022 l -8.6022,0.0000 l -8.6022,0.0000 l 0.0000,8.6022 l -8.6022,0.0000 l 0.0000,8.6022 l 0.0000,8.6022 h 8.6022 l -8.6022,0.0000 l 0.0000,8.6022 l 0.0000,8.6022 h 8.6022 l 0.0000,8.6022 h 8.6022 h 8.6022 l 0.0000,-8.6022 l -0.0000,-8.6022 l -8.6022,0.0000 l -8.6022,0.0000 l 0.0000,8.6022 l -8.6022,0.0000 l 0.0000,8.6022 l 0.0000,8.6022 h 8.6022 l -8.6022,0.0000 l 0.0000,8.6022 l 0.0000,8.6022 h 8.6022 l 0.0000,8.6022 h 8.6022 h 8.6022 l 0.0000,-8.6022 l -8.6022,0.0000 l 0.0000,8.6022 l 0.0000,8.6022 h 8.6022 l 0.0000,8.6022 h 8.6022 h 8.6022 l 0.0000,-8.6022 l 0.0000,8.6022 h 8.6022 h 8.6022 l 0.0000,-8.6022 h 8.6022 l 0.0000,-8.6022 l 0.0000,-8.6022 l -8.6022,-0.0000 l -0.0000,-8.6022 l -8.6022,0.0000 l -8.6022,0.0000 l 0.0000,8.6022 l -8.6022,0.0000 l 0.0000,8.6022 l 0.0000,8.6022 h 8.6022 l -8.6022,0.0000 l 0.0000,8.6022 l 0.0000,8.6022 h 8.6022 l 0.0000,8.6022 h 8.6022 h 8.6022 l 0.0000,-8.6022 l -8.6022,0.0000 l 0.0000,8.6022 l 0.0000,8.6022 h 8.6022 l 0.0000,8.6022 h 8.6022 h 8.6022 l 0.0000,-8.6022 l 0.0000,8.6022 h 8.6022 h 8.6022 l 0.0000,-8.6022 h 8.6022 l 0.0000,-8.6022 l 0.0000,-8.6022 l -8.6022,-0.0000 l -8.6022,0.0000 l 0.0000,8.6022 l 0.0000,8.6022 h 8.6022 l 0.0000,8.6022 h 8.6022 h 8.6022 l 0.0000,-8.6022 l 0.0000,8.6022 h 8.6022 h 8.6022 l 0.0000,-8.6022 h 8.6022 l 0.0000,-8.6022 l 0.0000,-8.6022 l -8.6022,-0.0000 l 0.0000,8.6022 h 8.6022 h 8.6022 l 0.0000,-8.6022 h 8.6022 l 0.0000,-8.6022 l 0.0000,-8.6022 l -8.6022,-0.0000 h 8.6022 l 0.0000,-8.6022 l 0.0000,-8.6022 l -8.6022,-0.0000 l 0.0000,-8.6022 l -8.6022,-0.0000 l -8.6022,-0.0000 l -0.0000,8.6022 l -0.0000,-8.6022 l -8.6022,0.0000 l -8.6022,0.0000 l 0.0000,8.6022 l -8.6022,0.0000 l 0.0000,8.6022 l 0.0000,8.6022 h 8.6022 l -8.6022,0.0000 l 0.0000,8.6022 l 0.0000,8.6022 h 8.6022 l 0.0000,8.6022 h 8.6022 h 8.6022 l 0.0000,-8.6022 l -8.6022,0.0000 l 0.0000,8.6022 l 0.0000,8.6022 h 8.6022 l 0.0000,8.6022 h 8.6022 h 8.6022 l 0.0000,-8.6022 l 0.0000,8.6022 h 8.6022 h 8.6022 l 0.0000,-8.6022 h 8.6022 l 0.0000,-8.6022 l 0.0000,-8.6022 l -8.6022,-0.0000 l -8.6022,0.0000 l 0.0000,8.6022 l 0.0000,8.6022 h 8.6022 l 0.0000,8.6022 h 8.6022 h 8.6022 l 0.0000,-8.6022 l 0.0000,8.6022 h 8.6022 h 8.6022 l 0.0000,-8.6022 h 8.6022 l 0.0000,-8.6022 l 0.0000,-8.6022 l -8.6022,-0.0000 l 0.0000,8.6022 h 8.6022 h 8.6022 l 0.0000,-8.6022 h 8.6022 l 0.0000,-8.6022 l 0.0000,-8.6022 l -8.6022,-0.0000 h 8.6022 l 0.0000,-8.6022 l 0.0000,-8.6022 l -8.6022,-0.0000 l 0.0000,-8.6022 l -8.6022,-0.0000 l -8.6022,-0.0000 l -0.0000,8.6022 l -8.6022,0.0000 l 0.0000,8.6022 l 0.0000,8.6022 h 8.6022 l 0.0000,8.6022 h 8.6022 h 8.6022 l 0.0000,-8.6022 l 0.0000,8.6022 h 8.6022 h 8.6022 l 0.0000,-8.6022 h 8.6022 l 0.0000,-8.6022 l 0.0000,-8.6022 l -8.6022,-0.0000 l 0.0000,8.6022 h 8.6022 h 8.6022 l 0.0000,-8.6022 h 8.6022 l 0.0000,-8.6022 l 0.0000,-8.6022 l -8.6022,-0.0000 h 8.6022 l 0.0000,-8.6022 l 0.0000,-8.6022 l -8.6022,-0.0000 l 0.0000,-8.6022 l -8.6022,-0.0000 l -8.6022,-0.0000 l -0.0000,8.6022 l 0.0000,8.6022 h 8.6022 h 8.6022 l 0.0000,-8.6022 h 8.6022 l 0.0000,-8.6022 l 0.0000,-8.6022 l -8.6022,-0.0000 h 8.6022 l 0.0000,-8.6022 l 0.0000,-8.6022 l -8.6022,-0.0000 l 0.0000,-8.6022 l -8.6022,-0.0000 l -8.6022,-0.0000 l -0.0000,8.6022 h 8.6022 l 0.0000,-8.6022 l 0.0000,-8.6022 l -8.6022,-0.0000 l 0.0000,-8.6022 l -8.6022,-0.0000 l -8.6022,-0.0000 l -0.0000,8.6022 l 0.0000,-8.6022 l -8.6022,-0.0000 l -8.6022,-0.0000 l -0.0000,8.6022 l -8.6022,-0.0000 l -0.0000,8.6022 l -0.0000,8.6022 l 8.6022,0.0000 l 8.6022,-0.0000 l -0.0000,-8.6022 l -0.0000,-8.6022 l -8.6022,0.0000 l -0.0000,-8.6022 l -8.6022,0.0000 l -8.6022,0.0000 l 0.0000,8.6022 l -0.0000,-8.6022 l -8.6022,0.0000 l -8.6022,0.0000 l 0.0000,8.6022 l -8.6022,0.0000 l 0.0000,8.6022 l 0.0000,8.6022 h 8.6022 l -0.0000,-8.6022 l -8.6022,0.0000 l -8.6022,0.0000 l 0.0000,8.6022 l -8.6022,0.0000 l 0.0000,8.6022 l 0.0000,8.6022 h 8.6022 l -8.6022,0.0000 l 0.0000,8.6022 l 0.0000,8.6022 h 8.6022 l 0.0000,8.6022 h 8.6022 h 8.6022 l 0.0000,-8.6022 l -0.0000,-8.6022 l -8.6022,0.0000 l -8.6022,0.0000 l 0.0000,8.6022 l -8.6022,0.0000 l 0.0000,8.6022 l 0.0000,8.6022 h 8.6022 l -8.6022,0.0000 l 0.0000,8.6022 l 0.0000,8.6022 h 8.6022 l 0.0000,8.6022 h 8.6022 h 8.6022 l 0.0000,-8.6022 l -8.6022,0.0000 l 0.0000,8.6022 l 0.0000,8.6022 h 8.6022 l 0.0000,8.6022 h 8.6022 h 8.6022 l 0.0000,-8.6022 l 0.0000,8.6022 h 8.6022 h 8.6022 l 0.0000,-8.6022 h 8.6022 l 0.0000,-8.6022 l 0.0000,-8.6022 l -8.6022,-0.0000 l -0.0000,-8.6022 l -8.6022,0.0000 l -8.6022,0.0000 l 0.0000,8.6022 l -8.6022,0.0000 l 0.0000,8.6022 l 0.0000,8.6022 h 8.6022 l -8.6022,0.0000 l 0.0000,8.6022 l 0.0000,8.6022 h 8.6022 l 0.0000,8.6022 h 8.6022 h 8.6022 l 0.0000,-8.6022 l -8.6022,0.0000 l 0.0000,8.6022 l 0.0000,8.6022 h 8.6022 l 0.0000,8.6022 h 8.6022 h 8.6022 l 0.0000,-8.6022 l 0.0000,8.6022 h 8.6022 h 8.6022 l 0.0000,-8.6022 h 8.6022 l 0.0000,-8.6022 l 0.0000,-8.6022 l -8.6022,-0.0000 l -8.6022,0.0000 l 0.0000,8.6022 l 0.0000,8.6022 h 8.6022 l 0.0000,8.6022 h 8.6022 h 8.6022 l 0.0000,-8.6022 l 0.0000,8.6022 h 8.6022 h 8.6022 l 0.0000,-8.6022 h 8.6022 l 0.0000,-8.6022 l 0.0000,-8.6022 l -8.6022,-0.0000 l 0.0000,8.6022 h 8.6022 h 8.6022 l 0.0000,-8.6022 h 8.6022 l 0.0000,-8.6022 l 0.0000,-8.6022 l -8.6022,-0.0000 h 8.6022 l 0.0000,-8.6022 l 0.0000,-8.6022 l -8.6022,-0.0000 l 0.0000,-8.6022 l -8.6022,-0.0000 l -8.6022,-0.0000 l -0.0000,8.6022 l -0.0000,-8.6022 l -8.6022,0.0000 l -8.6022,0.0000 l 0.0000,8.6022 l -8.6022,0.0000 l 0.0000,8.6022 l 0.0000,8.6022 h 8.6022 l -8.6022,0.0000 l 0.0000,8.6022 l 0.0000,8.6022 h 8.6022 l 0.0000,8.6022 h 8.6022 h 8.6022 l 0.0000,-8.6022 l -8.6022,0.0000 l 0.0000,8.6022 l 0.0000,8.6022 h 8.6022 l 0.0000,8.6022 h 8.6022 h 8.6022 l 0.0000,-8.6022 l 0.0000,8.6022 h 8.6022 h 8.6022 l 0.0000,-8.6022 h 8.6022 l 0.0000,-8.6022 l 0.0000,-8.6022 l -8.6022,-0.0000 l -8.6022,0.0000 l 0.0000,8.6022 l 0.0000,8.6022 h 8.6022 l 0.0000,8.6022 h 8.6022 h 8.6022 l 0.0000,-8.6022 l 0.0000,8.6022 h 8.6022 h 8.6022 l 0.0000,-8.6022 h 8.6022 l 0.0000,-8.6022 l 0.0000,-8.6022 l -8.6022,-0.0000 l 0.0000,8.6022 h 8.6022 h 8.6022 l 0.0000,-8.6022 h 8.6022 l 0.0000,-8.6022 l 0.0000,-8.6022 l -8.6022,-0.0000 h 8.6022 l 0.0000,-8.6022 l 0.0000,-8.6022 l -8.6022,-0.0000 l 0.0000,-8.6022 l -8.6022,-0.0000 l -8.6022,-0.0000 l -0.0000,8.6022 l -8.6022,0.0000 l 0.0000,8.6022 l 0.0000,8.6022 h 8.6022 l 0.0000,8.6022 h 8.6022 h 8.6022 l 0.0000,-8.6022 l 0.0000,8.6022 h 8.6022 h 8.6022 l 0.0000,-8.6022 h 8.6022 l 0.0000,-8.6022 l 0.0000,-8.6022 l -8.6022,-0.0000 l 0.0000,8.6022 h 8.6022 h 8.6022 l 0.0000,-8.6022 h 8.6022 l 0.0000,-8.6022 l 0.0000,-8.6022 l -8.6022,-0.0000 h 8.6022 l 0.0000,-8.6022 l 0.0000,-8.6022 l -8.6022,-0.0000 l 0.0000,-8.6022 l -8.6022,-0.0000 l -8.6022,-0.0000 l -0.0000,8.6022 l 0.0000,8.6022 h 8.6022 h 8.6022 l 0.0000,-8.6022 h 8.6022 l 0.0000,-8.6022 l 0.0000,-8.6022 l -8.6022,-0.0000 h 8.6022 l 0.0000,-8.6022 l 0.0000,-8.6022 l -8.6022,-0.0000 l 0.0000,-8.6022 l -8.6022,-0.0000 l -8.6022,-0.0000 l -0.0000,8.6022 h 8.6022 l 0.0000,-8.6022 l 0.0000,-8.6022 l -8.6022,-0.0000 l 0.0000,-8.6022 l -8.6022,-0.0000 l -8.6022,-0.0000 l -0.0000,8.6022 l 0.0000,-8.6022 l -8.6022,-0.0000 l -8.6022,-0.0000 l -0.0000,8.6022 l -8.6022,-0.0000 l -0.0000,8.6022 l -0.0000,8.6022 l 8.6022,0.0000 l -0.0000,-8.6022 l -8.6022,0.0000 l -8.6022,0.0000 l 0.0000,8.6022 l -8.6022,0.0000 l 0.0000,8.6022 l 0.0000,8.6022 h 8.6022 l -8.6022,0.0000 l 0.0000,8.6022 l 0.0000,8.6022 h 8.6022 l 0.0000,8.6022 h 8.6022 h 8.6022 l 0.0000,-8.6022 l -8.6022,0.0000 l 0.0000,8.6022 l 0.0000,8.6022 h 8.6022 l 0.0000,8.6022 h 8.6022 h 8.6022 l 0.0000,-8.6022 l 0.0000,8.6022 h 8.6022 h 8.6022 l 0.0000,-8.6022 h 8.6022 l 0.0000,-8.6022 l 0.0000,-8.6022 l -8.6022,-0.0000 l -8.6022,0.0000 l 0.0000,8.6022 l 0.0000,8.6022 h 8.6022 l 0.0000,8.6022 h 8.6022 h 8.6022 l 0.0000,-8.6022 l 0.0000,8.6022 h 8.6022 h 8.6022 l 0.0000,-8.6022 h 8.6022 l 0.0000,-8.6022 l 0.0000,-8.6022 l -8.6022,-0.0000 l 0.0000,8.6022 h 8.6022 h 8.6022 l 0.0000,-8.6022 h 8.6022 l 0.0000,-8.6022 l 0.0000,-8.6022 l -8.6022,-0.0000 h 8.6022 l 0.0000,-8.6022 l 0.0000,-8.6022 l -8.6022,-0.0000 l 0.0000,-8.6022 l -8.6022,-0.0000 l -8.6022,-0.0000 l -0.0000,8.6022 l -8.6022,0.0000 l 0.0000,8.6022 l 0.0000,8.6022 h 8.6022 l 0.0000,8.6022 h 8.6022 h 8.6022 l 0.0000,-8.6022 l 0.0000,8.6022 h 8.6022 h 8.6022 l 0.0000,-8.6022 h 8.6022 l 0.0000,-8.6022 l 0.0000,-8.6022 l -8.6022,-0.0000 l 0.0000,8.6022 h 8.6022 h 8.6022 l 0.0000,-8.6022 h 8.6022 l 0.0000,-8.6022 l 0.0000,-8.6022 l -8.6022,-0.0000 h 8.6022 l 0.0000,-8.6022 l 0.0000,-8.6022 l -8.6022,-0.0000 l 0.0000,-8.6022 l -8.6022,-0.0000 l -8.6022,-0.0000 l -0.0000,8.6022 l 0.0000,8.6022 h 8.6022 h 8.6022 l 0.0000,-8.6022 h 8.6022 l 0.0000,-8.6022 l 0.0000,-8.6022 l -8.6022,-0.0000 h 8.6022 l 0.0000,-8.6022 l 0.0000,-8.6022 l -8.6022,-0.0000 l 0.0000,-8.6022 l -8.6022,-0.0000 l -8.6022,-0.0000 l -0.0000,8.6022 h 8.6022 l 0.0000,-8.6022 l 0.0000,-8.6022 l -8.6022,-0.0000 l 0.0000,-8.6022 l -8.6022,-0.0000 l -8.6022,-0.0000 l -0.0000,8.6022 l 0.0000,-8.6022 l -8.6022,-0.0000 l -8.6022,-0.0000 l -0.0000,8.6022 l -8.6022,-0.0000 l -0.0000,8.6022 l -0.0000,8.6022 l 8.6022,0.0000 l -8.6022,0.0000 l 0.0000,8.6022 l 0.0000,8.6022 h 8.6022 l 0.0000,8.6022 h 8.6022 h 8.6022 l 0.0000,-8.6022 l 0.0000,8.6022 h 8.6022 h 8.6022 l 0.0000,-8.6022 h 8.6022 l 0.0000,-8.6022 l 0.0000,-8.6022 l -8.6022,-0.0000 l 0.0000,8.6022 h 8.6022 h 8.6022 l 0.0000,-8.6022 h 8.6022 l 0.0000,-8.6022 l 0.0000,-8.6022 l -8.6022,-0.0000 h 8.6022 l 0.0000,-8.6022 l 0.0000,-8.6022 l -8.6022,-0.0000 l 0.0000,-8.6022 l -8.6022,-0.0000 l -8.6022,-0.0000 l -0.0000,8.6022 l 0.0000,8.6022 h 8.6022 h 8.6022 l 0.0000,-8.6022 h 8.6022 l 0.0000,-8.6022 l 0.0000,-8.6022 l -8.6022,-0.0000 h 8.6022 l 0.0000,-8.6022 l 0.0000,-8.6022 l -8.6022,-0.0000 l 0.0000,-8.6022 l -8.6022,-0.0000 l -8.6022,-0.0000 l -0.0000,8.6022 h 8.6022 l 0.0000,-8.6022 l 0.0000,-8.6022 l -8.6022,-0.0000 l 0.0000,-8.6022 l -8.6022,-0.0000 l -8.6022,-0.0000 l -0.0000,8.6022 l 0.0000,-8.6022 l -8.6022,-0.0000 l -8.6022,-0.0000 l -0.0000,8.6022 l -8.6022,-0.0000 l -0.0000,8.6022 l -0.0000,8.6022 l 8.6022,0.0000 l 0.0000,8.6022 h 8.6022 h 8.6022 l 0.0000,-8.6022 h 8.6022 l 0.0000,-8.6022 l 0.0000,-8.6022 l -8.6022,-0.0000 h 8.6022 l 0.0000,-8.6022 l 0.0000,-8.6022 l -8.6022,-0.0000 l 0.0000,-8.6022 l -8.6022,-0.0000 l -8.6022,-0.0000 l -0.0000,8.6022 h 8.6022 l 0.0000,-8.6022 l 0.0000,-8.6022 l -8.6022,-0.0000 l 0.0000,-8.6022 l -8.6022,-0.0000 l -8.6022,-0.0000 l -0.0000,8.6022 l 0.0000,-8.6022 l -8.6022,-0.0000 l -8.6022,-0.0000 l -0.0000,8.6022 l -8.6022,-0.0000 l -0.0000,8.6022 l -0.0000,8.6022 l 8.6022,0.0000 h 8.6022 l 0.0000,-8.6022 l 0.0000,-8.6022 l -8.6022,-0.0000 l 0.0000,-8.6022 l -8.6022,-0.0000 l -8.6022,-0.0000 l -0.0000,8.6022 l 0.0000,-8.6022 l -8.6022,-0.0000 l -8.6022,-0.0000 l -0.0000,8.6022 l -8.6022,-0.0000 l -0.0000,8.6022 l -0.0000,8.6022 l 8.6022,0.0000 l 0.0000,-8.6022 l -8.6022,-0.0000 l -8.6022,-0.0000 l -0.0000,8.6022 l -8.6022,-0.0000 l -0.0000,8.6022 l -0.0000,8.6022 l 8.6022,0.0000 l -8.6022,-0.0000 l -0.0000,8.6022 l -0.0000,8.6022 l 8.6022,0.0000 l -0.0000,8.6022 l 8.6022,0.0000 l 8.6022,0.0000 l 0.0000,-8.6022 "/></g></svg>