<?xml version="1.0" encoding="UTF-8"?>
<!DOCTYPE svg PUBLIC "-//W3C//DTD SVG 1.1//EN"
    "http://www.w3.org/Graphics/SVG/1.1/DTD/svg11.dtd"><svg xmlns="http://www.w3.org/2000/svg" height="735.4839" stroke-opacity="1" viewBox="0 0 800 735" font-size="1" width="800.0000" xmlns:xlink="http://www.w3.org/1999/xlink" stroke="rgb(0,0,0)" version="1.1"><defs></defs><g stroke-linejoin="miter" stroke-opacity="1.0" fill-opacity="0.0" stroke="rgb(0,0,0)" stroke-width="0.5" fill="rgb(0,0,0)" stroke-linecap="butt" stroke-miterlimit="10.0"><path d="M 397.8495,397.8495 l 0.0000,4.3011 l 4.3011,-0.0000 l 4.3011,-0.0000 l -0.0000,-4.3011 l 4.3011,-0.0000 l -0.0000,-4.3011 l -0.0000,-4.3011 l -4.3011,0.0000 l 4.3011,-0.0000 l -0.0000,-4.3011 l -0.0000,-4.3011 l -4.3011,0.0000 l -0.0000,-4.3011 l -4.3011,0.0000 l -4.3011,0.0000 l 0.0000,4.3011 l 4.3011,-0.0000 l -0.0000,-4.3011 l -0.0000,-4.3011 l -4.3011,0.0000 l -0.0000,-4.3011 l -4.3011,0.0000 l -4.3011,0.0000 l 0.0000,4.3011 l -0.0000,-4.3011 l -4.3011,0.0000 l -4.3011,0.0000 l 0.0000,4.3011 l -4.3011,0.0000 l 0.0000,4.3011 l 0.0000,4.3011 h 4.3011 l 4.3011,-0.0000 l -0.0000,-4.3011 l -0.0000,-4.3011 l -4.3011,0.0000 l -0.0000,-4.3011 l -4.3011,0.0000 l -4.3011,0.0000 l 0.0000,4.3011 l -0.0000,-4.3011 l -4.3011,0.0000 l -4.3011,0.0000 l 0.0000,4.3011 l -4.3011,0.0000 l 0.0000,4.3011 l 0.0000,4.3011 h 4.3011 l -0.0000,-4.3011 l -4.3011,0.0000 l -4.3011,0.0000 l 0.0000,4.3011 l -4.3011,0.0000 l 0.0000,4.3011 l 0.0000,4.3011 h 4.3011 l -4.3011,0.0000 l 0.0000,4.3011 l 0.0000,4.3011 h 4.3011 l 0.0000,4.3011 h 4.3011 h 4.3011 l 0.0000,-4.3011 l 4.3011,-0.0000 l -0.0000,-4.3011 l -0.0000,-4.3011 l -4.3011,0.0000 l -0.0000,-4.3011 l -4.3011,0.0000 l -4.3011,0.0000 l 0.0000,4.3011 l -0.0000,-4.3011 l -4.3011,0.0000 l -4.3011,0.0000 l 0.0000,4.3011 l -4.3011,0.0000 l 0.0000,4.3011 l 0.0000,4.3011 h 4.3011 l -0.0000,-4.3011 l -4.3011,0.0000 l -4.3011,0.0000 l 0.0000,4.3011 l -4.3011,0.0000 l 0.0000,4.3011 l 0.0000,4.3011 h 4.3011 l -4.3011,0.0000 l 0.0000,4.3011 l 0.0000,4.3011 h 4.3011 l 0.0000,4.3011 h 4.3011 h 4.3011 l 0.0000,-4.3011 l -0.0000,-4.3011 l -4.3011,0.0000 l -4.3011,0.0000 l 0.0000,4.3011 l -4.3011,0.0000 l 0.0000,4.3011 l 0.0000,4.3011 h 4.3011 l -4.3011,0.0000 l 0.0000,4.3011 l 0.0000,4.3011 h 4.3011 l 0.0000,4.3011 h 4.3011 h 4.3011 l 0.0000,-4.3011 l -4.3011,0.0000 l 0.0000,4.3011 l 0.0000,4.3011 h 4.3011 l 0.0000,4.3011 h 4.3011 h 4.3011 l 0.0000,-4.3011 l 0.0000,4.3011 h 4.3011 h 4.3011 l 0.0000,-4.3011 h 4.3011 l 0.0000,-4.3011 l 0.0000,-4.3011 l -4.3011,-0.0000 l 4.3011,-0.0000 l -0.0000,-4.3011 l -0.0000,-4.3011 l -4.3011,0.0000 l -0.0000,-4.3011 l -4.3011,0.0000 l -4.3011,0.0000 l 0.0000,4.3011 l -0.0000,-4.3011 l -4.3011,0.0000 l -4.3011,0.0000 l 0.0000,4.3011 l -4.3011,0.0000 l 0.0000,4.3011 l 0.0000,4.3011 h 4.3011 l -0.0000,-4.3011 l -4.3011,0.0000 l -4.3011,0.0000 l 0.0000,4.3011 l -4.3011,0.0000 l 0.0000,4.3011 l 0.0000,4.3011 h 4.3011 l -4.3011,0.0000 l 0.0000,4.3011 l 0.0000,4.3011 h 4.3011 l 0.0000,4.3011 h 4.3011 h 4.3011 l 0.0000,-4.3011 l -0.0000,-4.3011 l -4.3011,0.0000 l -4.3011,0.0000 l 0.0000,4.3011 l -4.3011,0.0000 l 0.0000,4.3011 l 0.0000,4.3011 h 4.3011 l -4.3011,0.0000 l 0.0000,4.3011 l 0.0000,4.3011 h 4.3011 l 0.0000,4.3011 h 4.3011 h 4.3011 l 0.0000,-4.3011 l -4.3011,0.0000 l 0.0000,4.3011 l 0.0000,4.3011 h 4.3011 l 0.0000,4.3011 h 4.3011 h 4.3011 l 0.0000,-4.3011 l 0.0000,4.3011 h 4.3011 h 4.3011 l 0.0000,-4.3011 h 4.3011 l 0.0000,-4.3011 l 0.0000,-4.3011 l -4.3011,-0.0000 l -0.0000,-4.3011 l -4.3011,0.0000 l -4.3011,0.0000 l 0.0000,4.3011 l -4.3011,0.0000 l 0.0000,4.3011 l 0.0000,4.3011 h 4.3011 l -4.3011,0.0000 l 0.0000,4.3011 l 0.0000,4.3011 h 4.3011 l 0.0000,4.3011 h 4.3011 h 4.3011 l 0.0000,-4.3011 l -4.3011,0.0000 l 0.0000,4.3011 l 0.0000,4.3011 h 4.3011 l 0.0000,4.3011 h 4.3011 h 4.3011 l 0.0000,-4.3011 l 0.0000,4.3011 h 4.3011 h 4.3011 l 0.0000,-4.3011 h 4.3011 l 0.0000,-4.3011 l 0.0000,-4.3011 l -4.3011,-0.0000 l -4.3011,0.0000 l 0.0000,4.3011 l 0.0000,4.3011 h 4.3011 l 0.0000,4.3011 h 4.3011 h 4.3011 l 0.0000,-4.3011 l 0.0000,4.3011 h 4.3011 h 4.3011 l 0.0000,-4.3011 h 4.3011 l 0.0000,-4.3011 l 0.0000,-4.3011 l -4.3011,-0.0000 l 0.0000,4.3011 h 4.3011 h 4.3011 l 0.0000,-4.3011 h 4.3011 l 0.0000,-4.3011 l 0.0000,-4.3011 l -4.3011,-0.0000 h 4.3011 l 0.0000,-4.3011 l 0.0000,-4.3011 l -4.3011,-0.0000 l 0.0000,-4.3011 l -4.3011,-0.0000 l -4.3011,-0.0000 l -0.0000,4.3011 l 4.3011,-0.0000 l -0.0000,-4.3011 l -0.0000,-4.3011 l -4.3011,0.0000 l -0.0000,-4.3011 l -4.3011,0.0000 l -4.3011,0.0000 l 0.0000,4.3011 l -0.0000,-4.3011 l -4.3011,0.0000 l -4.3011,0.0000 l 0.0000,4.3011 l -4.3011,0.0000 l 0.0000,4.3011 l 0.0000,4.3011 h 4.3011 l -0.0000,-4.3011 l -4.3011,0.0000 l -4.3011,0.0000 l 0.0000,4.3011 l -4.3011,0.0000 l 0.0000,4.3011 l 0.0000,4.3011 h 4.3011 l -4.3011,0.0000 l 0.0000,4.3011 l 0.0000,4.3011 h 4.3011 l 0.0000,4.3011 h 4.3011 h 4.3011 l 0.0000,-4.3011 l -0.0000,-4.3011 l -4.3011,0.0000 l -4.3011,0.0000 l 0.0000,4.3011 l -4.3011,0.0000 l 0.0000,4.3011 l 0.0000,4.3011 h 4.3011 l -4.3011,0.0000 l 0.0000,4.3011 l 0.0000,4.3011 h 4.3011 l 0.0000,4.3011 h 4.3011 h 4.3011 l 0.0000,-4.3011 l -4.3011,0.0000 l 0.0000,4.3011 l 0.0000,4.3011 h 4.3011 l 0.0000,4.3011 h 4.3011 h 4.3011 l 0.0000,-4.3011 l 0.0000,4.3011 h 4.3011 h 4.3011 l 0.0000,-4.3011 h 4.3011 l 0.0000,-4.3011 l 0.0000,-4.3011 l -4.3011,-0.0000 l -0.0000,-4.3011 l -4.3011,0.0000 l -4.3011,0.0000 l 0.0000,4.3011 l -4.3011,0.0000 l 0.0000,4.3011 l 0.0000,4.3011 h 4.3011 l -4.3011,0.0000 l 0.0000,4.3011 l 0.0000,4.3011 h 4.3011 l 0.0000,4.3011 h 4.3011 h 4.3011 l 0.0000,-4.3011 l -4.3011,0.0000 l 0.0000,4.3011 l 0.0000,4.3011 h 4.3011 l 0.0000,4.3011 h 4.3011 h 4.3011 l 0.0000,-4.3011 l 0.0000,4.3011 h 4.3011 h 4.3011 l 0.0000,-4.3011 h 4.3011 l 0.0000,-4.3011 l 0.0000,-4.3011 l -4.3011,-0.0000 l -4.3011,0.0000 l 0.0000,4.3011 l 0.0000,4.3011 h 4.3011 l 0.0000,4.3011 h 4.3011 h 4.3011 l 0.0000,-4.3011 l 0.0000,4.3011 h 4.3011 h 4.3011 l 0.0000,-4.3011 h 4.3011 l 0.0000,-4.3011 l 0.0000,-4.3011 l -4.3011,-0.0000 l 0.0000,4.3011 h 4.3011 h 4.3011 l 0.0000,-4.3011 h 4.3011 l 0.0000,-4.3011 l 0.0000,-4.3011 l -4.3011,-0.0000 h 4.3011 l 0.0000,-4.3011 l 0.0000,-4.3011 l -4.3011,-0.0000 l 0.0000,-4.3011 l -4.3011,-0.0000 l -4.3011,-0.0000 l -0.0000,4.3011 l -0.0000,-4.3011 l -4.3011,0.0000 l -4.3011,0.0000 l 0.0000,4.3011 l -4.3011,0.0000 l 0.0000,4.3011 l 0.0000,4.3011 h 4.3011 l -4.3011,0.0000 l 0.0000,4.3011 l 0.0000,4.3011 h 4.3011 l 0.0000,4.3011 h 4.3011 h 4.3011 l 0.0000,-4.3011 l -4.3011,0.0000 l 0.0000,4.3011 l 0.0000,4.3011 h 4.3011 l 0.0000,4.3011 h 4.3011 h 4.3011 l 0.0000,-4.3011 l 0.0000,4.3011 h 4.3011 h 4.3011 l 0.0000,-4.3011 h 4.3011 l 0.0000,-4.3011 l 0.0000,-4.3011 l -4.3011,-0.0000 l -4.3011,0.0000 l 0.0000,4.3011 l 0.0000,4.3011 h 4.3011 l 0.0000,4.3011 h 4.3011 h 4.3011 l 0.0000,-4.3011 l 0.0000,4.3011 h 4.3011 h 4.3011 l 0.0000,-4.3011 h 4.3011 l 0.0000,-4.3011 l 0.0000,-4.3011 l -4.3011,-0.0000 l 0.0000,4.3011 h 4.3011 h 4.3011 l 0.0000,-4.3011 h 4.3011 l 0.0000,-4.3011 l 0.0000,-4.3011 l -4.3011,-0.0000 h 4.3011 l 0.0000,-4.3011 l 0.0000,-4.3011 l -4.3011,-0.0000 l 0.0000,-4.3011 l -4.3011,-0.0000 l -4.3011,-0.0000 l -0.0000,4.3011 l -4.3011,0.0000 l 0.0000,4.3011 l 0.0000,4.3011 h 4.3011 l 0.0000,4.3011 h 4.3011 h 4.3011 l 0.0000,-4.3011 l 0.0000,4.3011 h 4.3011 h 4.3011 l 0.0000,-4.3011 h 4.3011 l 0.0000,-4.3011 l 0.0000,-4.3011 l -4.3011,-0.0000 l 0.0000,4.3011 h 4.3011 h 4.3011 l 0.0000,-4.3011 h 4.3011 l 0.0000,-4.3011 l 0.0000,-4.3011 l -4.3011,-0.0000 h 4.3011 l 0.0000,-4.3011 l 0.0000,-4.3011 l -4.3011,-0.0000 l 0.0000,-4.3011 l -4.3011,-0.0000 l -4.3011,-0.0000 l -0.0000,4.3011 l 0.0000,4.3011 h 4.3011 h 4.3011 l 0.0000,-4.3011 h 4.3011 l 0.0000,-4.3011 l 0.0000,-4.3011 l -4.3011,-0.0000 h 4.3011 l 0.0000,-4.3011 l 0.0000,-4.3011 l -4.3011,-0.0000 l 0.0000,-4.3011 l -4.3011,-0.0000 l -4.3011,-0.0000 l -0.0000,4.3011 h 4.3011 l 0.0000,-4.3011 l 0.0000,-4.3011 l -4.3011,-0.0000 l 0.0000,-4.3011 l -4.3011,-0.0000 l -4.3011,-0.0000 l -0.0000,4.3011 l 0.0000,-4.3011 l -4.3011,-0.0000 l -4.3011,-0.0000 l -0.0000,4.3011 l -4.3011,-0.0000 l -0.0000,4.3011 l -0.0000,4.3011 l 4.3011,0.0000 l 4.3011,-0.0000 l -0.0000,-4.3011 l -0.0000,-4.3011 l -4.3011,0.0000 l -0.0000,-4.3011 l -4.3011,0.0000 l -4.3011,0.0000 l 0.0000,4.3011 l -0.0000,-4.3011 l -4.3011,0.0000 l -4.3011,0.0000 l 0.0000,4.3011 l -4.3011,0.0000 l 0.0000,4.3011 l 0.0000,4.3011 h 4.3011 l -0.0000,-4.3011 l -4.3011,0.0000 l -4.3011,0.0000 l 0.0000,4.3011 l -4.3011,0.0000 l 0.0000,4.3011 l 0.0000,4.3011 h 4.3011 l -4.3011,0.0000 l 0.0000,4.3011 l 0.0000,4.3011 h 4.3011 l 0.0000,4.3011 h 4.3011 h 4.3011 l 0.0000,-4.3011 l -0.0000,-4.3011 l -4.3011,0.0000 l -4.3011,0.0000 l 0.0000,4.3011 l -4.3011,0.0000 l 0.0000,4.3011 l 0.0000,4.3011 h 4.3011 l -4.3011,0.0000 l 0.0000,4.3011 l 0.0000,4.3011 h 4.3011 l 0.0000,4.3011 h 4.3011 h 4.3011 l 0.0000,-4.3011 l -4.3011,0.0000 l 0.0000,4.3011 l 0.0000,4.3011 h 4.3011 l 0.0000,4.3011 h 4.3011 h 4.3011 l 0.0000,-4.3011 l 0.0000,4.3011 h 4.3011 h 4.3011 l 0.0000,-4.3011 h 4.3011 l 0.0000,-4.3011 l 0.0000,-4.3011 l -4.3011,-0.0000 l -0.0000,-4.3011 l -4.3011,0.0000 l -4.3011,0.0000 l 0.0000,4.3011 l -4.3011,0.0000 l 0.0000,4.3011 l 0.0000,4.3011 h 4.3011 l -4.3011,0.0000 l 0.0000,4.3011 l 0.0000,4.3011 h 4.3011 l 0.0000,4.3011 h 4.3011 h 4.3011 l 0.0000,-4.3011 l -4.3011,0.0000 l 0.0000,4.3011 l 0.0000,4.3011 h 4.3011 l 0.0000,4.3011 h 4.3011 h 4.3011 l 0.0000,-4.3011 l 0.0000,4.3011 h 4.3011 h 4.3011 l 0.0000,-4.3011 h 4.3011 l 0.0000,-4.3011 l 0.0000,-4.3011 l -4.3011,-0.0000 l -4.3011,0.0000 l 0.0000,4.3011 l 0.0000,4.3011 h 4.3011 l 0.0000,4.3011 h 4.3011 h 4.3011 l 0.0000,-4.3011 l 0.0000,4.3011 h 4.3011 h 4.3011 l 0.0000,-4.3011 h 4.3011 l 0.0000,-4.3011 l 0.0000,-4.3011 l -4.3011,-0.0000 l 0.0000,4.3011 h 4.3011 h 4.3011 l 0.0000,-4.3011 h 4.3011 l 0.0000,-4.3011 l 0.0000,-4.3011 l -4.3011,-0.0000 h 4.3011 l 0.0000,-4.3011 l 0.0000,-4.3011 l -4.3011,-0.0000 l 0.0000,-4.3011 l -4.3011,-0.0000 l -4.3011,-0.0000 l -0.0000,4.3011 l -0.0000,-4.3011 l -4.3011,0.0000 l -4.3011,0.0000 l 0.0000,4.3011 l -4.3011,0.0000 l 0.0000,4.3011 l 0.0000,4.3011 h 4.3011 l -4.3011,0.0000 l 0.0000,4.3011 l 0.0000,4.3011 h 4.3011 l 0.0000,4.3011 h 4.3011 h 4.3011 l 0.0000,-4.3011 l -4.3011,0.0000 l 0.0000,4.3011 l 0.0000,4.3011 h 4.3011 l 0.0000,4.3011 h 4.3011 h 4.3011 l 0.0000,-4.3011 l 0.0000,4.3011 h 4.3011 h 4.3011 l 0.0000,-4.3011 h 4.3011 l 0.0000,-4.3011 l 0.0000,-4.3011 l -4.3011,-0.0000 l -4.3011,0.0000 l 0.0000,4.3011 l 0.0000,4.3011 h 4.3011 l 0.0000,4.3011 h 4.3011 h 4.3011 l 0.0000,-4.3011 l 0.0000,4.3011 h 4.3011 h 4.3011 l 0.0000,-4.3011 h 4.3011 l 0.0000,-4.3011 l 0.0000,-4.3011 l -4.3011,-0.0000 l 0.0000,4.3011 h 4.3011 h 4.3011 l 0.0000,-4.3011 h 4.3011 l 0.0000,-4.3011 l 0.0000,-4.3011 l -4.3011,-0.0000 h 4.3011 l 0.0000,-4.3011 l 0.0000,-4.3011 l -4.3011,-0.0000 l 0.0000,-4.3011 l -4.3011,-0.0000 l -4.3011,-0.0000 l -0.0000,4.3011 l -4.3011,0.0000 l 0.0000,4.3011 l 0.0000,4.3011 h 4.3011 l 0.0000,4.3011 h 4.3011 h 4.3011 l 0.0000,-4.3011 l 0.0000,4.3011 h 4.3011 h 4.3011 l 0.0000,-4.3011 h 4.3011 l 0.0000,-4.3011 l 0.0000,-4.3011 l -4.3011,-0.0000 l 0.0000,4.3011 h 4.3011 h 4.3011 l 0.0000,-4.3011 h 4.3011 l 0.0000,-4.3011 l 0.0000,-4.3011 l -4.3011,-0.0000 h 4.3011 l 0.0000,-4.3011 l 0.0000,-4.3011 l -4.3011,-0.0000 l 0.0000,-4.3011 l -4.3011,-0.0000 l -4.3011,-0.0000 l -0.0000,4.3011 l 0.0000,4.3011 h 4.3011 h 4.3011 l 0.0000,-4.3011 h 4.3011 l 0.0000,-4.3011 l 0.0000,-4.3011 l -4.3011,-0.0000 h 4.3011 l 0.0000,-4.3011 l 0.0000,-4.3011 l -4.3011,-0.0000 l 0.0000,-4.3011 l -4.3011,-0.0000 l -4.3011,-0.0000 l -0.0000,4.3011 h 4.3011 l 0.0000,-4.3011 l 0.0000,-4.3011 l -4.3011,-0.0000 l 0.0000,-4.3011 l -4.3011,-0.0000 l -4.3011,-0.0000 l -0.0000,4.3011 l 0.0000,-4.3011 l -4.3011,-0.0000 l -4.3011,-0.0000 l -0.0000,4.3011 l -4.3011,-0.0000 l -0.0000,4.3011 l -0.0000,4.3011 l 4.3011,0.0000 l -0.0000,-4.3011 l -4.3011,0.0000 l -4.3011,0.0000 l 0.0000,4.3011 l -4.3011,0.0000 l 0.0000,4.3011 l 0.0000,4.3011 h 4.3011 l -4.3011,0.0000 l 0.0000,4.3011 l 0.0000,4.3011 h 4.3011 l 0.0000,4.3011 h 4.3011 h 4.3011 l 0.0000,-4.3011 l -4.3011,0.0000 l 0.0000,4.3011 l 0.0000,4.3011 h 4.3011 l 0.0000,4.3011 h 4.3011 h 4.3011 l 0.0000,-4.3011 l 0.0000,4.3011 h 4.3011 h 4.3011 l 0.0000,-4.3011 h 4.3011 l 0.0000,-4.3011 l 0.0000,-4.3011 l -4.3011,-0.0000 l -4.3011,0.0000 l 0.0000,4.3011 l 0.0000,4.3011 h 4.3011 l 0.0000,4.3011 h 4.3011 h 4.3011 l 0.0000,-4.3011 l 0.0000,4.3011 h 4.3011 h 4.3011 l 0.0000,-4.3011 h 4.3011 l 0.0000,-4.3011 l 0.0000,-4.3011 l -4.3011,-0.0000 l 0.0000,4.3011 h 4.3011 h 4.3011 l 0.0000,-4.3011 h 4.3011 l 0.0000,-4.3011 l 0.0000,-4.3011 l -4.3011,-0.0000 h 4.3011 l 0.0000,-4.3011 l 0.0000,-4.3011 l -4.3011,-0.0000 l 0.0000,-4.3011 l -4.3011,-0.0000 l -4.3011,-0.0000 l -0.0000,4.3011 l -4.3011,0.0000 l 0.0000,4.3011 l 0.0000,4.3011 h 4.3011 l 0.0000,4.3011 h 4.3011 h 4.3011 l 0.0000,-4.3011 l 0.0000,4.3011 h 4.3011 h 4.3011 l 0.0000,-4.3011 h 4.3011 l 0.0000,-4.3011 l 0.0000,-4.3011 l -4.3011,-0.0000 l 0.0000,4.3011 h 4.3011 h 4.3011 l 0.0000,-4.3011 h 4.3011 l 0.0000,-4.3011 l 0.0000,-4.3011 l -4.3011,-0.0000 h 4.3011 l 0.0000,-4.3011 l 0.0000,-4.3011 l -4.3011,-0.0000 l 0.0000,-4.3011 l -4.3011,-0.0000 l -4.3011,-0.0000 l -0.0000,4.3011 l 0.0000,4.3011 h 4.3011 h 4.3011 l 0.0000,-4.3011 h 4.3011 l 0.0000,-4.3011 l 0.0000,-4.3011 l -4.3011,-0.0000 h 4.3011 l 0.0000,-4.3011 l 0.0000,-4.3011 l -4.3011,-0.0000 l 0.0000,-4.3011 l -4.3011,-0.0000 l -4.3011,-0.0000 l -0.0000,4.3011 h 4.3011 l 0.0000,-4.3011 l 0.0000,-4.3011 l -4.3011,-0.0000 l 0.0000,-4.3011 l -4.3011,-0.0000 l -4.3011,-0.0000 l -0.0000,4.3011 l 0.0000,-4.3011 l -4.3011,-0.0000 l -4.3011,-0.0000 l -0.0000,4.3011 l -4.3011,-0.0000 l -0.0000,4.3011 l -0.0000,4.3011 l 4.3011,0.0000 l -4.3011,0.0000 l 0.0000,4.3011 l 0.0000,4.3011 h 4.3011 l 0.0000,4.3011 h 4.3011 h 4.3011 l 0.0000,-4.3011 l 0.0000,4.3011 h 4.3011 h 4.3011 l 0.0000,-4.3011 h 4.3011 l 0.0000,-4.3011 l 0.0000,-4.3011 l -4.3011,-0.0000 l 0.0000,4.3011 h 4.3011 h 4.3011 l 0.0000,-4.3011 h 4.3011 l 0.0000,-4.3011 l 0.0000,-4.3011 l -4.3011,-0.0000 h 4.3011 l 0.0000,-4.3011 l 0.0000,-4.3011 l -4.3011,-0.0000 l 0.0000,-4.3011 l -4.3011,-0.0000 l -4.3011,-0.0000 l -0.0000,4.3011 l 0.0000,4.3011 h 4.3011 h 4.3011 l 0.0000,-4.3011 h 4.3011 l 0.0000,-4.3011 l 0.0000,-4.3011 l -4.3011,-0.0000 h 4.3011 l 0.0000,-4.3011 l 0.0000,-4.3011 l -4.3011,-0.0000 l 0.0000,-4.3011 l -4.3011,-0.0000 l -4.3011,-0.0000 l -0.0000,4.3011 h 4.3011 l 0.0000,-4.3011 l 0.0000,-4.3011 l -4.3011,-0.0000 l 0.0000,-4.3011 l -4.3011,-0.0000 l -4.3011,-0.0000 l -0.0000,4.3011 l 0.0000,-4.3011 l -4.3011,-0.0000 l -4.3011,-0.0000 l -0.0000,4.3011 l -4.3011,-0.0000 l -0.0000,4.3011 l -0.0000,4.3011 l 4.3011,0.0000 l 0.0000,4.3011 h 4.3011 h 4.3011 l 0.0000,-4.3011 h 4.3011 l 0.0000,-4.3011 l 0.0000,-4.3011 l -4.3011,-0.0000 h 4.3011 l 0.0000,-4.3011 l 0.0000,-4.3011 l -4.3011,-0.0000 l 0.0000,-4.3011 l -4.3011,-0.0000 l -4.3011,-0.0000 l -0.0000,4.3011 h 4.3011 l 0.0000,-4.3011 l 0.0000,-4.3011 l -4.3011,-0.0000 l 0.0000,-4.3011 l -4.3011,-0.0000 l -4.3011,-0.0000 l -0.0000,4.3011 l 0.0000,-4.3011 l -4.3011,-0.0000 l -4.3011,-0.0000 l -0.0000,4.3011 l -4.3011,-0.0000 l -0.0000,4.3011 l -0.0000,4.3011 l 4.3011,0.0000 h 4.3011 l 0.0000,-4.3011 l 0.0000,-4.3011 l -4.3011,-0.0000 l 0.0000,-4.3011 l -4.3011,-0.0000 l -4.3011,-0.0000 l -0.0000,4.3011 l 0.0000,-4.3011 l -4.3011,-0.0000 l -4.3011,-0.0000 l -0.0000,4.3011 l -4.3011,-0.0000 l -0.0000,4.3011 l -0.0000,4.3011 l 4.3011,0.0000 l 0.0000,-4.3011 l -4.3011,-0.0000 l -4.3011,-0.0000 l -0.0000,4.3011 l -4.3011,-0.0000 l -0.0000,4.3011 l -0.0000,4.3011 l 4.3011,0.0000 l -4.3011,-0.0000 l -0.0000,4.3011 l -0.0000,4.3011 l 4.3011,0.0000 l -0.0000,4.3011 l 4.3011,0.0000 l 4.3011,0.0000 l 0.0000,-4.3011 "/></g><g stroke-linejoin="miter" stroke-opacity="1.0" fill-opacity="0.0" stroke="rgb(0,0,0)" stroke-width="0.5" fill="rgb(0,0,0)" stroke-linecap="butt" stroke-miterlimit="10.0"><path d="M 131.1828,397.8495 l 8.6022,-0.0000 l -0.0000,-8.6022 l -0.0000,-8.6022 l -8.6022,0.0000 l -0.0000,-8.6022 l -8.6022,0.0000 l -8.6022,0.0000 l 0.0000,8.6022 l -0.0000,-8.6022 l -8.6022,0.0000 l -8.6022,0.0000 l 0.0000,8.6022 l -8.6022,0.0000 l 0.0000,8.6022 l 0.0000,8.6022 h 8.6022 l -0.0000,-8.6022 l -8.6022,0.0000 l -8.6022,0.0000 l 0.0000,8.6022 l -8.6022,0.0000 l 0.0000,8.6022 l 0.0000,8.6022 h 8.6022 l -8.6022,0.0000 l 0.0000,8.6022 l 0.0000,8.6022 h 8.6022 l 0.0000,8.6022 h 8.6022 h 8.6022 l 0.0000,-8.6022 l -0.0000,-8.6022 l -8.6022,0.0000 l -8.6022,0.0000 l 0.0000,8.6022 l -8.6022,0.0000 l 0.0000,8.6022 l 0.0000,8.6022 h 8.6022 l -8.6022,0.0000 l 0.0000,8.6022 l 0.0000,8.6022 h 8.6022 l 0.0000,8.6022 h 8.6022 h 8.6022 l 0.0000,-8.6022 l -8.6022,0.0000 l 0.0000,8.6022 l 0.0000,8.6022 h 8.6022 l 0.0000,8.6022 h 8.6022 h 8.6022 l 0.0000,-8.6022 l 0.0000,8.6022 h 8.6022 h 8.6022 l 0.0000,-8.6022 h 8.6022 l 0.0000,-8.6022 l 0.0000,-8.6022 l -8.6022,-0.0000 l -0.0000,-8.6022 l -8.6022,0.0000 l -8.6022,0.0000 l 0.0000,8.6022 l -8.6022,0.0000 l 0.0000,8.6022 l 0.0000,8.6022 h 8.6022 l -8.6022,0.0000 l 0.0000,8.6022 l 0.0000,8.6022 h 8.6022 l 0.0000,8.6022 h 8.6022 h 8.6022 l 0.0000,-8.6022 l -8.6022,0.0000 l 0.0000,8.6022 l 0.0000,8.6022 h 8.6022 l 0.0000,8.6022 h 8.6022 h 8.6022 l 0.0000,-8.6022 l 0.0000,8.6022 h 8.6022 h 8.6022 l 0.0000,-8.6022 h 8.6022 l 0.0000,-8.6022 l 0.0000,-8.6022 l -8.6022,-0.0000 l -8.6022,0.0000 l 0.0000,8.6022 l 0.0000,8.6022 h 8.6022 l 0.0000,8.6022 h 8.6022 h 8.6022 l 0.0000,-8.6022 l 0.0000,8.6022 h 8.6022 h 8.6022 l 0.0000,-8.6022 h 8.6022 l 0.0000,-8.6022 l 0.0000,-8.6022 l -8.6022,-0.0000 l 0.0000,8.6022 h 8.6022 h 8.6022 l 0.0000,-8.6022 h 8.6022 l 0.0000,-8.6022 l 0.0000,-8.6022 l -8.6022,-0.0000 h 8.6022 l 0.0000,-8.6022 l 0.0000,-8.6022 l -8.6022,-0.0000 l 0.0000,-8.6022 l -8.6022,-0.0000 l -8.6022,-0.0000 l -0.0000,8.6022 l -0.0000,-8.6022 l -8.6022,0.0000 l -8.6022,0.0000 l 0.0000,8.6022 l -8.6022,0.0000 l 0.0000,8.6022 l 0.0000,8.6022 h 8.6022 l -8.6022,0.0000 l 0.0000,8.6022 l 0.0000,8.6022 h 8.6022 l 0.0000,8.6022 h 8.6022 h 8.6022 l 0.0000,-8.6022 l -8.6022,0.0000 l 0.0000,8.6022 l 0.0000,8.6022 h 8.6022 l 0.0000,8.6022 h 8.6022 h 8.6022 l 0.0000,-8.6022 l 0.0000,8.6022 h 8.6022 h 8.6022 l 0.0000,-8.6022 h 8.6022 l 0.0000,-8.6022 l 0.0000,-8.6022 l -8.6022,-0.0000 l -8.6022,0.0000 l 0.0000,8.6022 l 0.0000,8.6022 h 8.6022 l 0.0000,8.6022 h 8.6022 h 8.6022 l 0.0000,-8.6022 l 0.0000,8.6022 h 8.6022 h 8.6022 l 0.0000,-8.6022 h 8.6022 l 0.0000,-8.6022 l 0.0000,-8.6022 l -8.6022,-0.0000 l 0.0000,8.6022 h 8.6022 h 8.6022 l 0.0000,-8.6022 h 8.6022 l 0.0000,-8.6022 l 0.0000,-8.6022 l -8.6022,-0.0000 h 8.6022 l 0.0000,-8.6022 l 0.0000,-8.6022 l -8.6022,-0.0000 l 0.0000,-8.6022 l -8.6022,-0.0000 l -8.6022,-0.0000 l -0.0000,8.6022 l -8.6022,0.0000 l 0.0000,8.6022 l 0.0000,8.6022 h 8.6022 l 0.0000,8.6022 h 8.6022 h 8.6022 l 0.0000,-8.6022 l 0.0000,8.6022 h 8.6022 h 8.6022 l 0.0000,-8.6022 h 8.6022 l 0.0000,-8.6022 l 0.0000,-8.6022 l -8.6022,-0.0000 l 0.0000,8.6022 h 8.6022 h 8.6022 l 0.0000,-8.6022 h 8.6022 l 0.0000,-8.6022 l 0.0000,-8.6022 l -8.6022,-0.0000 h 8.6022 l 0.0000,-8.6022 l 0.0000,-8.6022 l -8.6022,-0.0000 l 0.0000,-8.6022 l -8.6022,-0.0000 l -8.6022,-0.0000 l -0.0000,8.6022 l 0.0000,8.6022 h 8.6022 h 8.6022 l 0.0000,-8.6022 h 8.6022 l 0.0000,-8.6022 l 0.0000,-8.6022 l -8.6022,-0.0000 h 8.6022 l 0.0000,-8.6022 l 0.0000,-8.6022 l -8.6022,-0.0000 l 0.0000,-8.6022 l -8.6022,-0.0000 l -8.6022,-0.0000 l -0.0000,8.6022 h 8.6022 l 0.0000,-8.6022 l 0.0000,-8.6022 l -8.6022,-0.0000 l 0.0000,-8.6022 l -8.6022,-0.0000 l -8.6022,-0.0000 l -0.0000,8.6022 l 0.0000,-8.6022 l -8.6022,-0.0000 l -8.6022,-0.0000 l -0.0000,8.6022 l -8.6022,-0.0000 l -0.0000,8.6022 l -0.0000,8.6022 l 8.6022,0.0000 "/></g><g stroke-linejoin="miter" stroke-opacity="1.0" fill-opacity="0.0" stroke="rgb(0,0,0)" stroke-width="0.5" fill="rgb(0,0,0)" stroke-linecap="butt" stroke-miterlimit="10.0"><path d="M 397.8495,234.4086 l -34.4086,0.0000 l 0.0000,34.4086 l 0.0000,34.4086 h 34.4086 l 0.0000,34.4086 h 34.4086 h 34.4086 l 0.0000,-34.4086 l 0.0000,34.4086 h 34.4086 h 34.4086 l 0.0000,-34.4086 h 34.4086 l 0.0000,-34.4086 l 0.0000,-34.4086 l -34.4086,-0.0000 "/></g><g stroke-linejoin="miter" stroke-opacity="1.0" fill-opacity="0.0" stroke="rgb(0,0,0)" stroke-width="0.5" fill="rgb(0,0,0)" stroke-linecap="butt" stroke-miterlimit="10.0"><path d="M 131.1828,234.4086 l -0.0000,-17.2043 l -17.2043,0.0000 l -17.2043,0.0000 l 0.0000,17.2043 l -17.2043,0.0000 l 0.0000,17.2043 l 0.0000,17.2043 h 17.2043 l -17.2043,0.0000 l 0.0000,17.2043 l 0.0000,17.2043 h 17.2043 l 0.0000,17.2043 h 17.2043 h 17.2043 l 0.0000,-17.2043 l -17.2043,0.0000 l 0.0000,17.2043 l 0.0000,17.2043 h 17.2043 l 0.0000,17.2043 h 17.2043 h 17.2043 l 0.0000,-17.2043 l 0.0000,17.2043 h 17.2043 h 17.2043 l 0.0000,-17.2043 h 17.2043 l 0.0000,-17.2043 l 0.0000,-17.2043 l -17.2043,-0.0000 l -17.2043,0.0000 l 0.0000,17.2043 l 0.0000,17.2043 h 17.2043 l 0.0000,17.2043 h 17.2043 h 17.2043 l 0.0000,-17.2043 l 0.0000,17.2043 h 17.2043 h 17.2043 l 0.0000,-17.2043 h 17.2043 l 0.0000,-17.2043 l 0.0000,-17.2043 l -17.2043,-0.0000 l 0.0000,17.2043 h 17.2043 h 17.2043 l 0.0000,-17.2043 h 17.2043 l 0.0000,-17.2043 l 0.0000,-17.2043 l -17.2043,-0.0000 h 17.2043 l 0.0000,-17.2043 l 0.0000,-17.2043 l -17.2043,-0.0000 l 0.0000,-17.2043 l -17.2043,-0.0000 l -17.2043,-0.0000 l -0.0000,17.2043 "/></g><g stroke-linejoin="miter" stroke-opacity="1.0" fill-opacity="0.0" stroke="rgb(0,0,0)" stroke-width="0.5" fill="rgb(0,0,0)" stroke-linecap="butt" stroke-miterlimit="10.0"><path d="M 397.8495,70.9677 l 0.0000,68.8172 h 68.8172 h 68.8172 l 0.0000,-68.8172 "/></g><g stroke-linejoin="miter" stroke-opacity="1.0" fill-opacity="0.0" stroke="rgb(0,0,0)" stroke-width="0.5" fill="rgb(0,0,0)" stroke-linecap="butt" stroke-miterlimit="10.0"><path d="M 131.1828,70.9677 h 137.6344 "/></g></svg>