<?xml version="1.0" encoding="UTF-8"?>
<!DOCTYPE svg PUBLIC "-//W3C//DTD SVG 1.1//EN"
    "http://www.w3.org/Graphics/SVG/1.1/DTD/svg11.dtd"><svg xmlns="http://www.w3.org/2000/svg" height="699.9572" stroke-opacity="1" viewBox="0 0 800 700" font-size="1" width="800.0000" xmlns:xlink="http://www.w3.org/1999/xlink" stroke="rgb(0,0,0)" version="1.1"><defs></defs><g stroke-linejoin="miter" stroke-opacity="1.0" fill-opacity="0.0" stroke="rgb(0,0,0)" stroke-width="0.5" fill="rgb(0,0,0)" stroke-linecap="butt" stroke-miterlimit="10.0"><path d="M 437.2397,417.5080 l 3.7283,3.7283 l 3.7283,-3.7283 l -3.7283,-3.7283 l 3.7283,-3.7283 l -3.7283,-3.7283 l -3.7283,3.7283 l -3.7283,-3.7283 l 3.7283,-3.7283 l -3.7283,-3.7283 l -3.7283,3.7283 l 3.7283,3.7283 l -3.7283,3.7283 l -3.7283,-3.7283 l -3.7283,3.7283 l -3.7283,-3.7283 l 3.7283,-3.7283 l -3.7283,-3.7283 l -3.7283,3.7283 l 3.7283,3.7283 l -3.7283,3.7283 l 3.7283,3.7283 l 3.7283,-3.7283 l 3.7283,3.7283 l -3.7283,3.7283 l -3.7283,-3.7283 l -3.7283,3.7283 l 3.7283,3.7283 l -3.7283,3.7283 l -3.7283,-3.7283 l -3.7283,3.7283 l -3.7283,-3.7283 l 3.7283,-3.7283 l -3.7283,-3.7283 l -3.7283,3.7283 l 3.7283,3.7283 l -3.7283,3.7283 l 3.7283,3.7283 l 3.7283,-3.7283 l 3.7283,3.7283 l -3.7283,3.7283 l 3.7283,3.7283 l 3.7283,-3.7283 l -3.7283,-3.7283 l 3.7283,-3.7283 l 3.7283,3.7283 l 3.7283,-3.7283 l 3.7283,3.7283 l -3.7283,3.7283 l -3.7283,-3.7283 l -3.7283,3.7283 l 3.7283,3.7283 l -3.7283,3.7283 l 3.7283,3.7283 l 3.7283,-3.7283 l 3.7283,3.7283 l -3.7283,3.7283 l -3.7283,-3.7283 l -3.7283,3.7283 l 3.7283,3.7283 l -3.7283,3.7283 l -3.7283,-3.7283 l -3.7283,3.7283 l -3.7283,-3.7283 l 3.7283,-3.7283 l -3.7283,-3.7283 l -3.7283,3.7283 l 3.7283,3.7283 l -3.7283,3.7283 l 3.7283,3.7283 l 3.7283,-3.7283 l 3.7283,3.7283 l -3.7283,3.7283 l 3.7283,3.7283 l 3.7283,-3.7283 l -3.7283,-3.7283 l 3.7283,-3.7283 l 3.7283,3.7283 l 3.7283,-3.7283 l 3.7283,3.7283 l -3.7283,3.7283 l 3.7283,3.7283 l 3.7283,-3.7283 l -3.7283,-3.7283 l 3.7283,-3.7283 l -3.7283,-3.7283 l -3.7283,3.7283 l -3.7283,-3.7283 l 3.7283,-3.7283 l 3.7283,3.7283 l 3.7283,-3.7283 l -3.7283,-3.7283 l 3.7283,-3.7283 l 3.7283,3.7283 l 3.7283,-3.7283 l 3.7283,3.7283 l -3.7283,3.7283 l -3.7283,-3.7283 l -3.7283,3.7283 l 3.7283,3.7283 l -3.7283,3.7283 l 3.7283,3.7283 l 3.7283,-3.7283 l 3.7283,3.7283 l -3.7283,3.7283 l 3.7283,3.7283 l 3.7283,-3.7283 l -3.7283,-3.7283 l 3.7283,-3.7283 l 3.7283,3.7283 l 3.7283,-3.7283 l 3.7283,3.7283 l -3.7283,3.7283 l -3.7283,-3.7283 l -3.7283,3.7283 l 3.7283,3.7283 l -3.7283,3.7283 l 3.7283,3.7283 l 3.7283,-3.7283 l 3.7283,3.7283 l -3.7283,3.7283 l -3.7283,-3.7283 l -3.7283,3.7283 l 3.7283,3.7283 l -3.7283,3.7283 l -3.7283,-3.7283 l -3.7283,3.7283 l -3.7283,-3.7283 l 3.7283,-3.7283 l -3.7283,-3.7283 l -3.7283,3.7283 l 3.7283,3.7283 l -3.7283,3.7283 l 3.7283,3.7283 l 3.7283,-3.7283 l 3.7283,3.7283 l -3.7283,3.7283 l 3.7283,3.7283 l 3.7283,-3.7283 l -3.7283,-3.7283 l 3.7283,-3.7283 l 3.7283,3.7283 l 3.7283,-3.7283 l 3.7283,3.7283 l -3.7283,3.7283 l 3.7283,3.7283 l 3.7283,-3.7283 l -3.7283,-3.7283 l 3.7283,-3.7283 l -3.7283,-3.7283 l -3.7283,3.7283 l -3.7283,-3.7283 l 3.7283,-3.7283 l 3.7283,3.7283 l 3.7283,-3.7283 l -3.7283,-3.7283 l 3.7283,-3.7283 l 3.7283,3.7283 l 3.7283,-3.7283 l 3.7283,3.7283 l -3.7283,3.7283 l 3.7283,3.7283 l 3.7283,-3.7283 l -3.7283,-3.7283 l 3.7283,-3.7283 l -3.7283,-3.7283 l -3.7283,3.7283 l -3.7283,-3.7283 l 3.7283,-3.7283 l -3.7283,-3.7283 l -3.7283,3.7283 l 3.7283,3.7283 l -3.7283,3.7283 l -3.7283,-3.7283 l -3.7283,3.7283 l -3.7283,-3.7283 l 3.7283,-3.7283 l 3.7283,3.7283 l 3.7283,-3.7283 l -3.7283,-3.7283 l 3.7283,-3.7283 l -3.7283,-3.7283 l -3.7283,3.7283 l -3.7283,-3.7283 l 3.7283,-3.7283 l 3.7283,3.7283 l 3.7283,-3.7283 l -3.7283,-3.7283 l 3.7283,-3.7283 l 3.7283,3.7283 l 3.7283,-3.7283 l 3.7283,3.7283 l -3.7283,3.7283 l -3.7283,-3.7283 l -3.7283,3.7283 l 3.7283,3.7283 l -3.7283,3.7283 l 3.7283,3.7283 l 3.7283,-3.7283 l 3.7283,3.7283 l -3.7283,3.7283 l 3.7283,3.7283 l 3.7283,-3.7283 l -3.7283,-3.7283 l 3.7283,-3.7283 l 3.7283,3.7283 l 3.7283,-3.7283 l 3.7283,3.7283 l -3.7283,3.7283 l 3.7283,3.7283 l 3.7283,-3.7283 l -3.7283,-3.7283 l 3.7283,-3.7283 l -3.7283,-3.7283 l -3.7283,3.7283 l -3.7283,-3.7283 l 3.7283,-3.7283 l 3.7283,3.7283 l 3.7283,-3.7283 l -3.7283,-3.7283 l 3.7283,-3.7283 l 3.7283,3.7283 l 3.7283,-3.7283 l 3.7283,3.7283 l -3.7283,3.7283 l -3.7283,-3.7283 l -3.7283,3.7283 l 3.7283,3.7283 l -3.7283,3.7283 l 3.7283,3.7283 l 3.7283,-3.7283 l 3.7283,3.7283 l -3.7283,3.7283 l 3.7283,3.7283 l 3.7283,-3.7283 l -3.7283,-3.7283 l 3.7283,-3.7283 l 3.7283,3.7283 l 3.7283,-3.7283 l 3.7283,3.7283 l -3.7283,3.7283 l -3.7283,-3.7283 l -3.7283,3.7283 l 3.7283,3.7283 l -3.7283,3.7283 l 3.7283,3.7283 l 3.7283,-3.7283 l 3.7283,3.7283 l -3.7283,3.7283 l -3.7283,-3.7283 l -3.7283,3.7283 l 3.7283,3.7283 l -3.7283,3.7283 l -3.7283,-3.7283 l -3.7283,3.7283 l -3.7283,-3.7283 l 3.7283,-3.7283 l -3.7283,-3.7283 l -3.7283,3.7283 l 3.7283,3.7283 l -3.7283,3.7283 l 3.7283,3.7283 l 3.7283,-3.7283 l 3.7283,3.7283 l -3.7283,3.7283 l 3.7283,3.7283 l 3.7283,-3.7283 l -3.7283,-3.7283 l 3.7283,-3.7283 l 3.7283,3.7283 l 3.7283,-3.7283 l 3.7283,3.7283 l -3.7283,3.7283 l 3.7283,3.7283 l 3.7283,-3.7283 l -3.7283,-3.7283 l 3.7283,-3.7283 l -3.7283,-3.7283 l -3.7283,3.7283 l -3.7283,-3.7283 l 3.7283,-3.7283 l 3.7283,3.7283 l 3.7283,-3.7283 l -3.7283,-3.7283 l 3.7283,-3.7283 l 3.7283,3.7283 l 3.7283,-3.7283 l 3.7283,3.7283 l -3.7283,3.7283 l 3.7283,3.7283 l 3.7283,-3.7283 l -3.7283,-3.7283 l 3.7283,-3.7283 l -3.7283,-3.7283 l -3.7283,3.7283 l -3.7283,-3.7283 l 3.7283,-3.7283 l -3.7283,-3.7283 l -3.7283,3.7283 l 3.7283,3.7283 l -3.7283,3.7283 l -3.7283,-3.7283 l -3.7283,3.7283 l -3.7283,-3.7283 l 3.7283,-3.7283 l 3.7283,3.7283 l 3.7283,-3.7283 l -3.7283,-3.7283 l 3.7283,-3.7283 l -3.7283,-3.7283 l -3.7283,3.7283 l -3.7283,-3.7283 l 3.7283,-3.7283 l 3.7283,3.7283 l 3.7283,-3.7283 l -3.7283,-3.7283 l 3.7283,-3.7283 l 3.7283,3.7283 l 3.7283,-3.7283 l 3.7283,3.7283 l -3.7283,3.7283 l 3.7283,3.7283 l 3.7283,-3.7283 l -3.7283,-3.7283 l 3.7283,-3.7283 l -3.7283,-3.7283 l -3.7283,3.7283 l -3.7283,-3.7283 l 3.7283,-3.7283 l -3.7283,-3.7283 l -3.7283,3.7283 l 3.7283,3.7283 l -3.7283,3.7283 l -3.7283,-3.7283 l -3.7283,3.7283 l -3.7283,-3.7283 l 3.7283,-3.7283 l -3.7283,-3.7283 l -3.7283,3.7283 l 3.7283,3.7283 l -3.7283,3.7283 l 3.7283,3.7283 l 3.7283,-3.7283 l 3.7283,3.7283 l -3.7283,3.7283 l -3.7283,-3.7283 l -3.7283,3.7283 l 3.7283,3.7283 l -3.7283,3.7283 l -3.7283,-3.7283 l -3.7283,3.7283 l -3.7283,-3.7283 l 3.7283,-3.7283 l 3.7283,3.7283 l 3.7283,-3.7283 l -3.7283,-3.7283 l 3.7283,-3.7283 l -3.7283,-3.7283 l -3.7283,3.7283 l -3.7283,-3.7283 l 3.7283,-3.7283 l -3.7283,-3.7283 l -3.7283,3.7283 l 3.7283,3.7283 l -3.7283,3.7283 l -3.7283,-3.7283 l -3.7283,3.7283 l -3.7283,-3.7283 l 3.7283,-3.7283 l 3.7283,3.7283 l 3.7283,-3.7283 l -3.7283,-3.7283 l 3.7283,-3.7283 l -3.7283,-3.7283 l -3.7283,3.7283 l -3.7283,-3.7283 l 3.7283,-3.7283 l 3.7283,3.7283 l 3.7283,-3.7283 l -3.7283,-3.7283 l 3.7283,-3.7283 l 3.7283,3.7283 l 3.7283,-3.7283 l 3.7283,3.7283 l -3.7283,3.7283 l -3.7283,-3.7283 l -3.7283,3.7283 l 3.7283,3.7283 l -3.7283,3.7283 l 3.7283,3.7283 l 3.7283,-3.7283 l 3.7283,3.7283 l -3.7283,3.7283 l 3.7283,3.7283 l 3.7283,-3.7283 l -3.7283,-3.7283 l 3.7283,-3.7283 l 3.7283,3.7283 l 3.7283,-3.7283 l 3.7283,3.7283 l -3.7283,3.7283 l 3.7283,3.7283 l 3.7283,-3.7283 l -3.7283,-3.7283 l 3.7283,-3.7283 l -3.7283,-3.7283 l -3.7283,3.7283 l -3.7283,-3.7283 l 3.7283,-3.7283 l 3.7283,3.7283 l 3.7283,-3.7283 l -3.7283,-3.7283 l 3.7283,-3.7283 l 3.7283,3.7283 l 3.7283,-3.7283 l 3.7283,3.7283 l -3.7283,3.7283 l 3.7283,3.7283 l 3.7283,-3.7283 l -3.7283,-3.7283 l 3.7283,-3.7283 l -3.7283,-3.7283 l -3.7283,3.7283 l -3.7283,-3.7283 l 3.7283,-3.7283 l -3.7283,-3.7283 l -3.7283,3.7283 l 3.7283,3.7283 l -3.7283,3.7283 l -3.7283,-3.7283 l -3.7283,3.7283 l -3.7283,-3.7283 l 3.7283,-3.7283 l 3.7283,3.7283 l 3.7283,-3.7283 l -3.7283,-3.7283 l 3.7283,-3.7283 l -3.7283,-3.7283 l -3.7283,3.7283 l -3.7283,-3.7283 l 3.7283,-3.7283 l 3.7283,3.7283 l 3.7283,-3.7283 l -3.7283,-3.7283 l 3.7283,-3.7283 l 3.7283,3.7283 l 3.7283,-3.7283 l 3.7283,3.7283 l -3.7283,3.7283 l -3.7283,-3.7283 l -3.7283,3.7283 l 3.7283,3.7283 l -3.7283,3.7283 l 3.7283,3.7283 l 3.7283,-3.7283 l 3.7283,3.7283 l -3.7283,3.7283 l 3.7283,3.7283 l 3.7283,-3.7283 l -3.7283,-3.7283 l 3.7283,-3.7283 l 3.7283,3.7283 l 3.7283,-3.7283 l 3.7283,3.7283 l -3.7283,3.7283 l 3.7283,3.7283 l 3.7283,-3.7283 l -3.7283,-3.7283 l 3.7283,-3.7283 l -3.7283,-3.7283 l -3.7283,3.7283 l -3.7283,-3.7283 l 3.7283,-3.7283 l 3.7283,3.7283 l 3.7283,-3.7283 l -3.7283,-3.7283 l 3.7283,-3.7283 l 3.7283,3.7283 l 3.7283,-3.7283 l 3.7283,3.7283 l -3.7283,3.7283 l -3.7283,-3.7283 l -3.7283,3.7283 l 3.7283,3.7283 l -3.7283,3.7283 l 3.7283,3.7283 l 3.7283,-3.7283 l 3.7283,3.7283 l -3.7283,3.7283 l 3.7283,3.7283 l 3.7283,-3.7283 l -3.7283,-3.7283 l 3.7283,-3.7283 l 3.7283,3.7283 l 3.7283,-3.7283 l 3.7283,3.7283 l -3.7283,3.7283 l -3.7283,-3.7283 l -3.7283,3.7283 l 3.7283,3.7283 l -3.7283,3.7283 l 3.7283,3.7283 l 3.7283,-3.7283 l 3.7283,3.7283 l -3.7283,3.7283 l -3.7283,-3.7283 l -3.7283,3.7283 l 3.7283,3.7283 l -3.7283,3.7283 l -3.7283,-3.7283 l -3.7283,3.7283 l -3.7283,-3.7283 l 3.7283,-3.7283 "/></g><g stroke-linejoin="miter" stroke-opacity="1.0" fill-opacity="0.0" stroke="rgb(0,0,0)" stroke-width="0.5" fill="rgb(0,0,0)" stroke-linecap="butt" stroke-miterlimit="10.0"><path d="M 260.2021,417.5080 l 0.0000,3.6909 l 3.6909,-0.0000 l -0.0000,-3.6909 l 3.6909,-0.0000 l -0.0000,-3.6909 l -3.6909,0.0000 l -0.0000,-3.6909 l 3.6909,-0.0000 l -0.0000,-3.6909 l -3.6909,0.0000 l -0.0000,3.6909 l -3.6909,0.0000 l -0.0000,-3.6909 h -3.6909 l -0.0000,-3.6909 l 3.6909,-0.0000 l -0.0000,-3.6909 l -3.6909,0.0000 l -0.0000,3.6909 l -3.6909,0.0000 v 3.6909 l 3.6909,0.0000 v 3.6909 l -3.6909,0.0000 l -0.0000,-3.6909 l -3.6909,0.0000 v 3.6909 l -3.6909,0.0000 l -0.0000,-3.6909 l -3.6909,0.0000 l -0.0000,-3.6909 l 3.6909,-0.0000 l -0.0000,-3.6909 h -3.6909 l -0.0000,3.6909 h -3.6909 v 3.6909 l 3.6909,0.0000 v 3.6909 h -3.6909 l -0.0000,3.6909 l 3.6909,0.0000 l 0.0000,-3.6909 l 3.6909,0.0000 l -0.0000,3.6909 l 3.6909,0.0000 l -0.0000,3.6909 l -3.6909,0.0000 l -0.0000,-3.6909 l -3.6909,0.0000 l -0.0000,3.6909 l -3.6909,0.0000 v 3.6909 l 3.6909,0.0000 v 3.6909 l -3.6909,0.0000 l -0.0000,-3.6909 l -3.6909,0.0000 v 3.6909 l -3.6909,0.0000 l -0.0000,-3.6909 l -3.6909,0.0000 l -0.0000,-3.6909 l 3.6909,-0.0000 l -0.0000,-3.6909 l -3.6909,0.0000 v 3.6909 l -3.6909,0.0000 l 0.0000,3.6909 l 3.6909,0.0000 l 0.0000,3.6909 l -3.6909,0.0000 v 3.6909 l 3.6909,0.0000 l 0.0000,-3.6909 l 3.6909,0.0000 v 3.6909 l 3.6909,0.0000 v 3.6909 l -3.6909,0.0000 v 3.6909 l 3.6909,0.0000 l 0.0000,-3.6909 l 3.6909,0.0000 l 0.0000,-3.6909 l -3.6909,-0.0000 l 0.0000,-3.6909 l 3.6909,0.0000 l -0.0000,3.6909 l 3.6909,0.0000 l 0.0000,-3.6909 l 3.6909,0.0000 l -0.0000,3.6909 l 3.6909,0.0000 l -0.0000,3.6909 h -3.6909 l -0.0000,-3.6909 l -3.6909,0.0000 v 3.6909 l -3.6909,0.0000 l 0.0000,3.6909 l 3.6909,0.0000 l 0.0000,3.6909 l -3.6909,0.0000 v 3.6909 l 3.6909,0.0000 l 0.0000,-3.6909 l 3.6909,0.0000 v 3.6909 l 3.6909,0.0000 v 3.6909 l -3.6909,0.0000 l -0.0000,-3.6909 l -3.6909,0.0000 l -0.0000,3.6909 l -3.6909,0.0000 l -0.0000,3.6909 l 3.6909,0.0000 l -0.0000,3.6909 l -3.6909,0.0000 l -0.0000,-3.6909 l -3.6909,0.0000 v 3.6909 l -3.6909,0.0000 l -0.0000,-3.6909 l -3.6909,0.0000 l -0.0000,-3.6909 l 3.6909,-0.0000 l -0.0000,-3.6909 h -3.6909 l -0.0000,3.6909 h -3.6909 v 3.6909 l 3.6909,0.0000 v 3.6909 h -3.6909 l -0.0000,3.6909 l 3.6909,0.0000 l 0.0000,-3.6909 l 3.6909,0.0000 l -0.0000,3.6909 l 3.6909,0.0000 l -0.0000,3.6909 l -3.6909,0.0000 l -0.0000,3.6909 l 3.6909,0.0000 l 0.0000,-3.6909 l 3.6909,0.0000 l 0.0000,-3.6909 l -3.6909,-0.0000 l 0.0000,-3.6909 l 3.6909,0.0000 l -0.0000,3.6909 l 3.6909,0.0000 l 0.0000,-3.6909 l 3.6909,0.0000 l -0.0000,3.6909 l 3.6909,0.0000 l -0.0000,3.6909 h -3.6909 l -0.0000,3.6909 l 3.6909,0.0000 l 0.0000,-3.6909 l 3.6909,0.0000 l 0.0000,-3.6909 l -3.6909,-0.0000 l 0.0000,-3.6909 l 3.6909,0.0000 l 0.0000,-3.6909 l -3.6909,-0.0000 l -0.0000,3.6909 l -3.6909,-0.0000 l 0.0000,-3.6909 l -3.6909,-0.0000 l 0.0000,-3.6909 l 3.6909,0.0000 l -0.0000,3.6909 l 3.6909,0.0000 l 0.0000,-3.6909 l 3.6909,0.0000 l 0.0000,-3.6909 l -3.6909,-0.0000 l 0.0000,-3.6909 l 3.6909,0.0000 l -0.0000,3.6909 l 3.6909,0.0000 l 0.0000,-3.6909 l 3.6909,0.0000 l -0.0000,3.6909 l 3.6909,0.0000 l -0.0000,3.6909 h -3.6909 l -0.0000,-3.6909 h -3.6909 v 3.6909 h -3.6909 v 3.6909 l 3.6909,0.0000 v 3.6909 h -3.6909 v 3.6909 l 3.6909,0.0000 l 0.0000,-3.6909 l 3.6909,0.0000 v 3.6909 l 3.6909,0.0000 v 3.6909 h -3.6909 l -0.0000,3.6909 l 3.6909,0.0000 l 0.0000,-3.6909 l 3.6909,0.0000 l 0.0000,-3.6909 l -3.6909,-0.0000 l 0.0000,-3.6909 l 3.6909,0.0000 l -0.0000,3.6909 l 3.6909,0.0000 l 0.0000,-3.6909 l 3.6909,0.0000 l -0.0000,3.6909 l 3.6909,0.0000 l -0.0000,3.6909 l -3.6909,0.0000 l -0.0000,-3.6909 h -3.6909 v 3.6909 h -3.6909 v 3.6909 l 3.6909,0.0000 v 3.6909 h -3.6909 v 3.6909 l 3.6909,0.0000 l 0.0000,-3.6909 l 3.6909,0.0000 v 3.6909 l 3.6909,0.0000 v 3.6909 h -3.6909 l -0.0000,-3.6909 h -3.6909 l -0.0000,3.6909 h -3.6909 v 3.6909 l 3.6909,0.0000 v 3.6909 h -3.6909 l -0.0000,-3.6909 l -3.6909,0.0000 v 3.6909 l -3.6909,0.0000 l -0.0000,-3.6909 h -3.6909 l -0.0000,-3.6909 l 3.6909,-0.0000 l -0.0000,-3.6909 l -3.6909,-0.0000 l -0.0000,3.6909 l -3.6909,-0.0000 l -0.0000,3.6909 l 3.6909,0.0000 l -0.0000,3.6909 l -3.6909,-0.0000 l -0.0000,3.6909 l 3.6909,0.0000 l 0.0000,-3.6909 l 3.6909,0.0000 l -0.0000,3.6909 l 3.6909,0.0000 l -0.0000,3.6909 l -3.6909,0.0000 l -0.0000,3.6909 l 3.6909,0.0000 l 0.0000,-3.6909 l 3.6909,0.0000 l 0.0000,-3.6909 l -3.6909,-0.0000 l 0.0000,-3.6909 l 3.6909,0.0000 l -0.0000,3.6909 l 3.6909,0.0000 l 0.0000,-3.6909 l 3.6909,0.0000 l -0.0000,3.6909 l 3.6909,0.0000 l -0.0000,3.6909 l -3.6909,-0.0000 l -0.0000,3.6909 l 3.6909,0.0000 l 0.0000,-3.6909 l 3.6909,0.0000 l 0.0000,-3.6909 l -3.6909,-0.0000 l 0.0000,-3.6909 l 3.6909,0.0000 l 0.0000,-3.6909 l -3.6909,-0.0000 l -0.0000,3.6909 l -3.6909,-0.0000 l 0.0000,-3.6909 l -3.6909,-0.0000 l 0.0000,-3.6909 l 3.6909,0.0000 l -0.0000,3.6909 l 3.6909,0.0000 l 0.0000,-3.6909 l 3.6909,0.0000 l 0.0000,-3.6909 l -3.6909,-0.0000 l 0.0000,-3.6909 l 3.6909,0.0000 l -0.0000,3.6909 l 3.6909,0.0000 l 0.0000,-3.6909 l 3.6909,0.0000 l -0.0000,3.6909 l 3.6909,0.0000 l -0.0000,3.6909 l -3.6909,-0.0000 l -0.0000,3.6909 l 3.6909,0.0000 l 0.0000,-3.6909 l 3.6909,0.0000 l 0.0000,-3.6909 l -3.6909,-0.0000 l 0.0000,-3.6909 l 3.6909,0.0000 l 0.0000,-3.6909 l -3.6909,-0.0000 l -0.0000,3.6909 l -3.6909,-0.0000 l 0.0000,-3.6909 l -3.6909,-0.0000 l 0.0000,-3.6909 l 3.6909,0.0000 l 0.0000,-3.6909 l -3.6909,-0.0000 l -0.0000,3.6909 l -3.6909,-0.0000 l -0.0000,3.6909 l 3.6909,0.0000 l -0.0000,3.6909 l -3.6909,-0.0000 l 0.0000,-3.6909 l -3.6909,-0.0000 l -0.0000,3.6909 l -3.6909,-0.0000 l 0.0000,-3.6909 l -3.6909,-0.0000 l 0.0000,-3.6909 l 3.6909,0.0000 l -0.0000,3.6909 l 3.6909,0.0000 l 0.0000,-3.6909 l 3.6909,0.0000 l 0.0000,-3.6909 l -3.6909,-0.0000 l 0.0000,-3.6909 l 3.6909,0.0000 l 0.0000,-3.6909 l -3.6909,-0.0000 l -0.0000,3.6909 l -3.6909,-0.0000 l 0.0000,-3.6909 l -3.6909,-0.0000 l 0.0000,-3.6909 l 3.6909,0.0000 l -0.0000,3.6909 l 3.6909,0.0000 l 0.0000,-3.6909 l 3.6909,0.0000 l 0.0000,-3.6909 l -3.6909,-0.0000 l 0.0000,-3.6909 l 3.6909,0.0000 l -0.0000,3.6909 l 3.6909,0.0000 l 0.0000,-3.6909 l 3.6909,0.0000 l -0.0000,3.6909 l 3.6909,0.0000 l -0.0000,3.6909 l -3.6909,0.0000 l -0.0000,-3.6909 l -3.6909,-0.0000 l -0.0000,3.6909 l -3.6909,-0.0000 l -0.0000,3.6909 l 3.6909,0.0000 l -0.0000,3.6909 l -3.6909,-0.0000 l -0.0000,3.6909 l 3.6909,0.0000 l 0.0000,-3.6909 l 3.6909,0.0000 l -0.0000,3.6909 l 3.6909,0.0000 l -0.0000,3.6909 l -3.6909,0.0000 l -0.0000,3.6909 l 3.6909,0.0000 l 0.0000,-3.6909 l 3.6909,0.0000 l 0.0000,-3.6909 l -3.6909,-0.0000 l 0.0000,-3.6909 l 3.6909,0.0000 l -0.0000,3.6909 l 3.6909,0.0000 l 0.0000,-3.6909 l 3.6909,0.0000 l -0.0000,3.6909 l 3.6909,0.0000 l -0.0000,3.6909 l -3.6909,-0.0000 l -0.0000,3.6909 l 3.6909,0.0000 l 0.0000,-3.6909 l 3.6909,0.0000 l 0.0000,-3.6909 l -3.6909,-0.0000 l 0.0000,-3.6909 l 3.6909,0.0000 l 0.0000,-3.6909 l -3.6909,-0.0000 l -0.0000,3.6909 l -3.6909,-0.0000 l 0.0000,-3.6909 l -3.6909,-0.0000 l 0.0000,-3.6909 l 3.6909,0.0000 l -0.0000,3.6909 l 3.6909,0.0000 l 0.0000,-3.6909 l 3.6909,0.0000 l 0.0000,-3.6909 l -3.6909,-0.0000 l 0.0000,-3.6909 l 3.6909,0.0000 l -0.0000,3.6909 l 3.6909,0.0000 l 0.0000,-3.6909 l 3.6909,0.0000 l -0.0000,3.6909 l 3.6909,0.0000 l -0.0000,3.6909 l -3.6909,-0.0000 l -0.0000,-3.6909 l -3.6909,-0.0000 l -0.0000,3.6909 l -3.6909,-0.0000 l -0.0000,3.6909 l 3.6909,0.0000 l -0.0000,3.6909 l -3.6909,-0.0000 l -0.0000,3.6909 l 3.6909,0.0000 l 0.0000,-3.6909 l 3.6909,0.0000 l -0.0000,3.6909 l 3.6909,0.0000 l -0.0000,3.6909 l -3.6909,-0.0000 l -0.0000,3.6909 l 3.6909,0.0000 l 0.0000,-3.6909 l 3.6909,0.0000 l 0.0000,-3.6909 l -3.6909,-0.0000 l 0.0000,-3.6909 l 3.6909,0.0000 l -0.0000,3.6909 l 3.6909,0.0000 l 0.0000,-3.6909 l 3.6909,0.0000 l -0.0000,3.6909 l 3.6909,0.0000 l -0.0000,3.6909 l -3.6909,0.0000 l -0.0000,-3.6909 l -3.6909,-0.0000 l -0.0000,3.6909 l -3.6909,-0.0000 l -0.0000,3.6909 l 3.6909,0.0000 l -0.0000,3.6909 l -3.6909,-0.0000 l -0.0000,3.6909 l 3.6909,0.0000 l 0.0000,-3.6909 l 3.6909,0.0000 l -0.0000,3.6909 l 3.6909,0.0000 l -0.0000,3.6909 l -3.6909,-0.0000 l -0.0000,-3.6909 l -3.6909,-0.0000 l -0.0000,3.6909 l -3.6909,-0.0000 v 3.6909 l 3.6909,0.0000 v 3.6909 l -3.6909,-0.0000 l -0.0000,-3.6909 l -3.6909,0.0000 l -0.0000,3.6909 l -3.6909,0.0000 l -0.0000,-3.6909 l -3.6909,-0.0000 l -0.0000,-3.6909 l 3.6909,-0.0000 l -0.0000,-3.6909 h -3.6909 l -0.0000,3.6909 h -3.6909 v 3.6909 l 3.6909,0.0000 v 3.6909 h -3.6909 l -0.0000,3.6909 l 3.6909,0.0000 l 0.0000,-3.6909 l 3.6909,0.0000 l -0.0000,3.6909 l 3.6909,0.0000 l -0.0000,3.6909 l -3.6909,0.0000 l -0.0000,3.6909 l 3.6909,0.0000 l 0.0000,-3.6909 l 3.6909,0.0000 l 0.0000,-3.6909 l -3.6909,-0.0000 l 0.0000,-3.6909 l 3.6909,0.0000 l -0.0000,3.6909 l 3.6909,0.0000 l 0.0000,-3.6909 l 3.6909,0.0000 l -0.0000,3.6909 l 3.6909,0.0000 l -0.0000,3.6909 h -3.6909 l -0.0000,3.6909 l 3.6909,0.0000 l 0.0000,-3.6909 l 3.6909,0.0000 l 0.0000,-3.6909 l -3.6909,-0.0000 l 0.0000,-3.6909 l 3.6909,0.0000 l 0.0000,-3.6909 l -3.6909,-0.0000 l -0.0000,3.6909 l -3.6909,-0.0000 l 0.0000,-3.6909 l -3.6909,-0.0000 l 0.0000,-3.6909 l 3.6909,0.0000 l -0.0000,3.6909 l 3.6909,0.0000 l 0.0000,-3.6909 l 3.6909,0.0000 l 0.0000,-3.6909 l -3.6909,-0.0000 l 0.0000,-3.6909 l 3.6909,0.0000 l -0.0000,3.6909 l 3.6909,0.0000 l 0.0000,-3.6909 l 3.6909,0.0000 l -0.0000,3.6909 l 3.6909,0.0000 l -0.0000,3.6909 h -3.6909 l -0.0000,3.6909 l 3.6909,0.0000 l 0.0000,-3.6909 l 3.6909,0.0000 l 0.0000,-3.6909 l -3.6909,-0.0000 l 0.0000,-3.6909 l 3.6909,0.0000 l 0.0000,-3.6909 l -3.6909,-0.0000 l -0.0000,3.6909 l -3.6909,-0.0000 l 0.0000,-3.6909 l -3.6909,-0.0000 l 0.0000,-3.6909 l 3.6909,0.0000 l 0.0000,-3.6909 l -3.6909,-0.0000 l -0.0000,3.6909 l -3.6909,-0.0000 l -0.0000,3.6909 l 3.6909,0.0000 l -0.0000,3.6909 l -3.6909,-0.0000 l 0.0000,-3.6909 l -3.6909,-0.0000 l -0.0000,3.6909 l -3.6909,-0.0000 l 0.0000,-3.6909 l -3.6909,-0.0000 l 0.0000,-3.6909 l 3.6909,0.0000 l -0.0000,3.6909 l 3.6909,0.0000 l 0.0000,-3.6909 l 3.6909,0.0000 l 0.0000,-3.6909 l -3.6909,-0.0000 l 0.0000,-3.6909 l 3.6909,0.0000 l 0.0000,-3.6909 l -3.6909,-0.0000 l -0.0000,3.6909 l -3.6909,-0.0000 l 0.0000,-3.6909 l -3.6909,-0.0000 l 0.0000,-3.6909 l 3.6909,0.0000 l -0.0000,3.6909 l 3.6909,0.0000 l 0.0000,-3.6909 l 3.6909,0.0000 l 0.0000,-3.6909 l -3.6909,-0.0000 l 0.0000,-3.6909 l 3.6909,0.0000 l -0.0000,3.6909 l 3.6909,0.0000 l 0.0000,-3.6909 l 3.6909,0.0000 l -0.0000,3.6909 l 3.6909,0.0000 l -0.0000,3.6909 h -3.6909 l -0.0000,3.6909 l 3.6909,0.0000 l 0.0000,-3.6909 l 3.6909,0.0000 l 0.0000,-3.6909 l -3.6909,-0.0000 l 0.0000,-3.6909 l 3.6909,0.0000 l 0.0000,-3.6909 l -3.6909,-0.0000 l -0.0000,3.6909 l -3.6909,-0.0000 l 0.0000,-3.6909 l -3.6909,-0.0000 l 0.0000,-3.6909 l 3.6909,0.0000 l 0.0000,-3.6909 l -3.6909,-0.0000 l -0.0000,3.6909 l -3.6909,-0.0000 l -0.0000,3.6909 l 3.6909,0.0000 l -0.0000,3.6909 l -3.6909,-0.0000 l 0.0000,-3.6909 l -3.6909,-0.0000 l -0.0000,3.6909 l -3.6909,-0.0000 l 0.0000,-3.6909 l -3.6909,-0.0000 l 0.0000,-3.6909 l 3.6909,0.0000 l 0.0000,-3.6909 l -3.6909,-0.0000 l -0.0000,3.6909 l -3.6909,-0.0000 l -0.0000,3.6909 l 3.6909,0.0000 l -0.0000,3.6909 l -3.6909,-0.0000 l -0.0000,3.6909 l 3.6909,0.0000 l 0.0000,-3.6909 l 3.6909,0.0000 l -0.0000,3.6909 l 3.6909,0.0000 l -0.0000,3.6909 l -3.6909,-0.0000 l 0.0000,-3.6909 l -3.6909,-0.0000 l -0.0000,3.6909 l -3.6909,-0.0000 l -0.0000,3.6909 l 3.6909,0.0000 l -0.0000,3.6909 l -3.6909,-0.0000 l 0.0000,-3.6909 l -3.6909,-0.0000 l -0.0000,3.6909 l -3.6909,-0.0000 l 0.0000,-3.6909 l -3.6909,-0.0000 l 0.0000,-3.6909 l 3.6909,0.0000 l -0.0000,3.6909 l 3.6909,0.0000 l 0.0000,-3.6909 l 3.6909,0.0000 l 0.0000,-3.6909 l -3.6909,-0.0000 l 0.0000,-3.6909 l 3.6909,0.0000 l 0.0000,-3.6909 l -3.6909,-0.0000 l -0.0000,3.6909 l -3.6909,-0.0000 l 0.0000,-3.6909 l -3.6909,-0.0000 l 0.0000,-3.6909 l 3.6909,0.0000 l 0.0000,-3.6909 l -3.6909,-0.0000 l -0.0000,3.6909 l -3.6909,-0.0000 l -0.0000,3.6909 l 3.6909,0.0000 l -0.0000,3.6909 l -3.6909,-0.0000 l 0.0000,-3.6909 l -3.6909,-0.0000 l -0.0000,3.6909 l -3.6909,-0.0000 l 0.0000,-3.6909 l -3.6909,-0.0000 l 0.0000,-3.6909 l 3.6909,0.0000 l -0.0000,3.6909 l 3.6909,0.0000 l 0.0000,-3.6909 l 3.6909,0.0000 l 0.0000,-3.6909 l -3.6909,-0.0000 l 0.0000,-3.6909 l 3.6909,0.0000 l 0.0000,-3.6909 l -3.6909,-0.0000 l -0.0000,3.6909 l -3.6909,-0.0000 l 0.0000,-3.6909 l -3.6909,-0.0000 l 0.0000,-3.6909 l 3.6909,0.0000 l -0.0000,3.6909 l 3.6909,0.0000 l 0.0000,-3.6909 l 3.6909,0.0000 l 0.0000,-3.6909 l -3.6909,-0.0000 l 0.0000,-3.6909 l 3.6909,0.0000 l -0.0000,3.6909 l 3.6909,0.0000 l 0.0000,-3.6909 l 3.6909,0.0000 l -0.0000,3.6909 l 3.6909,0.0000 l -0.0000,3.6909 h -3.6909 l -0.0000,-3.6909 l -3.6909,-0.0000 l -0.0000,3.6909 l -3.6909,-0.0000 l -0.0000,3.6909 l 3.6909,0.0000 l -0.0000,3.6909 l -3.6909,-0.0000 l -0.0000,3.6909 l 3.6909,0.0000 l 0.0000,-3.6909 l 3.6909,0.0000 l -0.0000,3.6909 l 3.6909,0.0000 l -0.0000,3.6909 l -3.6909,0.0000 l -0.0000,3.6909 l 3.6909,0.0000 l 0.0000,-3.6909 l 3.6909,0.0000 l 0.0000,-3.6909 l -3.6909,-0.0000 l 0.0000,-3.6909 l 3.6909,0.0000 l -0.0000,3.6909 l 3.6909,0.0000 l 0.0000,-3.6909 l 3.6909,0.0000 l -0.0000,3.6909 l 3.6909,0.0000 l -0.0000,3.6909 l -3.6909,-0.0000 v 3.6909 l 3.6909,0.0000 l 0.0000,-3.6909 l 3.6909,0.0000 l 0.0000,-3.6909 l -3.6909,-0.0000 l 0.0000,-3.6909 l 3.6909,0.0000 l 0.0000,-3.6909 l -3.6909,-0.0000 l -0.0000,3.6909 l -3.6909,-0.0000 l 0.0000,-3.6909 l -3.6909,-0.0000 l 0.0000,-3.6909 l 3.6909,0.0000 l -0.0000,3.6909 l 3.6909,0.0000 l 0.0000,-3.6909 l 3.6909,0.0000 l 0.0000,-3.6909 l -3.6909,-0.0000 l 0.0000,-3.6909 l 3.6909,0.0000 l -0.0000,3.6909 l 3.6909,0.0000 l 0.0000,-3.6909 l 3.6909,0.0000 l -0.0000,3.6909 l 3.6909,0.0000 l -0.0000,3.6909 l -3.6909,-0.0000 l -0.0000,3.6909 l 3.6909,0.0000 l 0.0000,-3.6909 l 3.6909,0.0000 l 0.0000,-3.6909 l -3.6909,-0.0000 l 0.0000,-3.6909 l 3.6909,0.0000 l 0.0000,-3.6909 l -3.6909,-0.0000 l -0.0000,3.6909 l -3.6909,-0.0000 l 0.0000,-3.6909 l -3.6909,-0.0000 l 0.0000,-3.6909 l 3.6909,0.0000 l 0.0000,-3.6909 l -3.6909,-0.0000 l -0.0000,3.6909 l -3.6909,-0.0000 l -0.0000,3.6909 l 3.6909,0.0000 l -0.0000,3.6909 l -3.6909,-0.0000 l 0.0000,-3.6909 l -3.6909,-0.0000 l -0.0000,3.6909 l -3.6909,-0.0000 l 0.0000,-3.6909 l -3.6909,-0.0000 l 0.0000,-3.6909 l 3.6909,0.0000 l -0.0000,3.6909 l 3.6909,0.0000 l 0.0000,-3.6909 l 3.6909,0.0000 l 0.0000,-3.6909 l -3.6909,-0.0000 l 0.0000,-3.6909 l 3.6909,0.0000 l 0.0000,-3.6909 l -3.6909,-0.0000 l -0.0000,3.6909 l -3.6909,-0.0000 l 0.0000,-3.6909 l -3.6909,-0.0000 l 0.0000,-3.6909 l 3.6909,0.0000 v 3.6909 l 3.6909,0.0000 l 0.0000,-3.6909 l 3.6909,0.0000 l 0.0000,-3.6909 l -3.6909,-0.0000 l 0.0000,-3.6909 l 3.6909,0.0000 l -0.0000,3.6909 l 3.6909,0.0000 l 0.0000,-3.6909 l 3.6909,0.0000 l -0.0000,3.6909 l 3.6909,0.0000 l -0.0000,3.6909 l -3.6909,0.0000 l -0.0000,-3.6909 l -3.6909,-0.0000 l -0.0000,3.6909 l -3.6909,-0.0000 l -0.0000,3.6909 l 3.6909,0.0000 l -0.0000,3.6909 l -3.6909,-0.0000 l -0.0000,3.6909 l 3.6909,0.0000 l 0.0000,-3.6909 l 3.6909,0.0000 l -0.0000,3.6909 l 3.6909,0.0000 l -0.0000,3.6909 l -3.6909,0.0000 l -0.0000,3.6909 l 3.6909,0.0000 l 0.0000,-3.6909 l 3.6909,0.0000 l 0.0000,-3.6909 l -3.6909,-0.0000 l 0.0000,-3.6909 l 3.6909,0.0000 l -0.0000,3.6909 l 3.6909,0.0000 l 0.0000,-3.6909 l 3.6909,0.0000 l -0.0000,3.6909 l 3.6909,0.0000 l -0.0000,3.6909 l -3.6909,-0.0000 l -0.0000,3.6909 l 3.6909,0.0000 l 0.0000,-3.6909 l 3.6909,0.0000 l 0.0000,-3.6909 l -3.6909,-0.0000 l 0.0000,-3.6909 l 3.6909,0.0000 l 0.0000,-3.6909 l -3.6909,-0.0000 l -0.0000,3.6909 l -3.6909,-0.0000 l 0.0000,-3.6909 l -3.6909,-0.0000 l 0.0000,-3.6909 l 3.6909,0.0000 l -0.0000,3.6909 l 3.6909,0.0000 l 0.0000,-3.6909 l 3.6909,0.0000 l 0.0000,-3.6909 l -3.6909,-0.0000 l 0.0000,-3.6909 l 3.6909,0.0000 l -0.0000,3.6909 l 3.6909,0.0000 l 0.0000,-3.6909 l 3.6909,0.0000 l -0.0000,3.6909 l 3.6909,0.0000 l -0.0000,3.6909 l -3.6909,-0.0000 l -0.0000,-3.6909 l -3.6909,-0.0000 l -0.0000,3.6909 l -3.6909,-0.0000 l -0.0000,3.6909 l 3.6909,0.0000 l -0.0000,3.6909 l -3.6909,-0.0000 l -0.0000,3.6909 l 3.6909,0.0000 l 0.0000,-3.6909 l 3.6909,0.0000 l -0.0000,3.6909 l 3.6909,0.0000 l -0.0000,3.6909 l -3.6909,-0.0000 l -0.0000,3.6909 l 3.6909,0.0000 l 0.0000,-3.6909 l 3.6909,0.0000 l 0.0000,-3.6909 l -3.6909,-0.0000 l 0.0000,-3.6909 l 3.6909,0.0000 l -0.0000,3.6909 l 3.6909,0.0000 l 0.0000,-3.6909 l 3.6909,0.0000 l -0.0000,3.6909 l 3.6909,0.0000 l -0.0000,3.6909 l -3.6909,0.0000 l -0.0000,-3.6909 l -3.6909,-0.0000 l -0.0000,3.6909 l -3.6909,-0.0000 l -0.0000,3.6909 l 3.6909,0.0000 l -0.0000,3.6909 l -3.6909,-0.0000 l -0.0000,3.6909 l 3.6909,0.0000 l 0.0000,-3.6909 l 3.6909,0.0000 l -0.0000,3.6909 l 3.6909,0.0000 l -0.0000,3.6909 l -3.6909,-0.0000 l -0.0000,-3.6909 l -3.6909,-0.0000 l -0.0000,3.6909 l -3.6909,-0.0000 l -0.0000,3.6909 l 3.6909,0.0000 l -0.0000,3.6909 l -3.6909,-0.0000 l -0.0000,-3.6909 l -3.6909,0.0000 l -0.0000,3.6909 l -3.6909,0.0000 l -0.0000,-3.6909 l -3.6909,-0.0000 l -0.0000,-3.6909 l 3.6909,-0.0000 "/></g><g stroke-linejoin="miter" stroke-opacity="1.0" fill-opacity="0.0" stroke="rgb(0,0,0)" stroke-width="0.5" fill="rgb(0,0,0)" stroke-linecap="butt" stroke-miterlimit="10.0"><path d="M 83.1645,417.5080 l -1.8269,1.8269 l 1.8269,1.8269 l 1.8269,-1.8269 l 1.8269,1.8269 l 1.8269,-1.8269 l -1.8269,-1.8269 l 1.8269,-1.8269 l 1.8269,1.8269 l 1.8269,-1.8269 l -1.8269,-1.8269 l -1.8269,1.8269 l -1.8269,-1.8269 l 1.8269,-1.8269 l -1.8269,-1.8269 l 1.8269,-1.8269 l 1.8269,1.8269 l 1.8269,-1.8269 l -1.8269,-1.8269 l -1.8269,1.8269 l -1.8269,-1.8269 l -1.8269,1.8269 l 1.8269,1.8269 l -1.8269,1.8269 l -1.8269,-1.8269 l 1.8269,-1.8269 l -1.8269,-1.8269 l -1.8269,1.8269 l -1.8269,-1.8269 l 1.8269,-1.8269 l -1.8269,-1.8269 l 1.8269,-1.8269 l 1.8269,1.8269 l 1.8269,-1.8269 l -1.8269,-1.8269 l -1.8269,1.8269 l -1.8269,-1.8269 l -1.8269,1.8269 l 1.8269,1.8269 l -1.8269,1.8269 l -1.8269,-1.8269 l -1.8269,1.8269 l 1.8269,1.8269 l 1.8269,-1.8269 l 1.8269,1.8269 l -1.8269,1.8269 l 1.8269,1.8269 l -1.8269,1.8269 l -1.8269,-1.8269 l 1.8269,-1.8269 l -1.8269,-1.8269 l -1.8269,1.8269 l -1.8269,-1.8269 l -1.8269,1.8269 l 1.8269,1.8269 l -1.8269,1.8269 l -1.8269,-1.8269 l 1.8269,-1.8269 l -1.8269,-1.8269 l -1.8269,1.8269 l -1.8269,-1.8269 l 1.8269,-1.8269 l -1.8269,-1.8269 l 1.8269,-1.8269 l 1.8269,1.8269 l 1.8269,-1.8269 l -1.8269,-1.8269 l -1.8269,1.8269 l -1.8269,-1.8269 l -1.8269,1.8269 l 1.8269,1.8269 l -1.8269,1.8269 l -1.8269,-1.8269 l -1.8269,1.8269 l 1.8269,1.8269 l 1.8269,-1.8269 l 1.8269,1.8269 l -1.8269,1.8269 l 1.8269,1.8269 l -1.8269,1.8269 l -1.8269,-1.8269 l -1.8269,1.8269 l 1.8269,1.8269 l 1.8269,-1.8269 l 1.8269,1.8269 l 1.8269,-1.8269 l -1.8269,-1.8269 l 1.8269,-1.8269 l 1.8269,1.8269 l -1.8269,1.8269 l 1.8269,1.8269 l 1.8269,-1.8269 l 1.8269,1.8269 l -1.8269,1.8269 l 1.8269,1.8269 l -1.8269,1.8269 l -1.8269,-1.8269 l 1.8269,-1.8269 l -1.8269,-1.8269 l -1.8269,1.8269 l -1.8269,-1.8269 l -1.8269,1.8269 l 1.8269,1.8269 l -1.8269,1.8269 l -1.8269,-1.8269 l -1.8269,1.8269 l 1.8269,1.8269 l 1.8269,-1.8269 l 1.8269,1.8269 l -1.8269,1.8269 l 1.8269,1.8269 l -1.8269,1.8269 l -1.8269,-1.8269 l 1.8269,-1.8269 l -1.8269,-1.8269 l -1.8269,1.8269 l -1.8269,-1.8269 l -1.8269,1.8269 l 1.8269,1.8269 l -1.8269,1.8269 l -1.8269,-1.8269 l 1.8269,-1.8269 l -1.8269,-1.8269 l -1.8269,1.8269 l -1.8269,-1.8269 l 1.8269,-1.8269 l -1.8269,-1.8269 l 1.8269,-1.8269 l 1.8269,1.8269 l 1.8269,-1.8269 l -1.8269,-1.8269 l -1.8269,1.8269 l -1.8269,-1.8269 l -1.8269,1.8269 l 1.8269,1.8269 l -1.8269,1.8269 l -1.8269,-1.8269 l -1.8269,1.8269 l 1.8269,1.8269 l 1.8269,-1.8269 l 1.8269,1.8269 l -1.8269,1.8269 l 1.8269,1.8269 l -1.8269,1.8269 l -1.8269,-1.8269 l -1.8269,1.8269 l 1.8269,1.8269 l 1.8269,-1.8269 l 1.8269,1.8269 l 1.8269,-1.8269 l -1.8269,-1.8269 l 1.8269,-1.8269 l 1.8269,1.8269 l -1.8269,1.8269 l 1.8269,1.8269 l 1.8269,-1.8269 l 1.8269,1.8269 l -1.8269,1.8269 l 1.8269,1.8269 l -1.8269,1.8269 l -1.8269,-1.8269 l -1.8269,1.8269 l 1.8269,1.8269 l 1.8269,-1.8269 l 1.8269,1.8269 l 1.8269,-1.8269 l -1.8269,-1.8269 l 1.8269,-1.8269 l 1.8269,1.8269 l 1.8269,-1.8269 l -1.8269,-1.8269 l -1.8269,1.8269 l -1.8269,-1.8269 l 1.8269,-1.8269 l -1.8269,-1.8269 l 1.8269,-1.8269 l 1.8269,1.8269 l -1.8269,1.8269 l 1.8269,1.8269 l 1.8269,-1.8269 l 1.8269,1.8269 l 1.8269,-1.8269 l -1.8269,-1.8269 l 1.8269,-1.8269 l 1.8269,1.8269 l -1.8269,1.8269 l 1.8269,1.8269 l 1.8269,-1.8269 l 1.8269,1.8269 l -1.8269,1.8269 l 1.8269,1.8269 l -1.8269,1.8269 l -1.8269,-1.8269 l 1.8269,-1.8269 l -1.8269,-1.8269 l -1.8269,1.8269 l -1.8269,-1.8269 l -1.8269,1.8269 l 1.8269,1.8269 l -1.8269,1.8269 l -1.8269,-1.8269 l -1.8269,1.8269 l 1.8269,1.8269 l 1.8269,-1.8269 l 1.8269,1.8269 l -1.8269,1.8269 l 1.8269,1.8269 l -1.8269,1.8269 l -1.8269,-1.8269 l -1.8269,1.8269 l 1.8269,1.8269 l 1.8269,-1.8269 l 1.8269,1.8269 l 1.8269,-1.8269 l -1.8269,-1.8269 l 1.8269,-1.8269 l 1.8269,1.8269 l -1.8269,1.8269 l 1.8269,1.8269 l 1.8269,-1.8269 l 1.8269,1.8269 l -1.8269,1.8269 l 1.8269,1.8269 l -1.8269,1.8269 l -1.8269,-1.8269 l 1.8269,-1.8269 l -1.8269,-1.8269 l -1.8269,1.8269 l -1.8269,-1.8269 l -1.8269,1.8269 l 1.8269,1.8269 l -1.8269,1.8269 l -1.8269,-1.8269 l -1.8269,1.8269 l 1.8269,1.8269 l 1.8269,-1.8269 l 1.8269,1.8269 l -1.8269,1.8269 l 1.8269,1.8269 l -1.8269,1.8269 l -1.8269,-1.8269 l 1.8269,-1.8269 l -1.8269,-1.8269 l -1.8269,1.8269 l -1.8269,-1.8269 l -1.8269,1.8269 l 1.8269,1.8269 l -1.8269,1.8269 l -1.8269,-1.8269 l 1.8269,-1.8269 l -1.8269,-1.8269 l -1.8269,1.8269 l -1.8269,-1.8269 l 1.8269,-1.8269 l -1.8269,-1.8269 l 1.8269,-1.8269 l 1.8269,1.8269 l 1.8269,-1.8269 l -1.8269,-1.8269 l -1.8269,1.8269 l -1.8269,-1.8269 l -1.8269,1.8269 l 1.8269,1.8269 l -1.8269,1.8269 l -1.8269,-1.8269 l -1.8269,1.8269 l 1.8269,1.8269 l 1.8269,-1.8269 l 1.8269,1.8269 l -1.8269,1.8269 l 1.8269,1.8269 l -1.8269,1.8269 l -1.8269,-1.8269 l -1.8269,1.8269 l 1.8269,1.8269 l 1.8269,-1.8269 l 1.8269,1.8269 l 1.8269,-1.8269 l -1.8269,-1.8269 l 1.8269,-1.8269 l 1.8269,1.8269 l -1.8269,1.8269 l 1.8269,1.8269 l 1.8269,-1.8269 l 1.8269,1.8269 l -1.8269,1.8269 l 1.8269,1.8269 l -1.8269,1.8269 l -1.8269,-1.8269 l -1.8269,1.8269 l 1.8269,1.8269 l 1.8269,-1.8269 l 1.8269,1.8269 l 1.8269,-1.8269 l -1.8269,-1.8269 l 1.8269,-1.8269 l 1.8269,1.8269 l 1.8269,-1.8269 l -1.8269,-1.8269 l -1.8269,1.8269 l -1.8269,-1.8269 l 1.8269,-1.8269 l -1.8269,-1.8269 l 1.8269,-1.8269 l 1.8269,1.8269 l -1.8269,1.8269 l 1.8269,1.8269 l 1.8269,-1.8269 l 1.8269,1.8269 l 1.8269,-1.8269 l -1.8269,-1.8269 l 1.8269,-1.8269 l 1.8269,1.8269 l -1.8269,1.8269 l 1.8269,1.8269 l 1.8269,-1.8269 l 1.8269,1.8269 l -1.8269,1.8269 l 1.8269,1.8269 l -1.8269,1.8269 l -1.8269,-1.8269 l -1.8269,1.8269 l 1.8269,1.8269 l 1.8269,-1.8269 l 1.8269,1.8269 l 1.8269,-1.8269 l -1.8269,-1.8269 l 1.8269,-1.8269 l 1.8269,1.8269 l 1.8269,-1.8269 l -1.8269,-1.8269 l -1.8269,1.8269 l -1.8269,-1.8269 l 1.8269,-1.8269 l -1.8269,-1.8269 l 1.8269,-1.8269 l 1.8269,1.8269 l 1.8269,-1.8269 l -1.8269,-1.8269 l -1.8269,1.8269 l -1.8269,-1.8269 l -1.8269,1.8269 l 1.8269,1.8269 l -1.8269,1.8269 l -1.8269,-1.8269 l 1.8269,-1.8269 l -1.8269,-1.8269 l -1.8269,1.8269 l -1.8269,-1.8269 l 1.8269,-1.8269 l -1.8269,-1.8269 l 1.8269,-1.8269 l 1.8269,1.8269 l -1.8269,1.8269 l 1.8269,1.8269 l 1.8269,-1.8269 l 1.8269,1.8269 l 1.8269,-1.8269 l -1.8269,-1.8269 l 1.8269,-1.8269 l 1.8269,1.8269 l 1.8269,-1.8269 l -1.8269,-1.8269 l -1.8269,1.8269 l -1.8269,-1.8269 l 1.8269,-1.8269 l -1.8269,-1.8269 l 1.8269,-1.8269 l 1.8269,1.8269 l -1.8269,1.8269 l 1.8269,1.8269 l 1.8269,-1.8269 l 1.8269,1.8269 l 1.8269,-1.8269 l -1.8269,-1.8269 l 1.8269,-1.8269 l 1.8269,1.8269 l -1.8269,1.8269 l 1.8269,1.8269 l 1.8269,-1.8269 l 1.8269,1.8269 l -1.8269,1.8269 l 1.8269,1.8269 l -1.8269,1.8269 l -1.8269,-1.8269 l 1.8269,-1.8269 l -1.8269,-1.8269 l -1.8269,1.8269 l -1.8269,-1.8269 l -1.8269,1.8269 l 1.8269,1.8269 l -1.8269,1.8269 l -1.8269,-1.8269 l -1.8269,1.8269 l 1.8269,1.8269 l 1.8269,-1.8269 l 1.8269,1.8269 l -1.8269,1.8269 l 1.8269,1.8269 l -1.8269,1.8269 l -1.8269,-1.8269 l -1.8269,1.8269 l 1.8269,1.8269 l 1.8269,-1.8269 l 1.8269,1.8269 l 1.8269,-1.8269 l -1.8269,-1.8269 l 1.8269,-1.8269 l 1.8269,1.8269 l -1.8269,1.8269 l 1.8269,1.8269 l 1.8269,-1.8269 l 1.8269,1.8269 l -1.8269,1.8269 l 1.8269,1.8269 l -1.8269,1.8269 l -1.8269,-1.8269 l -1.8269,1.8269 l 1.8269,1.8269 l 1.8269,-1.8269 l 1.8269,1.8269 l 1.8269,-1.8269 l -1.8269,-1.8269 l 1.8269,-1.8269 l 1.8269,1.8269 l 1.8269,-1.8269 l -1.8269,-1.8269 l -1.8269,1.8269 l -1.8269,-1.8269 l 1.8269,-1.8269 l -1.8269,-1.8269 l 1.8269,-1.8269 l 1.8269,1.8269 l -1.8269,1.8269 l 1.8269,1.8269 l 1.8269,-1.8269 l 1.8269,1.8269 l 1.8269,-1.8269 l -1.8269,-1.8269 l 1.8269,-1.8269 l 1.8269,1.8269 l -1.8269,1.8269 l 1.8269,1.8269 l 1.8269,-1.8269 l 1.8269,1.8269 l -1.8269,1.8269 l 1.8269,1.8269 l -1.8269,1.8269 l -1.8269,-1.8269 l 1.8269,-1.8269 l -1.8269,-1.8269 l -1.8269,1.8269 l -1.8269,-1.8269 l -1.8269,1.8269 l 1.8269,1.8269 l -1.8269,1.8269 l -1.8269,-1.8269 l -1.8269,1.8269 l 1.8269,1.8269 l 1.8269,-1.8269 l 1.8269,1.8269 l -1.8269,1.8269 l 1.8269,1.8269 l -1.8269,1.8269 l -1.8269,-1.8269 l -1.8269,1.8269 l 1.8269,1.8269 l 1.8269,-1.8269 l 1.8269,1.8269 l 1.8269,-1.8269 l -1.8269,-1.8269 l 1.8269,-1.8269 l 1.8269,1.8269 l -1.8269,1.8269 l 1.8269,1.8269 l 1.8269,-1.8269 l 1.8269,1.8269 l -1.8269,1.8269 l 1.8269,1.8269 l -1.8269,1.8269 l -1.8269,-1.8269 l 1.8269,-1.8269 l -1.8269,-1.8269 l -1.8269,1.8269 l -1.8269,-1.8269 l -1.8269,1.8269 l 1.8269,1.8269 l -1.8269,1.8269 l -1.8269,-1.8269 l -1.8269,1.8269 l 1.8269,1.8269 l 1.8269,-1.8269 l 1.8269,1.8269 l -1.8269,1.8269 l 1.8269,1.8269 l -1.8269,1.8269 l -1.8269,-1.8269 l 1.8269,-1.8269 l -1.8269,-1.8269 l -1.8269,1.8269 l -1.8269,-1.8269 l -1.8269,1.8269 l 1.8269,1.8269 l -1.8269,1.8269 l -1.8269,-1.8269 l 1.8269,-1.8269 l -1.8269,-1.8269 l -1.8269,1.8269 l -1.8269,-1.8269 l 1.8269,-1.8269 l -1.8269,-1.8269 l 1.8269,-1.8269 l 1.8269,1.8269 l 1.8269,-1.8269 l -1.8269,-1.8269 l -1.8269,1.8269 l -1.8269,-1.8269 l -1.8269,1.8269 l 1.8269,1.8269 l -1.8269,1.8269 l -1.8269,-1.8269 l -1.8269,1.8269 l 1.8269,1.8269 l 1.8269,-1.8269 l 1.8269,1.8269 l -1.8269,1.8269 l 1.8269,1.8269 l -1.8269,1.8269 l -1.8269,-1.8269 l -1.8269,1.8269 l 1.8269,1.8269 l 1.8269,-1.8269 l 1.8269,1.8269 l 1.8269,-1.8269 l -1.8269,-1.8269 l 1.8269,-1.8269 l 1.8269,1.8269 l -1.8269,1.8269 l 1.8269,1.8269 l 1.8269,-1.8269 l 1.8269,1.8269 l -1.8269,1.8269 l 1.8269,1.8269 l -1.8269,1.8269 l -1.8269,-1.8269 l -1.8269,1.8269 l 1.8269,1.8269 l 1.8269,-1.8269 l 1.8269,1.8269 l 1.8269,-1.8269 l -1.8269,-1.8269 l 1.8269,-1.8269 l 1.8269,1.8269 l 1.8269,-1.8269 l -1.8269,-1.8269 l -1.8269,1.8269 l -1.8269,-1.8269 l 1.8269,-1.8269 l -1.8269,-1.8269 l 1.8269,-1.8269 l 1.8269,1.8269 l -1.8269,1.8269 l 1.8269,1.8269 l 1.8269,-1.8269 l 1.8269,1.8269 l 1.8269,-1.8269 l -1.8269,-1.8269 l 1.8269,-1.8269 l 1.8269,1.8269 l -1.8269,1.8269 l 1.8269,1.8269 l 1.8269,-1.8269 l 1.8269,1.8269 l -1.8269,1.8269 l 1.8269,1.8269 l -1.8269,1.8269 l -1.8269,-1.8269 l -1.8269,1.8269 l 1.8269,1.8269 l 1.8269,-1.8269 l 1.8269,1.8269 l 1.8269,-1.8269 l -1.8269,-1.8269 l 1.8269,-1.8269 l 1.8269,1.8269 l 1.8269,-1.8269 l -1.8269,-1.8269 l -1.8269,1.8269 l -1.8269,-1.8269 l 1.8269,-1.8269 l -1.8269,-1.8269 l 1.8269,-1.8269 l 1.8269,1.8269 l 1.8269,-1.8269 l -1.8269,-1.8269 l -1.8269,1.8269 l -1.8269,-1.8269 l -1.8269,1.8269 l 1.8269,1.8269 l -1.8269,1.8269 l -1.8269,-1.8269 l 1.8269,-1.8269 l -1.8269,-1.8269 l -1.8269,1.8269 l -1.8269,-1.8269 l 1.8269,-1.8269 l -1.8269,-1.8269 l 1.8269,-1.8269 l 1.8269,1.8269 l -1.8269,1.8269 l 1.8269,1.8269 l 1.8269,-1.8269 l 1.8269,1.8269 l 1.8269,-1.8269 l -1.8269,-1.8269 l 1.8269,-1.8269 l 1.8269,1.8269 l 1.8269,-1.8269 l -1.8269,-1.8269 l -1.8269,1.8269 l -1.8269,-1.8269 l 1.8269,-1.8269 l -1.8269,-1.8269 l 1.8269,-1.8269 l 1.8269,1.8269 l -1.8269,1.8269 l 1.8269,1.8269 l 1.8269,-1.8269 l 1.8269,1.8269 l 1.8269,-1.8269 l -1.8269,-1.8269 l 1.8269,-1.8269 l 1.8269,1.8269 l -1.8269,1.8269 l 1.8269,1.8269 l 1.8269,-1.8269 l 1.8269,1.8269 l -1.8269,1.8269 l 1.8269,1.8269 l -1.8269,1.8269 l -1.8269,-1.8269 l -1.8269,1.8269 l 1.8269,1.8269 l 1.8269,-1.8269 l 1.8269,1.8269 l 1.8269,-1.8269 l -1.8269,-1.8269 l 1.8269,-1.8269 l 1.8269,1.8269 l 1.8269,-1.8269 l -1.8269,-1.8269 l -1.8269,1.8269 l -1.8269,-1.8269 l 1.8269,-1.8269 l -1.8269,-1.8269 l 1.8269,-1.8269 l 1.8269,1.8269 l 1.8269,-1.8269 l -1.8269,-1.8269 l -1.8269,1.8269 l -1.8269,-1.8269 l -1.8269,1.8269 l 1.8269,1.8269 l -1.8269,1.8269 l -1.8269,-1.8269 l 1.8269,-1.8269 l -1.8269,-1.8269 l -1.8269,1.8269 l -1.8269,-1.8269 l 1.8269,-1.8269 l -1.8269,-1.8269 l 1.8269,-1.8269 l 1.8269,1.8269 l 1.8269,-1.8269 l -1.8269,-1.8269 l -1.8269,1.8269 l -1.8269,-1.8269 l -1.8269,1.8269 l 1.8269,1.8269 l -1.8269,1.8269 l -1.8269,-1.8269 l -1.8269,1.8269 l 1.8269,1.8269 l 1.8269,-1.8269 l 1.8269,1.8269 l -1.8269,1.8269 l 1.8269,1.8269 l -1.8269,1.8269 l -1.8269,-1.8269 l 1.8269,-1.8269 l -1.8269,-1.8269 l -1.8269,1.8269 l -1.8269,-1.8269 l -1.8269,1.8269 l 1.8269,1.8269 l -1.8269,1.8269 l -1.8269,-1.8269 l 1.8269,-1.8269 l -1.8269,-1.8269 l -1.8269,1.8269 l -1.8269,-1.8269 l 1.8269,-1.8269 l -1.8269,-1.8269 l 1.8269,-1.8269 l 1.8269,1.8269 l -1.8269,1.8269 l 1.8269,1.8269 l 1.8269,-1.8269 l 1.8269,1.8269 l 1.8269,-1.8269 l -1.8269,-1.8269 l 1.8269,-1.8269 l 1.8269,1.8269 l 1.8269,-1.8269 l -1.8269,-1.8269 l -1.8269,1.8269 l -1.8269,-1.8269 l 1.8269,-1.8269 l -1.8269,-1.8269 l 1.8269,-1.8269 l 1.8269,1.8269 l 1.8269,-1.8269 l -1.8269,-1.8269 l -1.8269,1.8269 l -1.8269,-1.8269 l -1.8269,1.8269 l 1.8269,1.8269 l -1.8269,1.8269 l -1.8269,-1.8269 l 1.8269,-1.8269 l -1.8269,-1.8269 l -1.8269,1.8269 l -1.8269,-1.8269 l 1.8269,-1.8269 l -1.8269,-1.8269 l 1.8269,-1.8269 l 1.8269,1.8269 l -1.8269,1.8269 l 1.8269,1.8269 l 1.8269,-1.8269 l 1.8269,1.8269 l 1.8269,-1.8269 l -1.8269,-1.8269 l 1.8269,-1.8269 l 1.8269,1.8269 l 1.8269,-1.8269 l -1.8269,-1.8269 l -1.8269,1.8269 l -1.8269,-1.8269 l 1.8269,-1.8269 l -1.8269,-1.8269 l 1.8269,-1.8269 l 1.8269,1.8269 l -1.8269,1.8269 l 1.8269,1.8269 l 1.8269,-1.8269 l 1.8269,1.8269 l 1.8269,-1.8269 l -1.8269,-1.8269 l 1.8269,-1.8269 l 1.8269,1.8269 l -1.8269,1.8269 l 1.8269,1.8269 l 1.8269,-1.8269 l 1.8269,1.8269 l -1.8269,1.8269 l 1.8269,1.8269 l -1.8269,1.8269 l -1.8269,-1.8269 l 1.8269,-1.8269 l -1.8269,-1.8269 l -1.8269,1.8269 l -1.8269,-1.8269 l -1.8269,1.8269 l 1.8269,1.8269 l -1.8269,1.8269 l -1.8269,-1.8269 l -1.8269,1.8269 l 1.8269,1.8269 l 1.8269,-1.8269 l 1.8269,1.8269 l -1.8269,1.8269 l 1.8269,1.8269 l -1.8269,1.8269 l -1.8269,-1.8269 l -1.8269,1.8269 l 1.8269,1.8269 l 1.8269,-1.8269 l 1.8269,1.8269 l 1.8269,-1.8269 l -1.8269,-1.8269 l 1.8269,-1.8269 l 1.8269,1.8269 l -1.8269,1.8269 l 1.8269,1.8269 l 1.8269,-1.8269 l 1.8269,1.8269 l -1.8269,1.8269 l 1.8269,1.8269 l -1.8269,1.8269 l -1.8269,-1.8269 l -1.8269,1.8269 l 1.8269,1.8269 l 1.8269,-1.8269 l 1.8269,1.8269 l 1.8269,-1.8269 l -1.8269,-1.8269 l 1.8269,-1.8269 l 1.8269,1.8269 l 1.8269,-1.8269 l -1.8269,-1.8269 l -1.8269,1.8269 l -1.8269,-1.8269 l 1.8269,-1.8269 l -1.8269,-1.8269 l 1.8269,-1.8269 l 1.8269,1.8269 l -1.8269,1.8269 l 1.8269,1.8269 l 1.8269,-1.8269 l 1.8269,1.8269 l 1.8269,-1.8269 l -1.8269,-1.8269 l 1.8269,-1.8269 l 1.8269,1.8269 l -1.8269,1.8269 l 1.8269,1.8269 l 1.8269,-1.8269 l 1.8269,1.8269 l -1.8269,1.8269 l 1.8269,1.8269 l -1.8269,1.8269 l -1.8269,-1.8269 l -1.8269,1.8269 l 1.8269,1.8269 l 1.8269,-1.8269 l 1.8269,1.8269 l 1.8269,-1.8269 l -1.8269,-1.8269 l 1.8269,-1.8269 l 1.8269,1.8269 l 1.8269,-1.8269 l -1.8269,-1.8269 l -1.8269,1.8269 l -1.8269,-1.8269 l 1.8269,-1.8269 l -1.8269,-1.8269 l 1.8269,-1.8269 l 1.8269,1.8269 l 1.8269,-1.8269 l -1.8269,-1.8269 l -1.8269,1.8269 l -1.8269,-1.8269 l -1.8269,1.8269 l 1.8269,1.8269 l -1.8269,1.8269 l -1.8269,-1.8269 l 1.8269,-1.8269 l -1.8269,-1.8269 l -1.8269,1.8269 l -1.8269,-1.8269 l 1.8269,-1.8269 l -1.8269,-1.8269 l 1.8269,-1.8269 l 1.8269,1.8269 l -1.8269,1.8269 l 1.8269,1.8269 l 1.8269,-1.8269 l 1.8269,1.8269 l 1.8269,-1.8269 l -1.8269,-1.8269 l 1.8269,-1.8269 l 1.8269,1.8269 l 1.8269,-1.8269 l -1.8269,-1.8269 l -1.8269,1.8269 l -1.8269,-1.8269 l 1.8269,-1.8269 l -1.8269,-1.8269 l 1.8269,-1.8269 l 1.8269,1.8269 l -1.8269,1.8269 l 1.8269,1.8269 l 1.8269,-1.8269 l 1.8269,1.8269 l 1.8269,-1.8269 l -1.8269,-1.8269 l 1.8269,-1.8269 l 1.8269,1.8269 l -1.8269,1.8269 l 1.8269,1.8269 l 1.8269,-1.8269 l 1.8269,1.8269 l -1.8269,1.8269 l 1.8269,1.8269 l -1.8269,1.8269 l -1.8269,-1.8269 l 1.8269,-1.8269 l -1.8269,-1.8269 l -1.8269,1.8269 l -1.8269,-1.8269 l -1.8269,1.8269 l 1.8269,1.8269 l -1.8269,1.8269 l -1.8269,-1.8269 l -1.8269,1.8269 l 1.8269,1.8269 l 1.8269,-1.8269 l 1.8269,1.8269 l -1.8269,1.8269 l 1.8269,1.8269 l -1.8269,1.8269 l -1.8269,-1.8269 l -1.8269,1.8269 l 1.8269,1.8269 l 1.8269,-1.8269 l 1.8269,1.8269 l 1.8269,-1.8269 l -1.8269,-1.8269 l 1.8269,-1.8269 l 1.8269,1.8269 l -1.8269,1.8269 l 1.8269,1.8269 l 1.8269,-1.8269 l 1.8269,1.8269 l -1.8269,1.8269 l 1.8269,1.8269 l -1.8269,1.8269 l -1.8269,-1.8269 l -1.8269,1.8269 l 1.8269,1.8269 l 1.8269,-1.8269 l 1.8269,1.8269 l 1.8269,-1.8269 l -1.8269,-1.8269 l 1.8269,-1.8269 l 1.8269,1.8269 l 1.8269,-1.8269 l -1.8269,-1.8269 l -1.8269,1.8269 l -1.8269,-1.8269 l 1.8269,-1.8269 l -1.8269,-1.8269 l 1.8269,-1.8269 l 1.8269,1.8269 l -1.8269,1.8269 l 1.8269,1.8269 l 1.8269,-1.8269 l 1.8269,1.8269 l 1.8269,-1.8269 l -1.8269,-1.8269 l 1.8269,-1.8269 l 1.8269,1.8269 l -1.8269,1.8269 l 1.8269,1.8269 l 1.8269,-1.8269 l 1.8269,1.8269 l -1.8269,1.8269 l 1.8269,1.8269 l -1.8269,1.8269 l -1.8269,-1.8269 l 1.8269,-1.8269 l -1.8269,-1.8269 l -1.8269,1.8269 l -1.8269,-1.8269 l -1.8269,1.8269 l 1.8269,1.8269 l -1.8269,1.8269 l -1.8269,-1.8269 l -1.8269,1.8269 l 1.8269,1.8269 l 1.8269,-1.8269 l 1.8269,1.8269 l -1.8269,1.8269 l 1.8269,1.8269 l -1.8269,1.8269 l -1.8269,-1.8269 l -1.8269,1.8269 l 1.8269,1.8269 l 1.8269,-1.8269 l 1.8269,1.8269 l 1.8269,-1.8269 l -1.8269,-1.8269 l 1.8269,-1.8269 l 1.8269,1.8269 l -1.8269,1.8269 l 1.8269,1.8269 l 1.8269,-1.8269 l 1.8269,1.8269 l -1.8269,1.8269 l 1.8269,1.8269 l -1.8269,1.8269 l -1.8269,-1.8269 l 1.8269,-1.8269 l -1.8269,-1.8269 l -1.8269,1.8269 l -1.8269,-1.8269 l -1.8269,1.8269 l 1.8269,1.8269 l -1.8269,1.8269 l -1.8269,-1.8269 l -1.8269,1.8269 l 1.8269,1.8269 l 1.8269,-1.8269 l 1.8269,1.8269 l -1.8269,1.8269 l 1.8269,1.8269 l -1.8269,1.8269 l -1.8269,-1.8269 l 1.8269,-1.8269 l -1.8269,-1.8269 l -1.8269,1.8269 l -1.8269,-1.8269 l -1.8269,1.8269 l 1.8269,1.8269 l -1.8269,1.8269 l -1.8269,-1.8269 l 1.8269,-1.8269 l -1.8269,-1.8269 l -1.8269,1.8269 l -1.8269,-1.8269 l 1.8269,-1.8269 l -1.8269,-1.8269 l 1.8269,-1.8269 l 1.8269,1.8269 l 1.8269,-1.8269 l -1.8269,-1.8269 l -1.8269,1.8269 l -1.8269,-1.8269 l -1.8269,1.8269 l 1.8269,1.8269 l -1.8269,1.8269 l -1.8269,-1.8269 l -1.8269,1.8269 l 1.8269,1.8269 l 1.8269,-1.8269 l 1.8269,1.8269 l -1.8269,1.8269 l 1.8269,1.8269 l -1.8269,1.8269 l -1.8269,-1.8269 l -1.8269,1.8269 l 1.8269,1.8269 l 1.8269,-1.8269 l 1.8269,1.8269 l 1.8269,-1.8269 l -1.8269,-1.8269 l 1.8269,-1.8269 l 1.8269,1.8269 l -1.8269,1.8269 l 1.8269,1.8269 l 1.8269,-1.8269 l 1.8269,1.8269 l -1.8269,1.8269 l 1.8269,1.8269 l -1.8269,1.8269 l -1.8269,-1.8269 l -1.8269,1.8269 l 1.8269,1.8269 l 1.8269,-1.8269 l 1.8269,1.8269 l 1.8269,-1.8269 l -1.8269,-1.8269 l 1.8269,-1.8269 l 1.8269,1.8269 l 1.8269,-1.8269 l -1.8269,-1.8269 l -1.8269,1.8269 l -1.8269,-1.8269 l 1.8269,-1.8269 l -1.8269,-1.8269 l 1.8269,-1.8269 l 1.8269,1.8269 l -1.8269,1.8269 l 1.8269,1.8269 l 1.8269,-1.8269 l 1.8269,1.8269 l 1.8269,-1.8269 l -1.8269,-1.8269 l 1.8269,-1.8269 l 1.8269,1.8269 l -1.8269,1.8269 l 1.8269,1.8269 l 1.8269,-1.8269 l 1.8269,1.8269 l -1.8269,1.8269 l 1.8269,1.8269 l -1.8269,1.8269 l -1.8269,-1.8269 l -1.8269,1.8269 l 1.8269,1.8269 l 1.8269,-1.8269 l 1.8269,1.8269 l 1.8269,-1.8269 l -1.8269,-1.8269 l 1.8269,-1.8269 l 1.8269,1.8269 l 1.8269,-1.8269 l -1.8269,-1.8269 l -1.8269,1.8269 l -1.8269,-1.8269 l 1.8269,-1.8269 l -1.8269,-1.8269 l 1.8269,-1.8269 l 1.8269,1.8269 l 1.8269,-1.8269 l -1.8269,-1.8269 l -1.8269,1.8269 l -1.8269,-1.8269 l -1.8269,1.8269 l 1.8269,1.8269 l -1.8269,1.8269 l -1.8269,-1.8269 l 1.8269,-1.8269 l -1.8269,-1.8269 l -1.8269,1.8269 l -1.8269,-1.8269 l 1.8269,-1.8269 l -1.8269,-1.8269 l 1.8269,-1.8269 l 1.8269,1.8269 l -1.8269,1.8269 l 1.8269,1.8269 l 1.8269,-1.8269 l 1.8269,1.8269 l 1.8269,-1.8269 l -1.8269,-1.8269 l 1.8269,-1.8269 l 1.8269,1.8269 l 1.8269,-1.8269 l -1.8269,-1.8269 l -1.8269,1.8269 l -1.8269,-1.8269 l 1.8269,-1.8269 l -1.8269,-1.8269 l 1.8269,-1.8269 l 1.8269,1.8269 l -1.8269,1.8269 l 1.8269,1.8269 l 1.8269,-1.8269 l 1.8269,1.8269 l 1.8269,-1.8269 l -1.8269,-1.8269 l 1.8269,-1.8269 l 1.8269,1.8269 l -1.8269,1.8269 l 1.8269,1.8269 l 1.8269,-1.8269 l 1.8269,1.8269 l -1.8269,1.8269 l 1.8269,1.8269 l -1.8269,1.8269 l -1.8269,-1.8269 l -1.8269,1.8269 l 1.8269,1.8269 l 1.8269,-1.8269 l 1.8269,1.8269 l 1.8269,-1.8269 l -1.8269,-1.8269 l 1.8269,-1.8269 l 1.8269,1.8269 l 1.8269,-1.8269 l -1.8269,-1.8269 l -1.8269,1.8269 l -1.8269,-1.8269 l 1.8269,-1.8269 l -1.8269,-1.8269 l 1.8269,-1.8269 l 1.8269,1.8269 l 1.8269,-1.8269 l -1.8269,-1.8269 l -1.8269,1.8269 l -1.8269,-1.8269 l -1.8269,1.8269 l 1.8269,1.8269 l -1.8269,1.8269 l -1.8269,-1.8269 l 1.8269,-1.8269 l -1.8269,-1.8269 l -1.8269,1.8269 l -1.8269,-1.8269 l 1.8269,-1.8269 l -1.8269,-1.8269 l 1.8269,-1.8269 l 1.8269,1.8269 l 1.8269,-1.8269 l -1.8269,-1.8269 l -1.8269,1.8269 l -1.8269,-1.8269 l -1.8269,1.8269 l 1.8269,1.8269 l -1.8269,1.8269 l -1.8269,-1.8269 l -1.8269,1.8269 l 1.8269,1.8269 l 1.8269,-1.8269 l 1.8269,1.8269 l -1.8269,1.8269 l 1.8269,1.8269 l -1.8269,1.8269 l -1.8269,-1.8269 l 1.8269,-1.8269 l -1.8269,-1.8269 l -1.8269,1.8269 l -1.8269,-1.8269 l -1.8269,1.8269 l 1.8269,1.8269 l -1.8269,1.8269 l -1.8269,-1.8269 l 1.8269,-1.8269 l -1.8269,-1.8269 l -1.8269,1.8269 l -1.8269,-1.8269 l 1.8269,-1.8269 l -1.8269,-1.8269 l 1.8269,-1.8269 l 1.8269,1.8269 l -1.8269,1.8269 l 1.8269,1.8269 l 1.8269,-1.8269 l 1.8269,1.8269 l 1.8269,-1.8269 l -1.8269,-1.8269 l 1.8269,-1.8269 l 1.8269,1.8269 l 1.8269,-1.8269 l -1.8269,-1.8269 l -1.8269,1.8269 l -1.8269,-1.8269 l 1.8269,-1.8269 l -1.8269,-1.8269 l 1.8269,-1.8269 l 1.8269,1.8269 l 1.8269,-1.8269 l -1.8269,-1.8269 l -1.8269,1.8269 l -1.8269,-1.8269 l -1.8269,1.8269 l 1.8269,1.8269 l -1.8269,1.8269 l -1.8269,-1.8269 l 1.8269,-1.8269 l -1.8269,-1.8269 l -1.8269,1.8269 l -1.8269,-1.8269 l 1.8269,-1.8269 l -1.8269,-1.8269 l 1.8269,-1.8269 l 1.8269,1.8269 l -1.8269,1.8269 l 1.8269,1.8269 l 1.8269,-1.8269 l 1.8269,1.8269 l 1.8269,-1.8269 l -1.8269,-1.8269 l 1.8269,-1.8269 l 1.8269,1.8269 l 1.8269,-1.8269 l -1.8269,-1.8269 l -1.8269,1.8269 l -1.8269,-1.8269 l 1.8269,-1.8269 l -1.8269,-1.8269 l 1.8269,-1.8269 l 1.8269,1.8269 l -1.8269,1.8269 l 1.8269,1.8269 l 1.8269,-1.8269 l 1.8269,1.8269 l 1.8269,-1.8269 l -1.8269,-1.8269 l 1.8269,-1.8269 l 1.8269,1.8269 l -1.8269,1.8269 l 1.8269,1.8269 l 1.8269,-1.8269 l 1.8269,1.8269 l -1.8269,1.8269 l 1.8269,1.8269 l -1.8269,1.8269 l -1.8269,-1.8269 l -1.8269,1.8269 l 1.8269,1.8269 l 1.8269,-1.8269 l 1.8269,1.8269 l 1.8269,-1.8269 l -1.8269,-1.8269 l 1.8269,-1.8269 l 1.8269,1.8269 l 1.8269,-1.8269 l -1.8269,-1.8269 l -1.8269,1.8269 l -1.8269,-1.8269 l 1.8269,-1.8269 l -1.8269,-1.8269 l 1.8269,-1.8269 l 1.8269,1.8269 l 1.8269,-1.8269 l -1.8269,-1.8269 l -1.8269,1.8269 l -1.8269,-1.8269 l -1.8269,1.8269 l 1.8269,1.8269 l -1.8269,1.8269 l -1.8269,-1.8269 l 1.8269,-1.8269 l -1.8269,-1.8269 l -1.8269,1.8269 l -1.8269,-1.8269 l 1.8269,-1.8269 l -1.8269,-1.8269 l 1.8269,-1.8269 l 1.8269,1.8269 l 1.8269,-1.8269 l -1.8269,-1.8269 l -1.8269,1.8269 l -1.8269,-1.8269 l -1.8269,1.8269 l 1.8269,1.8269 l -1.8269,1.8269 l -1.8269,-1.8269 l -1.8269,1.8269 l 1.8269,1.8269 l 1.8269,-1.8269 l 1.8269,1.8269 l -1.8269,1.8269 l 1.8269,1.8269 l -1.8269,1.8269 l -1.8269,-1.8269 l 1.8269,-1.8269 l -1.8269,-1.8269 l -1.8269,1.8269 l -1.8269,-1.8269 l -1.8269,1.8269 l 1.8269,1.8269 l -1.8269,1.8269 l -1.8269,-1.8269 l 1.8269,-1.8269 l -1.8269,-1.8269 l -1.8269,1.8269 l -1.8269,-1.8269 l 1.8269,-1.8269 l -1.8269,-1.8269 l 1.8269,-1.8269 l 1.8269,1.8269 l 1.8269,-1.8269 l -1.8269,-1.8269 l -1.8269,1.8269 l -1.8269,-1.8269 l -1.8269,1.8269 l 1.8269,1.8269 l -1.8269,1.8269 l -1.8269,-1.8269 l -1.8269,1.8269 l 1.8269,1.8269 l 1.8269,-1.8269 l 1.8269,1.8269 l -1.8269,1.8269 l 1.8269,1.8269 l -1.8269,1.8269 l -1.8269,-1.8269 l -1.8269,1.8269 l 1.8269,1.8269 l 1.8269,-1.8269 l 1.8269,1.8269 l 1.8269,-1.8269 l -1.8269,-1.8269 l 1.8269,-1.8269 l 1.8269,1.8269 l -1.8269,1.8269 l 1.8269,1.8269 l 1.8269,-1.8269 l 1.8269,1.8269 l -1.8269,1.8269 l 1.8269,1.8269 l -1.8269,1.8269 l -1.8269,-1.8269 l 1.8269,-1.8269 l -1.8269,-1.8269 l -1.8269,1.8269 l -1.8269,-1.8269 l -1.8269,1.8269 l 1.8269,1.8269 l -1.8269,1.8269 l -1.8269,-1.8269 l -1.8269,1.8269 l 1.8269,1.8269 l 1.8269,-1.8269 l 1.8269,1.8269 l -1.8269,1.8269 l 1.8269,1.8269 l -1.8269,1.8269 l -1.8269,-1.8269 l 1.8269,-1.8269 l -1.8269,-1.8269 l -1.8269,1.8269 l -1.8269,-1.8269 l -1.8269,1.8269 l 1.8269,1.8269 l -1.8269,1.8269 l -1.8269,-1.8269 l 1.8269,-1.8269 l -1.8269,-1.8269 l -1.8269,1.8269 l -1.8269,-1.8269 l 1.8269,-1.8269 l -1.8269,-1.8269 l 1.8269,-1.8269 l 1.8269,1.8269 l -1.8269,1.8269 l 1.8269,1.8269 l 1.8269,-1.8269 l 1.8269,1.8269 l 1.8269,-1.8269 l -1.8269,-1.8269 l 1.8269,-1.8269 l 1.8269,1.8269 l 1.8269,-1.8269 l -1.8269,-1.8269 l -1.8269,1.8269 l -1.8269,-1.8269 l 1.8269,-1.8269 l -1.8269,-1.8269 l 1.8269,-1.8269 l 1.8269,1.8269 l 1.8269,-1.8269 l -1.8269,-1.8269 l -1.8269,1.8269 l -1.8269,-1.8269 l -1.8269,1.8269 l 1.8269,1.8269 l -1.8269,1.8269 l -1.8269,-1.8269 l 1.8269,-1.8269 l -1.8269,-1.8269 l -1.8269,1.8269 l -1.8269,-1.8269 l 1.8269,-1.8269 l -1.8269,-1.8269 l 1.8269,-1.8269 l 1.8269,1.8269 l 1.8269,-1.8269 l -1.8269,-1.8269 l -1.8269,1.8269 l -1.8269,-1.8269 l -1.8269,1.8269 l 1.8269,1.8269 l -1.8269,1.8269 l -1.8269,-1.8269 l -1.8269,1.8269 l 1.8269,1.8269 l 1.8269,-1.8269 l 1.8269,1.8269 l -1.8269,1.8269 l 1.8269,1.8269 l -1.8269,1.8269 l -1.8269,-1.8269 l 1.8269,-1.8269 l -1.8269,-1.8269 l -1.8269,1.8269 l -1.8269,-1.8269 l -1.8269,1.8269 l 1.8269,1.8269 l -1.8269,1.8269 l -1.8269,-1.8269 l 1.8269,-1.8269 l -1.8269,-1.8269 l -1.8269,1.8269 l -1.8269,-1.8269 l 1.8269,-1.8269 l -1.8269,-1.8269 l 1.8269,-1.8269 l 1.8269,1.8269 l -1.8269,1.8269 l 1.8269,1.8269 l 1.8269,-1.8269 l 1.8269,1.8269 l 1.8269,-1.8269 l -1.8269,-1.8269 l 1.8269,-1.8269 l 1.8269,1.8269 l 1.8269,-1.8269 l -1.8269,-1.8269 l -1.8269,1.8269 l -1.8269,-1.8269 l 1.8269,-1.8269 l -1.8269,-1.8269 l 1.8269,-1.8269 l 1.8269,1.8269 l 1.8269,-1.8269 l -1.8269,-1.8269 l -1.8269,1.8269 l -1.8269,-1.8269 l -1.8269,1.8269 l 1.8269,1.8269 l -1.8269,1.8269 l -1.8269,-1.8269 l 1.8269,-1.8269 l -1.8269,-1.8269 l -1.8269,1.8269 l -1.8269,-1.8269 l 1.8269,-1.8269 l -1.8269,-1.8269 l 1.8269,-1.8269 l 1.8269,1.8269 l -1.8269,1.8269 l 1.8269,1.8269 l 1.8269,-1.8269 l 1.8269,1.8269 l 1.8269,-1.8269 l -1.8269,-1.8269 l 1.8269,-1.8269 l 1.8269,1.8269 l 1.8269,-1.8269 l -1.8269,-1.8269 l -1.8269,1.8269 l -1.8269,-1.8269 l 1.8269,-1.8269 l -1.8269,-1.8269 l 1.8269,-1.8269 l 1.8269,1.8269 l -1.8269,1.8269 l 1.8269,1.8269 l 1.8269,-1.8269 l 1.8269,1.8269 l 1.8269,-1.8269 l -1.8269,-1.8269 l 1.8269,-1.8269 l 1.8269,1.8269 l -1.8269,1.8269 l 1.8269,1.8269 l 1.8269,-1.8269 l 1.8269,1.8269 l -1.8269,1.8269 l 1.8269,1.8269 l -1.8269,1.8269 l -1.8269,-1.8269 l 1.8269,-1.8269 l -1.8269,-1.8269 l -1.8269,1.8269 l -1.8269,-1.8269 l -1.8269,1.8269 l 1.8269,1.8269 l -1.8269,1.8269 l -1.8269,-1.8269 l -1.8269,1.8269 l 1.8269,1.8269 l 1.8269,-1.8269 l 1.8269,1.8269 l -1.8269,1.8269 l 1.8269,1.8269 l -1.8269,1.8269 l -1.8269,-1.8269 l -1.8269,1.8269 l 1.8269,1.8269 l 1.8269,-1.8269 l 1.8269,1.8269 l 1.8269,-1.8269 l -1.8269,-1.8269 l 1.8269,-1.8269 l 1.8269,1.8269 l -1.8269,1.8269 l 1.8269,1.8269 l 1.8269,-1.8269 l 1.8269,1.8269 l -1.8269,1.8269 l 1.8269,1.8269 l -1.8269,1.8269 l -1.8269,-1.8269 l -1.8269,1.8269 l 1.8269,1.8269 l 1.8269,-1.8269 l 1.8269,1.8269 l 1.8269,-1.8269 l -1.8269,-1.8269 l 1.8269,-1.8269 l 1.8269,1.8269 l 1.8269,-1.8269 l -1.8269,-1.8269 l -1.8269,1.8269 l -1.8269,-1.8269 l 1.8269,-1.8269 l -1.8269,-1.8269 l 1.8269,-1.8269 l 1.8269,1.8269 l -1.8269,1.8269 l 1.8269,1.8269 l 1.8269,-1.8269 l 1.8269,1.8269 l 1.8269,-1.8269 l -1.8269,-1.8269 l 1.8269,-1.8269 l 1.8269,1.8269 l -1.8269,1.8269 l 1.8269,1.8269 l 1.8269,-1.8269 l 1.8269,1.8269 l -1.8269,1.8269 l 1.8269,1.8269 l -1.8269,1.8269 l -1.8269,-1.8269 l -1.8269,1.8269 l 1.8269,1.8269 l 1.8269,-1.8269 l 1.8269,1.8269 l 1.8269,-1.8269 l -1.8269,-1.8269 l 1.8269,-1.8269 l 1.8269,1.8269 l 1.8269,-1.8269 l -1.8269,-1.8269 l -1.8269,1.8269 l -1.8269,-1.8269 l 1.8269,-1.8269 l -1.8269,-1.8269 l 1.8269,-1.8269 l 1.8269,1.8269 l 1.8269,-1.8269 l -1.8269,-1.8269 l -1.8269,1.8269 l -1.8269,-1.8269 l -1.8269,1.8269 l 1.8269,1.8269 l -1.8269,1.8269 l -1.8269,-1.8269 l 1.8269,-1.8269 l -1.8269,-1.8269 l -1.8269,1.8269 l -1.8269,-1.8269 l 1.8269,-1.8269 l -1.8269,-1.8269 l 1.8269,-1.8269 l 1.8269,1.8269 l -1.8269,1.8269 l 1.8269,1.8269 l 1.8269,-1.8269 l 1.8269,1.8269 l 1.8269,-1.8269 l -1.8269,-1.8269 l 1.8269,-1.8269 l 1.8269,1.8269 l 1.8269,-1.8269 l -1.8269,-1.8269 l -1.8269,1.8269 l -1.8269,-1.8269 l 1.8269,-1.8269 l -1.8269,-1.8269 l 1.8269,-1.8269 l 1.8269,1.8269 l -1.8269,1.8269 l 1.8269,1.8269 l 1.8269,-1.8269 l 1.8269,1.8269 l 1.8269,-1.8269 l -1.8269,-1.8269 l 1.8269,-1.8269 l 1.8269,1.8269 l -1.8269,1.8269 l 1.8269,1.8269 l 1.8269,-1.8269 l 1.8269,1.8269 l -1.8269,1.8269 l 1.8269,1.8269 l -1.8269,1.8269 l -1.8269,-1.8269 l -1.8269,1.8269 l 1.8269,1.8269 l 1.8269,-1.8269 l 1.8269,1.8269 l 1.8269,-1.8269 l -1.8269,-1.8269 l 1.8269,-1.8269 l 1.8269,1.8269 l 1.8269,-1.8269 l -1.8269,-1.8269 l -1.8269,1.8269 l -1.8269,-1.8269 l 1.8269,-1.8269 l -1.8269,-1.8269 l 1.8269,-1.8269 l 1.8269,1.8269 l 1.8269,-1.8269 l -1.8269,-1.8269 l -1.8269,1.8269 l -1.8269,-1.8269 l -1.8269,1.8269 l 1.8269,1.8269 l -1.8269,1.8269 l -1.8269,-1.8269 l 1.8269,-1.8269 l -1.8269,-1.8269 l -1.8269,1.8269 l -1.8269,-1.8269 l 1.8269,-1.8269 l -1.8269,-1.8269 l 1.8269,-1.8269 l 1.8269,1.8269 l 1.8269,-1.8269 l -1.8269,-1.8269 l -1.8269,1.8269 l -1.8269,-1.8269 l -1.8269,1.8269 l 1.8269,1.8269 l -1.8269,1.8269 l -1.8269,-1.8269 l -1.8269,1.8269 l 1.8269,1.8269 l 1.8269,-1.8269 l 1.8269,1.8269 l -1.8269,1.8269 l 1.8269,1.8269 l -1.8269,1.8269 l -1.8269,-1.8269 l 1.8269,-1.8269 l -1.8269,-1.8269 l -1.8269,1.8269 l -1.8269,-1.8269 l -1.8269,1.8269 l 1.8269,1.8269 l -1.8269,1.8269 l -1.8269,-1.8269 l 1.8269,-1.8269 l -1.8269,-1.8269 l -1.8269,1.8269 l -1.8269,-1.8269 l 1.8269,-1.8269 l -1.8269,-1.8269 l 1.8269,-1.8269 l 1.8269,1.8269 l -1.8269,1.8269 l 1.8269,1.8269 l 1.8269,-1.8269 l 1.8269,1.8269 l 1.8269,-1.8269 l -1.8269,-1.8269 l 1.8269,-1.8269 l 1.8269,1.8269 l 1.8269,-1.8269 l -1.8269,-1.8269 l -1.8269,1.8269 l -1.8269,-1.8269 l 1.8269,-1.8269 l -1.8269,-1.8269 l 1.8269,-1.8269 l 1.8269,1.8269 l 1.8269,-1.8269 l -1.8269,-1.8269 l -1.8269,1.8269 l -1.8269,-1.8269 l -1.8269,1.8269 l 1.8269,1.8269 l -1.8269,1.8269 l -1.8269,-1.8269 l 1.8269,-1.8269 l -1.8269,-1.8269 l -1.8269,1.8269 l -1.8269,-1.8269 l 1.8269,-1.8269 l -1.8269,-1.8269 l 1.8269,-1.8269 l 1.8269,1.8269 l -1.8269,1.8269 l 1.8269,1.8269 l 1.8269,-1.8269 l 1.8269,1.8269 l 1.8269,-1.8269 l -1.8269,-1.8269 l 1.8269,-1.8269 l 1.8269,1.8269 l 1.8269,-1.8269 l -1.8269,-1.8269 l -1.8269,1.8269 l -1.8269,-1.8269 l 1.8269,-1.8269 l -1.8269,-1.8269 l 1.8269,-1.8269 l 1.8269,1.8269 l -1.8269,1.8269 l 1.8269,1.8269 l 1.8269,-1.8269 l 1.8269,1.8269 l 1.8269,-1.8269 l -1.8269,-1.8269 l 1.8269,-1.8269 l 1.8269,1.8269 l -1.8269,1.8269 l 1.8269,1.8269 l 1.8269,-1.8269 l 1.8269,1.8269 l -1.8269,1.8269 l 1.8269,1.8269 l -1.8269,1.8269 l -1.8269,-1.8269 l 1.8269,-1.8269 l -1.8269,-1.8269 l -1.8269,1.8269 l -1.8269,-1.8269 l -1.8269,1.8269 l 1.8269,1.8269 l -1.8269,1.8269 l -1.8269,-1.8269 l -1.8269,1.8269 l 1.8269,1.8269 l 1.8269,-1.8269 l 1.8269,1.8269 l -1.8269,1.8269 l 1.8269,1.8269 l -1.8269,1.8269 l -1.8269,-1.8269 l -1.8269,1.8269 l 1.8269,1.8269 l 1.8269,-1.8269 l 1.8269,1.8269 l 1.8269,-1.8269 l -1.8269,-1.8269 l 1.8269,-1.8269 l 1.8269,1.8269 l -1.8269,1.8269 l 1.8269,1.8269 l 1.8269,-1.8269 l 1.8269,1.8269 l -1.8269,1.8269 l 1.8269,1.8269 l -1.8269,1.8269 l -1.8269,-1.8269 l -1.8269,1.8269 l 1.8269,1.8269 l 1.8269,-1.8269 l 1.8269,1.8269 l 1.8269,-1.8269 l -1.8269,-1.8269 l 1.8269,-1.8269 l 1.8269,1.8269 l 1.8269,-1.8269 l -1.8269,-1.8269 l -1.8269,1.8269 l -1.8269,-1.8269 l 1.8269,-1.8269 l -1.8269,-1.8269 l 1.8269,-1.8269 l 1.8269,1.8269 l -1.8269,1.8269 l 1.8269,1.8269 l 1.8269,-1.8269 l 1.8269,1.8269 l 1.8269,-1.8269 l -1.8269,-1.8269 l 1.8269,-1.8269 l 1.8269,1.8269 l -1.8269,1.8269 l 1.8269,1.8269 l 1.8269,-1.8269 l 1.8269,1.8269 l -1.8269,1.8269 l 1.8269,1.8269 l -1.8269,1.8269 l -1.8269,-1.8269 l -1.8269,1.8269 l 1.8269,1.8269 l 1.8269,-1.8269 l 1.8269,1.8269 l 1.8269,-1.8269 l -1.8269,-1.8269 l 1.8269,-1.8269 l 1.8269,1.8269 l 1.8269,-1.8269 l -1.8269,-1.8269 l -1.8269,1.8269 l -1.8269,-1.8269 l 1.8269,-1.8269 l -1.8269,-1.8269 l 1.8269,-1.8269 l 1.8269,1.8269 l 1.8269,-1.8269 l -1.8269,-1.8269 l -1.8269,1.8269 l -1.8269,-1.8269 l -1.8269,1.8269 l 1.8269,1.8269 l -1.8269,1.8269 l -1.8269,-1.8269 l 1.8269,-1.8269 l -1.8269,-1.8269 l -1.8269,1.8269 l -1.8269,-1.8269 l 1.8269,-1.8269 l -1.8269,-1.8269 l 1.8269,-1.8269 l 1.8269,1.8269 l -1.8269,1.8269 l 1.8269,1.8269 l 1.8269,-1.8269 l 1.8269,1.8269 l 1.8269,-1.8269 l -1.8269,-1.8269 l 1.8269,-1.8269 l 1.8269,1.8269 l 1.8269,-1.8269 l -1.8269,-1.8269 l -1.8269,1.8269 l -1.8269,-1.8269 l 1.8269,-1.8269 l -1.8269,-1.8269 l 1.8269,-1.8269 l 1.8269,1.8269 l -1.8269,1.8269 l 1.8269,1.8269 l 1.8269,-1.8269 l 1.8269,1.8269 l 1.8269,-1.8269 l -1.8269,-1.8269 l 1.8269,-1.8269 l 1.8269,1.8269 l -1.8269,1.8269 l 1.8269,1.8269 l 1.8269,-1.8269 l 1.8269,1.8269 l -1.8269,1.8269 l 1.8269,1.8269 l -1.8269,1.8269 l -1.8269,-1.8269 l 1.8269,-1.8269 l -1.8269,-1.8269 l -1.8269,1.8269 l -1.8269,-1.8269 l -1.8269,1.8269 l 1.8269,1.8269 l -1.8269,1.8269 l -1.8269,-1.8269 l -1.8269,1.8269 l 1.8269,1.8269 l 1.8269,-1.8269 l 1.8269,1.8269 l -1.8269,1.8269 l 1.8269,1.8269 l -1.8269,1.8269 l -1.8269,-1.8269 l -1.8269,1.8269 l 1.8269,1.8269 l 1.8269,-1.8269 l 1.8269,1.8269 l 1.8269,-1.8269 l -1.8269,-1.8269 l 1.8269,-1.8269 l 1.8269,1.8269 l -1.8269,1.8269 l 1.8269,1.8269 l 1.8269,-1.8269 l 1.8269,1.8269 l -1.8269,1.8269 l 1.8269,1.8269 l -1.8269,1.8269 l -1.8269,-1.8269 l -1.8269,1.8269 l 1.8269,1.8269 l 1.8269,-1.8269 l 1.8269,1.8269 l 1.8269,-1.8269 l -1.8269,-1.8269 l 1.8269,-1.8269 l 1.8269,1.8269 l 1.8269,-1.8269 l -1.8269,-1.8269 l -1.8269,1.8269 l -1.8269,-1.8269 l 1.8269,-1.8269 l -1.8269,-1.8269 l 1.8269,-1.8269 l 1.8269,1.8269 l -1.8269,1.8269 l 1.8269,1.8269 l 1.8269,-1.8269 l 1.8269,1.8269 l 1.8269,-1.8269 l -1.8269,-1.8269 l 1.8269,-1.8269 l 1.8269,1.8269 l -1.8269,1.8269 l 1.8269,1.8269 l 1.8269,-1.8269 l 1.8269,1.8269 l -1.8269,1.8269 l 1.8269,1.8269 l -1.8269,1.8269 l -1.8269,-1.8269 l 1.8269,-1.8269 l -1.8269,-1.8269 l -1.8269,1.8269 l -1.8269,-1.8269 l -1.8269,1.8269 l 1.8269,1.8269 l -1.8269,1.8269 l -1.8269,-1.8269 l -1.8269,1.8269 l 1.8269,1.8269 l 1.8269,-1.8269 l 1.8269,1.8269 l -1.8269,1.8269 l 1.8269,1.8269 l -1.8269,1.8269 l -1.8269,-1.8269 l -1.8269,1.8269 l 1.8269,1.8269 l 1.8269,-1.8269 l 1.8269,1.8269 l 1.8269,-1.8269 l -1.8269,-1.8269 l 1.8269,-1.8269 l 1.8269,1.8269 l -1.8269,1.8269 l 1.8269,1.8269 l 1.8269,-1.8269 l 1.8269,1.8269 l -1.8269,1.8269 l 1.8269,1.8269 l -1.8269,1.8269 l -1.8269,-1.8269 l 1.8269,-1.8269 l -1.8269,-1.8269 l -1.8269,1.8269 l -1.8269,-1.8269 l -1.8269,1.8269 l 1.8269,1.8269 l -1.8269,1.8269 l -1.8269,-1.8269 l -1.8269,1.8269 l 1.8269,1.8269 l 1.8269,-1.8269 l 1.8269,1.8269 l -1.8269,1.8269 l 1.8269,1.8269 l -1.8269,1.8269 l -1.8269,-1.8269 l 1.8269,-1.8269 l -1.8269,-1.8269 l -1.8269,1.8269 l -1.8269,-1.8269 l -1.8269,1.8269 l 1.8269,1.8269 l -1.8269,1.8269 l -1.8269,-1.8269 l 1.8269,-1.8269 l -1.8269,-1.8269 l -1.8269,1.8269 l -1.8269,-1.8269 l 1.8269,-1.8269 l -1.8269,-1.8269 l 1.8269,-1.8269 l 1.8269,1.8269 "/></g><g stroke-linejoin="miter" stroke-opacity="1.0" fill-opacity="0.0" stroke="rgb(0,0,0)" stroke-width="0.5" fill="rgb(0,0,0)" stroke-linecap="butt" stroke-miterlimit="10.0"><path d="M 438.3791,300.8485 l 7.5324,-0.0000 l -0.0000,-7.5324 l -7.5324,0.0000 l -0.0000,-7.5324 l -7.5324,0.0000 l 0.0000,7.5324 l -7.5324,0.0000 l -0.0000,-7.5324 l -7.5324,0.0000 v 7.5324 l 7.5324,0.0000 v 7.5324 l -7.5324,0.0000 l -0.0000,7.5324 l -7.5324,0.0000 l -0.0000,-7.5324 l -7.5324,0.0000 l 0.0000,7.5324 l 7.5324,0.0000 l 0.0000,7.5324 l 7.5324,0.0000 l 0.0000,-7.5324 l 7.5324,0.0000 l 0.0000,7.5324 l -7.5324,0.0000 l 0.0000,7.5324 l 7.5324,0.0000 l 0.0000,7.5324 l -7.5324,0.0000 l 0.0000,7.5324 l -7.5324,0.0000 l -0.0000,-7.5324 l -7.5324,0.0000 l -0.0000,7.5324 l 7.5324,0.0000 l -0.0000,7.5324 l 7.5324,0.0000 l 0.0000,-7.5324 l 7.5324,0.0000 l -0.0000,7.5324 l 7.5324,0.0000 l 0.0000,-7.5324 l -7.5324,-0.0000 l 0.0000,-7.5324 l 7.5324,0.0000 l 0.0000,-7.5324 l 7.5324,0.0000 l -0.0000,7.5324 l -7.5324,0.0000 l 0.0000,7.5324 l 7.5324,0.0000 l 0.0000,7.5324 l 7.5324,0.0000 l 0.0000,-7.5324 l 7.5324,0.0000 l 0.0000,7.5324 l -7.5324,0.0000 l 0.0000,7.5324 l 7.5324,0.0000 l 0.0000,7.5324 l -7.5324,0.0000 l 0.0000,7.5324 l -7.5324,0.0000 l -0.0000,-7.5324 l -7.5324,0.0000 l -0.0000,7.5324 l 7.5324,0.0000 l -0.0000,7.5324 l 7.5324,0.0000 l 0.0000,-7.5324 l 7.5324,0.0000 l -0.0000,7.5324 l 7.5324,0.0000 l 0.0000,-7.5324 l -7.5324,-0.0000 l 0.0000,-7.5324 l 7.5324,0.0000 l 0.0000,-7.5324 l 7.5324,0.0000 l -0.0000,7.5324 l 7.5324,0.0000 l 0.0000,-7.5324 l -7.5324,-0.0000 l 0.0000,-7.5324 l -7.5324,-0.0000 l -0.0000,7.5324 l -7.5324,-0.0000 l 0.0000,-7.5324 l 7.5324,0.0000 l 0.0000,-7.5324 l -7.5324,-0.0000 l 0.0000,-7.5324 l 7.5324,0.0000 l 0.0000,-7.5324 l 7.5324,0.0000 l -0.0000,7.5324 l -7.5324,0.0000 l -0.0000,7.5324 l 7.5324,0.0000 l -0.0000,7.5324 l 7.5324,0.0000 l 0.0000,-7.5324 l 7.5324,0.0000 l -0.0000,7.5324 l 7.5324,0.0000 l 0.0000,-7.5324 l -7.5324,-0.0000 l 0.0000,-7.5324 l 7.5324,0.0000 l 0.0000,-7.5324 l 7.5324,0.0000 l -0.0000,7.5324 l -7.5324,0.0000 l -0.0000,7.5324 l 7.5324,0.0000 l -0.0000,7.5324 l 7.5324,0.0000 l 0.0000,-7.5324 l 7.5324,0.0000 l -0.0000,7.5324 l -7.5324,0.0000 l 0.0000,7.5324 l 7.5324,0.0000 l 0.0000,7.5324 l -7.5324,0.0000 l -0.0000,7.5324 l -7.5324,0.0000 l -0.0000,-7.5324 l -7.5324,0.0000 l -0.0000,7.5324 l 7.5324,0.0000 l -0.0000,7.5324 l 7.5324,0.0000 l 0.0000,-7.5324 l 7.5324,0.0000 l -0.0000,7.5324 l 7.5324,0.0000 l 0.0000,-7.5324 l -7.5324,-0.0000 l 0.0000,-7.5324 l 7.5324,0.0000 l 0.0000,-7.5324 l 7.5324,0.0000 v 7.5324 l 7.5324,0.0000 l 0.0000,-7.5324 l -7.5324,-0.0000 l 0.0000,-7.5324 l -7.5324,-0.0000 l -0.0000,7.5324 l -7.5324,-0.0000 l 0.0000,-7.5324 l 7.5324,0.0000 l 0.0000,-7.5324 l -7.5324,-0.0000 l 0.0000,-7.5324 l 7.5324,0.0000 l 0.0000,-7.5324 l 7.5324,0.0000 l -0.0000,7.5324 l 7.5324,0.0000 l 0.0000,-7.5324 l -7.5324,-0.0000 l 0.0000,-7.5324 l -7.5324,-0.0000 l -0.0000,7.5324 l -7.5324,-0.0000 l 0.0000,-7.5324 l -7.5324,-0.0000 l -0.0000,7.5324 l 7.5324,0.0000 l -0.0000,7.5324 l -7.5324,-0.0000 l -0.0000,7.5324 l -7.5324,-0.0000 l 0.0000,-7.5324 l 7.5324,0.0000 l 0.0000,-7.5324 l -7.5324,-0.0000 l 0.0000,-7.5324 l -7.5324,-0.0000 l -0.0000,7.5324 l -7.5324,-0.0000 l 0.0000,-7.5324 l 7.5324,0.0000 l 0.0000,-7.5324 l -7.5324,-0.0000 l 0.0000,-7.5324 l 7.5324,0.0000 l 0.0000,-7.5324 l 7.5324,0.0000 l -0.0000,7.5324 l -7.5324,0.0000 l -0.0000,7.5324 l 7.5324,0.0000 l -0.0000,7.5324 l 7.5324,0.0000 l 0.0000,-7.5324 l 7.5324,0.0000 l -0.0000,7.5324 l 7.5324,0.0000 l 0.0000,-7.5324 l -7.5324,-0.0000 l 0.0000,-7.5324 l 7.5324,0.0000 l 0.0000,-7.5324 l 7.5324,0.0000 l -0.0000,7.5324 l 7.5324,0.0000 l 0.0000,-7.5324 l -7.5324,-0.0000 l 0.0000,-7.5324 l -7.5324,-0.0000 l -0.0000,7.5324 l -7.5324,-0.0000 l 0.0000,-7.5324 l 7.5324,0.0000 l 0.0000,-7.5324 l -7.5324,-0.0000 l 0.0000,-7.5324 l 7.5324,0.0000 l 0.0000,-7.5324 l 7.5324,0.0000 v 7.5324 l -7.5324,0.0000 l -0.0000,7.5324 l 7.5324,0.0000 l -0.0000,7.5324 l 7.5324,0.0000 l 0.0000,-7.5324 l 7.5324,0.0000 l -0.0000,7.5324 l 7.5324,0.0000 l 0.0000,-7.5324 l -7.5324,-0.0000 l 0.0000,-7.5324 l 7.5324,0.0000 l 0.0000,-7.5324 l 7.5324,0.0000 l -0.0000,7.5324 l -7.5324,0.0000 l -0.0000,7.5324 l 7.5324,0.0000 l -0.0000,7.5324 l 7.5324,0.0000 l 0.0000,-7.5324 l 7.5324,0.0000 l -0.0000,7.5324 l -7.5324,0.0000 l 0.0000,7.5324 l 7.5324,0.0000 l 0.0000,7.5324 l -7.5324,0.0000 l -0.0000,7.5324 l -7.5324,0.0000 l -0.0000,-7.5324 "/></g><g stroke-linejoin="miter" stroke-opacity="1.0" fill-opacity="0.0" stroke="rgb(0,0,0)" stroke-width="0.5" fill="rgb(0,0,0)" stroke-linecap="butt" stroke-miterlimit="10.0"><path d="M 260.9630,300.8485 l 7.6088,-7.6088 l -7.6088,-7.6088 l -7.6088,7.6088 l -7.6088,-7.6088 l -7.6088,7.6088 l 7.6088,7.6088 l -7.6088,7.6088 l -7.6088,-7.6088 l -7.6088,7.6088 l 7.6088,7.6088 l 7.6088,-7.6088 l 7.6088,7.6088 l -7.6088,7.6088 l 7.6088,7.6088 l -7.6088,7.6088 l -7.6088,-7.6088 l -7.6088,7.6088 l 7.6088,7.6088 l 7.6088,-7.6088 l 7.6088,7.6088 l 7.6088,-7.6088 l -7.6088,-7.6088 l 7.6088,-7.6088 l 7.6088,7.6088 l -7.6088,7.6088 l 7.6088,7.6088 l 7.6088,-7.6088 l 7.6088,7.6088 l -7.6088,7.6088 l 7.6088,7.6088 l -7.6088,7.6088 l -7.6088,-7.6088 l -7.6088,7.6088 l 7.6088,7.6088 l 7.6088,-7.6088 l 7.6088,7.6088 l 7.6088,-7.6088 l -7.6088,-7.6088 l 7.6088,-7.6088 l 7.6088,7.6088 l 7.6088,-7.6088 l -7.6088,-7.6088 l -7.6088,7.6088 l -7.6088,-7.6088 l 7.6088,-7.6088 l -7.6088,-7.6088 l 7.6088,-7.6088 l 7.6088,7.6088 l -7.6088,7.6088 l 7.6088,7.6088 l 7.6088,-7.6088 l 7.6088,7.6088 l 7.6088,-7.6088 l -7.6088,-7.6088 l 7.6088,-7.6088 l 7.6088,7.6088 l -7.6088,7.6088 l 7.6088,7.6088 l 7.6088,-7.6088 l 7.6088,7.6088 l -7.6088,7.6088 l 7.6088,7.6088 l -7.6088,7.6088 l -7.6088,-7.6088 l -7.6088,7.6088 l 7.6088,7.6088 l 7.6088,-7.6088 l 7.6088,7.6088 l 7.6088,-7.6088 l -7.6088,-7.6088 l 7.6088,-7.6088 l 7.6088,7.6088 l 7.6088,-7.6088 l -7.6088,-7.6088 l -7.6088,7.6088 l -7.6088,-7.6088 l 7.6088,-7.6088 l -7.6088,-7.6088 l 7.6088,-7.6088 l 7.6088,7.6088 l 7.6088,-7.6088 l -7.6088,-7.6088 l -7.6088,7.6088 l -7.6088,-7.6088 l -7.6088,7.6088 l 7.6088,7.6088 l -7.6088,7.6088 l -7.6088,-7.6088 l 7.6088,-7.6088 l -7.6088,-7.6088 l -7.6088,7.6088 l -7.6088,-7.6088 l 7.6088,-7.6088 l -7.6088,-7.6088 l 7.6088,-7.6088 l 7.6088,7.6088 l -7.6088,7.6088 l 7.6088,7.6088 l 7.6088,-7.6088 l 7.6088,7.6088 l 7.6088,-7.6088 l -7.6088,-7.6088 l 7.6088,-7.6088 l 7.6088,7.6088 l 7.6088,-7.6088 l -7.6088,-7.6088 l -7.6088,7.6088 l -7.6088,-7.6088 l 7.6088,-7.6088 l -7.6088,-7.6088 l 7.6088,-7.6088 l 7.6088,7.6088 l -7.6088,7.6088 l 7.6088,7.6088 l 7.6088,-7.6088 l 7.6088,7.6088 l 7.6088,-7.6088 l -7.6088,-7.6088 l 7.6088,-7.6088 l 7.6088,7.6088 l -7.6088,7.6088 l 7.6088,7.6088 l 7.6088,-7.6088 l 7.6088,7.6088 l -7.6088,7.6088 l 7.6088,7.6088 l -7.6088,7.6088 l -7.6088,-7.6088 "/></g><g stroke-linejoin="miter" stroke-opacity="1.0" fill-opacity="0.0" stroke="rgb(0,0,0)" stroke-width="0.5" fill="rgb(0,0,0)" stroke-linecap="butt" stroke-miterlimit="10.0"><path d="M 83.1645,300.8485 l -0.0000,-15.3722 l -15.3722,0.0000 v 15.3722 l -15.3722,0.0000 l 0.0000,15.3722 l 15.3722,0.0000 l 0.0000,15.3722 l -15.3722,0.0000 v 15.3722 l 15.3722,0.0000 l 0.0000,-15.3722 l 15.3722,0.0000 v 15.3722 l 15.3722,0.0000 v 15.3722 l -15.3722,0.0000 l 0.0000,15.3722 l 15.3722,0.0000 l 0.0000,-15.3722 l 15.3722,0.0000 l 0.0000,-15.3722 l -15.3722,-0.0000 l 0.0000,-15.3722 l 15.3722,0.0000 l -0.0000,15.3722 l 15.3722,0.0000 l 0.0000,-15.3722 l 15.3722,0.0000 l -0.0000,15.3722 l 15.3722,0.0000 l -0.0000,15.3722 l -15.3722,0.0000 v 15.3722 l 15.3722,0.0000 l 0.0000,-15.3722 l 15.3722,0.0000 l 0.0000,-15.3722 l -15.3722,-0.0000 l 0.0000,-15.3722 l 15.3722,0.0000 l 0.0000,-15.3722 l -15.3722,-0.0000 l -0.0000,15.3722 l -15.3722,-0.0000 l 0.0000,-15.3722 l -15.3722,-0.0000 l 0.0000,-15.3722 l 15.3722,0.0000 l 0.0000,15.3722 l 15.3722,0.0000 l 0.0000,-15.3722 l 15.3722,0.0000 l 0.0000,-15.3722 l -15.3722,-0.0000 l 0.0000,-15.3722 l 15.3722,0.0000 l -0.0000,15.3722 l 15.3722,0.0000 l 0.0000,-15.3722 l 15.3722,0.0000 l -0.0000,15.3722 l 15.3722,0.0000 l -0.0000,15.3722 l -15.3722,0.0000 "/></g><g stroke-linejoin="miter" stroke-opacity="1.0" fill-opacity="0.0" stroke="rgb(0,0,0)" stroke-width="0.5" fill="rgb(0,0,0)" stroke-linecap="butt" stroke-miterlimit="10.0"><path d="M 437.2397,184.1890 l -31.6903,31.6903 l 31.6903,31.6903 l 31.6903,-31.6903 l 31.6903,31.6903 l 31.6903,-31.6903 l -31.6903,-31.6903 l 31.6903,-31.6903 l 31.6903,31.6903 "/></g><g stroke-linejoin="miter" stroke-opacity="1.0" fill-opacity="0.0" stroke="rgb(0,0,0)" stroke-width="0.5" fill="rgb(0,0,0)" stroke-linecap="butt" stroke-miterlimit="10.0"><path d="M 260.2021,184.1890 l -31.3718,0.0000 l 0.0000,31.3718 l 31.3718,0.0000 l 0.0000,31.3718 l 31.3718,0.0000 l 0.0000,-31.3718 l 31.3718,0.0000 l 0.0000,31.3718 l 31.3718,0.0000 l 0.0000,-31.3718 l -31.3718,-0.0000 l 0.0000,-31.3718 l 31.3718,0.0000 l 0.0000,-31.3718 l 31.3718,0.0000 l 0.0000,31.3718 "/></g><g stroke-linejoin="miter" stroke-opacity="1.0" fill-opacity="0.0" stroke="rgb(0,0,0)" stroke-width="0.5" fill="rgb(0,0,0)" stroke-linecap="butt" stroke-miterlimit="10.0"><path d="M 83.1645,184.1890 l -15.5282,-15.5282 l -15.5282,15.5282 l 15.5282,15.5282 l -15.5282,15.5282 l 15.5282,15.5282 l 15.5282,-15.5282 l 15.5282,15.5282 l -15.5282,15.5282 l 15.5282,15.5282 l 15.5282,-15.5282 l -15.5282,-15.5282 l 15.5282,-15.5282 l 15.5282,15.5282 l 15.5282,-15.5282 l 15.5282,15.5282 l -15.5282,15.5282 l 15.5282,15.5282 l 15.5282,-15.5282 l -15.5282,-15.5282 l 15.5282,-15.5282 l -15.5282,-15.5282 l -15.5282,15.5282 l -15.5282,-15.5282 l 15.5282,-15.5282 l 15.5282,15.5282 l 15.5282,-15.5282 l -15.5282,-15.5282 l 15.5282,-15.5282 l 15.5282,15.5282 l 15.5282,-15.5282 l 15.5282,15.5282 l -15.5282,15.5282 "/></g><g stroke-linejoin="miter" stroke-opacity="1.0" fill-opacity="0.0" stroke="rgb(0,0,0)" stroke-width="0.5" fill="rgb(0,0,0)" stroke-linecap="butt" stroke-miterlimit="10.0"><path d="M 437.2397,67.5294 l 0.0000,64.0241 l 64.0241,0.0000 l 0.0000,-64.0241 l 64.0241,0.0000 "/></g><g stroke-linejoin="miter" stroke-opacity="1.0" fill-opacity="0.0" stroke="rgb(0,0,0)" stroke-width="0.5" fill="rgb(0,0,0)" stroke-linecap="butt" stroke-miterlimit="10.0"><path d="M 260.2021,67.5294 l 64.6741,64.6741 l 64.6741,-64.6741 "/></g><g stroke-linejoin="miter" stroke-opacity="1.0" fill-opacity="0.0" stroke="rgb(0,0,0)" stroke-width="0.5" fill="rgb(0,0,0)" stroke-linecap="butt" stroke-miterlimit="10.0"><path d="M 83.1645,67.5294 h 130.6614 "/></g></svg>