<?xml version="1.0" encoding="UTF-8"?>
<!DOCTYPE svg PUBLIC "-//W3C//DTD SVG 1.1//EN"
    "http://www.w3.org/Graphics/SVG/1.1/DTD/svg11.dtd"><svg xmlns="http://www.w3.org/2000/svg" height="230.9401" stroke-opacity="1" viewBox="0 0 800 231" font-size="1" width="800.0000" xmlns:xlink="http://www.w3.org/1999/xlink" stroke="rgb(0,0,0)" version="1.1"><defs></defs><g stroke-linejoin="miter" stroke-opacity="1.0" fill-opacity="0.0" stroke="rgb(0,0,0)" stroke-width="1.7193118909176672" fill="rgb(0,0,0)" stroke-linecap="butt" stroke-miterlimit="10.0"><path d="M 0.0000,230.9401 h 0.7316 l 0.3658,-0.6336 l 0.3658,0.6336 h 0.7316 l 0.3658,-0.6336 l -0.3658,-0.6336 h 0.7316 l 0.3658,-0.6336 l 0.3658,0.6336 h 0.7316 l -0.3658,0.6336 l 0.3658,0.6336 h 0.7316 l 0.3658,-0.6336 l 0.3658,0.6336 h 0.7316 l 0.3658,-0.6336 l -0.3658,-0.6336 h 0.7316 l 0.3658,-0.6336 l -0.3658,-0.6336 l -0.7316,-0.0000 l 0.3658,-0.6336 l -0.3658,-0.6336 h 0.7316 l 0.3658,-0.6336 l 0.3658,0.6336 h 0.7316 l 0.3658,-0.6336 l -0.3658,-0.6336 h 0.7316 l 0.3658,-0.6336 l 0.3658,0.6336 h 0.7316 l -0.3658,0.6336 l 0.3658,0.6336 h 0.7316 l 0.3658,-0.6336 l 0.3658,0.6336 h 0.7316 l -0.3658,0.6336 l 0.3658,0.6336 l -0.7316,0.0000 l -0.3658,0.6336 l 0.3658,0.6336 h 0.7316 l -0.3658,0.6336 l 0.3658,0.6336 h 0.7316 l 0.3658,-0.6336 l 0.3658,0.6336 h 0.7316 l 0.3658,-0.6336 l -0.3658,-0.6336 h 0.7316 l 0.3658,-0.6336 l 0.3658,0.6336 h 0.7316 l -0.3658,0.6336 l 0.3658,0.6336 h 0.7316 l 0.3658,-0.6336 l 0.3658,0.6336 h 0.7316 l 0.3658,-0.6336 l -0.3658,-0.6336 h 0.7316 l 0.3658,-0.6336 l -0.3658,-0.6336 l -0.7316,-0.0000 l 0.3658,-0.6336 l -0.3658,-0.6336 h 0.7316 l 0.3658,-0.6336 l 0.3658,0.6336 h 0.7316 l 0.3658,-0.6336 l -0.3658,-0.6336 h 0.7316 l 0.3658,-0.6336 l -0.3658,-0.6336 l -0.7316,-0.0000 l 0.3658,-0.6336 l -0.3658,-0.6336 l -0.7316,-0.0000 l -0.3658,0.6336 l -0.3658,-0.6336 l -0.7316,-0.0000 l 0.3658,-0.6336 l -0.3658,-0.6336 l 0.7316,0.0000 l 0.3658,-0.6336 l -0.3658,-0.6336 l -0.7316,-0.0000 l 0.3658,-0.6336 l -0.3658,-0.6336 l 0.7316,0.0000 l 0.3658,-0.6336 l 0.3658,0.6336 l 0.7316,0.0000 l 0.3658,-0.6336 l -0.3658,-0.6336 l 0.7316,0.0000 l 0.3658,-0.6336 l 0.3658,0.6336 l 0.7316,0.0000 l -0.3658,0.6336 l 0.3658,0.6336 l 0.7316,0.0000 l 0.3658,-0.6336 l 0.3658,0.6336 l 0.7316,0.0000 l 0.3658,-0.6336 l -0.3658,-0.6336 h 0.7316 l 0.3658,-0.6336 l -0.3658,-0.6336 l -0.7316,-0.0000 l 0.3658,-0.6336 l -0.3658,-0.6336 h 0.7316 l 0.3658,-0.6336 l 0.3658,0.6336 h 0.7316 l 0.3658,-0.6336 l -0.3658,-0.6336 h 0.7316 l 0.3658,-0.6336 l 0.3658,0.6336 h 0.7316 l -0.3658,0.6336 l 0.3658,0.6336 h 0.7316 l 0.3658,-0.6336 l 0.3658,0.6336 h 0.7316 l -0.3658,0.6336 l 0.3658,0.6336 l -0.7316,0.0000 l -0.3658,0.6336 l 0.3658,0.6336 h 0.7316 l -0.3658,0.6336 l 0.3658,0.6336 l 0.7316,-0.0000 l 0.3658,-0.6336 l 0.3658,0.6336 l 0.7316,-0.0000 l 0.3658,-0.6336 l -0.3658,-0.6336 l 0.7316,-0.0000 l 0.3658,-0.6336 l 0.3658,0.6336 l 0.7316,-0.0000 l -0.3658,0.6336 l 0.3658,0.6336 l 0.7316,-0.0000 l 0.3658,-0.6336 l 0.3658,0.6336 l 0.7316,-0.0000 l -0.3658,0.6336 l 0.3658,0.6336 l -0.7316,0.0000 l -0.3658,0.6336 l 0.3658,0.6336 l 0.7316,-0.0000 l -0.3658,0.6336 l 0.3658,0.6336 l -0.7316,0.0000 l -0.3658,0.6336 l -0.3658,-0.6336 l -0.7316,0.0000 l -0.3658,0.6336 l 0.3658,0.6336 l -0.7316,0.0000 l -0.3658,0.6336 l 0.3658,0.6336 h 0.7316 l -0.3658,0.6336 l 0.3658,0.6336 h 0.7316 l 0.3658,-0.6336 l 0.3658,0.6336 h 0.7316 l -0.3658,0.6336 l 0.3658,0.6336 l -0.7316,0.0000 l -0.3658,0.6336 l 0.3658,0.6336 h 0.7316 l -0.3658,0.6336 l 0.3658,0.6336 h 0.7316 l 0.3658,-0.6336 l 0.3658,0.6336 h 0.7316 l 0.3658,-0.6336 l -0.3658,-0.6336 h 0.7316 l 0.3658,-0.6336 l 0.3658,0.6336 h 0.7316 l -0.3658,0.6336 l 0.3658,0.6336 h 0.7316 l 0.3658,-0.6336 l 0.3658,0.6336 h 0.7316 l 0.3658,-0.6336 l -0.3658,-0.6336 h 0.7316 l 0.3658,-0.6336 l -0.3658,-0.6336 l -0.7316,-0.0000 l 0.3658,-0.6336 l -0.3658,-0.6336 h 0.7316 l 0.3658,-0.6336 l 0.3658,0.6336 h 0.7316 l 0.3658,-0.6336 l -0.3658,-0.6336 h 0.7316 l 0.3658,-0.6336 l 0.3658,0.6336 h 0.7316 l -0.3658,0.6336 l 0.3658,0.6336 h 0.7316 l 0.3658,-0.6336 l 0.3658,0.6336 h 0.7316 l -0.3658,0.6336 l 0.3658,0.6336 l -0.7316,0.0000 l -0.3658,0.6336 l 0.3658,0.6336 h 0.7316 l -0.3658,0.6336 l 0.3658,0.6336 h 0.7316 l 0.3658,-0.6336 l 0.3658,0.6336 h 0.7316 l 0.3658,-0.6336 l -0.3658,-0.6336 h 0.7316 l 0.3658,-0.6336 l 0.3658,0.6336 h 0.7316 l -0.3658,0.6336 l 0.3658,0.6336 h 0.7316 l 0.3658,-0.6336 l 0.3658,0.6336 h 0.7316 l 0.3658,-0.6336 l -0.3658,-0.6336 l 0.7316,-0.0000 l 0.3658,-0.6336 l -0.3658,-0.6336 l -0.7316,-0.0000 l 0.3658,-0.6336 l -0.3658,-0.6336 l 0.7316,-0.0000 l 0.3658,-0.6336 l 0.3658,0.6336 l 0.7316,-0.0000 l 0.3658,-0.6336 l -0.3658,-0.6336 l 0.7316,-0.0000 l 0.3658,-0.6336 l -0.3658,-0.6336 l -0.7316,-0.0000 l 0.3658,-0.6336 l -0.3658,-0.6336 l -0.7316,-0.0000 l -0.3658,0.6336 l -0.3658,-0.6336 l -0.7316,-0.0000 l 0.3658,-0.6336 l -0.3658,-0.6336 l 0.7316,0.0000 l 0.3658,-0.6336 l -0.3658,-0.6336 l -0.7316,-0.0000 l 0.3658,-0.6336 l -0.3658,-0.6336 l 0.7316,0.0000 l 0.3658,-0.6336 l 0.3658,0.6336 l 0.7316,0.0000 l 0.3658,-0.6336 l -0.3658,-0.6336 l 0.7316,0.0000 l 0.3658,-0.6336 l 0.3658,0.6336 l 0.7316,0.0000 l -0.3658,0.6336 l 0.3658,0.6336 l 0.7316,0.0000 l 0.3658,-0.6336 l 0.3658,0.6336 l 0.7316,0.0000 l 0.3658,-0.6336 l -0.3658,-0.6336 l 0.7316,-0.0000 l 0.3658,-0.6336 l -0.3658,-0.6336 l -0.7316,-0.0000 l 0.3658,-0.6336 l -0.3658,-0.6336 l 0.7316,-0.0000 l 0.3658,-0.6336 l 0.3658,0.6336 l 0.7316,-0.0000 l 0.3658,-0.6336 l -0.3658,-0.6336 l 0.7316,-0.0000 l 0.3658,-0.6336 l -0.3658,-0.6336 l -0.7316,-0.0000 l 0.3658,-0.6336 l -0.3658,-0.6336 l -0.7316,-0.0000 l -0.3658,0.6336 l -0.3658,-0.6336 l -0.7316,-0.0000 l 0.3658,-0.6336 l -0.3658,-0.6336 l 0.7316,-0.0000 l 0.3658,-0.6336 l -0.3658,-0.6336 l -0.7316,-0.0000 l 0.3658,-0.6336 l -0.3658,-0.6336 l -0.7316,-0.0000 l -0.3658,0.6336 l -0.3658,-0.6336 l -0.7316,-0.0000 l -0.3658,0.6336 l 0.3658,0.6336 l -0.7316,-0.0000 l -0.3658,0.6336 l -0.3658,-0.6336 l -0.7316,-0.0000 l 0.3658,-0.6336 l -0.3658,-0.6336 l -0.7316,-0.0000 l -0.3658,0.6336 l -0.3658,-0.6336 l -0.7316,-0.0000 l 0.3658,-0.6336 l -0.3658,-0.6336 l 0.7316,-0.0000 l 0.3658,-0.6336 l -0.3658,-0.6336 l -0.7316,-0.0000 l 0.3658,-0.6336 l -0.3658,-0.6336 l 0.7316,-0.0000 l 0.3658,-0.6336 l 0.3658,0.6336 l 0.7316,-0.0000 l 0.3658,-0.6336 l -0.3658,-0.6336 l 0.7316,-0.0000 l 0.3658,-0.6336 l -0.3658,-0.6336 l -0.7316,-0.0000 l 0.3658,-0.6336 l -0.3658,-0.6336 l -0.7316,-0.0000 l -0.3658,0.6336 l -0.3658,-0.6336 l -0.7316,-0.0000 l 0.3658,-0.6336 l -0.3658,-0.6336 l 0.7316,-0.0000 l 0.3658,-0.6336 l -0.3658,-0.6336 l -0.7316,-0.0000 l 0.3658,-0.6336 l -0.3658,-0.6336 l 0.7316,-0.0000 l 0.3658,-0.6336 l 0.3658,0.6336 l 0.7316,-0.0000 l 0.3658,-0.6336 l -0.3658,-0.6336 l 0.7316,-0.0000 l 0.3658,-0.6336 l 0.3658,0.6336 l 0.7316,-0.0000 l -0.3658,0.6336 l 0.3658,0.6336 l 0.7316,-0.0000 l 0.3658,-0.6336 l 0.3658,0.6336 l 0.7316,-0.0000 l 0.3658,-0.6336 l -0.3658,-0.6336 l 0.7316,-0.0000 l 0.3658,-0.6336 l -0.3658,-0.6336 l -0.7316,-0.0000 l 0.3658,-0.6336 l -0.3658,-0.6336 l 0.7316,-0.0000 l 0.3658,-0.6336 l 0.3658,0.6336 l 0.7316,-0.0000 l 0.3658,-0.6336 l -0.3658,-0.6336 l 0.7316,-0.0000 l 0.3658,-0.6336 l 0.3658,0.6336 l 0.7316,-0.0000 l -0.3658,0.6336 l 0.3658,0.6336 l 0.7316,-0.0000 l 0.3658,-0.6336 l 0.3658,0.6336 l 0.7316,-0.0000 l -0.3658,0.6336 l 0.3658,0.6336 l -0.7316,0.0000 l -0.3658,0.6336 l 0.3658,0.6336 l 0.7316,-0.0000 l -0.3658,0.6336 l 0.3658,0.6336 l 0.7316,-0.0000 l 0.3658,-0.6336 l 0.3658,0.6336 l 0.7316,-0.0000 l 0.3658,-0.6336 l -0.3658,-0.6336 l 0.7316,-0.0000 l 0.3658,-0.6336 l 0.3658,0.6336 l 0.7316,-0.0000 l -0.3658,0.6336 l 0.3658,0.6336 l 0.7316,-0.0000 l 0.3658,-0.6336 l 0.3658,0.6336 l 0.7316,-0.0000 l 0.3658,-0.6336 l -0.3658,-0.6336 l 0.7316,-0.0000 l 0.3658,-0.6336 l -0.3658,-0.6336 l -0.7316,-0.0000 l 0.3658,-0.6336 l -0.3658,-0.6336 l 0.7316,-0.0000 l 0.3658,-0.6336 l 0.3658,0.6336 l 0.7316,-0.0000 l 0.3658,-0.6336 l -0.3658,-0.6336 l 0.7316,-0.0000 l 0.3658,-0.6336 l -0.3658,-0.6336 l -0.7316,-0.0000 l 0.3658,-0.6336 l -0.3658,-0.6336 l -0.7316,-0.0000 l -0.3658,0.6336 l -0.3658,-0.6336 l -0.7316,-0.0000 l 0.3658,-0.6336 l -0.3658,-0.6336 l 0.7316,0.0000 l 0.3658,-0.6336 l -0.3658,-0.6336 l -0.7316,-0.0000 l 0.3658,-0.6336 l -0.3658,-0.6336 l 0.7316,0.0000 l 0.3658,-0.6336 l 0.3658,0.6336 l 0.7316,0.0000 l 0.3658,-0.6336 l -0.3658,-0.6336 l 0.7316,0.0000 l 0.3658,-0.6336 l 0.3658,0.6336 l 0.7316,0.0000 l -0.3658,0.6336 l 0.3658,0.6336 l 0.7316,0.0000 l 0.3658,-0.6336 l 0.3658,0.6336 l 0.7316,0.0000 l 0.3658,-0.6336 l -0.3658,-0.6336 l 0.7316,-0.0000 l 0.3658,-0.6336 l -0.3658,-0.6336 l -0.7316,-0.0000 l 0.3658,-0.6336 l -0.3658,-0.6336 l 0.7316,-0.0000 l 0.3658,-0.6336 l 0.3658,0.6336 l 0.7316,-0.0000 l 0.3658,-0.6336 l -0.3658,-0.6336 l 0.7316,-0.0000 l 0.3658,-0.6336 l 0.3658,0.6336 l 0.7316,0.0000 l -0.3658,0.6336 l 0.3658,0.6336 l 0.7316,0.0000 l 0.3658,-0.6336 l 0.3658,0.6336 l 0.7316,0.0000 l -0.3658,0.6336 l 0.3658,0.6336 l -0.7316,0.0000 l -0.3658,0.6336 l 0.3658,0.6336 l 0.7316,0.0000 l -0.3658,0.6336 l 0.3658,0.6336 l 0.7316,-0.0000 l 0.3658,-0.6336 l 0.3658,0.6336 l 0.7316,-0.0000 l 0.3658,-0.6336 l -0.3658,-0.6336 l 0.7316,-0.0000 l 0.3658,-0.6336 l 0.3658,0.6336 l 0.7316,-0.0000 l -0.3658,0.6336 l 0.3658,0.6336 l 0.7316,-0.0000 l 0.3658,-0.6336 l 0.3658,0.6336 l 0.7316,-0.0000 l -0.3658,0.6336 l 0.3658,0.6336 l -0.7316,0.0000 l -0.3658,0.6336 l 0.3658,0.6336 l 0.7316,-0.0000 l -0.3658,0.6336 l 0.3658,0.6336 l -0.7316,0.0000 l -0.3658,0.6336 l -0.3658,-0.6336 l -0.7316,0.0000 l -0.3658,0.6336 l 0.3658,0.6336 l -0.7316,0.0000 l -0.3658,0.6336 l 0.3658,0.6336 l 0.7316,0.0000 l -0.3658,0.6336 l 0.3658,0.6336 l 0.7316,0.0000 l 0.3658,-0.6336 l 0.3658,0.6336 l 0.7316,0.0000 l -0.3658,0.6336 l 0.3658,0.6336 l -0.7316,0.0000 l -0.3658,0.6336 l 0.3658,0.6336 l 0.7316,0.0000 l -0.3658,0.6336 l 0.3658,0.6336 l 0.7316,0.0000 l 0.3658,-0.6336 l 0.3658,0.6336 l 0.7316,0.0000 l 0.3658,-0.6336 l -0.3658,-0.6336 l 0.7316,0.0000 l 0.3658,-0.6336 l 0.3658,0.6336 l 0.7316,0.0000 l -0.3658,0.6336 l 0.3658,0.6336 l 0.7316,0.0000 l 0.3658,-0.6336 l 0.3658,0.6336 l 0.7316,0.0000 l 0.3658,-0.6336 l -0.3658,-0.6336 l 0.7316,0.0000 l 0.3658,-0.6336 l -0.3658,-0.6336 l -0.7316,-0.0000 l 0.3658,-0.6336 l -0.3658,-0.6336 l 0.7316,0.0000 l 0.3658,-0.6336 l 0.3658,0.6336 l 0.7316,0.0000 l 0.3658,-0.6336 l -0.3658,-0.6336 l 0.7316,0.0000 l 0.3658,-0.6336 l 0.3658,0.6336 l 0.7316,0.0000 l -0.3658,0.6336 l 0.3658,0.6336 l 0.7316,0.0000 l 0.3658,-0.6336 l 0.3658,0.6336 l 0.7316,0.0000 l -0.3658,0.6336 l 0.3658,0.6336 l -0.7316,0.0000 l -0.3658,0.6336 l 0.3658,0.6336 l 0.7316,0.0000 l -0.3658,0.6336 l 0.3658,0.6336 l 0.7316,0.0000 l 0.3658,-0.6336 l 0.3658,0.6336 l 0.7316,0.0000 l 0.3658,-0.6336 l -0.3658,-0.6336 l 0.7316,0.0000 l 0.3658,-0.6336 l 0.3658,0.6336 l 0.7316,0.0000 l -0.3658,0.6336 l 0.3658,0.6336 l 0.7316,0.0000 l 0.3658,-0.6336 l 0.3658,0.6336 l 0.7316,0.0000 l -0.3658,0.6336 l 0.3658,0.6336 l -0.7316,0.0000 l -0.3658,0.6336 l 0.3658,0.6336 l 0.7316,0.0000 l -0.3658,0.6336 l 0.3658,0.6336 l -0.7316,0.0000 l -0.3658,0.6336 l -0.3658,-0.6336 l -0.7316,0.0000 l -0.3658,0.6336 l 0.3658,0.6336 l -0.7316,0.0000 l -0.3658,0.6336 l 0.3658,0.6336 l 0.7316,0.0000 l -0.3658,0.6336 l 0.3658,0.6336 l 0.7316,0.0000 l 0.3658,-0.6336 l 0.3658,0.6336 l 0.7316,0.0000 l -0.3658,0.6336 l 0.3658,0.6336 l -0.7316,0.0000 l -0.3658,0.6336 l 0.3658,0.6336 l 0.7316,0.0000 l -0.3658,0.6336 l 0.3658,0.6336 l -0.7316,0.0000 l -0.3658,0.6336 l -0.3658,-0.6336 l -0.7316,0.0000 l -0.3658,0.6336 l 0.3658,0.6336 l -0.7316,0.0000 l -0.3658,0.6336 l -0.3658,-0.6336 l -0.7316,0.0000 l 0.3658,-0.6336 l -0.3658,-0.6336 l -0.7316,0.0000 l -0.3658,0.6336 l -0.3658,-0.6336 l -0.7316,0.0000 l -0.3658,0.6336 l 0.3658,0.6336 l -0.7316,0.0000 l -0.3658,0.6336 l 0.3658,0.6336 l 0.7316,0.0000 l -0.3658,0.6336 l 0.3658,0.6336 l -0.7316,0.0000 l -0.3658,0.6336 l -0.3658,-0.6336 l -0.7316,0.0000 l -0.3658,0.6336 l 0.3658,0.6336 l -0.7316,0.0000 l -0.3658,0.6336 l 0.3658,0.6336 l 0.7316,0.0000 l -0.3658,0.6336 l 0.3658,0.6336 l 0.7316,0.0000 l 0.3658,-0.6336 l 0.3658,0.6336 l 0.7316,0.0000 l -0.3658,0.6336 l 0.3658,0.6336 l -0.7316,0.0000 l -0.3658,0.6336 l 0.3658,0.6336 l 0.7316,0.0000 l -0.3658,0.6336 l 0.3658,0.6336 l 0.7316,-0.0000 l 0.3658,-0.6336 l 0.3658,0.6336 l 0.7316,-0.0000 l 0.3658,-0.6336 l -0.3658,-0.6336 l 0.7316,-0.0000 l 0.3658,-0.6336 l 0.3658,0.6336 l 0.7316,-0.0000 l -0.3658,0.6336 l 0.3658,0.6336 l 0.7316,-0.0000 l 0.3658,-0.6336 l 0.3658,0.6336 l 0.7316,-0.0000 l -0.3658,0.6336 l 0.3658,0.6336 l -0.7316,0.0000 l -0.3658,0.6336 l 0.3658,0.6336 l 0.7316,-0.0000 l -0.3658,0.6336 l 0.3658,0.6336 l -0.7316,0.0000 l -0.3658,0.6336 l -0.3658,-0.6336 l -0.7316,0.0000 l -0.3658,0.6336 l 0.3658,0.6336 l -0.7316,0.0000 l -0.3658,0.6336 l 0.3658,0.6336 l 0.7316,0.0000 l -0.3658,0.6336 l 0.3658,0.6336 l 0.7316,0.0000 l 0.3658,-0.6336 l 0.3658,0.6336 l 0.7316,0.0000 l -0.3658,0.6336 l 0.3658,0.6336 l -0.7316,0.0000 l -0.3658,0.6336 l 0.3658,0.6336 l 0.7316,0.0000 l -0.3658,0.6336 l 0.3658,0.6336 h 0.7316 l 0.3658,-0.6336 l 0.3658,0.6336 h 0.7316 l 0.3658,-0.6336 l -0.3658,-0.6336 h 0.7316 l 0.3658,-0.6336 l 0.3658,0.6336 h 0.7316 l -0.3658,0.6336 l 0.3658,0.6336 h 0.7316 l 0.3658,-0.6336 l 0.3658,0.6336 h 0.7316 l 0.3658,-0.6336 l -0.3658,-0.6336 h 0.7316 l 0.3658,-0.6336 l -0.3658,-0.6336 l -0.7316,-0.0000 l 0.3658,-0.6336 l -0.3658,-0.6336 h 0.7316 l 0.3658,-0.6336 l 0.3658,0.6336 h 0.7316 l 0.3658,-0.6336 l -0.3658,-0.6336 h 0.7316 l 0.3658,-0.6336 l 0.3658,0.6336 h 0.7316 l -0.3658,0.6336 l 0.3658,0.6336 h 0.7316 l 0.3658,-0.6336 l 0.3658,0.6336 h 0.7316 l -0.3658,0.6336 l 0.3658,0.6336 l -0.7316,0.0000 l -0.3658,0.6336 l 0.3658,0.6336 h 0.7316 l -0.3658,0.6336 l 0.3658,0.6336 h 0.7316 l 0.3658,-0.6336 l 0.3658,0.6336 h 0.7316 l 0.3658,-0.6336 l -0.3658,-0.6336 h 0.7316 l 0.3658,-0.6336 l 0.3658,0.6336 h 0.7316 l -0.3658,0.6336 l 0.3658,0.6336 h 0.7316 l 0.3658,-0.6336 l 0.3658,0.6336 h 0.7316 l 0.3658,-0.6336 l -0.3658,-0.6336 h 0.7316 l 0.3658,-0.6336 l -0.3658,-0.6336 l -0.7316,-0.0000 l 0.3658,-0.6336 l -0.3658,-0.6336 h 0.7316 l 0.3658,-0.6336 l 0.3658,0.6336 h 0.7316 l 0.3658,-0.6336 l -0.3658,-0.6336 h 0.7316 l 0.3658,-0.6336 l -0.3658,-0.6336 l -0.7316,-0.0000 l 0.3658,-0.6336 l -0.3658,-0.6336 l -0.7316,-0.0000 l -0.3658,0.6336 l -0.3658,-0.6336 l -0.7316,-0.0000 l 0.3658,-0.6336 l -0.3658,-0.6336 l 0.7316,0.0000 l 0.3658,-0.6336 l -0.3658,-0.6336 l -0.7316,-0.0000 l 0.3658,-0.6336 l -0.3658,-0.6336 l 0.7316,0.0000 l 0.3658,-0.6336 l 0.3658,0.6336 l 0.7316,0.0000 l 0.3658,-0.6336 l -0.3658,-0.6336 l 0.7316,0.0000 l 0.3658,-0.6336 l 0.3658,0.6336 l 0.7316,0.0000 l -0.3658,0.6336 l 0.3658,0.6336 l 0.7316,0.0000 l 0.3658,-0.6336 l 0.3658,0.6336 l 0.7316,0.0000 l 0.3658,-0.6336 l -0.3658,-0.6336 h 0.7316 l 0.3658,-0.6336 l -0.3658,-0.6336 l -0.7316,-0.0000 l 0.3658,-0.6336 l -0.3658,-0.6336 h 0.7316 l 0.3658,-0.6336 l 0.3658,0.6336 h 0.7316 l 0.3658,-0.6336 l -0.3658,-0.6336 h 0.7316 l 0.3658,-0.6336 l 0.3658,0.6336 h 0.7316 l -0.3658,0.6336 l 0.3658,0.6336 h 0.7316 l 0.3658,-0.6336 l 0.3658,0.6336 h 0.7316 l -0.3658,0.6336 l 0.3658,0.6336 l -0.7316,0.0000 l -0.3658,0.6336 l 0.3658,0.6336 h 0.7316 l -0.3658,0.6336 l 0.3658,0.6336 l 0.7316,-0.0000 l 0.3658,-0.6336 l 0.3658,0.6336 l 0.7316,-0.0000 l 0.3658,-0.6336 l -0.3658,-0.6336 l 0.7316,-0.0000 l 0.3658,-0.6336 l 0.3658,0.6336 l 0.7316,-0.0000 l -0.3658,0.6336 l 0.3658,0.6336 l 0.7316,-0.0000 l 0.3658,-0.6336 l 0.3658,0.6336 l 0.7316,-0.0000 l -0.3658,0.6336 l 0.3658,0.6336 l -0.7316,0.0000 l -0.3658,0.6336 l 0.3658,0.6336 l 0.7316,-0.0000 l -0.3658,0.6336 l 0.3658,0.6336 l -0.7316,0.0000 l -0.3658,0.6336 l -0.3658,-0.6336 l -0.7316,0.0000 l -0.3658,0.6336 l 0.3658,0.6336 l -0.7316,0.0000 l -0.3658,0.6336 l 0.3658,0.6336 h 0.7316 l -0.3658,0.6336 l 0.3658,0.6336 h 0.7316 l 0.3658,-0.6336 l 0.3658,0.6336 h 0.7316 l -0.3658,0.6336 l 0.3658,0.6336 l -0.7316,0.0000 l -0.3658,0.6336 l 0.3658,0.6336 h 0.7316 l -0.3658,0.6336 l 0.3658,0.6336 h 0.7316 l 0.3658,-0.6336 l 0.3658,0.6336 h 0.7316 l 0.3658,-0.6336 l -0.3658,-0.6336 h 0.7316 l 0.3658,-0.6336 l 0.3658,0.6336 h 0.7316 l -0.3658,0.6336 l 0.3658,0.6336 h 0.7316 l 0.3658,-0.6336 l 0.3658,0.6336 h 0.7316 l 0.3658,-0.6336 l -0.3658,-0.6336 h 0.7316 l 0.3658,-0.6336 l -0.3658,-0.6336 l -0.7316,-0.0000 l 0.3658,-0.6336 l -0.3658,-0.6336 h 0.7316 l 0.3658,-0.6336 l 0.3658,0.6336 h 0.7316 l 0.3658,-0.6336 l -0.3658,-0.6336 h 0.7316 l 0.3658,-0.6336 l 0.3658,0.6336 h 0.7316 l -0.3658,0.6336 l 0.3658,0.6336 h 0.7316 l 0.3658,-0.6336 l 0.3658,0.6336 h 0.7316 l -0.3658,0.6336 l 0.3658,0.6336 l -0.7316,0.0000 l -0.3658,0.6336 l 0.3658,0.6336 h 0.7316 l -0.3658,0.6336 l 0.3658,0.6336 h 0.7316 l 0.3658,-0.6336 l 0.3658,0.6336 h 0.7316 l 0.3658,-0.6336 l -0.3658,-0.6336 h 0.7316 l 0.3658,-0.6336 l 0.3658,0.6336 h 0.7316 l -0.3658,0.6336 l 0.3658,0.6336 h 0.7316 l 0.3658,-0.6336 l 0.3658,0.6336 h 0.7316 l 0.3658,-0.6336 l -0.3658,-0.6336 l 0.7316,-0.0000 l 0.3658,-0.6336 l -0.3658,-0.6336 l -0.7316,-0.0000 l 0.3658,-0.6336 l -0.3658,-0.6336 l 0.7316,-0.0000 l 0.3658,-0.6336 l 0.3658,0.6336 l 0.7316,-0.0000 l 0.3658,-0.6336 l -0.3658,-0.6336 l 0.7316,-0.0000 l 0.3658,-0.6336 l -0.3658,-0.6336 l -0.7316,-0.0000 l 0.3658,-0.6336 l -0.3658,-0.6336 l -0.7316,-0.0000 l -0.3658,0.6336 l -0.3658,-0.6336 l -0.7316,-0.0000 l 0.3658,-0.6336 l -0.3658,-0.6336 l 0.7316,0.0000 l 0.3658,-0.6336 l -0.3658,-0.6336 l -0.7316,-0.0000 l 0.3658,-0.6336 l -0.3658,-0.6336 l 0.7316,0.0000 l 0.3658,-0.6336 l 0.3658,0.6336 l 0.7316,0.0000 l 0.3658,-0.6336 l -0.3658,-0.6336 l 0.7316,0.0000 l 0.3658,-0.6336 l 0.3658,0.6336 l 0.7316,0.0000 l -0.3658,0.6336 l 0.3658,0.6336 l 0.7316,0.0000 l 0.3658,-0.6336 l 0.3658,0.6336 l 0.7316,0.0000 l 0.3658,-0.6336 l -0.3658,-0.6336 l 0.7316,-0.0000 l 0.3658,-0.6336 l -0.3658,-0.6336 l -0.7316,-0.0000 l 0.3658,-0.6336 l -0.3658,-0.6336 l 0.7316,-0.0000 l 0.3658,-0.6336 l 0.3658,0.6336 l 0.7316,-0.0000 l 0.3658,-0.6336 l -0.3658,-0.6336 l 0.7316,-0.0000 l 0.3658,-0.6336 l -0.3658,-0.6336 l -0.7316,-0.0000 l 0.3658,-0.6336 l -0.3658,-0.6336 l -0.7316,-0.0000 l -0.3658,0.6336 l -0.3658,-0.6336 l -0.7316,-0.0000 l 0.3658,-0.6336 l -0.3658,-0.6336 l 0.7316,-0.0000 l 0.3658,-0.6336 l -0.3658,-0.6336 l -0.7316,-0.0000 l 0.3658,-0.6336 l -0.3658,-0.6336 l -0.7316,-0.0000 l -0.3658,0.6336 l -0.3658,-0.6336 l -0.7316,-0.0000 l -0.3658,0.6336 l 0.3658,0.6336 l -0.7316,-0.0000 l -0.3658,0.6336 l -0.3658,-0.6336 l -0.7316,-0.0000 l 0.3658,-0.6336 l -0.3658,-0.6336 l -0.7316,-0.0000 l -0.3658,0.6336 l -0.3658,-0.6336 l -0.7316,-0.0000 l 0.3658,-0.6336 l -0.3658,-0.6336 l 0.7316,-0.0000 l 0.3658,-0.6336 l -0.3658,-0.6336 l -0.7316,-0.0000 l 0.3658,-0.6336 l -0.3658,-0.6336 l 0.7316,-0.0000 l 0.3658,-0.6336 l 0.3658,0.6336 l 0.7316,-0.0000 l 0.3658,-0.6336 l -0.3658,-0.6336 l 0.7316,-0.0000 l 0.3658,-0.6336 l -0.3658,-0.6336 l -0.7316,-0.0000 l 0.3658,-0.6336 l -0.3658,-0.6336 l -0.7316,-0.0000 l -0.3658,0.6336 l -0.3658,-0.6336 l -0.7316,-0.0000 l 0.3658,-0.6336 l -0.3658,-0.6336 l 0.7316,-0.0000 l 0.3658,-0.6336 l -0.3658,-0.6336 l -0.7316,-0.0000 l 0.3658,-0.6336 l -0.3658,-0.6336 l 0.7316,-0.0000 l 0.3658,-0.6336 l 0.3658,0.6336 l 0.7316,-0.0000 l 0.3658,-0.6336 l -0.3658,-0.6336 l 0.7316,-0.0000 l 0.3658,-0.6336 l 0.3658,0.6336 l 0.7316,-0.0000 l -0.3658,0.6336 l 0.3658,0.6336 l 0.7316,-0.0000 l 0.3658,-0.6336 l 0.3658,0.6336 l 0.7316,-0.0000 l 0.3658,-0.6336 l -0.3658,-0.6336 l 0.7316,-0.0000 l 0.3658,-0.6336 l -0.3658,-0.6336 l -0.7316,-0.0000 l 0.3658,-0.6336 l -0.3658,-0.6336 l 0.7316,-0.0000 l 0.3658,-0.6336 l 0.3658,0.6336 l 0.7316,-0.0000 l 0.3658,-0.6336 l -0.3658,-0.6336 l 0.7316,-0.0000 l 0.3658,-0.6336 l 0.3658,0.6336 l 0.7316,-0.0000 l -0.3658,0.6336 l 0.3658,0.6336 l 0.7316,-0.0000 l 0.3658,-0.6336 l 0.3658,0.6336 l 0.7316,-0.0000 l -0.3658,0.6336 l 0.3658,0.6336 l -0.7316,0.0000 l -0.3658,0.6336 l 0.3658,0.6336 l 0.7316,-0.0000 l -0.3658,0.6336 l 0.3658,0.6336 l 0.7316,-0.0000 l 0.3658,-0.6336 l 0.3658,0.6336 l 0.7316,-0.0000 l 0.3658,-0.6336 l -0.3658,-0.6336 l 0.7316,-0.0000 l 0.3658,-0.6336 l 0.3658,0.6336 l 0.7316,-0.0000 l -0.3658,0.6336 l 0.3658,0.6336 l 0.7316,-0.0000 l 0.3658,-0.6336 l 0.3658,0.6336 l 0.7316,-0.0000 l 0.3658,-0.6336 l -0.3658,-0.6336 l 0.7316,-0.0000 l 0.3658,-0.6336 l -0.3658,-0.6336 l -0.7316,-0.0000 l 0.3658,-0.6336 l -0.3658,-0.6336 l 0.7316,-0.0000 l 0.3658,-0.6336 l 0.3658,0.6336 l 0.7316,-0.0000 l 0.3658,-0.6336 l -0.3658,-0.6336 l 0.7316,-0.0000 l 0.3658,-0.6336 l -0.3658,-0.6336 l -0.7316,-0.0000 l 0.3658,-0.6336 l -0.3658,-0.6336 l -0.7316,-0.0000 l -0.3658,0.6336 l -0.3658,-0.6336 l -0.7316,-0.0000 l 0.3658,-0.6336 l -0.3658,-0.6336 l 0.7316,0.0000 l 0.3658,-0.6336 l -0.3658,-0.6336 l -0.7316,-0.0000 l 0.3658,-0.6336 l -0.3658,-0.6336 l 0.7316,0.0000 l 0.3658,-0.6336 l 0.3658,0.6336 l 0.7316,0.0000 l 0.3658,-0.6336 l -0.3658,-0.6336 l 0.7316,0.0000 l 0.3658,-0.6336 l 0.3658,0.6336 l 0.7316,0.0000 l -0.3658,0.6336 l 0.3658,0.6336 l 0.7316,0.0000 l 0.3658,-0.6336 l 0.3658,0.6336 l 0.7316,0.0000 l 0.3658,-0.6336 l -0.3658,-0.6336 l 0.7316,-0.0000 l 0.3658,-0.6336 l -0.3658,-0.6336 l -0.7316,-0.0000 l 0.3658,-0.6336 l -0.3658,-0.6336 l 0.7316,-0.0000 l 0.3658,-0.6336 l 0.3658,0.6336 l 0.7316,-0.0000 l 0.3658,-0.6336 l -0.3658,-0.6336 l 0.7316,-0.0000 l 0.3658,-0.6336 l -0.3658,-0.6336 l -0.7316,-0.0000 l 0.3658,-0.6336 l -0.3658,-0.6336 l -0.7316,-0.0000 l -0.3658,0.6336 l -0.3658,-0.6336 l -0.7316,-0.0000 l 0.3658,-0.6336 l -0.3658,-0.6336 h 0.7316 l 0.3658,-0.6336 l -0.3658,-0.6336 l -0.7316,-0.0000 l 0.3658,-0.6336 l -0.3658,-0.6336 l -0.7316,-0.0000 l -0.3658,0.6336 l -0.3658,-0.6336 l -0.7316,-0.0000 l -0.3658,0.6336 l 0.3658,0.6336 l -0.7316,-0.0000 l -0.3658,0.6336 l -0.3658,-0.6336 l -0.7316,-0.0000 l 0.3658,-0.6336 l -0.3658,-0.6336 l -0.7316,-0.0000 l -0.3658,0.6336 l -0.3658,-0.6336 l -0.7316,-0.0000 l 0.3658,-0.6336 l -0.3658,-0.6336 h 0.7316 l 0.3658,-0.6336 l -0.3658,-0.6336 l -0.7316,-0.0000 l 0.3658,-0.6336 l -0.3658,-0.6336 h 0.7316 l 0.3658,-0.6336 l 0.3658,0.6336 h 0.7316 l 0.3658,-0.6336 l -0.3658,-0.6336 h 0.7316 l 0.3658,-0.6336 l -0.3658,-0.6336 l -0.7316,-0.0000 l 0.3658,-0.6336 l -0.3658,-0.6336 l -0.7316,-0.0000 l -0.3658,0.6336 l -0.3658,-0.6336 l -0.7316,-0.0000 l 0.3658,-0.6336 l -0.3658,-0.6336 h 0.7316 l 0.3658,-0.6336 l -0.3658,-0.6336 l -0.7316,-0.0000 l 0.3658,-0.6336 l -0.3658,-0.6336 l -0.7316,-0.0000 l -0.3658,0.6336 l -0.3658,-0.6336 l -0.7316,-0.0000 l -0.3658,0.6336 l 0.3658,0.6336 l -0.7316,-0.0000 l -0.3658,0.6336 l -0.3658,-0.6336 l -0.7316,-0.0000 l 0.3658,-0.6336 l -0.3658,-0.6336 l -0.7316,-0.0000 l -0.3658,0.6336 l -0.3658,-0.6336 l -0.7316,-0.0000 l -0.3658,0.6336 l 0.3658,0.6336 l -0.7316,-0.0000 l -0.3658,0.6336 l 0.3658,0.6336 l 0.7316,0.0000 l -0.3658,0.6336 l 0.3658,0.6336 l -0.7316,-0.0000 l -0.3658,0.6336 l -0.3658,-0.6336 l -0.7316,-0.0000 l -0.3658,0.6336 l 0.3658,0.6336 l -0.7316,-0.0000 l -0.3658,0.6336 l -0.3658,-0.6336 l -0.7316,-0.0000 l 0.3658,-0.6336 l -0.3658,-0.6336 l -0.7316,-0.0000 l -0.3658,0.6336 l -0.3658,-0.6336 l -0.7316,-0.0000 l 0.3658,-0.6336 l -0.3658,-0.6336 h 0.7316 l 0.3658,-0.6336 l -0.3658,-0.6336 l -0.7316,-0.0000 l 0.3658,-0.6336 l -0.3658,-0.6336 l -0.7316,-0.0000 l -0.3658,0.6336 l -0.3658,-0.6336 l -0.7316,-0.0000 l -0.3658,0.6336 l 0.3658,0.6336 l -0.7316,-0.0000 l -0.3658,0.6336 l -0.3658,-0.6336 l -0.7316,-0.0000 l 0.3658,-0.6336 l -0.3658,-0.6336 l -0.7316,-0.0000 l -0.3658,0.6336 l -0.3658,-0.6336 l -0.7316,-0.0000 l 0.3658,-0.6336 l -0.3658,-0.6336 h 0.7316 l 0.3658,-0.6336 l -0.3658,-0.6336 l -0.7316,-0.0000 l 0.3658,-0.6336 l -0.3658,-0.6336 h 0.7316 l 0.3658,-0.6336 l 0.3658,0.6336 h 0.7316 l 0.3658,-0.6336 l -0.3658,-0.6336 h 0.7316 l 0.3658,-0.6336 l -0.3658,-0.6336 l -0.7316,-0.0000 l 0.3658,-0.6336 l -0.3658,-0.6336 l -0.7316,-0.0000 l -0.3658,0.6336 l -0.3658,-0.6336 l -0.7316,-0.0000 l 0.3658,-0.6336 l -0.3658,-0.6336 l 0.7316,0.0000 l 0.3658,-0.6336 l -0.3658,-0.6336 l -0.7316,-0.0000 l 0.3658,-0.6336 l -0.3658,-0.6336 l 0.7316,-0.0000 l 0.3658,-0.6336 l 0.3658,0.6336 l 0.7316,-0.0000 l 0.3658,-0.6336 l -0.3658,-0.6336 l 0.7316,-0.0000 l 0.3658,-0.6336 l 0.3658,0.6336 l 0.7316,-0.0000 l -0.3658,0.6336 l 0.3658,0.6336 l 0.7316,-0.0000 l 0.3658,-0.6336 l 0.3658,0.6336 l 0.7316,-0.0000 l 0.3658,-0.6336 l -0.3658,-0.6336 h 0.7316 l 0.3658,-0.6336 l -0.3658,-0.6336 l -0.7316,-0.0000 l 0.3658,-0.6336 l -0.3658,-0.6336 h 0.7316 l 0.3658,-0.6336 l 0.3658,0.6336 h 0.7316 l 0.3658,-0.6336 l -0.3658,-0.6336 h 0.7316 l 0.3658,-0.6336 l -0.3658,-0.6336 l -0.7316,-0.0000 l 0.3658,-0.6336 l -0.3658,-0.6336 l -0.7316,-0.0000 l -0.3658,0.6336 l -0.3658,-0.6336 l -0.7316,-0.0000 l 0.3658,-0.6336 l -0.3658,-0.6336 h 0.7316 l 0.3658,-0.6336 l -0.3658,-0.6336 l -0.7316,-0.0000 l 0.3658,-0.6336 l -0.3658,-0.6336 l -0.7316,-0.0000 l -0.3658,0.6336 l -0.3658,-0.6336 l -0.7316,-0.0000 l -0.3658,0.6336 l 0.3658,0.6336 l -0.7316,-0.0000 l -0.3658,0.6336 l -0.3658,-0.6336 l -0.7316,-0.0000 l 0.3658,-0.6336 l -0.3658,-0.6336 l -0.7316,-0.0000 l -0.3658,0.6336 l -0.3658,-0.6336 l -0.7316,-0.0000 l 0.3658,-0.6336 l -0.3658,-0.6336 h 0.7316 l 0.3658,-0.6336 l -0.3658,-0.6336 l -0.7316,-0.0000 l 0.3658,-0.6336 l -0.3658,-0.6336 h 0.7316 l 0.3658,-0.6336 l 0.3658,0.6336 h 0.7316 l 0.3658,-0.6336 l -0.3658,-0.6336 h 0.7316 l 0.3658,-0.6336 l -0.3658,-0.6336 l -0.7316,-0.0000 l 0.3658,-0.6336 l -0.3658,-0.6336 l -0.7316,-0.0000 l -0.3658,0.6336 l -0.3658,-0.6336 l -0.7316,-0.0000 l 0.3658,-0.6336 l -0.3658,-0.6336 h 0.7316 l 0.3658,-0.6336 l -0.3658,-0.6336 l -0.7316,-0.0000 l 0.3658,-0.6336 l -0.3658,-0.6336 h 0.7316 l 0.3658,-0.6336 l 0.3658,0.6336 h 0.7316 l 0.3658,-0.6336 l -0.3658,-0.6336 h 0.7316 l 0.3658,-0.6336 l 0.3658,0.6336 h 0.7316 l -0.3658,0.6336 l 0.3658,0.6336 h 0.7316 l 0.3658,-0.6336 l 0.3658,0.6336 h 0.7316 l 0.3658,-0.6336 l -0.3658,-0.6336 h 0.7316 l 0.3658,-0.6336 l -0.3658,-0.6336 l -0.7316,-0.0000 l 0.3658,-0.6336 l -0.3658,-0.6336 h 0.7316 l 0.3658,-0.6336 l 0.3658,0.6336 h 0.7316 l 0.3658,-0.6336 l -0.3658,-0.6336 h 0.7316 l 0.3658,-0.6336 l 0.3658,0.6336 h 0.7316 l -0.3658,0.6336 l 0.3658,0.6336 h 0.7316 l 0.3658,-0.6336 l 0.3658,0.6336 h 0.7316 l -0.3658,0.6336 l 0.3658,0.6336 l -0.7316,0.0000 l -0.3658,0.6336 l 0.3658,0.6336 h 0.7316 l -0.3658,0.6336 l 0.3658,0.6336 h 0.7316 l 0.3658,-0.6336 l 0.3658,0.6336 h 0.7316 l 0.3658,-0.6336 l -0.3658,-0.6336 h 0.7316 l 0.3658,-0.6336 l 0.3658,0.6336 h 0.7316 l -0.3658,0.6336 l 0.3658,0.6336 h 0.7316 l 0.3658,-0.6336 l 0.3658,0.6336 h 0.7316 l 0.3658,-0.6336 l -0.3658,-0.6336 h 0.7316 l 0.3658,-0.6336 l -0.3658,-0.6336 l -0.7316,-0.0000 l 0.3658,-0.6336 l -0.3658,-0.6336 h 0.7316 l 0.3658,-0.6336 l 0.3658,0.6336 h 0.7316 l 0.3658,-0.6336 l -0.3658,-0.6336 h 0.7316 l 0.3658,-0.6336 l -0.3658,-0.6336 l -0.7316,-0.0000 l 0.3658,-0.6336 l -0.3658,-0.6336 l -0.7316,-0.0000 l -0.3658,0.6336 l -0.3658,-0.6336 l -0.7316,-0.0000 l 0.3658,-0.6336 l -0.3658,-0.6336 l 0.7316,0.0000 l 0.3658,-0.6336 l -0.3658,-0.6336 l -0.7316,-0.0000 l 0.3658,-0.6336 l -0.3658,-0.6336 h 0.7316 l 0.3658,-0.6336 l 0.3658,0.6336 h 0.7316 l 0.3658,-0.6336 l -0.3658,-0.6336 h 0.7316 l 0.3658,-0.6336 l 0.3658,0.6336 h 0.7316 l -0.3658,0.6336 l 0.3658,0.6336 h 0.7316 l 0.3658,-0.6336 l 0.3658,0.6336 h 0.7316 l 0.3658,-0.6336 l -0.3658,-0.6336 h 0.7316 l 0.3658,-0.6336 l -0.3658,-0.6336 l -0.7316,-0.0000 l 0.3658,-0.6336 l -0.3658,-0.6336 h 0.7316 l 0.3658,-0.6336 l 0.3658,0.6336 h 0.7316 l 0.3658,-0.6336 l -0.3658,-0.6336 h 0.7316 l 0.3658,-0.6336 l 0.3658,0.6336 h 0.7316 l -0.3658,0.6336 l 0.3658,0.6336 h 0.7316 l 0.3658,-0.6336 l 0.3658,0.6336 h 0.7316 l -0.3658,0.6336 l 0.3658,0.6336 l -0.7316,0.0000 l -0.3658,0.6336 l 0.3658,0.6336 h 0.7316 l -0.3658,0.6336 l 0.3658,0.6336 l 0.7316,-0.0000 l 0.3658,-0.6336 l 0.3658,0.6336 l 0.7316,-0.0000 l 0.3658,-0.6336 l -0.3658,-0.6336 l 0.7316,-0.0000 l 0.3658,-0.6336 l 0.3658,0.6336 l 0.7316,-0.0000 l -0.3658,0.6336 l 0.3658,0.6336 l 0.7316,-0.0000 l 0.3658,-0.6336 l 0.3658,0.6336 l 0.7316,-0.0000 l -0.3658,0.6336 l 0.3658,0.6336 l -0.7316,0.0000 l -0.3658,0.6336 l 0.3658,0.6336 l 0.7316,-0.0000 l -0.3658,0.6336 l 0.3658,0.6336 l -0.7316,0.0000 l -0.3658,0.6336 l -0.3658,-0.6336 l -0.7316,0.0000 l -0.3658,0.6336 l 0.3658,0.6336 l -0.7316,0.0000 l -0.3658,0.6336 l 0.3658,0.6336 h 0.7316 l -0.3658,0.6336 l 0.3658,0.6336 h 0.7316 l 0.3658,-0.6336 l 0.3658,0.6336 h 0.7316 l -0.3658,0.6336 l 0.3658,0.6336 l -0.7316,0.0000 l -0.3658,0.6336 l 0.3658,0.6336 h 0.7316 l -0.3658,0.6336 l 0.3658,0.6336 h 0.7316 l 0.3658,-0.6336 l 0.3658,0.6336 h 0.7316 l 0.3658,-0.6336 l -0.3658,-0.6336 h 0.7316 l 0.3658,-0.6336 l 0.3658,0.6336 h 0.7316 l -0.3658,0.6336 l 0.3658,0.6336 h 0.7316 l 0.3658,-0.6336 l 0.3658,0.6336 h 0.7316 l 0.3658,-0.6336 l -0.3658,-0.6336 h 0.7316 l 0.3658,-0.6336 l -0.3658,-0.6336 l -0.7316,-0.0000 l 0.3658,-0.6336 l -0.3658,-0.6336 h 0.7316 l 0.3658,-0.6336 l 0.3658,0.6336 h 0.7316 l 0.3658,-0.6336 l -0.3658,-0.6336 h 0.7316 l 0.3658,-0.6336 l 0.3658,0.6336 h 0.7316 l -0.3658,0.6336 l 0.3658,0.6336 h 0.7316 l 0.3658,-0.6336 l 0.3658,0.6336 h 0.7316 l -0.3658,0.6336 l 0.3658,0.6336 l -0.7316,0.0000 l -0.3658,0.6336 l 0.3658,0.6336 h 0.7316 l -0.3658,0.6336 l 0.3658,0.6336 h 0.7316 l 0.3658,-0.6336 l 0.3658,0.6336 h 0.7316 l 0.3658,-0.6336 l -0.3658,-0.6336 h 0.7316 l 0.3658,-0.6336 l 0.3658,0.6336 h 0.7316 l -0.3658,0.6336 l 0.3658,0.6336 h 0.7316 l 0.3658,-0.6336 l 0.3658,0.6336 h 0.7316 l 0.3658,-0.6336 l -0.3658,-0.6336 l 0.7316,-0.0000 l 0.3658,-0.6336 l -0.3658,-0.6336 l -0.7316,-0.0000 l 0.3658,-0.6336 l -0.3658,-0.6336 l 0.7316,-0.0000 l 0.3658,-0.6336 l 0.3658,0.6336 l 0.7316,-0.0000 l 0.3658,-0.6336 l -0.3658,-0.6336 l 0.7316,-0.0000 l 0.3658,-0.6336 l -0.3658,-0.6336 l -0.7316,-0.0000 l 0.3658,-0.6336 l -0.3658,-0.6336 l -0.7316,-0.0000 l -0.3658,0.6336 l -0.3658,-0.6336 l -0.7316,-0.0000 l 0.3658,-0.6336 l -0.3658,-0.6336 l 0.7316,0.0000 l 0.3658,-0.6336 l -0.3658,-0.6336 l -0.7316,-0.0000 l 0.3658,-0.6336 l -0.3658,-0.6336 l 0.7316,0.0000 l 0.3658,-0.6336 l 0.3658,0.6336 l 0.7316,0.0000 l 0.3658,-0.6336 l -0.3658,-0.6336 l 0.7316,0.0000 l 0.3658,-0.6336 l 0.3658,0.6336 l 0.7316,0.0000 l -0.3658,0.6336 l 0.3658,0.6336 l 0.7316,0.0000 l 0.3658,-0.6336 l 0.3658,0.6336 l 0.7316,0.0000 l 0.3658,-0.6336 l -0.3658,-0.6336 l 0.7316,-0.0000 l 0.3658,-0.6336 l -0.3658,-0.6336 l -0.7316,-0.0000 l 0.3658,-0.6336 l -0.3658,-0.6336 l 0.7316,-0.0000 l 0.3658,-0.6336 l 0.3658,0.6336 l 0.7316,-0.0000 l 0.3658,-0.6336 l -0.3658,-0.6336 l 0.7316,-0.0000 l 0.3658,-0.6336 l -0.3658,-0.6336 l -0.7316,-0.0000 l 0.3658,-0.6336 l -0.3658,-0.6336 l -0.7316,-0.0000 l -0.3658,0.6336 l -0.3658,-0.6336 l -0.7316,-0.0000 l 0.3658,-0.6336 l -0.3658,-0.6336 l 0.7316,-0.0000 l 0.3658,-0.6336 l -0.3658,-0.6336 l -0.7316,-0.0000 l 0.3658,-0.6336 l -0.3658,-0.6336 l -0.7316,-0.0000 l -0.3658,0.6336 l -0.3658,-0.6336 l -0.7316,-0.0000 l -0.3658,0.6336 l 0.3658,0.6336 l -0.7316,-0.0000 l -0.3658,0.6336 l -0.3658,-0.6336 l -0.7316,-0.0000 l 0.3658,-0.6336 l -0.3658,-0.6336 l -0.7316,-0.0000 l -0.3658,0.6336 l -0.3658,-0.6336 l -0.7316,-0.0000 l 0.3658,-0.6336 l -0.3658,-0.6336 l 0.7316,-0.0000 l 0.3658,-0.6336 l -0.3658,-0.6336 l -0.7316,-0.0000 l 0.3658,-0.6336 l -0.3658,-0.6336 l 0.7316,-0.0000 l 0.3658,-0.6336 l 0.3658,0.6336 l 0.7316,-0.0000 l 0.3658,-0.6336 l -0.3658,-0.6336 l 0.7316,-0.0000 l 0.3658,-0.6336 l -0.3658,-0.6336 l -0.7316,-0.0000 l 0.3658,-0.6336 l -0.3658,-0.6336 l -0.7316,-0.0000 l -0.3658,0.6336 l -0.3658,-0.6336 l -0.7316,-0.0000 l 0.3658,-0.6336 l -0.3658,-0.6336 l 0.7316,-0.0000 l 0.3658,-0.6336 l -0.3658,-0.6336 l -0.7316,-0.0000 l 0.3658,-0.6336 l -0.3658,-0.6336 l 0.7316,-0.0000 l 0.3658,-0.6336 l 0.3658,0.6336 l 0.7316,-0.0000 l 0.3658,-0.6336 l -0.3658,-0.6336 l 0.7316,-0.0000 l 0.3658,-0.6336 l 0.3658,0.6336 l 0.7316,-0.0000 l -0.3658,0.6336 l 0.3658,0.6336 l 0.7316,-0.0000 l 0.3658,-0.6336 l 0.3658,0.6336 l 0.7316,-0.0000 l 0.3658,-0.6336 l -0.3658,-0.6336 l 0.7316,-0.0000 l 0.3658,-0.6336 l -0.3658,-0.6336 l -0.7316,-0.0000 l 0.3658,-0.6336 l -0.3658,-0.6336 l 0.7316,-0.0000 l 0.3658,-0.6336 l 0.3658,0.6336 l 0.7316,-0.0000 l 0.3658,-0.6336 l -0.3658,-0.6336 l 0.7316,-0.0000 l 0.3658,-0.6336 l 0.3658,0.6336 l 0.7316,-0.0000 l -0.3658,0.6336 l 0.3658,0.6336 l 0.7316,-0.0000 l 0.3658,-0.6336 l 0.3658,0.6336 l 0.7316,-0.0000 l -0.3658,0.6336 l 0.3658,0.6336 l -0.7316,0.0000 l -0.3658,0.6336 l 0.3658,0.6336 l 0.7316,-0.0000 l -0.3658,0.6336 l 0.3658,0.6336 l 0.7316,-0.0000 l 0.3658,-0.6336 l 0.3658,0.6336 l 0.7316,-0.0000 l 0.3658,-0.6336 l -0.3658,-0.6336 l 0.7316,-0.0000 l 0.3658,-0.6336 l 0.3658,0.6336 l 0.7316,-0.0000 l -0.3658,0.6336 l 0.3658,0.6336 l 0.7316,-0.0000 l 0.3658,-0.6336 l 0.3658,0.6336 l 0.7316,-0.0000 l 0.3658,-0.6336 l -0.3658,-0.6336 l 0.7316,-0.0000 l 0.3658,-0.6336 l -0.3658,-0.6336 l -0.7316,-0.0000 l 0.3658,-0.6336 l -0.3658,-0.6336 l 0.7316,-0.0000 l 0.3658,-0.6336 l 0.3658,0.6336 l 0.7316,-0.0000 l 0.3658,-0.6336 l -0.3658,-0.6336 l 0.7316,-0.0000 l 0.3658,-0.6336 l -0.3658,-0.6336 l -0.7316,-0.0000 l 0.3658,-0.6336 l -0.3658,-0.6336 l -0.7316,-0.0000 l -0.3658,0.6336 l -0.3658,-0.6336 l -0.7316,-0.0000 l 0.3658,-0.6336 l -0.3658,-0.6336 l 0.7316,0.0000 l 0.3658,-0.6336 l -0.3658,-0.6336 l -0.7316,-0.0000 l 0.3658,-0.6336 l -0.3658,-0.6336 l 0.7316,0.0000 l 0.3658,-0.6336 l 0.3658,0.6336 l 0.7316,0.0000 l 0.3658,-0.6336 l -0.3658,-0.6336 l 0.7316,0.0000 l 0.3658,-0.6336 l 0.3658,0.6336 l 0.7316,0.0000 l -0.3658,0.6336 l 0.3658,0.6336 l 0.7316,0.0000 l 0.3658,-0.6336 l 0.3658,0.6336 l 0.7316,0.0000 l 0.3658,-0.6336 l -0.3658,-0.6336 l 0.7316,-0.0000 l 0.3658,-0.6336 l -0.3658,-0.6336 l -0.7316,-0.0000 l 0.3658,-0.6336 l -0.3658,-0.6336 l 0.7316,-0.0000 l 0.3658,-0.6336 l 0.3658,0.6336 l 0.7316,-0.0000 l 0.3658,-0.6336 l -0.3658,-0.6336 l 0.7316,-0.0000 l 0.3658,-0.6336 l 0.3658,0.6336 l 0.7316,0.0000 l -0.3658,0.6336 l 0.3658,0.6336 l 0.7316,0.0000 l 0.3658,-0.6336 l 0.3658,0.6336 l 0.7316,0.0000 l -0.3658,0.6336 l 0.3658,0.6336 l -0.7316,0.0000 l -0.3658,0.6336 l 0.3658,0.6336 l 0.7316,0.0000 l -0.3658,0.6336 l 0.3658,0.6336 l 0.7316,-0.0000 l 0.3658,-0.6336 l 0.3658,0.6336 l 0.7316,-0.0000 l 0.3658,-0.6336 l -0.3658,-0.6336 l 0.7316,-0.0000 l 0.3658,-0.6336 l 0.3658,0.6336 l 0.7316,-0.0000 l -0.3658,0.6336 l 0.3658,0.6336 l 0.7316,-0.0000 l 0.3658,-0.6336 l 0.3658,0.6336 l 0.7316,-0.0000 l -0.3658,0.6336 l 0.3658,0.6336 l -0.7316,0.0000 l -0.3658,0.6336 l 0.3658,0.6336 l 0.7316,-0.0000 l -0.3658,0.6336 l 0.3658,0.6336 l -0.7316,0.0000 l -0.3658,0.6336 l -0.3658,-0.6336 l -0.7316,0.0000 l -0.3658,0.6336 l 0.3658,0.6336 l -0.7316,0.0000 l -0.3658,0.6336 l 0.3658,0.6336 l 0.7316,0.0000 l -0.3658,0.6336 l 0.3658,0.6336 l 0.7316,0.0000 l 0.3658,-0.6336 l 0.3658,0.6336 l 0.7316,0.0000 l -0.3658,0.6336 l 0.3658,0.6336 l -0.7316,0.0000 l -0.3658,0.6336 l 0.3658,0.6336 l 0.7316,0.0000 l -0.3658,0.6336 l 0.3658,0.6336 l 0.7316,0.0000 l 0.3658,-0.6336 l 0.3658,0.6336 l 0.7316,0.0000 l 0.3658,-0.6336 l -0.3658,-0.6336 l 0.7316,0.0000 l 0.3658,-0.6336 l 0.3658,0.6336 l 0.7316,0.0000 l -0.3658,0.6336 l 0.3658,0.6336 l 0.7316,0.0000 l 0.3658,-0.6336 l 0.3658,0.6336 l 0.7316,0.0000 l 0.3658,-0.6336 l -0.3658,-0.6336 l 0.7316,0.0000 l 0.3658,-0.6336 l -0.3658,-0.6336 l -0.7316,-0.0000 l 0.3658,-0.6336 l -0.3658,-0.6336 l 0.7316,0.0000 l 0.3658,-0.6336 l 0.3658,0.6336 l 0.7316,0.0000 l 0.3658,-0.6336 l -0.3658,-0.6336 l 0.7316,0.0000 l 0.3658,-0.6336 l 0.3658,0.6336 l 0.7316,0.0000 l -0.3658,0.6336 l 0.3658,0.6336 l 0.7316,0.0000 l 0.3658,-0.6336 l 0.3658,0.6336 l 0.7316,0.0000 l -0.3658,0.6336 l 0.3658,0.6336 l -0.7316,0.0000 l -0.3658,0.6336 l 0.3658,0.6336 l 0.7316,0.0000 l -0.3658,0.6336 l 0.3658,0.6336 l 0.7316,0.0000 l 0.3658,-0.6336 l 0.3658,0.6336 l 0.7316,0.0000 l 0.3658,-0.6336 l -0.3658,-0.6336 l 0.7316,0.0000 l 0.3658,-0.6336 l 0.3658,0.6336 l 0.7316,0.0000 l -0.3658,0.6336 l 0.3658,0.6336 l 0.7316,0.0000 l 0.3658,-0.6336 l 0.3658,0.6336 l 0.7316,0.0000 l -0.3658,0.6336 l 0.3658,0.6336 l -0.7316,0.0000 l -0.3658,0.6336 l 0.3658,0.6336 l 0.7316,0.0000 l -0.3658,0.6336 l 0.3658,0.6336 l -0.7316,0.0000 l -0.3658,0.6336 l -0.3658,-0.6336 l -0.7316,0.0000 l -0.3658,0.6336 l 0.3658,0.6336 l -0.7316,0.0000 l -0.3658,0.6336 l 0.3658,0.6336 l 0.7316,0.0000 l -0.3658,0.6336 l 0.3658,0.6336 l 0.7316,0.0000 l 0.3658,-0.6336 l 0.3658,0.6336 l 0.7316,0.0000 l -0.3658,0.6336 l 0.3658,0.6336 l -0.7316,0.0000 l -0.3658,0.6336 l 0.3658,0.6336 l 0.7316,0.0000 l -0.3658,0.6336 l 0.3658,0.6336 l -0.7316,0.0000 l -0.3658,0.6336 l -0.3658,-0.6336 l -0.7316,0.0000 l -0.3658,0.6336 l 0.3658,0.6336 l -0.7316,0.0000 l -0.3658,0.6336 l -0.3658,-0.6336 l -0.7316,0.0000 l 0.3658,-0.6336 l -0.3658,-0.6336 l -0.7316,0.0000 l -0.3658,0.6336 l -0.3658,-0.6336 l -0.7316,0.0000 l -0.3658,0.6336 l 0.3658,0.6336 l -0.7316,0.0000 l -0.3658,0.6336 l 0.3658,0.6336 l 0.7316,0.0000 l -0.3658,0.6336 l 0.3658,0.6336 l -0.7316,0.0000 l -0.3658,0.6336 l -0.3658,-0.6336 l -0.7316,0.0000 l -0.3658,0.6336 l 0.3658,0.6336 l -0.7316,0.0000 l -0.3658,0.6336 l 0.3658,0.6336 l 0.7316,0.0000 l -0.3658,0.6336 l 0.3658,0.6336 l 0.7316,0.0000 l 0.3658,-0.6336 l 0.3658,0.6336 l 0.7316,0.0000 l -0.3658,0.6336 l 0.3658,0.6336 l -0.7316,0.0000 l -0.3658,0.6336 l 0.3658,0.6336 l 0.7316,0.0000 l -0.3658,0.6336 l 0.3658,0.6336 l 0.7316,-0.0000 l 0.3658,-0.6336 l 0.3658,0.6336 l 0.7316,-0.0000 l 0.3658,-0.6336 l -0.3658,-0.6336 l 0.7316,-0.0000 l 0.3658,-0.6336 l 0.3658,0.6336 l 0.7316,-0.0000 l -0.3658,0.6336 l 0.3658,0.6336 l 0.7316,-0.0000 l 0.3658,-0.6336 l 0.3658,0.6336 l 0.7316,-0.0000 l -0.3658,0.6336 l 0.3658,0.6336 l -0.7316,0.0000 l -0.3658,0.6336 l 0.3658,0.6336 l 0.7316,-0.0000 l -0.3658,0.6336 l 0.3658,0.6336 l -0.7316,0.0000 l -0.3658,0.6336 l -0.3658,-0.6336 l -0.7316,0.0000 l -0.3658,0.6336 l 0.3658,0.6336 l -0.7316,0.0000 l -0.3658,0.6336 l 0.3658,0.6336 l 0.7316,0.0000 l -0.3658,0.6336 l 0.3658,0.6336 l 0.7316,0.0000 l 0.3658,-0.6336 l 0.3658,0.6336 l 0.7316,0.0000 l -0.3658,0.6336 l 0.3658,0.6336 l -0.7316,0.0000 l -0.3658,0.6336 l 0.3658,0.6336 l 0.7316,0.0000 l -0.3658,0.6336 l 0.3658,0.6336 h 0.7316 l 0.3658,-0.6336 l 0.3658,0.6336 h 0.7316 l 0.3658,-0.6336 l -0.3658,-0.6336 h 0.7316 l 0.3658,-0.6336 l 0.3658,0.6336 h 0.7316 l -0.3658,0.6336 l 0.3658,0.6336 h 0.7316 l 0.3658,-0.6336 l 0.3658,0.6336 h 0.7316 l 0.3658,-0.6336 l -0.3658,-0.6336 h 0.7316 l 0.3658,-0.6336 l -0.3658,-0.6336 l -0.7316,-0.0000 l 0.3658,-0.6336 l -0.3658,-0.6336 h 0.7316 l 0.3658,-0.6336 l 0.3658,0.6336 h 0.7316 l 0.3658,-0.6336 l -0.3658,-0.6336 h 0.7316 l 0.3658,-0.6336 l 0.3658,0.6336 h 0.7316 l -0.3658,0.6336 l 0.3658,0.6336 h 0.7316 l 0.3658,-0.6336 l 0.3658,0.6336 h 0.7316 l -0.3658,0.6336 l 0.3658,0.6336 l -0.7316,0.0000 l -0.3658,0.6336 l 0.3658,0.6336 h 0.7316 l -0.3658,0.6336 l 0.3658,0.6336 h 0.7316 l 0.3658,-0.6336 l 0.3658,0.6336 h 0.7316 l 0.3658,-0.6336 l -0.3658,-0.6336 h 0.7316 l 0.3658,-0.6336 l 0.3658,0.6336 h 0.7316 l -0.3658,0.6336 l 0.3658,0.6336 h 0.7316 l 0.3658,-0.6336 l 0.3658,0.6336 h 0.7316 l 0.3658,-0.6336 l -0.3658,-0.6336 h 0.7316 l 0.3658,-0.6336 l -0.3658,-0.6336 l -0.7316,-0.0000 l 0.3658,-0.6336 l -0.3658,-0.6336 h 0.7316 l 0.3658,-0.6336 l 0.3658,0.6336 h 0.7316 l 0.3658,-0.6336 l -0.3658,-0.6336 h 0.7316 l 0.3658,-0.6336 l -0.3658,-0.6336 l -0.7316,-0.0000 l 0.3658,-0.6336 l -0.3658,-0.6336 l -0.7316,-0.0000 l -0.3658,0.6336 l -0.3658,-0.6336 l -0.7316,-0.0000 l 0.3658,-0.6336 l -0.3658,-0.6336 l 0.7316,0.0000 l 0.3658,-0.6336 l -0.3658,-0.6336 l -0.7316,-0.0000 l 0.3658,-0.6336 l -0.3658,-0.6336 l 0.7316,0.0000 l 0.3658,-0.6336 l 0.3658,0.6336 l 0.7316,0.0000 l 0.3658,-0.6336 l -0.3658,-0.6336 l 0.7316,0.0000 l 0.3658,-0.6336 l 0.3658,0.6336 l 0.7316,0.0000 l -0.3658,0.6336 l 0.3658,0.6336 l 0.7316,0.0000 l 0.3658,-0.6336 l 0.3658,0.6336 l 0.7316,0.0000 l 0.3658,-0.6336 l -0.3658,-0.6336 h 0.7316 l 0.3658,-0.6336 l -0.3658,-0.6336 l -0.7316,-0.0000 l 0.3658,-0.6336 l -0.3658,-0.6336 h 0.7316 l 0.3658,-0.6336 l 0.3658,0.6336 h 0.7316 l 0.3658,-0.6336 l -0.3658,-0.6336 h 0.7316 l 0.3658,-0.6336 l 0.3658,0.6336 h 0.7316 l -0.3658,0.6336 l 0.3658,0.6336 h 0.7316 l 0.3658,-0.6336 l 0.3658,0.6336 h 0.7316 l -0.3658,0.6336 l 0.3658,0.6336 l -0.7316,0.0000 l -0.3658,0.6336 l 0.3658,0.6336 h 0.7316 l -0.3658,0.6336 l 0.3658,0.6336 h 0.7316 l 0.3658,-0.6336 l 0.3658,0.6336 h 0.7316 l 0.3658,-0.6336 l -0.3658,-0.6336 h 0.7316 l 0.3658,-0.6336 l 0.3658,0.6336 h 0.7316 l -0.3658,0.6336 l 0.3658,0.6336 h 0.7316 l 0.3658,-0.6336 l 0.3658,0.6336 h 0.7316 l -0.3658,0.6336 l 0.3658,0.6336 l -0.7316,0.0000 l -0.3658,0.6336 l 0.3658,0.6336 l 0.7316,-0.0000 l -0.3658,0.6336 l 0.3658,0.6336 l -0.7316,0.0000 l -0.3658,0.6336 l -0.3658,-0.6336 l -0.7316,0.0000 l -0.3658,0.6336 l 0.3658,0.6336 l -0.7316,0.0000 l -0.3658,0.6336 l 0.3658,0.6336 h 0.7316 l -0.3658,0.6336 l 0.3658,0.6336 h 0.7316 l 0.3658,-0.6336 l 0.3658,0.6336 h 0.7316 l -0.3658,0.6336 l 0.3658,0.6336 l -0.7316,0.0000 l -0.3658,0.6336 l 0.3658,0.6336 h 0.7316 l -0.3658,0.6336 l 0.3658,0.6336 h 0.7316 l 0.3658,-0.6336 l 0.3658,0.6336 h 0.7316 l 0.3658,-0.6336 l -0.3658,-0.6336 h 0.7316 l 0.3658,-0.6336 l 0.3658,0.6336 h 0.7316 l -0.3658,0.6336 l 0.3658,0.6336 h 0.7316 l 0.3658,-0.6336 l 0.3658,0.6336 h 0.7316 l 0.3658,-0.6336 l -0.3658,-0.6336 h 0.7316 l 0.3658,-0.6336 l -0.3658,-0.6336 l -0.7316,-0.0000 l 0.3658,-0.6336 l -0.3658,-0.6336 h 0.7316 l 0.3658,-0.6336 l 0.3658,0.6336 h 0.7316 l 0.3658,-0.6336 l -0.3658,-0.6336 h 0.7316 l 0.3658,-0.6336 l 0.3658,0.6336 h 0.7316 l -0.3658,0.6336 l 0.3658,0.6336 h 0.7316 l 0.3658,-0.6336 l 0.3658,0.6336 h 0.7316 l -0.3658,0.6336 l 0.3658,0.6336 l -0.7316,0.0000 l -0.3658,0.6336 l 0.3658,0.6336 h 0.7316 l -0.3658,0.6336 l 0.3658,0.6336 h 0.7316 l 0.3658,-0.6336 l 0.3658,0.6336 h 0.7316 l 0.3658,-0.6336 l -0.3658,-0.6336 h 0.7316 l 0.3658,-0.6336 l 0.3658,0.6336 h 0.7316 l -0.3658,0.6336 l 0.3658,0.6336 h 0.7316 l 0.3658,-0.6336 l 0.3658,0.6336 h 0.7316 l -0.3658,0.6336 l 0.3658,0.6336 l -0.7316,0.0000 l -0.3658,0.6336 l 0.3658,0.6336 h 0.7316 l -0.3658,0.6336 l 0.3658,0.6336 l -0.7316,0.0000 l -0.3658,0.6336 l -0.3658,-0.6336 l -0.7316,0.0000 l -0.3658,0.6336 l 0.3658,0.6336 l -0.7316,0.0000 l -0.3658,0.6336 l 0.3658,0.6336 h 0.7316 l -0.3658,0.6336 l 0.3658,0.6336 h 0.7316 l 0.3658,-0.6336 l 0.3658,0.6336 h 0.7316 l -0.3658,0.6336 l 0.3658,0.6336 l -0.7316,0.0000 l -0.3658,0.6336 l 0.3658,0.6336 h 0.7316 l -0.3658,0.6336 l 0.3658,0.6336 l -0.7316,0.0000 l -0.3658,0.6336 l -0.3658,-0.6336 l -0.7316,0.0000 l -0.3658,0.6336 l 0.3658,0.6336 l -0.7316,0.0000 l -0.3658,0.6336 l -0.3658,-0.6336 l -0.7316,0.0000 l 0.3658,-0.6336 l -0.3658,-0.6336 l -0.7316,0.0000 l -0.3658,0.6336 l -0.3658,-0.6336 l -0.7316,0.0000 l -0.3658,0.6336 l 0.3658,0.6336 l -0.7316,0.0000 l -0.3658,0.6336 l 0.3658,0.6336 h 0.7316 l -0.3658,0.6336 l 0.3658,0.6336 l -0.7316,0.0000 l -0.3658,0.6336 l -0.3658,-0.6336 l -0.7316,0.0000 l -0.3658,0.6336 l 0.3658,0.6336 l -0.7316,0.0000 l -0.3658,0.6336 l 0.3658,0.6336 h 0.7316 l -0.3658,0.6336 l 0.3658,0.6336 h 0.7316 l 0.3658,-0.6336 l 0.3658,0.6336 h 0.7316 l -0.3658,0.6336 l 0.3658,0.6336 l -0.7316,0.0000 l -0.3658,0.6336 l 0.3658,0.6336 h 0.7316 l -0.3658,0.6336 l 0.3658,0.6336 l 0.7316,0.0000 l 0.3658,-0.6336 l 0.3658,0.6336 l 0.7316,0.0000 l 0.3658,-0.6336 l -0.3658,-0.6336 l 0.7316,0.0000 l 0.3658,-0.6336 l 0.3658,0.6336 l 0.7316,0.0000 l -0.3658,0.6336 l 0.3658,0.6336 l 0.7316,0.0000 l 0.3658,-0.6336 l 0.3658,0.6336 l 0.7316,0.0000 l -0.3658,0.6336 l 0.3658,0.6336 l -0.7316,0.0000 l -0.3658,0.6336 l 0.3658,0.6336 l 0.7316,-0.0000 l -0.3658,0.6336 l 0.3658,0.6336 l -0.7316,0.0000 l -0.3658,0.6336 l -0.3658,-0.6336 l -0.7316,0.0000 l -0.3658,0.6336 l 0.3658,0.6336 l -0.7316,0.0000 l -0.3658,0.6336 l 0.3658,0.6336 h 0.7316 l -0.3658,0.6336 l 0.3658,0.6336 h 0.7316 l 0.3658,-0.6336 l 0.3658,0.6336 h 0.7316 l -0.3658,0.6336 l 0.3658,0.6336 l -0.7316,0.0000 l -0.3658,0.6336 l 0.3658,0.6336 h 0.7316 l -0.3658,0.6336 l 0.3658,0.6336 l -0.7316,0.0000 l -0.3658,0.6336 l -0.3658,-0.6336 l -0.7316,0.0000 l -0.3658,0.6336 l 0.3658,0.6336 l -0.7316,0.0000 l -0.3658,0.6336 l -0.3658,-0.6336 l -0.7316,0.0000 l 0.3658,-0.6336 l -0.3658,-0.6336 l -0.7316,0.0000 l -0.3658,0.6336 l -0.3658,-0.6336 l -0.7316,0.0000 l -0.3658,0.6336 l 0.3658,0.6336 l -0.7316,0.0000 l -0.3658,0.6336 l 0.3658,0.6336 h 0.7316 l -0.3658,0.6336 l 0.3658,0.6336 l -0.7316,0.0000 l -0.3658,0.6336 l -0.3658,-0.6336 l -0.7316,0.0000 l -0.3658,0.6336 l 0.3658,0.6336 l -0.7316,0.0000 l -0.3658,0.6336 l -0.3658,-0.6336 l -0.7316,0.0000 l 0.3658,-0.6336 l -0.3658,-0.6336 l -0.7316,0.0000 l -0.3658,0.6336 l -0.3658,-0.6336 l -0.7316,0.0000 l 0.3658,-0.6336 l -0.3658,-0.6336 l 0.7316,-0.0000 l 0.3658,-0.6336 l -0.3658,-0.6336 l -0.7316,0.0000 l 0.3658,-0.6336 l -0.3658,-0.6336 l -0.7316,0.0000 l -0.3658,0.6336 l -0.3658,-0.6336 l -0.7316,0.0000 l -0.3658,0.6336 l 0.3658,0.6336 l -0.7316,0.0000 l -0.3658,0.6336 l -0.3658,-0.6336 l -0.7316,0.0000 l 0.3658,-0.6336 l -0.3658,-0.6336 l -0.7316,0.0000 l -0.3658,0.6336 l -0.3658,-0.6336 l -0.7316,0.0000 l -0.3658,0.6336 l 0.3658,0.6336 l -0.7316,0.0000 l -0.3658,0.6336 l 0.3658,0.6336 h 0.7316 l -0.3658,0.6336 l 0.3658,0.6336 l -0.7316,0.0000 l -0.3658,0.6336 l -0.3658,-0.6336 l -0.7316,0.0000 l -0.3658,0.6336 l 0.3658,0.6336 l -0.7316,0.0000 l -0.3658,0.6336 l 0.3658,0.6336 h 0.7316 l -0.3658,0.6336 l 0.3658,0.6336 h 0.7316 l 0.3658,-0.6336 l 0.3658,0.6336 h 0.7316 l -0.3658,0.6336 l 0.3658,0.6336 l -0.7316,0.0000 l -0.3658,0.6336 l 0.3658,0.6336 h 0.7316 l -0.3658,0.6336 l 0.3658,0.6336 l -0.7316,0.0000 l -0.3658,0.6336 l -0.3658,-0.6336 l -0.7316,0.0000 l -0.3658,0.6336 l 0.3658,0.6336 l -0.7316,0.0000 l -0.3658,0.6336 l -0.3658,-0.6336 l -0.7316,0.0000 l 0.3658,-0.6336 l -0.3658,-0.6336 l -0.7316,0.0000 l -0.3658,0.6336 l -0.3658,-0.6336 l -0.7316,0.0000 l -0.3658,0.6336 l 0.3658,0.6336 l -0.7316,0.0000 l -0.3658,0.6336 l 0.3658,0.6336 h 0.7316 l -0.3658,0.6336 l 0.3658,0.6336 l -0.7316,0.0000 l -0.3658,0.6336 l -0.3658,-0.6336 l -0.7316,0.0000 l -0.3658,0.6336 l 0.3658,0.6336 l -0.7316,0.0000 l -0.3658,0.6336 l 0.3658,0.6336 l 0.7316,0.0000 l -0.3658,0.6336 l 0.3658,0.6336 l 0.7316,0.0000 l 0.3658,-0.6336 l 0.3658,0.6336 l 0.7316,0.0000 l -0.3658,0.6336 l 0.3658,0.6336 l -0.7316,0.0000 l -0.3658,0.6336 l 0.3658,0.6336 l 0.7316,0.0000 l -0.3658,0.6336 l 0.3658,0.6336 l 0.7316,-0.0000 l 0.3658,-0.6336 l 0.3658,0.6336 l 0.7316,-0.0000 l 0.3658,-0.6336 l -0.3658,-0.6336 l 0.7316,-0.0000 l 0.3658,-0.6336 l 0.3658,0.6336 l 0.7316,-0.0000 l -0.3658,0.6336 l 0.3658,0.6336 l 0.7316,-0.0000 l 0.3658,-0.6336 l 0.3658,0.6336 l 0.7316,-0.0000 l -0.3658,0.6336 l 0.3658,0.6336 l -0.7316,0.0000 l -0.3658,0.6336 l 0.3658,0.6336 l 0.7316,-0.0000 l -0.3658,0.6336 l 0.3658,0.6336 l -0.7316,0.0000 l -0.3658,0.6336 l -0.3658,-0.6336 l -0.7316,0.0000 l -0.3658,0.6336 l 0.3658,0.6336 l -0.7316,0.0000 l -0.3658,0.6336 l 0.3658,0.6336 l 0.7316,0.0000 l -0.3658,0.6336 l 0.3658,0.6336 l 0.7316,0.0000 l 0.3658,-0.6336 l 0.3658,0.6336 l 0.7316,0.0000 l -0.3658,0.6336 l 0.3658,0.6336 l -0.7316,0.0000 l -0.3658,0.6336 l 0.3658,0.6336 l 0.7316,0.0000 l -0.3658,0.6336 l 0.3658,0.6336 l 0.7316,0.0000 l 0.3658,-0.6336 l 0.3658,0.6336 l 0.7316,0.0000 l 0.3658,-0.6336 l -0.3658,-0.6336 l 0.7316,0.0000 l 0.3658,-0.6336 l 0.3658,0.6336 l 0.7316,0.0000 l -0.3658,0.6336 l 0.3658,0.6336 l 0.7316,0.0000 l 0.3658,-0.6336 l 0.3658,0.6336 l 0.7316,0.0000 l 0.3658,-0.6336 l -0.3658,-0.6336 l 0.7316,0.0000 l 0.3658,-0.6336 l -0.3658,-0.6336 l -0.7316,-0.0000 l 0.3658,-0.6336 l -0.3658,-0.6336 l 0.7316,0.0000 l 0.3658,-0.6336 l 0.3658,0.6336 l 0.7316,0.0000 l 0.3658,-0.6336 l -0.3658,-0.6336 l 0.7316,0.0000 l 0.3658,-0.6336 l 0.3658,0.6336 l 0.7316,0.0000 l -0.3658,0.6336 l 0.3658,0.6336 l 0.7316,0.0000 l 0.3658,-0.6336 l 0.3658,0.6336 l 0.7316,0.0000 l -0.3658,0.6336 l 0.3658,0.6336 l -0.7316,0.0000 l -0.3658,0.6336 l 0.3658,0.6336 l 0.7316,0.0000 l -0.3658,0.6336 l 0.3658,0.6336 l 0.7316,0.0000 l 0.3658,-0.6336 l 0.3658,0.6336 l 0.7316,0.0000 l 0.3658,-0.6336 l -0.3658,-0.6336 l 0.7316,0.0000 l 0.3658,-0.6336 l 0.3658,0.6336 l 0.7316,0.0000 l -0.3658,0.6336 l 0.3658,0.6336 l 0.7316,0.0000 l 0.3658,-0.6336 l 0.3658,0.6336 l 0.7316,0.0000 l -0.3658,0.6336 l 0.3658,0.6336 l -0.7316,0.0000 l -0.3658,0.6336 l 0.3658,0.6336 l 0.7316,0.0000 l -0.3658,0.6336 l 0.3658,0.6336 l -0.7316,0.0000 l -0.3658,0.6336 l -0.3658,-0.6336 l -0.7316,0.0000 l -0.3658,0.6336 l 0.3658,0.6336 l -0.7316,0.0000 l -0.3658,0.6336 l 0.3658,0.6336 l 0.7316,0.0000 l -0.3658,0.6336 l 0.3658,0.6336 l 0.7316,0.0000 l 0.3658,-0.6336 l 0.3658,0.6336 l 0.7316,0.0000 l -0.3658,0.6336 l 0.3658,0.6336 l -0.7316,0.0000 l -0.3658,0.6336 l 0.3658,0.6336 l 0.7316,0.0000 l -0.3658,0.6336 l 0.3658,0.6336 l -0.7316,0.0000 l -0.3658,0.6336 l -0.3658,-0.6336 l -0.7316,0.0000 l -0.3658,0.6336 l 0.3658,0.6336 l -0.7316,0.0000 l -0.3658,0.6336 l -0.3658,-0.6336 l -0.7316,0.0000 l 0.3658,-0.6336 l -0.3658,-0.6336 l -0.7316,0.0000 l -0.3658,0.6336 l -0.3658,-0.6336 l -0.7316,0.0000 l -0.3658,0.6336 l 0.3658,0.6336 l -0.7316,0.0000 l -0.3658,0.6336 l 0.3658,0.6336 l 0.7316,0.0000 l -0.3658,0.6336 l 0.3658,0.6336 l -0.7316,0.0000 l -0.3658,0.6336 l -0.3658,-0.6336 l -0.7316,0.0000 l -0.3658,0.6336 l 0.3658,0.6336 l -0.7316,0.0000 l -0.3658,0.6336 l 0.3658,0.6336 l 0.7316,0.0000 l -0.3658,0.6336 l 0.3658,0.6336 l 0.7316,0.0000 l 0.3658,-0.6336 l 0.3658,0.6336 l 0.7316,0.0000 l -0.3658,0.6336 l 0.3658,0.6336 l -0.7316,0.0000 l -0.3658,0.6336 l 0.3658,0.6336 l 0.7316,0.0000 l -0.3658,0.6336 l 0.3658,0.6336 l 0.7316,-0.0000 l 0.3658,-0.6336 l 0.3658,0.6336 l 0.7316,-0.0000 l 0.3658,-0.6336 l -0.3658,-0.6336 l 0.7316,-0.0000 l 0.3658,-0.6336 l 0.3658,0.6336 l 0.7316,-0.0000 l -0.3658,0.6336 l 0.3658,0.6336 l 0.7316,-0.0000 l 0.3658,-0.6336 l 0.3658,0.6336 l 0.7316,-0.0000 l -0.3658,0.6336 l 0.3658,0.6336 l -0.7316,0.0000 l -0.3658,0.6336 l 0.3658,0.6336 l 0.7316,-0.0000 l -0.3658,0.6336 l 0.3658,0.6336 l -0.7316,0.0000 l -0.3658,0.6336 l -0.3658,-0.6336 l -0.7316,0.0000 l -0.3658,0.6336 l 0.3658,0.6336 l -0.7316,0.0000 l -0.3658,0.6336 l 0.3658,0.6336 l 0.7316,0.0000 l -0.3658,0.6336 l 0.3658,0.6336 l 0.7316,0.0000 l 0.3658,-0.6336 l 0.3658,0.6336 l 0.7316,0.0000 l -0.3658,0.6336 l 0.3658,0.6336 l -0.7316,0.0000 l -0.3658,0.6336 l 0.3658,0.6336 l 0.7316,0.0000 l -0.3658,0.6336 l 0.3658,0.6336 h 0.7316 l 0.3658,-0.6336 l 0.3658,0.6336 h 0.7316 l 0.3658,-0.6336 l -0.3658,-0.6336 h 0.7316 l 0.3658,-0.6336 l 0.3658,0.6336 h 0.7316 l -0.3658,0.6336 l 0.3658,0.6336 h 0.7316 l 0.3658,-0.6336 l 0.3658,0.6336 h 0.7316 l 0.3658,-0.6336 l -0.3658,-0.6336 h 0.7316 l 0.3658,-0.6336 l -0.3658,-0.6336 l -0.7316,-0.0000 l 0.3658,-0.6336 l -0.3658,-0.6336 h 0.7316 l 0.3658,-0.6336 l 0.3658,0.6336 h 0.7316 l 0.3658,-0.6336 l -0.3658,-0.6336 h 0.7316 l 0.3658,-0.6336 l 0.3658,0.6336 h 0.7316 l -0.3658,0.6336 l 0.3658,0.6336 h 0.7316 l 0.3658,-0.6336 l 0.3658,0.6336 h 0.7316 l -0.3658,0.6336 l 0.3658,0.6336 l -0.7316,0.0000 l -0.3658,0.6336 l 0.3658,0.6336 h 0.7316 l -0.3658,0.6336 l 0.3658,0.6336 h 0.7316 l 0.3658,-0.6336 l 0.3658,0.6336 h 0.7316 l 0.3658,-0.6336 l -0.3658,-0.6336 h 0.7316 l 0.3658,-0.6336 l 0.3658,0.6336 h 0.7316 l -0.3658,0.6336 l 0.3658,0.6336 h 0.7316 l 0.3658,-0.6336 l 0.3658,0.6336 h 0.7316 l 0.3658,-0.6336 l -0.3658,-0.6336 h 0.7316 l 0.3658,-0.6336 l -0.3658,-0.6336 l -0.7316,-0.0000 l 0.3658,-0.6336 l -0.3658,-0.6336 h 0.7316 l 0.3658,-0.6336 l 0.3658,0.6336 h 0.7316 l 0.3658,-0.6336 l -0.3658,-0.6336 h 0.7316 l 0.3658,-0.6336 l -0.3658,-0.6336 l -0.7316,-0.0000 l 0.3658,-0.6336 l -0.3658,-0.6336 l -0.7316,-0.0000 l -0.3658,0.6336 l -0.3658,-0.6336 l -0.7316,-0.0000 l 0.3658,-0.6336 l -0.3658,-0.6336 l 0.7316,0.0000 l 0.3658,-0.6336 l -0.3658,-0.6336 l -0.7316,-0.0000 l 0.3658,-0.6336 l -0.3658,-0.6336 l 0.7316,0.0000 l 0.3658,-0.6336 l 0.3658,0.6336 l 0.7316,0.0000 l 0.3658,-0.6336 l -0.3658,-0.6336 l 0.7316,0.0000 l 0.3658,-0.6336 l 0.3658,0.6336 l 0.7316,0.0000 l -0.3658,0.6336 l 0.3658,0.6336 l 0.7316,0.0000 l 0.3658,-0.6336 l 0.3658,0.6336 l 0.7316,0.0000 l 0.3658,-0.6336 l -0.3658,-0.6336 h 0.7316 l 0.3658,-0.6336 l -0.3658,-0.6336 l -0.7316,-0.0000 l 0.3658,-0.6336 l -0.3658,-0.6336 h 0.7316 l 0.3658,-0.6336 l 0.3658,0.6336 h 0.7316 l 0.3658,-0.6336 l -0.3658,-0.6336 h 0.7316 l 0.3658,-0.6336 l 0.3658,0.6336 h 0.7316 l -0.3658,0.6336 l 0.3658,0.6336 h 0.7316 l 0.3658,-0.6336 l 0.3658,0.6336 h 0.7316 l -0.3658,0.6336 l 0.3658,0.6336 l -0.7316,0.0000 l -0.3658,0.6336 l 0.3658,0.6336 h 0.7316 l -0.3658,0.6336 l 0.3658,0.6336 l 0.7316,-0.0000 l 0.3658,-0.6336 l 0.3658,0.6336 l 0.7316,-0.0000 l 0.3658,-0.6336 l -0.3658,-0.6336 l 0.7316,-0.0000 l 0.3658,-0.6336 l 0.3658,0.6336 l 0.7316,-0.0000 l -0.3658,0.6336 l 0.3658,0.6336 l 0.7316,-0.0000 l 0.3658,-0.6336 l 0.3658,0.6336 l 0.7316,-0.0000 l -0.3658,0.6336 l 0.3658,0.6336 l -0.7316,0.0000 l -0.3658,0.6336 l 0.3658,0.6336 l 0.7316,-0.0000 l -0.3658,0.6336 l 0.3658,0.6336 l -0.7316,0.0000 l -0.3658,0.6336 l -0.3658,-0.6336 l -0.7316,0.0000 l -0.3658,0.6336 l 0.3658,0.6336 l -0.7316,0.0000 l -0.3658,0.6336 l 0.3658,0.6336 h 0.7316 l -0.3658,0.6336 l 0.3658,0.6336 h 0.7316 l 0.3658,-0.6336 l 0.3658,0.6336 h 0.7316 l -0.3658,0.6336 l 0.3658,0.6336 l -0.7316,0.0000 l -0.3658,0.6336 l 0.3658,0.6336 h 0.7316 l -0.3658,0.6336 l 0.3658,0.6336 h 0.7316 l 0.3658,-0.6336 l 0.3658,0.6336 h 0.7316 l 0.3658,-0.6336 l -0.3658,-0.6336 h 0.7316 l 0.3658,-0.6336 l 0.3658,0.6336 h 0.7316 l -0.3658,0.6336 l 0.3658,0.6336 h 0.7316 l 0.3658,-0.6336 l 0.3658,0.6336 h 0.7316 l 0.3658,-0.6336 l -0.3658,-0.6336 h 0.7316 l 0.3658,-0.6336 l -0.3658,-0.6336 l -0.7316,-0.0000 l 0.3658,-0.6336 l -0.3658,-0.6336 h 0.7316 l 0.3658,-0.6336 l 0.3658,0.6336 h 0.7316 l 0.3658,-0.6336 l -0.3658,-0.6336 h 0.7316 l 0.3658,-0.6336 l 0.3658,0.6336 h 0.7316 l -0.3658,0.6336 l 0.3658,0.6336 h 0.7316 l 0.3658,-0.6336 l 0.3658,0.6336 h 0.7316 l -0.3658,0.6336 l 0.3658,0.6336 l -0.7316,0.0000 l -0.3658,0.6336 l 0.3658,0.6336 h 0.7316 l -0.3658,0.6336 l 0.3658,0.6336 h 0.7316 l 0.3658,-0.6336 l 0.3658,0.6336 h 0.7316 l 0.3658,-0.6336 l -0.3658,-0.6336 h 0.7316 l 0.3658,-0.6336 l 0.3658,0.6336 h 0.7316 l -0.3658,0.6336 l 0.3658,0.6336 h 0.7316 l 0.3658,-0.6336 l 0.3658,0.6336 h 0.7316 l 0.3658,-0.6336 l -0.3658,-0.6336 l 0.7316,-0.0000 l 0.3658,-0.6336 l -0.3658,-0.6336 l -0.7316,-0.0000 l 0.3658,-0.6336 l -0.3658,-0.6336 l 0.7316,-0.0000 l 0.3658,-0.6336 l 0.3658,0.6336 l 0.7316,-0.0000 l 0.3658,-0.6336 l -0.3658,-0.6336 l 0.7316,-0.0000 l 0.3658,-0.6336 l -0.3658,-0.6336 l -0.7316,-0.0000 l 0.3658,-0.6336 l -0.3658,-0.6336 l -0.7316,-0.0000 l -0.3658,0.6336 l -0.3658,-0.6336 l -0.7316,-0.0000 l 0.3658,-0.6336 l -0.3658,-0.6336 l 0.7316,0.0000 l 0.3658,-0.6336 l -0.3658,-0.6336 l -0.7316,-0.0000 l 0.3658,-0.6336 l -0.3658,-0.6336 l 0.7316,0.0000 l 0.3658,-0.6336 l 0.3658,0.6336 l 0.7316,0.0000 l 0.3658,-0.6336 l -0.3658,-0.6336 l 0.7316,0.0000 l 0.3658,-0.6336 l 0.3658,0.6336 l 0.7316,0.0000 l -0.3658,0.6336 l 0.3658,0.6336 l 0.7316,0.0000 l 0.3658,-0.6336 l 0.3658,0.6336 l 0.7316,0.0000 l 0.3658,-0.6336 l -0.3658,-0.6336 l 0.7316,-0.0000 l 0.3658,-0.6336 l -0.3658,-0.6336 l -0.7316,-0.0000 l 0.3658,-0.6336 l -0.3658,-0.6336 l 0.7316,-0.0000 l 0.3658,-0.6336 l 0.3658,0.6336 l 0.7316,-0.0000 l 0.3658,-0.6336 l -0.3658,-0.6336 l 0.7316,-0.0000 l 0.3658,-0.6336 l -0.3658,-0.6336 l -0.7316,-0.0000 l 0.3658,-0.6336 l -0.3658,-0.6336 l -0.7316,-0.0000 l -0.3658,0.6336 l -0.3658,-0.6336 l -0.7316,-0.0000 l 0.3658,-0.6336 l -0.3658,-0.6336 l 0.7316,-0.0000 l 0.3658,-0.6336 l -0.3658,-0.6336 l -0.7316,-0.0000 l 0.3658,-0.6336 l -0.3658,-0.6336 l -0.7316,-0.0000 l -0.3658,0.6336 l -0.3658,-0.6336 l -0.7316,-0.0000 l -0.3658,0.6336 l 0.3658,0.6336 l -0.7316,-0.0000 l -0.3658,0.6336 l -0.3658,-0.6336 l -0.7316,-0.0000 l 0.3658,-0.6336 l -0.3658,-0.6336 l -0.7316,-0.0000 l -0.3658,0.6336 l -0.3658,-0.6336 l -0.7316,-0.0000 l 0.3658,-0.6336 l -0.3658,-0.6336 l 0.7316,-0.0000 l 0.3658,-0.6336 l -0.3658,-0.6336 l -0.7316,-0.0000 l 0.3658,-0.6336 l -0.3658,-0.6336 l 0.7316,-0.0000 l 0.3658,-0.6336 l 0.3658,0.6336 l 0.7316,-0.0000 l 0.3658,-0.6336 l -0.3658,-0.6336 l 0.7316,-0.0000 l 0.3658,-0.6336 l -0.3658,-0.6336 l -0.7316,-0.0000 l 0.3658,-0.6336 l -0.3658,-0.6336 l -0.7316,-0.0000 l -0.3658,0.6336 l -0.3658,-0.6336 l -0.7316,-0.0000 l 0.3658,-0.6336 l -0.3658,-0.6336 l 0.7316,-0.0000 l 0.3658,-0.6336 l -0.3658,-0.6336 l -0.7316,-0.0000 l 0.3658,-0.6336 l -0.3658,-0.6336 l 0.7316,-0.0000 l 0.3658,-0.6336 l 0.3658,0.6336 l 0.7316,-0.0000 l 0.3658,-0.6336 l -0.3658,-0.6336 l 0.7316,-0.0000 l 0.3658,-0.6336 l 0.3658,0.6336 l 0.7316,-0.0000 l -0.3658,0.6336 l 0.3658,0.6336 l 0.7316,-0.0000 l 0.3658,-0.6336 l 0.3658,0.6336 l 0.7316,-0.0000 l 0.3658,-0.6336 l -0.3658,-0.6336 l 0.7316,-0.0000 l 0.3658,-0.6336 l -0.3658,-0.6336 l -0.7316,-0.0000 l 0.3658,-0.6336 l -0.3658,-0.6336 l 0.7316,-0.0000 l 0.3658,-0.6336 l 0.3658,0.6336 l 0.7316,-0.0000 l 0.3658,-0.6336 l -0.3658,-0.6336 l 0.7316,-0.0000 l 0.3658,-0.6336 l 0.3658,0.6336 l 0.7316,-0.0000 l -0.3658,0.6336 l 0.3658,0.6336 l 0.7316,-0.0000 l 0.3658,-0.6336 l 0.3658,0.6336 l 0.7316,-0.0000 l -0.3658,0.6336 l 0.3658,0.6336 l -0.7316,0.0000 l -0.3658,0.6336 l 0.3658,0.6336 l 0.7316,-0.0000 l -0.3658,0.6336 l 0.3658,0.6336 l 0.7316,-0.0000 l 0.3658,-0.6336 l 0.3658,0.6336 l 0.7316,-0.0000 l 0.3658,-0.6336 l -0.3658,-0.6336 l 0.7316,-0.0000 l 0.3658,-0.6336 l 0.3658,0.6336 l 0.7316,-0.0000 l -0.3658,0.6336 l 0.3658,0.6336 l 0.7316,-0.0000 l 0.3658,-0.6336 l 0.3658,0.6336 l 0.7316,-0.0000 l 0.3658,-0.6336 l -0.3658,-0.6336 l 0.7316,-0.0000 l 0.3658,-0.6336 l -0.3658,-0.6336 l -0.7316,-0.0000 l 0.3658,-0.6336 l -0.3658,-0.6336 l 0.7316,-0.0000 l 0.3658,-0.6336 l 0.3658,0.6336 l 0.7316,-0.0000 l 0.3658,-0.6336 l -0.3658,-0.6336 l 0.7316,-0.0000 l 0.3658,-0.6336 l -0.3658,-0.6336 l -0.7316,-0.0000 l 0.3658,-0.6336 l -0.3658,-0.6336 l -0.7316,-0.0000 l -0.3658,0.6336 l -0.3658,-0.6336 l -0.7316,-0.0000 l 0.3658,-0.6336 l -0.3658,-0.6336 l 0.7316,0.0000 l 0.3658,-0.6336 l -0.3658,-0.6336 l -0.7316,-0.0000 l 0.3658,-0.6336 l -0.3658,-0.6336 l 0.7316,0.0000 l 0.3658,-0.6336 l 0.3658,0.6336 l 0.7316,0.0000 l 0.3658,-0.6336 l -0.3658,-0.6336 l 0.7316,0.0000 l 0.3658,-0.6336 l 0.3658,0.6336 l 0.7316,0.0000 l -0.3658,0.6336 l 0.3658,0.6336 l 0.7316,0.0000 l 0.3658,-0.6336 l 0.3658,0.6336 l 0.7316,0.0000 l 0.3658,-0.6336 l -0.3658,-0.6336 l 0.7316,-0.0000 l 0.3658,-0.6336 l -0.3658,-0.6336 l -0.7316,-0.0000 l 0.3658,-0.6336 l -0.3658,-0.6336 l 0.7316,-0.0000 l 0.3658,-0.6336 l 0.3658,0.6336 l 0.7316,-0.0000 l 0.3658,-0.6336 l -0.3658,-0.6336 l 0.7316,-0.0000 l 0.3658,-0.6336 l 0.3658,0.6336 l 0.7316,0.0000 l -0.3658,0.6336 l 0.3658,0.6336 l 0.7316,0.0000 l 0.3658,-0.6336 l 0.3658,0.6336 l 0.7316,0.0000 l -0.3658,0.6336 l 0.3658,0.6336 l -0.7316,0.0000 l -0.3658,0.6336 l 0.3658,0.6336 l 0.7316,0.0000 l -0.3658,0.6336 l 0.3658,0.6336 l 0.7316,-0.0000 l 0.3658,-0.6336 l 0.3658,0.6336 l 0.7316,-0.0000 l 0.3658,-0.6336 l -0.3658,-0.6336 l 0.7316,-0.0000 l 0.3658,-0.6336 l 0.3658,0.6336 l 0.7316,-0.0000 l -0.3658,0.6336 l 0.3658,0.6336 l 0.7316,-0.0000 l 0.3658,-0.6336 l 0.3658,0.6336 l 0.7316,-0.0000 l -0.3658,0.6336 l 0.3658,0.6336 l -0.7316,0.0000 l -0.3658,0.6336 l 0.3658,0.6336 l 0.7316,-0.0000 l -0.3658,0.6336 l 0.3658,0.6336 l -0.7316,0.0000 l -0.3658,0.6336 l -0.3658,-0.6336 l -0.7316,0.0000 l -0.3658,0.6336 l 0.3658,0.6336 l -0.7316,0.0000 l -0.3658,0.6336 l 0.3658,0.6336 l 0.7316,0.0000 l -0.3658,0.6336 l 0.3658,0.6336 l 0.7316,0.0000 l 0.3658,-0.6336 l 0.3658,0.6336 l 0.7316,0.0000 l -0.3658,0.6336 l 0.3658,0.6336 l -0.7316,0.0000 l -0.3658,0.6336 l 0.3658,0.6336 l 0.7316,0.0000 l -0.3658,0.6336 l 0.3658,0.6336 l 0.7316,0.0000 l 0.3658,-0.6336 l 0.3658,0.6336 l 0.7316,0.0000 l 0.3658,-0.6336 l -0.3658,-0.6336 l 0.7316,0.0000 l 0.3658,-0.6336 l 0.3658,0.6336 l 0.7316,0.0000 l -0.3658,0.6336 l 0.3658,0.6336 l 0.7316,0.0000 l 0.3658,-0.6336 l 0.3658,0.6336 l 0.7316,0.0000 l 0.3658,-0.6336 l -0.3658,-0.6336 l 0.7316,0.0000 l 0.3658,-0.6336 l -0.3658,-0.6336 l -0.7316,-0.0000 l 0.3658,-0.6336 l -0.3658,-0.6336 l 0.7316,0.0000 l 0.3658,-0.6336 l 0.3658,0.6336 l 0.7316,0.0000 l 0.3658,-0.6336 l -0.3658,-0.6336 l 0.7316,0.0000 l 0.3658,-0.6336 l 0.3658,0.6336 l 0.7316,0.0000 l -0.3658,0.6336 l 0.3658,0.6336 l 0.7316,0.0000 l 0.3658,-0.6336 l 0.3658,0.6336 l 0.7316,0.0000 l -0.3658,0.6336 l 0.3658,0.6336 l -0.7316,0.0000 l -0.3658,0.6336 l 0.3658,0.6336 l 0.7316,0.0000 l -0.3658,0.6336 l 0.3658,0.6336 l 0.7316,0.0000 l 0.3658,-0.6336 l 0.3658,0.6336 l 0.7316,0.0000 l 0.3658,-0.6336 l -0.3658,-0.6336 l 0.7316,0.0000 l 0.3658,-0.6336 l 0.3658,0.6336 l 0.7316,0.0000 l -0.3658,0.6336 l 0.3658,0.6336 l 0.7316,0.0000 l 0.3658,-0.6336 l 0.3658,0.6336 l 0.7316,0.0000 l -0.3658,0.6336 l 0.3658,0.6336 l -0.7316,0.0000 l -0.3658,0.6336 l 0.3658,0.6336 l 0.7316,0.0000 l -0.3658,0.6336 l 0.3658,0.6336 l -0.7316,0.0000 l -0.3658,0.6336 l -0.3658,-0.6336 l -0.7316,0.0000 l -0.3658,0.6336 l 0.3658,0.6336 l -0.7316,0.0000 l -0.3658,0.6336 l 0.3658,0.6336 l 0.7316,0.0000 l -0.3658,0.6336 l 0.3658,0.6336 l 0.7316,0.0000 l 0.3658,-0.6336 l 0.3658,0.6336 l 0.7316,0.0000 l -0.3658,0.6336 l 0.3658,0.6336 l -0.7316,0.0000 l -0.3658,0.6336 l 0.3658,0.6336 l 0.7316,0.0000 l -0.3658,0.6336 l 0.3658,0.6336 l -0.7316,0.0000 l -0.3658,0.6336 l -0.3658,-0.6336 l -0.7316,0.0000 l -0.3658,0.6336 l 0.3658,0.6336 l -0.7316,0.0000 l -0.3658,0.6336 l -0.3658,-0.6336 l -0.7316,0.0000 l 0.3658,-0.6336 l -0.3658,-0.6336 l -0.7316,0.0000 l -0.3658,0.6336 l -0.3658,-0.6336 l -0.7316,0.0000 l -0.3658,0.6336 l 0.3658,0.6336 l -0.7316,0.0000 l -0.3658,0.6336 l 0.3658,0.6336 l 0.7316,0.0000 l -0.3658,0.6336 l 0.3658,0.6336 l -0.7316,0.0000 l -0.3658,0.6336 l -0.3658,-0.6336 l -0.7316,0.0000 l -0.3658,0.6336 l 0.3658,0.6336 l -0.7316,0.0000 l -0.3658,0.6336 l 0.3658,0.6336 l 0.7316,0.0000 l -0.3658,0.6336 l 0.3658,0.6336 l 0.7316,0.0000 l 0.3658,-0.6336 l 0.3658,0.6336 l 0.7316,0.0000 l -0.3658,0.6336 l 0.3658,0.6336 l -0.7316,0.0000 l -0.3658,0.6336 l 0.3658,0.6336 l 0.7316,0.0000 l -0.3658,0.6336 l 0.3658,0.6336 l 0.7316,-0.0000 l 0.3658,-0.6336 l 0.3658,0.6336 l 0.7316,-0.0000 l 0.3658,-0.6336 l -0.3658,-0.6336 l 0.7316,-0.0000 l 0.3658,-0.6336 l 0.3658,0.6336 l 0.7316,-0.0000 l -0.3658,0.6336 l 0.3658,0.6336 l 0.7316,-0.0000 l 0.3658,-0.6336 l 0.3658,0.6336 l 0.7316,-0.0000 l -0.3658,0.6336 l 0.3658,0.6336 l -0.7316,0.0000 l -0.3658,0.6336 l 0.3658,0.6336 l 0.7316,-0.0000 l -0.3658,0.6336 l 0.3658,0.6336 l -0.7316,0.0000 l -0.3658,0.6336 l -0.3658,-0.6336 l -0.7316,0.0000 l -0.3658,0.6336 l 0.3658,0.6336 l -0.7316,0.0000 l -0.3658,0.6336 l 0.3658,0.6336 l 0.7316,0.0000 l -0.3658,0.6336 l 0.3658,0.6336 l 0.7316,0.0000 l 0.3658,-0.6336 l 0.3658,0.6336 l 0.7316,0.0000 l -0.3658,0.6336 l 0.3658,0.6336 l -0.7316,0.0000 l -0.3658,0.6336 l 0.3658,0.6336 l 0.7316,0.0000 l -0.3658,0.6336 l 0.3658,0.6336 h 0.7316 l 0.3658,-0.6336 l 0.3658,0.6336 h 0.7316 l 0.3658,-0.6336 l -0.3658,-0.6336 h 0.7316 l 0.3658,-0.6336 l 0.3658,0.6336 h 0.7316 l -0.3658,0.6336 l 0.3658,0.6336 h 0.7316 l 0.3658,-0.6336 l 0.3658,0.6336 h 0.7316 l 0.3658,-0.6336 l -0.3658,-0.6336 h 0.7316 l 0.3658,-0.6336 l -0.3658,-0.6336 l -0.7316,-0.0000 l 0.3658,-0.6336 l -0.3658,-0.6336 h 0.7316 l 0.3658,-0.6336 l 0.3658,0.6336 h 0.7316 l 0.3658,-0.6336 l -0.3658,-0.6336 h 0.7316 l 0.3658,-0.6336 l 0.3658,0.6336 h 0.7316 l -0.3658,0.6336 l 0.3658,0.6336 h 0.7316 l 0.3658,-0.6336 l 0.3658,0.6336 h 0.7316 l -0.3658,0.6336 l 0.3658,0.6336 l -0.7316,0.0000 l -0.3658,0.6336 l 0.3658,0.6336 h 0.7316 l -0.3658,0.6336 l 0.3658,0.6336 h 0.7316 l 0.3658,-0.6336 l 0.3658,0.6336 h 0.7316 l 0.3658,-0.6336 l -0.3658,-0.6336 h 0.7316 l 0.3658,-0.6336 l 0.3658,0.6336 h 0.7316 l -0.3658,0.6336 l 0.3658,0.6336 h 0.7316 l 0.3658,-0.6336 l 0.3658,0.6336 h 0.7316 l 0.3658,-0.6336 l -0.3658,-0.6336 h 0.7316 l 0.3658,-0.6336 l -0.3658,-0.6336 l -0.7316,-0.0000 l 0.3658,-0.6336 l -0.3658,-0.6336 h 0.7316 l 0.3658,-0.6336 l 0.3658,0.6336 h 0.7316 l 0.3658,-0.6336 l -0.3658,-0.6336 h 0.7316 l 0.3658,-0.6336 l -0.3658,-0.6336 l -0.7316,-0.0000 l 0.3658,-0.6336 l -0.3658,-0.6336 l -0.7316,-0.0000 l -0.3658,0.6336 l -0.3658,-0.6336 l -0.7316,-0.0000 l 0.3658,-0.6336 l -0.3658,-0.6336 l 0.7316,0.0000 l 0.3658,-0.6336 l -0.3658,-0.6336 l -0.7316,-0.0000 l 0.3658,-0.6336 l -0.3658,-0.6336 l 0.7316,0.0000 l 0.3658,-0.6336 l 0.3658,0.6336 l 0.7316,0.0000 l 0.3658,-0.6336 l -0.3658,-0.6336 l 0.7316,0.0000 l 0.3658,-0.6336 l 0.3658,0.6336 l 0.7316,0.0000 l -0.3658,0.6336 l 0.3658,0.6336 l 0.7316,0.0000 l 0.3658,-0.6336 l 0.3658,0.6336 l 0.7316,0.0000 l 0.3658,-0.6336 l -0.3658,-0.6336 h 0.7316 l 0.3658,-0.6336 l -0.3658,-0.6336 l -0.7316,-0.0000 l 0.3658,-0.6336 l -0.3658,-0.6336 h 0.7316 l 0.3658,-0.6336 l 0.3658,0.6336 h 0.7316 l 0.3658,-0.6336 l -0.3658,-0.6336 h 0.7316 l 0.3658,-0.6336 l 0.3658,0.6336 h 0.7316 l -0.3658,0.6336 l 0.3658,0.6336 h 0.7316 l 0.3658,-0.6336 l 0.3658,0.6336 h 0.7316 l -0.3658,0.6336 l 0.3658,0.6336 l -0.7316,0.0000 l -0.3658,0.6336 l 0.3658,0.6336 h 0.7316 l -0.3658,0.6336 l 0.3658,0.6336 l 0.7316,-0.0000 l 0.3658,-0.6336 l 0.3658,0.6336 l 0.7316,-0.0000 l 0.3658,-0.6336 l -0.3658,-0.6336 l 0.7316,-0.0000 l 0.3658,-0.6336 l 0.3658,0.6336 l 0.7316,-0.0000 l -0.3658,0.6336 l 0.3658,0.6336 l 0.7316,-0.0000 l 0.3658,-0.6336 l 0.3658,0.6336 l 0.7316,-0.0000 l -0.3658,0.6336 l 0.3658,0.6336 l -0.7316,0.0000 l -0.3658,0.6336 l 0.3658,0.6336 l 0.7316,-0.0000 l -0.3658,0.6336 l 0.3658,0.6336 l -0.7316,0.0000 l -0.3658,0.6336 l -0.3658,-0.6336 l -0.7316,0.0000 l -0.3658,0.6336 l 0.3658,0.6336 l -0.7316,0.0000 l -0.3658,0.6336 l 0.3658,0.6336 h 0.7316 l -0.3658,0.6336 l 0.3658,0.6336 h 0.7316 l 0.3658,-0.6336 l 0.3658,0.6336 h 0.7316 l -0.3658,0.6336 l 0.3658,0.6336 l -0.7316,0.0000 l -0.3658,0.6336 l 0.3658,0.6336 h 0.7316 l -0.3658,0.6336 l 0.3658,0.6336 h 0.7316 l 0.3658,-0.6336 l 0.3658,0.6336 h 0.7316 l 0.3658,-0.6336 l -0.3658,-0.6336 h 0.7316 l 0.3658,-0.6336 l 0.3658,0.6336 h 0.7316 l -0.3658,0.6336 l 0.3658,0.6336 h 0.7316 l 0.3658,-0.6336 l 0.3658,0.6336 h 0.7316 l 0.3658,-0.6336 l -0.3658,-0.6336 h 0.7316 l 0.3658,-0.6336 l -0.3658,-0.6336 l -0.7316,-0.0000 l 0.3658,-0.6336 l -0.3658,-0.6336 h 0.7316 l 0.3658,-0.6336 l 0.3658,0.6336 h 0.7316 l 0.3658,-0.6336 l -0.3658,-0.6336 h 0.7316 l 0.3658,-0.6336 l 0.3658,0.6336 h 0.7316 l -0.3658,0.6336 l 0.3658,0.6336 h 0.7316 l 0.3658,-0.6336 l 0.3658,0.6336 h 0.7316 l -0.3658,0.6336 l 0.3658,0.6336 l -0.7316,0.0000 l -0.3658,0.6336 l 0.3658,0.6336 h 0.7316 l -0.3658,0.6336 l 0.3658,0.6336 h 0.7316 l 0.3658,-0.6336 l 0.3658,0.6336 h 0.7316 l 0.3658,-0.6336 l -0.3658,-0.6336 h 0.7316 l 0.3658,-0.6336 l 0.3658,0.6336 h 0.7316 l -0.3658,0.6336 l 0.3658,0.6336 h 0.7316 l 0.3658,-0.6336 l 0.3658,0.6336 h 0.7316 "/></g></svg>