<?xml version="1.0" encoding="UTF-8"?>
<!DOCTYPE svg PUBLIC "-//W3C//DTD SVG 1.1//EN"
    "http://www.w3.org/Graphics/SVG/1.1/DTD/svg11.dtd"><svg xmlns="http://www.w3.org/2000/svg" height="600.0000" stroke-opacity="1" viewBox="0 0 600 600" font-size="1" width="600.0000" xmlns:xlink="http://www.w3.org/1999/xlink" stroke="rgb(0,0,0)" version="1.1"><defs></defs><g stroke-linejoin="miter" stroke-opacity="1.0" fill-opacity="0.0" stroke="rgb(139,0,0)" stroke-width="2.4" fill="rgb(0,0,0)" stroke-linecap="butt" stroke-miterlimit="10.0"><path d="M 35.2941,35.2941 l 35.2941,-0.0000 l 0.0000,35.2941 l -35.2941,0.0000 v 35.2941 v 35.2941 h 35.2941 v -35.2941 h 35.2941 v 35.2941 h 35.2941 v -35.2941 v -35.2941 l -35.2941,0.0000 l -0.0000,-35.2941 l 35.2941,-0.0000 l 35.2941,-0.0000 v 35.2941 h 35.2941 v -35.2941 l 35.2941,-0.0000 l 35.2941,-0.0000 l 0.0000,35.2941 l -35.2941,0.0000 l 0.0000,35.2941 l 35.2941,-0.0000 l 0.0000,35.2941 l -35.2941,0.0000 l -35.2941,0.0000 v -35.2941 h -35.2941 v 35.2941 l 0.0000,35.2941 v 35.2941 h 35.2941 v -35.2941 l 35.2941,-0.0000 l 35.2941,-0.0000 l 0.0000,35.2941 l -35.2941,0.0000 l 0.0000,35.2941 l 35.2941,-0.0000 l 0.0000,35.2941 l -35.2941,0.0000 l -35.2941,0.0000 v -35.2941 h -35.2941 v 35.2941 l -35.2941,0.0000 l -35.2941,0.0000 l -0.0000,-35.2941 l 35.2941,-0.0000 v -35.2941 v -35.2941 h -35.2941 v 35.2941 h -35.2941 v -35.2941 h -35.2941 v 35.2941 v 35.2941 l 35.2941,-0.0000 l 0.0000,35.2941 l -35.2941,0.0000 v 35.2941 v 35.2941 h 35.2941 v -35.2941 l 35.2941,-0.0000 l 35.2941,-0.0000 l 0.0000,35.2941 l -35.2941,0.0000 l 0.0000,35.2941 l 35.2941,-0.0000 l 0.0000,35.2941 l -35.2941,0.0000 l -35.2941,0.0000 v -35.2941 h -35.2941 v 35.2941 v 35.2941 l 35.2941,-0.0000 l 0.0000,35.2941 l -35.2941,0.0000 v 35.2941 v 35.2941 h 35.2941 v -35.2941 h 35.2941 v 35.2941 h 35.2941 v -35.2941 v -35.2941 l -35.2941,0.0000 l -0.0000,-35.2941 l 35.2941,-0.0000 h 35.2941 l 35.2941,-0.0000 l 0.0000,35.2941 l -35.2941,0.0000 v 35.2941 v 35.2941 h 35.2941 v -35.2941 h 35.2941 v 35.2941 h 35.2941 v -35.2941 v -35.2941 l -35.2941,0.0000 l -0.0000,-35.2941 l 35.2941,-0.0000 v -35.2941 v -35.2941 h -35.2941 v 35.2941 l -35.2941,0.0000 l -35.2941,0.0000 l -0.0000,-35.2941 l 35.2941,-0.0000 l -0.0000,-35.2941 l -35.2941,0.0000 l -0.0000,-35.2941 l 35.2941,-0.0000 l 35.2941,-0.0000 v 35.2941 h 35.2941 v -35.2941 h 35.2941 v 35.2941 h 35.2941 v -35.2941 l 35.2941,-0.0000 l 35.2941,-0.0000 l 0.0000,35.2941 l -35.2941,0.0000 l 0.0000,35.2941 l 35.2941,-0.0000 l 0.0000,35.2941 l -35.2941,0.0000 l -35.2941,0.0000 v -35.2941 h -35.2941 v 35.2941 v 35.2941 l 35.2941,-0.0000 l 0.0000,35.2941 l -35.2941,0.0000 v 35.2941 v 35.2941 h 35.2941 v -35.2941 h 35.2941 v 35.2941 h 35.2941 v -35.2941 v -35.2941 l -35.2941,0.0000 l -0.0000,-35.2941 l 35.2941,-0.0000 h 35.2941 l 35.2941,-0.0000 l 0.0000,35.2941 l -35.2941,0.0000 v 35.2941 v 35.2941 h 35.2941 v -35.2941 h 35.2941 v 35.2941 h 35.2941 v -35.2941 v -35.2941 l -35.2941,0.0000 l -0.0000,-35.2941 l 35.2941,-0.0000 v -35.2941 v -35.2941 h -35.2941 v 35.2941 l -35.2941,0.0000 l -35.2941,0.0000 l -0.0000,-35.2941 l 35.2941,-0.0000 l -0.0000,-35.2941 l -35.2941,0.0000 l -0.0000,-35.2941 l 35.2941,-0.0000 l 35.2941,-0.0000 v 35.2941 h 35.2941 v -35.2941 v -35.2941 l -35.2941,0.0000 l -0.0000,-35.2941 l 35.2941,-0.0000 v -35.2941 v -35.2941 h -35.2941 v 35.2941 h -35.2941 v -35.2941 h -35.2941 v 35.2941 v 35.2941 l 35.2941,-0.0000 l 0.0000,35.2941 l -35.2941,0.0000 l -35.2941,0.0000 v -35.2941 h -35.2941 v 35.2941 l -35.2941,0.0000 l -35.2941,0.0000 l -0.0000,-35.2941 l 35.2941,-0.0000 l -0.0000,-35.2941 l -35.2941,0.0000 l -0.0000,-35.2941 l 35.2941,-0.0000 l 35.2941,-0.0000 v 35.2941 h 35.2941 v -35.2941 l -0.0000,-35.2941 v -35.2941 h -35.2941 v 35.2941 l -35.2941,0.0000 l -35.2941,0.0000 l -0.0000,-35.2941 l 35.2941,-0.0000 l -0.0000,-35.2941 l -35.2941,0.0000 l -0.0000,-35.2941 l 35.2941,-0.0000 l 35.2941,-0.0000 v 35.2941 h 35.2941 v -35.2941 l 35.2941,-0.0000 l 35.2941,-0.0000 l 0.0000,35.2941 l -35.2941,0.0000 v 35.2941 v 35.2941 h 35.2941 v -35.2941 h 35.2941 v 35.2941 h 35.2941 v -35.2941 v -35.2941 l -35.2941,0.0000 l -0.0000,-35.2941 l 35.2941,-0.0000 "/></g></svg>