<?xml version="1.0" encoding="UTF-8"?>
<!DOCTYPE svg PUBLIC "-//W3C//DTD SVG 1.1//EN"
    "http://www.w3.org/Graphics/SVG/1.1/DTD/svg11.dtd"><svg xmlns="http://www.w3.org/2000/svg" height="369.2308" stroke-opacity="1" viewBox="0 0 600 369" font-size="1" width="600.0000" xmlns:xlink="http://www.w3.org/1999/xlink" stroke="rgb(0,0,0)" version="1.1"><defs></defs><g stroke-linejoin="miter" stroke-opacity="1.0" fill-opacity="0.0" stroke="rgb(0,0,0)" stroke-width="0.5" fill="rgb(0,0,0)" stroke-linecap="butt" stroke-miterlimit="10.0"><path d="M 373.0769,219.2308 l -38.4615,0.0000 l 0.0000,38.4615 l 0.0000,38.4615 h 38.4615 l 0.0000,38.4615 h 38.4615 h 38.4615 l 0.0000,-38.4615 l 0.0000,38.4615 h 38.4615 h 38.4615 l 0.0000,-38.4615 h 38.4615 l 0.0000,-38.4615 l 0.0000,-38.4615 l -38.4615,-0.0000 "/></g><g stroke-linejoin="miter" stroke-opacity="1.0" fill-opacity="0.0" stroke="rgb(0,0,0)" stroke-width="0.5" fill="rgb(0,0,0)" stroke-linecap="butt" stroke-miterlimit="10.0"><path d="M 73.0769,219.2308 l -0.0000,-19.2308 l -19.2308,0.0000 l -19.2308,0.0000 l 0.0000,19.2308 l -19.2308,0.0000 l 0.0000,19.2308 l 0.0000,19.2308 h 19.2308 l -19.2308,0.0000 l 0.0000,19.2308 l 0.0000,19.2308 h 19.2308 l 0.0000,19.2308 h 19.2308 h 19.2308 l 0.0000,-19.2308 l -19.2308,0.0000 l 0.0000,19.2308 l 0.0000,19.2308 h 19.2308 l 0.0000,19.2308 h 19.2308 h 19.2308 l 0.0000,-19.2308 l 0.0000,19.2308 h 19.2308 h 19.2308 l 0.0000,-19.2308 h 19.2308 l 0.0000,-19.2308 l 0.0000,-19.2308 l -19.2308,-0.0000 l -19.2308,0.0000 l 0.0000,19.2308 l 0.0000,19.2308 h 19.2308 l 0.0000,19.2308 h 19.2308 h 19.2308 l 0.0000,-19.2308 l 0.0000,19.2308 h 19.2308 h 19.2308 l 0.0000,-19.2308 h 19.2308 l 0.0000,-19.2308 l 0.0000,-19.2308 l -19.2308,-0.0000 l 0.0000,19.2308 h 19.2308 h 19.2308 l 0.0000,-19.2308 h 19.2308 l 0.0000,-19.2308 l 0.0000,-19.2308 l -19.2308,-0.0000 h 19.2308 l 0.0000,-19.2308 l 0.0000,-19.2308 l -19.2308,-0.0000 l 0.0000,-19.2308 l -19.2308,-0.0000 l -19.2308,-0.0000 l -0.0000,19.2308 "/></g><g stroke-linejoin="miter" stroke-opacity="1.0" fill-opacity="0.0" stroke="rgb(0,0,0)" stroke-width="0.5" fill="rgb(0,0,0)" stroke-linecap="butt" stroke-miterlimit="10.0"><path d="M 373.0769,34.6154 l 0.0000,76.9231 h 76.9231 h 76.9231 l 0.0000,-76.9231 "/></g><g stroke-linejoin="miter" stroke-opacity="1.0" fill-opacity="0.0" stroke="rgb(0,0,0)" stroke-width="0.5" fill="rgb(0,0,0)" stroke-linecap="butt" stroke-miterlimit="10.0"><path d="M 73.0769,34.6154 h 153.8462 "/></g></svg>