<?xml version="1.0" encoding="UTF-8"?>
<!DOCTYPE svg PUBLIC "-//W3C//DTD SVG 1.1//EN"
    "http://www.w3.org/Graphics/SVG/1.1/DTD/svg11.dtd"><svg xmlns="http://www.w3.org/2000/svg" height="366.5064" stroke-opacity="1" viewBox="0 0 600 367" font-size="1" width="600.0000" xmlns:xlink="http://www.w3.org/1999/xlink" stroke="rgb(0,0,0)" version="1.1"><defs></defs><g stroke-linejoin="miter" stroke-opacity="1.0" fill-opacity="0.0" opacity="0.2" stroke="rgb(0,0,0)" stroke-width="0.5" fill="rgb(0,0,0)" stroke-linecap="butt" stroke-miterlimit="10.0"><path d="M 325.0000,341.5064 h 3.0864 l 1.5432,-2.6729 l 1.5432,2.6729 h 3.0864 l 1.5432,-2.6729 l -1.5432,-2.6729 h 3.0864 l 1.5432,-2.6729 l 1.5432,2.6729 h 3.0864 l -1.5432,2.6729 l 1.5432,2.6729 h 3.0864 l 1.5432,-2.6729 l 1.5432,2.6729 h 3.0864 l 1.5432,-2.6729 l -1.5432,-2.6729 l 3.0864,0.0000 l 1.5432,-2.6729 l -1.5432,-2.6729 l -3.0864,-0.0000 l 1.5432,-2.6729 l -1.5432,-2.6729 l 3.0864,0.0000 l 1.5432,-2.6729 l 1.5432,2.6729 l 3.0864,0.0000 l 1.5432,-2.6729 l -1.5432,-2.6729 l 3.0864,0.0000 l 1.5432,-2.6729 l 1.5432,2.6729 l 3.0864,-0.0000 l -1.5432,2.6729 l 1.5432,2.6729 l 3.0864,-0.0000 l 1.5432,-2.6729 l 1.5432,2.6729 l 3.0864,-0.0000 l -1.5432,2.6729 l 1.5432,2.6729 l -3.0864,0.0000 l -1.5432,2.6729 l 1.5432,2.6729 l 3.0864,-0.0000 l -1.5432,2.6729 l 1.5432,2.6729 h 3.0864 l 1.5432,-2.6729 l 1.5432,2.6729 h 3.0864 l 1.5432,-2.6729 l -1.5432,-2.6729 h 3.0864 l 1.5432,-2.6729 l 1.5432,2.6729 h 3.0864 l -1.5432,2.6729 l 1.5432,2.6729 h 3.0864 l 1.5432,-2.6729 l 1.5432,2.6729 h 3.0864 l 1.5432,-2.6729 l -1.5432,-2.6729 l 3.0864,0.0000 l 1.5432,-2.6729 l -1.5432,-2.6729 l -3.0864,-0.0000 l 1.5432,-2.6729 l -1.5432,-2.6729 l 3.0864,0.0000 l 1.5432,-2.6729 l 1.5432,2.6729 l 3.0864,0.0000 l 1.5432,-2.6729 l -1.5432,-2.6729 l 3.0864,0.0000 l 1.5432,-2.6729 l -1.5432,-2.6729 l -3.0864,-0.0000 l 1.5432,-2.6729 l -1.5432,-2.6729 l -3.0864,-0.0000 l -1.5432,2.6729 l -1.5432,-2.6729 l -3.0864,-0.0000 l 1.5432,-2.6729 l -1.5432,-2.6729 l 3.0864,0.0000 l 1.5432,-2.6729 l -1.5432,-2.6729 l -3.0864,-0.0000 l 1.5432,-2.6729 l -1.5432,-2.6729 h 3.0864 l 1.5432,-2.6729 l 1.5432,2.6729 h 3.0864 l 1.5432,-2.6729 l -1.5432,-2.6729 h 3.0864 l 1.5432,-2.6729 l 1.5432,2.6729 h 3.0864 l -1.5432,2.6729 l 1.5432,2.6729 h 3.0864 l 1.5432,-2.6729 l 1.5432,2.6729 h 3.0864 l 1.5432,-2.6729 l -1.5432,-2.6729 l 3.0864,0.0000 l 1.5432,-2.6729 l -1.5432,-2.6729 l -3.0864,-0.0000 l 1.5432,-2.6729 l -1.5432,-2.6729 l 3.0864,0.0000 l 1.5432,-2.6729 l 1.5432,2.6729 l 3.0864,0.0000 l 1.5432,-2.6729 l -1.5432,-2.6729 l 3.0864,0.0000 l 1.5432,-2.6729 l 1.5432,2.6729 l 3.0864,-0.0000 l -1.5432,2.6729 l 1.5432,2.6729 l 3.0864,-0.0000 l 1.5432,-2.6729 l 1.5432,2.6729 l 3.0864,-0.0000 l -1.5432,2.6729 l 1.5432,2.6729 l -3.0864,0.0000 l -1.5432,2.6729 l 1.5432,2.6729 l 3.0864,-0.0000 l -1.5432,2.6729 l 1.5432,2.6729 h 3.0864 l 1.5432,-2.6729 l 1.5432,2.6729 h 3.0864 l 1.5432,-2.6729 l -1.5432,-2.6729 h 3.0864 l 1.5432,-2.6729 l 1.5432,2.6729 h 3.0864 l -1.5432,2.6729 l 1.5432,2.6729 h 3.0864 l 1.5432,-2.6729 l 1.5432,2.6729 h 3.0864 l -1.5432,2.6729 l 1.5432,2.6729 l -3.0864,0.0000 l -1.5432,2.6729 l 1.5432,2.6729 l 3.0864,-0.0000 l -1.5432,2.6729 l 1.5432,2.6729 l -3.0864,0.0000 l -1.5432,2.6729 l -1.5432,-2.6729 l -3.0864,0.0000 l -1.5432,2.6729 l 1.5432,2.6729 l -3.0864,0.0000 l -1.5432,2.6729 l 1.5432,2.6729 l 3.0864,-0.0000 l -1.5432,2.6729 l 1.5432,2.6729 l 3.0864,-0.0000 l 1.5432,-2.6729 l 1.5432,2.6729 l 3.0864,-0.0000 l -1.5432,2.6729 l 1.5432,2.6729 l -3.0864,0.0000 l -1.5432,2.6729 l 1.5432,2.6729 l 3.0864,-0.0000 l -1.5432,2.6729 l 1.5432,2.6729 h 3.0864 l 1.5432,-2.6729 l 1.5432,2.6729 h 3.0864 l 1.5432,-2.6729 l -1.5432,-2.6729 h 3.0864 l 1.5432,-2.6729 l 1.5432,2.6729 h 3.0864 l -1.5432,2.6729 l 1.5432,2.6729 h 3.0864 l 1.5432,-2.6729 l 1.5432,2.6729 h 3.0864 l 1.5432,-2.6729 l -1.5432,-2.6729 l 3.0864,0.0000 l 1.5432,-2.6729 l -1.5432,-2.6729 l -3.0864,-0.0000 l 1.5432,-2.6729 l -1.5432,-2.6729 l 3.0864,0.0000 l 1.5432,-2.6729 l 1.5432,2.6729 l 3.0864,0.0000 l 1.5432,-2.6729 l -1.5432,-2.6729 l 3.0864,0.0000 l 1.5432,-2.6729 l 1.5432,2.6729 l 3.0864,-0.0000 l -1.5432,2.6729 l 1.5432,2.6729 l 3.0864,-0.0000 l 1.5432,-2.6729 l 1.5432,2.6729 l 3.0864,-0.0000 l -1.5432,2.6729 l 1.5432,2.6729 l -3.0864,0.0000 l -1.5432,2.6729 l 1.5432,2.6729 l 3.0864,-0.0000 l -1.5432,2.6729 l 1.5432,2.6729 h 3.0864 l 1.5432,-2.6729 l 1.5432,2.6729 h 3.0864 l 1.5432,-2.6729 l -1.5432,-2.6729 h 3.0864 l 1.5432,-2.6729 l 1.5432,2.6729 h 3.0864 l -1.5432,2.6729 l 1.5432,2.6729 h 3.0864 l 1.5432,-2.6729 l 1.5432,2.6729 h 3.0864 "/></g><g stroke-linejoin="miter" stroke-opacity="1.0" fill-opacity="0.0" stroke="rgb(0,0,0)" stroke-width="0.5" fill="rgb(0,0,0)" stroke-linecap="butt" stroke-miterlimit="10.0"><path d="M 325.0000,341.5064 h 1.0288 l 0.5144,-0.8910 l 0.5144,0.8910 h 1.0288 l 0.5144,-0.8910 l -0.5144,-0.8910 h 1.0288 l 0.5144,-0.8910 l 0.5144,0.8910 h 1.0288 l -0.5144,0.8910 l 0.5144,0.8910 h 1.0288 l 0.5144,-0.8910 l 0.5144,0.8910 h 1.0288 l 0.5144,-0.8910 l -0.5144,-0.8910 l 1.0288,0.0000 l 0.5144,-0.8910 l -0.5144,-0.8910 l -1.0288,-0.0000 l 0.5144,-0.8910 l -0.5144,-0.8910 l 1.0288,0.0000 l 0.5144,-0.8910 l 0.5144,0.8910 l 1.0288,0.0000 l 0.5144,-0.8910 l -0.5144,-0.8910 l 1.0288,0.0000 l 0.5144,-0.8910 l 0.5144,0.8910 l 1.0288,-0.0000 l -0.5144,0.8910 l 0.5144,0.8910 l 1.0288,-0.0000 l 0.5144,-0.8910 l 0.5144,0.8910 l 1.0288,-0.0000 l -0.5144,0.8910 l 0.5144,0.8910 l -1.0288,0.0000 l -0.5144,0.8910 l 0.5144,0.8910 l 1.0288,-0.0000 l -0.5144,0.8910 l 0.5144,0.8910 h 1.0288 l 0.5144,-0.8910 l 0.5144,0.8910 h 1.0288 l 0.5144,-0.8910 l -0.5144,-0.8910 h 1.0288 l 0.5144,-0.8910 l 0.5144,0.8910 h 1.0288 l -0.5144,0.8910 l 0.5144,0.8910 h 1.0288 l 0.5144,-0.8910 l 0.5144,0.8910 h 1.0288 l 0.5144,-0.8910 l -0.5144,-0.8910 l 1.0288,0.0000 l 0.5144,-0.8910 l -0.5144,-0.8910 l -1.0288,-0.0000 l 0.5144,-0.8910 l -0.5144,-0.8910 l 1.0288,0.0000 l 0.5144,-0.8910 l 0.5144,0.8910 l 1.0288,0.0000 l 0.5144,-0.8910 l -0.5144,-0.8910 l 1.0288,0.0000 l 0.5144,-0.8910 l -0.5144,-0.8910 l -1.0288,-0.0000 l 0.5144,-0.8910 l -0.5144,-0.8910 l -1.0288,-0.0000 l -0.5144,0.8910 l -0.5144,-0.8910 l -1.0288,-0.0000 l 0.5144,-0.8910 l -0.5144,-0.8910 l 1.0288,0.0000 l 0.5144,-0.8910 l -0.5144,-0.8910 l -1.0288,-0.0000 l 0.5144,-0.8910 l -0.5144,-0.8910 h 1.0288 l 0.5144,-0.8910 l 0.5144,0.8910 h 1.0288 l 0.5144,-0.8910 l -0.5144,-0.8910 h 1.0288 l 0.5144,-0.8910 l 0.5144,0.8910 h 1.0288 l -0.5144,0.8910 l 0.5144,0.8910 h 1.0288 l 0.5144,-0.8910 l 0.5144,0.8910 h 1.0288 l 0.5144,-0.8910 l -0.5144,-0.8910 l 1.0288,0.0000 l 0.5144,-0.8910 l -0.5144,-0.8910 l -1.0288,-0.0000 l 0.5144,-0.8910 l -0.5144,-0.8910 l 1.0288,0.0000 l 0.5144,-0.8910 l 0.5144,0.8910 l 1.0288,0.0000 l 0.5144,-0.8910 l -0.5144,-0.8910 l 1.0288,0.0000 l 0.5144,-0.8910 l 0.5144,0.8910 l 1.0288,-0.0000 l -0.5144,0.8910 l 0.5144,0.8910 l 1.0288,-0.0000 l 0.5144,-0.8910 l 0.5144,0.8910 l 1.0288,-0.0000 l -0.5144,0.8910 l 0.5144,0.8910 l -1.0288,0.0000 l -0.5144,0.8910 l 0.5144,0.8910 l 1.0288,-0.0000 l -0.5144,0.8910 l 0.5144,0.8910 h 1.0288 l 0.5144,-0.8910 l 0.5144,0.8910 h 1.0288 l 0.5144,-0.8910 l -0.5144,-0.8910 h 1.0288 l 0.5144,-0.8910 l 0.5144,0.8910 h 1.0288 l -0.5144,0.8910 l 0.5144,0.8910 h 1.0288 l 0.5144,-0.8910 l 0.5144,0.8910 h 1.0288 l -0.5144,0.8910 l 0.5144,0.8910 l -1.0288,0.0000 l -0.5144,0.8910 l 0.5144,0.8910 l 1.0288,-0.0000 l -0.5144,0.8910 l 0.5144,0.8910 l -1.0288,0.0000 l -0.5144,0.8910 l -0.5144,-0.8910 l -1.0288,0.0000 l -0.5144,0.8910 l 0.5144,0.8910 l -1.0288,0.0000 l -0.5144,0.8910 l 0.5144,0.8910 l 1.0288,-0.0000 l -0.5144,0.8910 l 0.5144,0.8910 l 1.0288,-0.0000 l 0.5144,-0.8910 l 0.5144,0.8910 l 1.0288,-0.0000 l -0.5144,0.8910 l 0.5144,0.8910 l -1.0288,0.0000 l -0.5144,0.8910 l 0.5144,0.8910 l 1.0288,-0.0000 l -0.5144,0.8910 l 0.5144,0.8910 h 1.0288 l 0.5144,-0.8910 l 0.5144,0.8910 h 1.0288 l 0.5144,-0.8910 l -0.5144,-0.8910 h 1.0288 l 0.5144,-0.8910 l 0.5144,0.8910 h 1.0288 l -0.5144,0.8910 l 0.5144,0.8910 h 1.0288 l 0.5144,-0.8910 l 0.5144,0.8910 h 1.0288 l 0.5144,-0.8910 l -0.5144,-0.8910 l 1.0288,0.0000 l 0.5144,-0.8910 l -0.5144,-0.8910 l -1.0288,-0.0000 l 0.5144,-0.8910 l -0.5144,-0.8910 l 1.0288,0.0000 l 0.5144,-0.8910 l 0.5144,0.8910 l 1.0288,0.0000 l 0.5144,-0.8910 l -0.5144,-0.8910 l 1.0288,0.0000 l 0.5144,-0.8910 l 0.5144,0.8910 l 1.0288,-0.0000 l -0.5144,0.8910 l 0.5144,0.8910 l 1.0288,-0.0000 l 0.5144,-0.8910 l 0.5144,0.8910 l 1.0288,-0.0000 l -0.5144,0.8910 l 0.5144,0.8910 l -1.0288,0.0000 l -0.5144,0.8910 l 0.5144,0.8910 l 1.0288,-0.0000 l -0.5144,0.8910 l 0.5144,0.8910 h 1.0288 l 0.5144,-0.8910 l 0.5144,0.8910 h 1.0288 l 0.5144,-0.8910 l -0.5144,-0.8910 h 1.0288 l 0.5144,-0.8910 l 0.5144,0.8910 h 1.0288 l -0.5144,0.8910 l 0.5144,0.8910 h 1.0288 l 0.5144,-0.8910 l 0.5144,0.8910 h 1.0288 l 0.5144,-0.8910 l -0.5144,-0.8910 l 1.0288,0.0000 l 0.5144,-0.8910 l -0.5144,-0.8910 l -1.0288,-0.0000 l 0.5144,-0.8910 l -0.5144,-0.8910 l 1.0288,0.0000 l 0.5144,-0.8910 l 0.5144,0.8910 l 1.0288,0.0000 l 0.5144,-0.8910 l -0.5144,-0.8910 l 1.0288,0.0000 l 0.5144,-0.8910 l -0.5144,-0.8910 l -1.0288,-0.0000 l 0.5144,-0.8910 l -0.5144,-0.8910 l -1.0288,-0.0000 l -0.5144,0.8910 l -0.5144,-0.8910 l -1.0288,-0.0000 l 0.5144,-0.8910 l -0.5144,-0.8910 l 1.0288,0.0000 l 0.5144,-0.8910 l -0.5144,-0.8910 l -1.0288,-0.0000 l 0.5144,-0.8910 l -0.5144,-0.8910 h 1.0288 l 0.5144,-0.8910 l 0.5144,0.8910 h 1.0288 l 0.5144,-0.8910 l -0.5144,-0.8910 h 1.0288 l 0.5144,-0.8910 l 0.5144,0.8910 h 1.0288 l -0.5144,0.8910 l 0.5144,0.8910 h 1.0288 l 0.5144,-0.8910 l 0.5144,0.8910 h 1.0288 l 0.5144,-0.8910 l -0.5144,-0.8910 l 1.0288,0.0000 l 0.5144,-0.8910 l -0.5144,-0.8910 l -1.0288,-0.0000 l 0.5144,-0.8910 l -0.5144,-0.8910 l 1.0288,0.0000 l 0.5144,-0.8910 l 0.5144,0.8910 l 1.0288,0.0000 l 0.5144,-0.8910 l -0.5144,-0.8910 l 1.0288,0.0000 l 0.5144,-0.8910 l -0.5144,-0.8910 l -1.0288,-0.0000 l 0.5144,-0.8910 l -0.5144,-0.8910 l -1.0288,-0.0000 l -0.5144,0.8910 l -0.5144,-0.8910 l -1.0288,-0.0000 l 0.5144,-0.8910 l -0.5144,-0.8910 l 1.0288,0.0000 l 0.5144,-0.8910 l -0.5144,-0.8910 l -1.0288,-0.0000 l 0.5144,-0.8910 l -0.5144,-0.8910 l -1.0288,-0.0000 l -0.5144,0.8910 l -0.5144,-0.8910 l -1.0288,-0.0000 l -0.5144,0.8910 l 0.5144,0.8910 l -1.0288,-0.0000 l -0.5144,0.8910 l -0.5144,-0.8910 l -1.0288,-0.0000 l 0.5144,-0.8910 l -0.5144,-0.8910 l -1.0288,-0.0000 l -0.5144,0.8910 l -0.5144,-0.8910 l -1.0288,-0.0000 l 0.5144,-0.8910 l -0.5144,-0.8910 h 1.0288 l 0.5144,-0.8910 l -0.5144,-0.8910 l -1.0288,-0.0000 l 0.5144,-0.8910 l -0.5144,-0.8910 h 1.0288 l 0.5144,-0.8910 l 0.5144,0.8910 h 1.0288 l 0.5144,-0.8910 l -0.5144,-0.8910 h 1.0288 l 0.5144,-0.8910 l -0.5144,-0.8910 l -1.0288,-0.0000 l 0.5144,-0.8910 l -0.5144,-0.8910 l -1.0288,-0.0000 l -0.5144,0.8910 l -0.5144,-0.8910 l -1.0288,-0.0000 l 0.5144,-0.8910 l -0.5144,-0.8910 l 1.0288,0.0000 l 0.5144,-0.8910 l -0.5144,-0.8910 l -1.0288,-0.0000 l 0.5144,-0.8910 l -0.5144,-0.8910 h 1.0288 l 0.5144,-0.8910 l 0.5144,0.8910 h 1.0288 l 0.5144,-0.8910 l -0.5144,-0.8910 h 1.0288 l 0.5144,-0.8910 l 0.5144,0.8910 h 1.0288 l -0.5144,0.8910 l 0.5144,0.8910 h 1.0288 l 0.5144,-0.8910 l 0.5144,0.8910 h 1.0288 l 0.5144,-0.8910 l -0.5144,-0.8910 l 1.0288,0.0000 l 0.5144,-0.8910 l -0.5144,-0.8910 l -1.0288,-0.0000 l 0.5144,-0.8910 l -0.5144,-0.8910 l 1.0288,0.0000 l 0.5144,-0.8910 l 0.5144,0.8910 l 1.0288,0.0000 l 0.5144,-0.8910 l -0.5144,-0.8910 l 1.0288,0.0000 l 0.5144,-0.8910 l 0.5144,0.8910 l 1.0288,-0.0000 l -0.5144,0.8910 l 0.5144,0.8910 l 1.0288,-0.0000 l 0.5144,-0.8910 l 0.5144,0.8910 l 1.0288,-0.0000 l -0.5144,0.8910 l 0.5144,0.8910 l -1.0288,0.0000 l -0.5144,0.8910 l 0.5144,0.8910 l 1.0288,-0.0000 l -0.5144,0.8910 l 0.5144,0.8910 h 1.0288 l 0.5144,-0.8910 l 0.5144,0.8910 h 1.0288 l 0.5144,-0.8910 l -0.5144,-0.8910 h 1.0288 l 0.5144,-0.8910 l 0.5144,0.8910 h 1.0288 l -0.5144,0.8910 l 0.5144,0.8910 h 1.0288 l 0.5144,-0.8910 l 0.5144,0.8910 h 1.0288 l 0.5144,-0.8910 l -0.5144,-0.8910 l 1.0288,0.0000 l 0.5144,-0.8910 l -0.5144,-0.8910 l -1.0288,-0.0000 l 0.5144,-0.8910 l -0.5144,-0.8910 l 1.0288,0.0000 l 0.5144,-0.8910 l 0.5144,0.8910 l 1.0288,0.0000 l 0.5144,-0.8910 l -0.5144,-0.8910 l 1.0288,0.0000 l 0.5144,-0.8910 l -0.5144,-0.8910 l -1.0288,-0.0000 l 0.5144,-0.8910 l -0.5144,-0.8910 l -1.0288,-0.0000 l -0.5144,0.8910 l -0.5144,-0.8910 l -1.0288,-0.0000 l 0.5144,-0.8910 l -0.5144,-0.8910 l 1.0288,0.0000 l 0.5144,-0.8910 l -0.5144,-0.8910 l -1.0288,-0.0000 l 0.5144,-0.8910 l -0.5144,-0.8910 h 1.0288 l 0.5144,-0.8910 l 0.5144,0.8910 h 1.0288 l 0.5144,-0.8910 l -0.5144,-0.8910 h 1.0288 l 0.5144,-0.8910 l 0.5144,0.8910 h 1.0288 l -0.5144,0.8910 l 0.5144,0.8910 h 1.0288 l 0.5144,-0.8910 l 0.5144,0.8910 h 1.0288 l 0.5144,-0.8910 l -0.5144,-0.8910 l 1.0288,0.0000 l 0.5144,-0.8910 l -0.5144,-0.8910 l -1.0288,-0.0000 l 0.5144,-0.8910 l -0.5144,-0.8910 l 1.0288,0.0000 l 0.5144,-0.8910 l 0.5144,0.8910 l 1.0288,0.0000 l 0.5144,-0.8910 l -0.5144,-0.8910 l 1.0288,0.0000 l 0.5144,-0.8910 l 0.5144,0.8910 l 1.0288,-0.0000 l -0.5144,0.8910 l 0.5144,0.8910 l 1.0288,-0.0000 l 0.5144,-0.8910 l 0.5144,0.8910 l 1.0288,-0.0000 l -0.5144,0.8910 l 0.5144,0.8910 l -1.0288,0.0000 l -0.5144,0.8910 l 0.5144,0.8910 l 1.0288,-0.0000 l -0.5144,0.8910 l 0.5144,0.8910 h 1.0288 l 0.5144,-0.8910 l 0.5144,0.8910 h 1.0288 l 0.5144,-0.8910 l -0.5144,-0.8910 h 1.0288 l 0.5144,-0.8910 l 0.5144,0.8910 h 1.0288 l -0.5144,0.8910 l 0.5144,0.8910 h 1.0288 l 0.5144,-0.8910 l 0.5144,0.8910 h 1.0288 l -0.5144,0.8910 l 0.5144,0.8910 l -1.0288,0.0000 l -0.5144,0.8910 l 0.5144,0.8910 l 1.0288,-0.0000 l -0.5144,0.8910 l 0.5144,0.8910 l -1.0288,0.0000 l -0.5144,0.8910 l -0.5144,-0.8910 l -1.0288,0.0000 l -0.5144,0.8910 l 0.5144,0.8910 l -1.0288,0.0000 l -0.5144,0.8910 l 0.5144,0.8910 l 1.0288,-0.0000 l -0.5144,0.8910 l 0.5144,0.8910 l 1.0288,-0.0000 l 0.5144,-0.8910 l 0.5144,0.8910 l 1.0288,-0.0000 l -0.5144,0.8910 l 0.5144,0.8910 l -1.0288,0.0000 l -0.5144,0.8910 l 0.5144,0.8910 l 1.0288,-0.0000 l -0.5144,0.8910 l 0.5144,0.8910 h 1.0288 l 0.5144,-0.8910 l 0.5144,0.8910 h 1.0288 l 0.5144,-0.8910 l -0.5144,-0.8910 h 1.0288 l 0.5144,-0.8910 l 0.5144,0.8910 h 1.0288 l -0.5144,0.8910 l 0.5144,0.8910 h 1.0288 l 0.5144,-0.8910 l 0.5144,0.8910 h 1.0288 l 0.5144,-0.8910 l -0.5144,-0.8910 l 1.0288,0.0000 l 0.5144,-0.8910 l -0.5144,-0.8910 l -1.0288,-0.0000 l 0.5144,-0.8910 l -0.5144,-0.8910 l 1.0288,0.0000 l 0.5144,-0.8910 l 0.5144,0.8910 l 1.0288,0.0000 l 0.5144,-0.8910 l -0.5144,-0.8910 l 1.0288,0.0000 l 0.5144,-0.8910 l 0.5144,0.8910 l 1.0288,-0.0000 l -0.5144,0.8910 l 0.5144,0.8910 l 1.0288,-0.0000 l 0.5144,-0.8910 l 0.5144,0.8910 l 1.0288,-0.0000 l -0.5144,0.8910 l 0.5144,0.8910 l -1.0288,0.0000 l -0.5144,0.8910 l 0.5144,0.8910 l 1.0288,-0.0000 l -0.5144,0.8910 l 0.5144,0.8910 h 1.0288 l 0.5144,-0.8910 l 0.5144,0.8910 h 1.0288 l 0.5144,-0.8910 l -0.5144,-0.8910 h 1.0288 l 0.5144,-0.8910 l 0.5144,0.8910 h 1.0288 l -0.5144,0.8910 l 0.5144,0.8910 h 1.0288 l 0.5144,-0.8910 l 0.5144,0.8910 h 1.0288 l -0.5144,0.8910 l 0.5144,0.8910 l -1.0288,0.0000 l -0.5144,0.8910 l 0.5144,0.8910 l 1.0288,-0.0000 l -0.5144,0.8910 l 0.5144,0.8910 l -1.0288,0.0000 l -0.5144,0.8910 l -0.5144,-0.8910 l -1.0288,0.0000 l -0.5144,0.8910 l 0.5144,0.8910 l -1.0288,0.0000 l -0.5144,0.8910 l 0.5144,0.8910 h 1.0288 l -0.5144,0.8910 l 0.5144,0.8910 h 1.0288 l 0.5144,-0.8910 l 0.5144,0.8910 h 1.0288 l -0.5144,0.8910 l 0.5144,0.8910 l -1.0288,0.0000 l -0.5144,0.8910 l 0.5144,0.8910 h 1.0288 l -0.5144,0.8910 l 0.5144,0.8910 l -1.0288,0.0000 l -0.5144,0.8910 l -0.5144,-0.8910 l -1.0288,0.0000 l -0.5144,0.8910 l 0.5144,0.8910 l -1.0288,0.0000 l -0.5144,0.8910 l -0.5144,-0.8910 l -1.0288,0.0000 l 0.5144,-0.8910 l -0.5144,-0.8910 l -1.0288,0.0000 l -0.5144,0.8910 l -0.5144,-0.8910 l -1.0288,0.0000 l -0.5144,0.8910 l 0.5144,0.8910 l -1.0288,0.0000 l -0.5144,0.8910 l 0.5144,0.8910 l 1.0288,-0.0000 l -0.5144,0.8910 l 0.5144,0.8910 l -1.0288,0.0000 l -0.5144,0.8910 l -0.5144,-0.8910 l -1.0288,0.0000 l -0.5144,0.8910 l 0.5144,0.8910 l -1.0288,0.0000 l -0.5144,0.8910 l 0.5144,0.8910 l 1.0288,-0.0000 l -0.5144,0.8910 l 0.5144,0.8910 l 1.0288,-0.0000 l 0.5144,-0.8910 l 0.5144,0.8910 l 1.0288,-0.0000 l -0.5144,0.8910 l 0.5144,0.8910 l -1.0288,0.0000 l -0.5144,0.8910 l 0.5144,0.8910 l 1.0288,-0.0000 l -0.5144,0.8910 l 0.5144,0.8910 h 1.0288 l 0.5144,-0.8910 l 0.5144,0.8910 h 1.0288 l 0.5144,-0.8910 l -0.5144,-0.8910 h 1.0288 l 0.5144,-0.8910 l 0.5144,0.8910 h 1.0288 l -0.5144,0.8910 l 0.5144,0.8910 h 1.0288 l 0.5144,-0.8910 l 0.5144,0.8910 h 1.0288 l -0.5144,0.8910 l 0.5144,0.8910 l -1.0288,0.0000 l -0.5144,0.8910 l 0.5144,0.8910 l 1.0288,-0.0000 l -0.5144,0.8910 l 0.5144,0.8910 l -1.0288,0.0000 l -0.5144,0.8910 l -0.5144,-0.8910 l -1.0288,0.0000 l -0.5144,0.8910 l 0.5144,0.8910 l -1.0288,0.0000 l -0.5144,0.8910 l 0.5144,0.8910 l 1.0288,-0.0000 l -0.5144,0.8910 l 0.5144,0.8910 l 1.0288,-0.0000 l 0.5144,-0.8910 l 0.5144,0.8910 l 1.0288,-0.0000 l -0.5144,0.8910 l 0.5144,0.8910 l -1.0288,0.0000 l -0.5144,0.8910 l 0.5144,0.8910 l 1.0288,-0.0000 l -0.5144,0.8910 l 0.5144,0.8910 h 1.0288 l 0.5144,-0.8910 l 0.5144,0.8910 h 1.0288 l 0.5144,-0.8910 l -0.5144,-0.8910 h 1.0288 l 0.5144,-0.8910 l 0.5144,0.8910 h 1.0288 l -0.5144,0.8910 l 0.5144,0.8910 h 1.0288 l 0.5144,-0.8910 l 0.5144,0.8910 h 1.0288 l 0.5144,-0.8910 l -0.5144,-0.8910 l 1.0288,0.0000 l 0.5144,-0.8910 l -0.5144,-0.8910 l -1.0288,-0.0000 l 0.5144,-0.8910 l -0.5144,-0.8910 l 1.0288,0.0000 l 0.5144,-0.8910 l 0.5144,0.8910 l 1.0288,0.0000 l 0.5144,-0.8910 l -0.5144,-0.8910 l 1.0288,0.0000 l 0.5144,-0.8910 l 0.5144,0.8910 l 1.0288,-0.0000 l -0.5144,0.8910 l 0.5144,0.8910 l 1.0288,-0.0000 l 0.5144,-0.8910 l 0.5144,0.8910 l 1.0288,-0.0000 l -0.5144,0.8910 l 0.5144,0.8910 l -1.0288,0.0000 l -0.5144,0.8910 l 0.5144,0.8910 l 1.0288,-0.0000 l -0.5144,0.8910 l 0.5144,0.8910 h 1.0288 l 0.5144,-0.8910 l 0.5144,0.8910 h 1.0288 l 0.5144,-0.8910 l -0.5144,-0.8910 h 1.0288 l 0.5144,-0.8910 l 0.5144,0.8910 h 1.0288 l -0.5144,0.8910 l 0.5144,0.8910 h 1.0288 l 0.5144,-0.8910 l 0.5144,0.8910 h 1.0288 l 0.5144,-0.8910 l -0.5144,-0.8910 l 1.0288,0.0000 l 0.5144,-0.8910 l -0.5144,-0.8910 l -1.0288,-0.0000 l 0.5144,-0.8910 l -0.5144,-0.8910 l 1.0288,0.0000 l 0.5144,-0.8910 l 0.5144,0.8910 l 1.0288,0.0000 l 0.5144,-0.8910 l -0.5144,-0.8910 l 1.0288,0.0000 l 0.5144,-0.8910 l -0.5144,-0.8910 l -1.0288,-0.0000 l 0.5144,-0.8910 l -0.5144,-0.8910 l -1.0288,-0.0000 l -0.5144,0.8910 l -0.5144,-0.8910 l -1.0288,-0.0000 l 0.5144,-0.8910 l -0.5144,-0.8910 l 1.0288,0.0000 l 0.5144,-0.8910 l -0.5144,-0.8910 l -1.0288,-0.0000 l 0.5144,-0.8910 l -0.5144,-0.8910 h 1.0288 l 0.5144,-0.8910 l 0.5144,0.8910 h 1.0288 l 0.5144,-0.8910 l -0.5144,-0.8910 h 1.0288 l 0.5144,-0.8910 l 0.5144,0.8910 h 1.0288 l -0.5144,0.8910 l 0.5144,0.8910 h 1.0288 l 0.5144,-0.8910 l 0.5144,0.8910 h 1.0288 l 0.5144,-0.8910 l -0.5144,-0.8910 l 1.0288,0.0000 l 0.5144,-0.8910 l -0.5144,-0.8910 l -1.0288,-0.0000 l 0.5144,-0.8910 l -0.5144,-0.8910 l 1.0288,0.0000 l 0.5144,-0.8910 l 0.5144,0.8910 l 1.0288,0.0000 l 0.5144,-0.8910 l -0.5144,-0.8910 l 1.0288,0.0000 l 0.5144,-0.8910 l 0.5144,0.8910 l 1.0288,-0.0000 l -0.5144,0.8910 l 0.5144,0.8910 l 1.0288,-0.0000 l 0.5144,-0.8910 l 0.5144,0.8910 l 1.0288,-0.0000 l -0.5144,0.8910 l 0.5144,0.8910 l -1.0288,0.0000 l -0.5144,0.8910 l 0.5144,0.8910 l 1.0288,-0.0000 l -0.5144,0.8910 l 0.5144,0.8910 h 1.0288 l 0.5144,-0.8910 l 0.5144,0.8910 h 1.0288 l 0.5144,-0.8910 l -0.5144,-0.8910 h 1.0288 l 0.5144,-0.8910 l 0.5144,0.8910 h 1.0288 l -0.5144,0.8910 l 0.5144,0.8910 h 1.0288 l 0.5144,-0.8910 l 0.5144,0.8910 h 1.0288 l -0.5144,0.8910 l 0.5144,0.8910 l -1.0288,0.0000 l -0.5144,0.8910 l 0.5144,0.8910 l 1.0288,-0.0000 l -0.5144,0.8910 l 0.5144,0.8910 l -1.0288,0.0000 l -0.5144,0.8910 l -0.5144,-0.8910 l -1.0288,0.0000 l -0.5144,0.8910 l 0.5144,0.8910 l -1.0288,0.0000 l -0.5144,0.8910 l 0.5144,0.8910 l 1.0288,-0.0000 l -0.5144,0.8910 l 0.5144,0.8910 l 1.0288,-0.0000 l 0.5144,-0.8910 l 0.5144,0.8910 l 1.0288,-0.0000 l -0.5144,0.8910 l 0.5144,0.8910 l -1.0288,0.0000 l -0.5144,0.8910 l 0.5144,0.8910 l 1.0288,-0.0000 l -0.5144,0.8910 l 0.5144,0.8910 h 1.0288 l 0.5144,-0.8910 l 0.5144,0.8910 h 1.0288 l 0.5144,-0.8910 l -0.5144,-0.8910 h 1.0288 l 0.5144,-0.8910 l 0.5144,0.8910 h 1.0288 l -0.5144,0.8910 l 0.5144,0.8910 h 1.0288 l 0.5144,-0.8910 l 0.5144,0.8910 h 1.0288 l 0.5144,-0.8910 l -0.5144,-0.8910 l 1.0288,0.0000 l 0.5144,-0.8910 l -0.5144,-0.8910 l -1.0288,-0.0000 l 0.5144,-0.8910 l -0.5144,-0.8910 l 1.0288,0.0000 l 0.5144,-0.8910 l 0.5144,0.8910 l 1.0288,0.0000 l 0.5144,-0.8910 l -0.5144,-0.8910 l 1.0288,0.0000 l 0.5144,-0.8910 l 0.5144,0.8910 l 1.0288,-0.0000 l -0.5144,0.8910 l 0.5144,0.8910 l 1.0288,-0.0000 l 0.5144,-0.8910 l 0.5144,0.8910 l 1.0288,-0.0000 l -0.5144,0.8910 l 0.5144,0.8910 l -1.0288,0.0000 l -0.5144,0.8910 l 0.5144,0.8910 l 1.0288,-0.0000 l -0.5144,0.8910 l 0.5144,0.8910 h 1.0288 l 0.5144,-0.8910 l 0.5144,0.8910 h 1.0288 l 0.5144,-0.8910 l -0.5144,-0.8910 h 1.0288 l 0.5144,-0.8910 l 0.5144,0.8910 h 1.0288 l -0.5144,0.8910 l 0.5144,0.8910 h 1.0288 l 0.5144,-0.8910 l 0.5144,0.8910 h 1.0288 "/></g><g stroke-linejoin="miter" stroke-opacity="1.0" fill-opacity="0.0" opacity="0.2" stroke="rgb(0,0,0)" stroke-width="0.5" fill="rgb(0,0,0)" stroke-linecap="butt" stroke-miterlimit="10.0"><path d="M 25.0000,341.5064 h 9.2593 l 4.6296,-8.0188 l 4.6296,8.0188 h 9.2593 l 4.6296,-8.0188 l -4.6296,-8.0188 h 9.2593 l 4.6296,-8.0188 l 4.6296,8.0188 h 9.2593 l -4.6296,8.0188 l 4.6296,8.0188 h 9.2593 l 4.6296,-8.0188 l 4.6296,8.0188 h 9.2593 l 4.6296,-8.0188 l -4.6296,-8.0188 l 9.2593,0.0000 l 4.6296,-8.0188 l -4.6296,-8.0188 l -9.2593,-0.0000 l 4.6296,-8.0188 l -4.6296,-8.0188 l 9.2593,0.0000 l 4.6296,-8.0188 l 4.6296,8.0188 l 9.2593,0.0000 l 4.6296,-8.0188 l -4.6296,-8.0188 l 9.2593,0.0000 l 4.6296,-8.0188 l 4.6296,8.0188 l 9.2593,-0.0000 l -4.6296,8.0188 l 4.6296,8.0188 l 9.2593,-0.0000 l 4.6296,-8.0188 l 4.6296,8.0188 l 9.2593,-0.0000 l -4.6296,8.0188 l 4.6296,8.0188 l -9.2593,0.0000 l -4.6296,8.0188 l 4.6296,8.0188 l 9.2593,-0.0000 l -4.6296,8.0188 l 4.6296,8.0188 h 9.2593 l 4.6296,-8.0188 l 4.6296,8.0188 h 9.2593 l 4.6296,-8.0188 l -4.6296,-8.0188 h 9.2593 l 4.6296,-8.0188 l 4.6296,8.0188 h 9.2593 l -4.6296,8.0188 l 4.6296,8.0188 h 9.2593 l 4.6296,-8.0188 l 4.6296,8.0188 h 9.2593 "/></g><g stroke-linejoin="miter" stroke-opacity="1.0" fill-opacity="0.0" stroke="rgb(0,0,0)" stroke-width="0.5" fill="rgb(0,0,0)" stroke-linecap="butt" stroke-miterlimit="10.0"><path d="M 25.0000,341.5064 h 3.0864 l 1.5432,-2.6729 l 1.5432,2.6729 h 3.0864 l 1.5432,-2.6729 l -1.5432,-2.6729 h 3.0864 l 1.5432,-2.6729 l 1.5432,2.6729 h 3.0864 l -1.5432,2.6729 l 1.5432,2.6729 h 3.0864 l 1.5432,-2.6729 l 1.5432,2.6729 h 3.0864 l 1.5432,-2.6729 l -1.5432,-2.6729 l 3.0864,0.0000 l 1.5432,-2.6729 l -1.5432,-2.6729 l -3.0864,-0.0000 l 1.5432,-2.6729 l -1.5432,-2.6729 l 3.0864,0.0000 l 1.5432,-2.6729 l 1.5432,2.6729 l 3.0864,0.0000 l 1.5432,-2.6729 l -1.5432,-2.6729 l 3.0864,0.0000 l 1.5432,-2.6729 l 1.5432,2.6729 l 3.0864,-0.0000 l -1.5432,2.6729 l 1.5432,2.6729 l 3.0864,-0.0000 l 1.5432,-2.6729 l 1.5432,2.6729 l 3.0864,-0.0000 l -1.5432,2.6729 l 1.5432,2.6729 l -3.0864,0.0000 l -1.5432,2.6729 l 1.5432,2.6729 l 3.0864,-0.0000 l -1.5432,2.6729 l 1.5432,2.6729 h 3.0864 l 1.5432,-2.6729 l 1.5432,2.6729 h 3.0864 l 1.5432,-2.6729 l -1.5432,-2.6729 h 3.0864 l 1.5432,-2.6729 l 1.5432,2.6729 h 3.0864 l -1.5432,2.6729 l 1.5432,2.6729 h 3.0864 l 1.5432,-2.6729 l 1.5432,2.6729 h 3.0864 l 1.5432,-2.6729 l -1.5432,-2.6729 l 3.0864,0.0000 l 1.5432,-2.6729 l -1.5432,-2.6729 l -3.0864,-0.0000 l 1.5432,-2.6729 l -1.5432,-2.6729 l 3.0864,0.0000 l 1.5432,-2.6729 l 1.5432,2.6729 l 3.0864,0.0000 l 1.5432,-2.6729 l -1.5432,-2.6729 l 3.0864,0.0000 l 1.5432,-2.6729 l -1.5432,-2.6729 l -3.0864,-0.0000 l 1.5432,-2.6729 l -1.5432,-2.6729 l -3.0864,-0.0000 l -1.5432,2.6729 l -1.5432,-2.6729 l -3.0864,-0.0000 l 1.5432,-2.6729 l -1.5432,-2.6729 l 3.0864,0.0000 l 1.5432,-2.6729 l -1.5432,-2.6729 l -3.0864,-0.0000 l 1.5432,-2.6729 l -1.5432,-2.6729 h 3.0864 l 1.5432,-2.6729 l 1.5432,2.6729 h 3.0864 l 1.5432,-2.6729 l -1.5432,-2.6729 h 3.0864 l 1.5432,-2.6729 l 1.5432,2.6729 h 3.0864 l -1.5432,2.6729 l 1.5432,2.6729 h 3.0864 l 1.5432,-2.6729 l 1.5432,2.6729 h 3.0864 l 1.5432,-2.6729 l -1.5432,-2.6729 l 3.0864,0.0000 l 1.5432,-2.6729 l -1.5432,-2.6729 l -3.0864,-0.0000 l 1.5432,-2.6729 l -1.5432,-2.6729 l 3.0864,0.0000 l 1.5432,-2.6729 l 1.5432,2.6729 l 3.0864,0.0000 l 1.5432,-2.6729 l -1.5432,-2.6729 l 3.0864,0.0000 l 1.5432,-2.6729 l 1.5432,2.6729 l 3.0864,-0.0000 l -1.5432,2.6729 l 1.5432,2.6729 l 3.0864,-0.0000 l 1.5432,-2.6729 l 1.5432,2.6729 l 3.0864,-0.0000 l -1.5432,2.6729 l 1.5432,2.6729 l -3.0864,0.0000 l -1.5432,2.6729 l 1.5432,2.6729 l 3.0864,-0.0000 l -1.5432,2.6729 l 1.5432,2.6729 h 3.0864 l 1.5432,-2.6729 l 1.5432,2.6729 h 3.0864 l 1.5432,-2.6729 l -1.5432,-2.6729 h 3.0864 l 1.5432,-2.6729 l 1.5432,2.6729 h 3.0864 l -1.5432,2.6729 l 1.5432,2.6729 h 3.0864 l 1.5432,-2.6729 l 1.5432,2.6729 h 3.0864 l -1.5432,2.6729 l 1.5432,2.6729 l -3.0864,0.0000 l -1.5432,2.6729 l 1.5432,2.6729 l 3.0864,-0.0000 l -1.5432,2.6729 l 1.5432,2.6729 l -3.0864,0.0000 l -1.5432,2.6729 l -1.5432,-2.6729 l -3.0864,0.0000 l -1.5432,2.6729 l 1.5432,2.6729 l -3.0864,0.0000 l -1.5432,2.6729 l 1.5432,2.6729 l 3.0864,-0.0000 l -1.5432,2.6729 l 1.5432,2.6729 l 3.0864,-0.0000 l 1.5432,-2.6729 l 1.5432,2.6729 l 3.0864,-0.0000 l -1.5432,2.6729 l 1.5432,2.6729 l -3.0864,0.0000 l -1.5432,2.6729 l 1.5432,2.6729 l 3.0864,-0.0000 l -1.5432,2.6729 l 1.5432,2.6729 h 3.0864 l 1.5432,-2.6729 l 1.5432,2.6729 h 3.0864 l 1.5432,-2.6729 l -1.5432,-2.6729 h 3.0864 l 1.5432,-2.6729 l 1.5432,2.6729 h 3.0864 l -1.5432,2.6729 l 1.5432,2.6729 h 3.0864 l 1.5432,-2.6729 l 1.5432,2.6729 h 3.0864 l 1.5432,-2.6729 l -1.5432,-2.6729 l 3.0864,0.0000 l 1.5432,-2.6729 l -1.5432,-2.6729 l -3.0864,-0.0000 l 1.5432,-2.6729 l -1.5432,-2.6729 l 3.0864,0.0000 l 1.5432,-2.6729 l 1.5432,2.6729 l 3.0864,0.0000 l 1.5432,-2.6729 l -1.5432,-2.6729 l 3.0864,0.0000 l 1.5432,-2.6729 l 1.5432,2.6729 l 3.0864,-0.0000 l -1.5432,2.6729 l 1.5432,2.6729 l 3.0864,-0.0000 l 1.5432,-2.6729 l 1.5432,2.6729 l 3.0864,-0.0000 l -1.5432,2.6729 l 1.5432,2.6729 l -3.0864,0.0000 l -1.5432,2.6729 l 1.5432,2.6729 l 3.0864,-0.0000 l -1.5432,2.6729 l 1.5432,2.6729 h 3.0864 l 1.5432,-2.6729 l 1.5432,2.6729 h 3.0864 l 1.5432,-2.6729 l -1.5432,-2.6729 h 3.0864 l 1.5432,-2.6729 l 1.5432,2.6729 h 3.0864 l -1.5432,2.6729 l 1.5432,2.6729 h 3.0864 l 1.5432,-2.6729 l 1.5432,2.6729 h 3.0864 "/></g><g stroke-linejoin="miter" stroke-opacity="1.0" fill-opacity="0.0" opacity="0.2" stroke="rgb(0,0,0)" stroke-width="0.5" fill="rgb(0,0,0)" stroke-linecap="butt" stroke-miterlimit="10.0"><path d="M 325.0000,219.3376 h 83.3333 l 41.6667,-72.1688 l 41.6667,72.1688 h 83.3333 "/></g><g stroke-linejoin="miter" stroke-opacity="1.0" fill-opacity="0.0" stroke="rgb(0,0,0)" stroke-width="0.5" fill="rgb(0,0,0)" stroke-linecap="butt" stroke-miterlimit="10.0"><path d="M 325.0000,219.3376 h 27.7778 l 13.8889,-24.0563 l 13.8889,24.0563 h 27.7778 l 13.8889,-24.0563 l -13.8889,-24.0563 h 27.7778 l 13.8889,-24.0563 l 13.8889,24.0563 h 27.7778 l -13.8889,24.0563 l 13.8889,24.0563 h 27.7778 l 13.8889,-24.0563 l 13.8889,24.0563 h 27.7778 "/></g><g stroke-linejoin="miter" stroke-opacity="1.0" fill-opacity="0.0" opacity="0.2" stroke="rgb(0,0,0)" stroke-width="0.5" fill="rgb(0,0,0)" stroke-linecap="butt" stroke-miterlimit="10.0"><path d="M 25.0000,219.3376 h 27.7778 l 13.8889,-24.0563 l 13.8889,24.0563 h 27.7778 l 13.8889,-24.0563 l -13.8889,-24.0563 h 27.7778 l 13.8889,-24.0563 l 13.8889,24.0563 h 27.7778 l -13.8889,24.0563 l 13.8889,24.0563 h 27.7778 l 13.8889,-24.0563 l 13.8889,24.0563 h 27.7778 "/></g><g stroke-linejoin="miter" stroke-opacity="1.0" fill-opacity="0.0" stroke="rgb(0,0,0)" stroke-width="0.5" fill="rgb(0,0,0)" stroke-linecap="butt" stroke-miterlimit="10.0"><path d="M 25.0000,219.3376 h 9.2593 l 4.6296,-8.0188 l 4.6296,8.0188 h 9.2593 l 4.6296,-8.0188 l -4.6296,-8.0188 h 9.2593 l 4.6296,-8.0188 l 4.6296,8.0188 h 9.2593 l -4.6296,8.0188 l 4.6296,8.0188 h 9.2593 l 4.6296,-8.0188 l 4.6296,8.0188 h 9.2593 l 4.6296,-8.0188 l -4.6296,-8.0188 l 9.2593,0.0000 l 4.6296,-8.0188 l -4.6296,-8.0188 l -9.2593,-0.0000 l 4.6296,-8.0188 l -4.6296,-8.0188 l 9.2593,0.0000 l 4.6296,-8.0188 l 4.6296,8.0188 l 9.2593,0.0000 l 4.6296,-8.0188 l -4.6296,-8.0188 l 9.2593,0.0000 l 4.6296,-8.0188 l 4.6296,8.0188 l 9.2593,-0.0000 l -4.6296,8.0188 l 4.6296,8.0188 l 9.2593,-0.0000 l 4.6296,-8.0188 l 4.6296,8.0188 l 9.2593,-0.0000 l -4.6296,8.0188 l 4.6296,8.0188 l -9.2593,0.0000 l -4.6296,8.0188 l 4.6296,8.0188 l 9.2593,-0.0000 l -4.6296,8.0188 l 4.6296,8.0188 h 9.2593 l 4.6296,-8.0188 l 4.6296,8.0188 h 9.2593 l 4.6296,-8.0188 l -4.6296,-8.0188 h 9.2593 l 4.6296,-8.0188 l 4.6296,8.0188 h 9.2593 l -4.6296,8.0188 l 4.6296,8.0188 h 9.2593 l 4.6296,-8.0188 l 4.6296,8.0188 h 9.2593 "/></g><g stroke-linejoin="miter" stroke-opacity="1.0" fill-opacity="0.0" opacity="0.2" stroke="rgb(0,0,0)" stroke-width="0.5" fill="rgb(0,0,0)" stroke-linecap="butt" stroke-miterlimit="10.0"><path d="M 325.0000,97.1688 h 250.0000 "/></g><g stroke-linejoin="miter" stroke-opacity="1.0" fill-opacity="0.0" stroke="rgb(0,0,0)" stroke-width="0.5" fill="rgb(0,0,0)" stroke-linecap="butt" stroke-miterlimit="10.0"><path d="M 325.0000,97.1688 h 83.3333 l 41.6667,-72.1688 l 41.6667,72.1688 h 83.3333 "/></g><g stroke-linejoin="miter" stroke-opacity="1.0" fill-opacity="0.0" stroke="rgb(0,0,0)" stroke-width="0.5" fill="rgb(0,0,0)" stroke-linecap="butt" stroke-miterlimit="10.0"><path d="M 25.0000,97.1688 h 250.0000 "/></g><g stroke-linejoin="miter" stroke-opacity="1.0" fill-opacity="0.0" stroke="rgb(0,0,0)" stroke-width="0.5" fill="rgb(0,0,0)" stroke-linecap="butt" stroke-miterlimit="10.0"><path d="M 277.3447,305.4220 h 40.6212 "/></g><g stroke-linejoin="miter" stroke-opacity="1.0" fill-opacity="1.0" stroke="rgb(0,0,0)" stroke-width="0.0" fill="rgb(0,0,0)" stroke-linecap="butt" stroke-miterlimit="10.0"></g><g stroke-linejoin="miter" stroke-opacity="1.0" fill-opacity="1.0" stroke="rgb(0,0,0)" stroke-width="0.0" fill="rgb(0,0,0)" stroke-linecap="butt" stroke-miterlimit="10.0"></g><g stroke-linejoin="miter" stroke-opacity="1.0" fill-opacity="1.0" stroke="rgb(0,0,0)" stroke-width="0.0" fill="rgb(0,0,0)" stroke-linecap="butt" stroke-miterlimit="10.0"><path d="M 322.6553,305.4220 l -5.4969,-1.7861 l 0.9390,1.7861 l -0.9390,1.7861 Z"/></g><g stroke-linejoin="miter" stroke-opacity="1.0" fill-opacity="1.0" stroke="rgb(0,0,0)" stroke-width="0.0" fill="rgb(0,0,0)" stroke-linecap="butt" stroke-miterlimit="10.0"><path d="M 318.0973,305.4220 h -0.1314 v -0.2500 l 0.1314,0.2500 h -0.1314 v 0.2500 Z"/></g><g stroke-linejoin="miter" stroke-opacity="1.0" fill-opacity="0.0" stroke="rgb(0,0,0)" stroke-width="0.5" fill="rgb(0,0,0)" stroke-linecap="butt" stroke-miterlimit="10.0"><path d="M 150.0000,221.6823 l 0.0000,40.6212 "/></g><g stroke-linejoin="miter" stroke-opacity="1.0" fill-opacity="1.0" stroke="rgb(0,0,0)" stroke-width="0.0" fill="rgb(0,0,0)" stroke-linecap="butt" stroke-miterlimit="10.0"></g><g stroke-linejoin="miter" stroke-opacity="1.0" fill-opacity="1.0" stroke="rgb(0,0,0)" stroke-width="0.0" fill="rgb(0,0,0)" stroke-linecap="butt" stroke-miterlimit="10.0"></g><g stroke-linejoin="miter" stroke-opacity="1.0" fill-opacity="1.0" stroke="rgb(0,0,0)" stroke-width="0.0" fill="rgb(0,0,0)" stroke-linecap="butt" stroke-miterlimit="10.0"><path d="M 150.0000,266.9929 l 1.7861,-5.4969 l -1.7861,0.9390 l -1.7861,-0.9390 Z"/></g><g stroke-linejoin="miter" stroke-opacity="1.0" fill-opacity="1.0" stroke="rgb(0,0,0)" stroke-width="0.0" fill="rgb(0,0,0)" stroke-linecap="butt" stroke-miterlimit="10.0"><path d="M 150.0000,262.4349 l -0.0000,-0.1314 l 0.2500,-0.0000 l -0.2500,0.1314 l -0.0000,-0.1314 l -0.2500,0.0000 Z"/></g><g stroke-linejoin="miter" stroke-opacity="1.0" fill-opacity="0.0" stroke="rgb(0,0,0)" stroke-width="0.5" fill="rgb(0,0,0)" stroke-linecap="butt" stroke-miterlimit="10.0"><path d="M 322.6553,183.2532 l -40.6212,0.0000 "/></g><g stroke-linejoin="miter" stroke-opacity="1.0" fill-opacity="1.0" stroke="rgb(0,0,0)" stroke-width="0.0" fill="rgb(0,0,0)" stroke-linecap="butt" stroke-miterlimit="10.0"></g><g stroke-linejoin="miter" stroke-opacity="1.0" fill-opacity="1.0" stroke="rgb(0,0,0)" stroke-width="0.0" fill="rgb(0,0,0)" stroke-linecap="butt" stroke-miterlimit="10.0"></g><g stroke-linejoin="miter" stroke-opacity="1.0" fill-opacity="1.0" stroke="rgb(0,0,0)" stroke-width="0.0" fill="rgb(0,0,0)" stroke-linecap="butt" stroke-miterlimit="10.0"><path d="M 277.3447,183.2532 l 5.4969,1.7861 l -0.9390,-1.7861 l 0.9390,-1.7861 Z"/></g><g stroke-linejoin="miter" stroke-opacity="1.0" fill-opacity="1.0" stroke="rgb(0,0,0)" stroke-width="0.0" fill="rgb(0,0,0)" stroke-linecap="butt" stroke-miterlimit="10.0"><path d="M 281.9027,183.2532 l 0.1314,-0.0000 l 0.0000,0.2500 l -0.1314,-0.2500 l 0.1314,-0.0000 l -0.0000,-0.2500 Z"/></g><g stroke-linejoin="miter" stroke-opacity="1.0" fill-opacity="0.0" stroke="rgb(0,0,0)" stroke-width="0.5" fill="rgb(0,0,0)" stroke-linecap="butt" stroke-miterlimit="10.0"><path d="M 450.0000,99.5135 l 0.0000,40.6212 "/></g><g stroke-linejoin="miter" stroke-opacity="1.0" fill-opacity="1.0" stroke="rgb(0,0,0)" stroke-width="0.0" fill="rgb(0,0,0)" stroke-linecap="butt" stroke-miterlimit="10.0"></g><g stroke-linejoin="miter" stroke-opacity="1.0" fill-opacity="1.0" stroke="rgb(0,0,0)" stroke-width="0.0" fill="rgb(0,0,0)" stroke-linecap="butt" stroke-miterlimit="10.0"></g><g stroke-linejoin="miter" stroke-opacity="1.0" fill-opacity="1.0" stroke="rgb(0,0,0)" stroke-width="0.0" fill="rgb(0,0,0)" stroke-linecap="butt" stroke-miterlimit="10.0"><path d="M 450.0000,144.8241 l 1.7861,-5.4969 l -1.7861,0.9390 l -1.7861,-0.9390 Z"/></g><g stroke-linejoin="miter" stroke-opacity="1.0" fill-opacity="1.0" stroke="rgb(0,0,0)" stroke-width="0.0" fill="rgb(0,0,0)" stroke-linecap="butt" stroke-miterlimit="10.0"><path d="M 450.0000,140.2661 l -0.0000,-0.1314 l 0.2500,-0.0000 l -0.2500,0.1314 l -0.0000,-0.1314 l -0.2500,0.0000 Z"/></g><g stroke-linejoin="miter" stroke-opacity="1.0" fill-opacity="0.0" stroke="rgb(0,0,0)" stroke-width="0.5" fill="rgb(0,0,0)" stroke-linecap="butt" stroke-miterlimit="10.0"><path d="M 277.3447,61.0844 h 40.6212 "/></g><g stroke-linejoin="miter" stroke-opacity="1.0" fill-opacity="1.0" stroke="rgb(0,0,0)" stroke-width="0.0" fill="rgb(0,0,0)" stroke-linecap="butt" stroke-miterlimit="10.0"></g><g stroke-linejoin="miter" stroke-opacity="1.0" fill-opacity="1.0" stroke="rgb(0,0,0)" stroke-width="0.0" fill="rgb(0,0,0)" stroke-linecap="butt" stroke-miterlimit="10.0"></g><g stroke-linejoin="miter" stroke-opacity="1.0" fill-opacity="1.0" stroke="rgb(0,0,0)" stroke-width="0.0" fill="rgb(0,0,0)" stroke-linecap="butt" stroke-miterlimit="10.0"><path d="M 322.6553,61.0844 l -5.4969,-1.7861 l 0.9390,1.7861 l -0.9390,1.7861 Z"/></g><g stroke-linejoin="miter" stroke-opacity="1.0" fill-opacity="1.0" stroke="rgb(0,0,0)" stroke-width="0.0" fill="rgb(0,0,0)" stroke-linecap="butt" stroke-miterlimit="10.0"><path d="M 318.0973,61.0844 h -0.1314 v -0.2500 l 0.1314,0.2500 h -0.1314 v 0.2500 Z"/></g></svg>